<?xml version="1.0" encoding="UTF-8" standalone="no"?>
<svg
   viewBox="0 0 988.74829 238.0601"
   preserveAspectRatio="xMidYMid meet"
   version="1.1"
   id="svg10"
   sodipodi:docname="title.svg"
   inkscape:version="1.1.1 (3bf5ae0d25, 2021-09-20)"
   width="988.74829"
   height="238.0601"
   xmlns:inkscape="http://www.inkscape.org/namespaces/inkscape"
   xmlns:sodipodi="http://sodipodi.sourceforge.net/DTD/sodipodi-0.dtd"
   xmlns:xlink="http://www.w3.org/1999/xlink"
   xmlns="http://www.w3.org/2000/svg"
   xmlns:svg="http://www.w3.org/2000/svg">
  <defs
     id="defs14">
    <radialGradient
       inkscape:collect="always"
       xlink:href="#linearGradient5006"
       id="radialGradient5008"
       cx="425.71161"
       cy="324.44061"
       fx="425.71161"
       fy="324.44061"
       r="333.70908"
       gradientTransform="matrix(0.00596806,0.22534732,-0.20282276,0.00522087,183.27565,-60.618863)"
       gradientUnits="userSpaceOnUse" />
    <linearGradient
       inkscape:collect="always"
       id="linearGradient5006">
      <stop
         style="stop-color:#f2f2f2;stop-opacity:1;"
         offset="0"
         id="stop5002" />
      <stop
         style="stop-color:#f2f2f2;stop-opacity:0;"
         offset="1"
         id="stop5004" />
    </linearGradient>
    <radialGradient
       inkscape:collect="always"
       xlink:href="#linearGradient1435"
       id="radialGradient4734"
       cx="471.62283"
       cy="647.70062"
       fx="471.62283"
       fy="647.70062"
       r="371.93942"
       gradientTransform="matrix(-0.25519657,-0.3728301,0.19877751,-0.13606038,122.84432,413.17291)"
       gradientUnits="userSpaceOnUse" />
    <linearGradient
       inkscape:collect="always"
       id="linearGradient1435">
      <stop
         style="stop-color:#ffcc00;stop-opacity:1"
         offset="0"
         id="stop1431" />
      <stop
         style="stop-color:#ff6600;stop-opacity:1"
         offset="1"
         id="stop1433" />
    </linearGradient>
    <radialGradient
       inkscape:collect="always"
       xlink:href="#linearGradient5837"
       id="radialGradient5831"
       cx="474.64444"
       cy="551.90454"
       fx="474.64444"
       fy="551.90454"
       r="519.20117"
       gradientTransform="matrix(1.1232271,-2.3650172,0.75351163,0.35786832,-474.3556,1469.3352)"
       gradientUnits="userSpaceOnUse" />
    <linearGradient
       inkscape:collect="always"
       id="linearGradient5837">
      <stop
         style="stop-color:#ffcc00;stop-opacity:1"
         offset="0"
         id="stop5833" />
      <stop
         style="stop-color:#d45500;stop-opacity:1"
         offset="1"
         id="stop5835" />
    </linearGradient>
    <radialGradient
       inkscape:collect="always"
       xlink:href="#linearGradient5837"
       id="radialGradient6111"
       gradientUnits="userSpaceOnUse"
       gradientTransform="matrix(1.1232271,-2.3650172,0.75351163,0.35786832,-474.3556,1469.3352)"
       cx="474.64444"
       cy="551.90454"
       fx="474.64444"
       fy="551.90454"
       r="519.20117" />
    <radialGradient
       inkscape:collect="always"
       xlink:href="#linearGradient5837"
       id="radialGradient6113"
       gradientUnits="userSpaceOnUse"
       gradientTransform="matrix(1.1232271,-2.3650172,0.75351163,0.35786832,-474.3556,1469.3352)"
       cx="474.64444"
       cy="551.90454"
       fx="474.64444"
       fy="551.90454"
       r="519.20117" />
  </defs>
  <sodipodi:namedview
     id="namedview12"
     pagecolor="#ffffff"
     bordercolor="#666666"
     borderopacity="1.0"
     inkscape:pageshadow="2"
     inkscape:pageopacity="0.0"
     inkscape:pagecheckerboard="0"
     showgrid="false"
     inkscape:zoom="0.873"
     inkscape:cx="340.20619"
     inkscape:cy="109.3929"
     inkscape:window-width="2229"
     inkscape:window-height="1353"
     inkscape:window-x="291"
     inkscape:window-y="541"
     inkscape:window-maximized="0"
     inkscape:current-layer="svg10" />
  <g
     aria-label="ICARUS Terminal"
     transform="matrix(1.1166378,0,0,1.0878462,-14.093177,-23.182723)"
     id="text2343-2"
     style="font-size:186.313px;letter-spacing:10.9168px;fill:#ffffff;stroke-width:0;stroke-miterlimit:4;stroke-dasharray:none">
    <path
       d="M 308.87858,28.081591 V 134.52017 H 294.41385 V 28.081591 Z"
       style="-inkscape-font-specification:'Euro Caps';fill:#ffffff;stroke-width:0;stroke-miterlimit:4;stroke-dasharray:none"
       id="path51767-6" />
    <path
       d="m 416.22692,97.039236 h 14.46473 q 0,4.002814 0,5.276444 0.091,13.1911 -2.00141,18.83144 -4.18477,11.55359 -18.6495,13.91889 -5.45839,0.90973 -27.38291,0.90973 -9.8251,0 -14.00987,-0.45486 -4.18476,-0.3639 -8.27855,-1.81947 -16.01128,-5.36741 -18.10366,-28.29264 -0.90973,-10.55289 -0.90973,-22.652318 0,-24.835669 1.18265,-32.568386 1.91044,-12.372348 13.00916,-18.558522 6.91396,-3.911846 18.46755,-4.639631 5.64033,-0.363892 20.46896,-0.363892 14.00986,0 19.55922,1.819463 12.5543,4.093791 15.10154,18.194629 0.90974,5.185469 0.90974,13.100133 0,0.909731 -0.091,2.911141 h -14.28278 q -0.091,-3.547953 -0.091,-4.639631 -0.18195,-12.918187 -4.36672,-15.9203 -3.63892,-2.638222 -16.83003,-2.638222 -17.46684,0 -25.10859,1.000705 -4.7306,0.636812 -7.36882,2.729194 -2.54725,2.001409 -3.91185,6.186174 -1.45557,4.548658 -1.45557,15.101542 0,37.480941 2.00141,46.760201 1.18265,6.00422 4.36671,8.4605 3.63893,2.82017 11.82651,3.18406 5.00353,0.18195 10.73483,0.18195 13.19111,0 19.28631,-0.81876 6.18618,-0.90973 8.4605,-3.09309 3.18406,-3.09309 3.18406,-13.91889 0,-3.54795 -0.18194,-8.187584 z"
       style="-inkscape-font-specification:'Euro Caps';fill:#ffffff;stroke-width:0;stroke-miterlimit:4;stroke-dasharray:none"
       id="path51769-1" />
    <path
       d="m 526.30444,112.50467 h -52.4915 l -8.36953,22.0155 H 450.06894 L 490.46102,28.081591 h 18.37658 l 41.21083,106.438579 h -15.28349 z m -4.7306,-12.1904 -21.74258,-56.858217 -21.37869,56.858217 z"
       style="-inkscape-font-specification:'Euro Caps';fill:#ffffff;stroke-width:0;stroke-miterlimit:4;stroke-dasharray:none"
       id="path51771-4" />
    <path
       d="M 575.70289,134.52017 V 28.081591 h 53.67415 q 14.19181,0 21.56064,4.821577 6.45909,4.184764 8.82439,12.73624 1.3646,5.094496 1.3646,13.373053 0,13.645972 -3.54795,19.832146 -3.7299,6.732012 -13.64597,7.641744 15.64738,1.000705 15.73835,20.196039 v 27.83778 h -14.46473 v -25.10859 q 0,-9.825096 -4.45768,-13.464022 -4.63964,-3.366006 -13.82792,-3.18406 h -36.75315 v 41.756672 z m 14.46473,-54.674859 h 35.29758 q 10.8258,0 15.64738,-2.91114 5.54936,-3.366007 5.54936,-13.736946 0,-14.100837 -2.54725,-17.739763 -3.18406,-4.457684 -14.64668,-4.457684 h -39.30039 z"
       style="-inkscape-font-specification:'Euro Caps';fill:#ffffff;stroke-width:0;stroke-miterlimit:4;stroke-dasharray:none"
       id="path51773-3" />
    <path
       d="m 764.92705,28.081591 h 14.46473 v 73.961169 q 0,13.64597 -3.00211,19.83214 -4.45769,9.37024 -16.01128,12.46333 -6.27714,1.63751 -24.28983,1.63751 -12.82721,0 -18.46754,-0.54584 -5.54937,-0.54584 -9.8251,-2.18335 -9.55218,-3.63893 -13.19111,-11.37165 -3.00211,-6.45909 -3.00211,-19.83214 V 28.081591 h 14.46473 v 73.961169 q 0,11.28067 1.91043,14.64668 2.45628,4.18476 9.55218,5.54936 4.27574,0.81876 16.46614,0.81876 17.92171,0 23.47107,-1.81947 5.0945,-1.63751 6.55007,-8.18758 0.90973,-3.63893 0.90973,-11.00775 z"
       style="-inkscape-font-specification:'Euro Caps';fill:#ffffff;stroke-width:0;stroke-miterlimit:4;stroke-dasharray:none"
       id="path51775-2" />
    <path
       d="m 893.19919,59.012461 h -14.46473 q 0,-7.550771 -0.63682,-10.643858 -1.18265,-6.004228 -7.45979,-7.732718 -4.00282,-1.091678 -14.28279,-1.091678 -14.46473,0 -18.64949,0.727786 -7.82369,1.273624 -10.00705,7.004932 -1.27362,3.456979 -1.27362,9.097314 0,7.186879 1.72849,11.007751 2.00141,4.275738 9.91607,5.276443 2.91114,0.363892 17.19393,0.909731 15.82932,0.636812 21.56063,1.72849 11.46262,2.365302 15.64738,11.189697 2.63822,5.640335 2.63822,17.466839 0,17.19393 -5.64033,23.56205 -5.82228,6.55007 -16.64809,7.64174 -8.27855,0.81876 -22.37939,0.81876 -17.10295,0 -22.92523,-1.81946 -13.64598,-4.36671 -15.64739,-21.0148 -0.45486,-3.54795 -0.63681,-13.464023 h 14.46473 q 0,3.093083 0,4.002823 0.091,7.82369 1.18265,11.55359 1.09168,3.63892 3.91185,5.54936 2.63822,1.81946 8.36953,2.00141 6.27715,0.27292 14.91959,0.27292 11.82651,0 16.73906,-0.90974 4.91255,-0.90973 7.09591,-3.54795 2.72919,-3.18406 2.72919,-16.01127 0,-6.186176 -1.36459,-9.18829 -1.81947,-4.275738 -9.00635,-5.185469 -3.54795,-0.454866 -17.92171,-1.000705 -14.28278,-0.636812 -18.01268,-1.091678 -11.91748,-1.728489 -17.55782,-9.097314 -4.82157,-6.186174 -4.82157,-19.104361 0,-18.558522 8.27855,-24.926642 6.36812,-4.91255 16.46614,-5.822281 7.18688,-0.545839 16.64809,-0.545839 18.10366,0 24.83567,2.274328 13.73694,4.548658 14.91959,21.833555 0.091,1.910436 0.091,8.278557 z"
       style="-inkscape-font-specification:'Euro Caps';fill:#ffffff;stroke-width:0;stroke-miterlimit:4;stroke-dasharray:none"
       id="path51777-54" />
    <path
       d="m 318.66521,165.56843 v 65.01449 h -10.14456 v -65.01449 h -24.69147 v -9.63414 h 59.33609 v 9.63414 z"
       style="-inkscape-font-specification:'Euro Caps';fill:#ffffff;stroke-width:0;stroke-miterlimit:4;stroke-dasharray:none"
       id="path51779-5" />
    <path
       d="m 361.22792,164.99421 v 22.586 h 38.91937 v 8.86851 H 361.22792 V 221.523 h 40.51443 v 9.05992 h -50.65899 v -74.64863 h 50.65899 v 9.05992 z"
       style="-inkscape-font-specification:'Euro Caps';fill:#ffffff;stroke-width:0;stroke-miterlimit:4;stroke-dasharray:none"
       id="path51781-4" />
    <path
       d="m 428.09929,230.58292 v -74.64863 h 37.64333 q 9.95315,0 15.12113,3.38152 4.52996,2.9349 6.18882,8.93232 0.95703,3.57292 0.95703,9.37893 0,9.57033 -2.48828,13.90889 -2.6159,4.72136 -9.57034,5.35939 10.97399,0.70182 11.03779,14.1641 v 19.52348 H 476.84421 V 212.9735 q 0,-6.89064 -3.12631,-9.44273 -3.25391,-2.36068 -9.69794,-2.23308 h -25.77611 v 29.28523 z m 10.14456,-38.34515 h 24.75527 q 7.59247,0 10.97399,-2.04167 3.89194,-2.36068 3.89194,-9.63414 0,-9.88935 -1.78647,-12.44144 -2.23307,-3.12631 -10.27216,-3.12631 h -27.56257 z"
       style="-inkscape-font-specification:'Euro Caps';fill:#ffffff;stroke-width:0;stroke-miterlimit:4;stroke-dasharray:none"
       id="path51783-2" />
    <path
       d="m 597.43707,155.93429 v 74.64863 h -10.14456 v -65.2697 l -26.86074,65.2697 h -9.57034 l -26.98835,-65.2697 v 65.2697 h -10.14456 v -74.64863 h 15.82296 l 25.96751,63.73845 25.90372,-63.73845 z"
       style="-inkscape-font-specification:'Euro Caps';fill:#ffffff;stroke-width:0;stroke-miterlimit:4;stroke-dasharray:none"
       id="path51785-92" />
    <path
       d="m 636.74588,155.93429 v 74.64863 h -10.14456 v -74.64863 z"
       style="-inkscape-font-specification:'Euro Caps';fill:#ffffff;stroke-width:0;stroke-miterlimit:4;stroke-dasharray:none"
       id="path51787-1" />
    <path
       d="m 732.00926,155.93429 v 74.64863 h -14.99353 l -40.96104,-65.2697 v 65.2697 h -10.14456 v -74.64863 h 14.92973 l 41.02484,65.2697 v -65.2697 z"
       style="-inkscape-font-specification:'Euro Caps';fill:#ffffff;stroke-width:0;stroke-miterlimit:4;stroke-dasharray:none"
       id="path51789-3" />
    <path
       d="m 806.72829,215.14278 h -36.8139 l -5.8698,15.44014 h -10.78258 l 28.3282,-74.64863 h 12.88805 l 28.90242,74.64863 H 812.6619 Z m -3.31771,-8.5495 -15.24874,-39.87641 -14.99353,39.87641 z"
       style="-inkscape-font-specification:'Euro Caps';fill:#ffffff;stroke-width:0;stroke-miterlimit:4;stroke-dasharray:none"
       id="path51791-8" />
    <path
       d="m 854.77801,155.93429 v 65.01449 h 39.42979 v 9.63414 h -49.57434 v -74.64863 z"
       style="-inkscape-font-specification:'Euro Caps';fill:#ffffff;stroke-width:0;stroke-miterlimit:4;stroke-dasharray:none"
       id="path51793-9" />
  </g>
  <g
     aria-label="ICARUS Terminal"
     transform="matrix(1.1166378,0,0,1.0878462,17.685478,-21.366063)"
     id="text2343-3"
     style="font-size:186.313px;letter-spacing:10.9168px;fill:#000000;stroke:#000000;stroke-width:3.312">
    <g
       id="path51767-5"
       transform="translate(-27.134672,-2.3210697)">
      <path
         style="color:#000000;-inkscape-font-specification:'Euro Caps';stroke:none;-inkscape-stroke:none"
         d="M 308.87858,28.081591 V 134.52017 H 294.41385 V 28.081591 Z"
         id="path52890" />
      <path
         style="color:#000000;-inkscape-font-specification:'Euro Caps';stroke:none;-inkscape-stroke:none"
         d="M 292.75781,26.425781 V 136.17578 h 17.77735 V 26.425781 h -1.65625 z m 3.3125,3.3125 h 11.15235 V 132.86328 h -11.15235 z"
         id="path52887" />
    </g>
    <g
       id="path51769-5"
       transform="translate(-27.134672,-2.3210697)">
      <path
         style="color:#000000;-inkscape-font-specification:'Euro Caps';stroke:none;-inkscape-stroke:none"
         d="m 416.22692,97.039236 h 14.46473 q 0,4.002814 0,5.276444 0.091,13.1911 -2.00141,18.83144 -4.18477,11.55359 -18.6495,13.91889 -5.45839,0.90973 -27.38291,0.90973 -9.8251,0 -14.00987,-0.45486 -4.18476,-0.3639 -8.27855,-1.81947 -16.01128,-5.36741 -18.10366,-28.29264 -0.90973,-10.55289 -0.90973,-22.652318 0,-24.835669 1.18265,-32.568386 1.91044,-12.372348 13.00916,-18.558522 6.91396,-3.911846 18.46755,-4.639631 5.64033,-0.363892 20.46896,-0.363892 14.00986,0 19.55922,1.819463 12.5543,4.093791 15.10154,18.194629 0.90974,5.185469 0.90974,13.100133 0,0.909731 -0.091,2.911141 h -14.28278 q -0.091,-3.547953 -0.091,-4.639631 -0.18195,-12.918187 -4.36672,-15.9203 -3.63892,-2.638222 -16.83003,-2.638222 -17.46684,0 -25.10859,1.000705 -4.7306,0.636812 -7.36882,2.729194 -2.54725,2.001409 -3.91185,6.186174 -1.45557,4.548658 -1.45557,15.101542 0,37.480941 2.00141,46.760201 1.18265,6.00422 4.36671,8.4605 3.63893,2.82017 11.82651,3.18406 5.00353,0.18195 10.73483,0.18195 13.19111,0 19.28631,-0.81876 6.18618,-0.90973 8.4605,-3.09309 3.18406,-3.09309 3.18406,-13.91889 0,-3.54795 -0.18194,-8.187584 z"
         id="path52884" />
      <path
         style="color:#000000;-inkscape-font-specification:'Euro Caps';stroke:none;-inkscape-stroke:none"
         d="m 394.48437,24.970703 c -9.89928,0 -16.7229,0.11859 -20.57617,0.367188 -7.86084,0.495589 -14.25299,2.068413 -19.16601,4.845703 -7.77394,4.333013 -12.49877,11.066887 -13.83985,19.751953 v 0.002 c -0.82848,5.417045 -1.20312,16.234978 -1.20312,32.818359 0,8.107781 0.30488,15.705712 0.91601,22.794924 l 0.002,0.004 v 0.004 c 1.42818,15.64788 7.89588,25.90905 19.21679,29.70899 2.84772,1.01074 5.73954,1.64555 8.66407,1.90039 0.002,1.7e-4 0.004,0.002 0.006,0.002 2.92968,0.31665 7.59498,0.46094 14.15429,0.46094 14.63924,0 23.66072,-0.26605 27.6543,-0.93164 10.03421,-1.642 16.94204,-6.74253 19.92969,-14.97656 v -0.002 c 1.54289,-4.16016 2.16601,-10.52919 2.10547,-19.40429 v -0.0117 -6.921881 h -16.1211 -1.72265 l 0.0684,1.720704 c 0.12064,3.076577 0.17968,5.786057 0.17968,8.123047 0,7.05231 -1.25022,11.33769 -2.67968,12.72852 -1.05995,1.0144 -3.58836,2.06214 -7.54688,2.64453 -7.5e-4,1.1e-4 -10e-4,-1.1e-4 -0.002,0 -3.9086,0.52357 -10.29623,0.80273 -19.04492,0.80273 -3.79847,0 -7.35299,-0.0615 -10.66211,-0.18164 -5.27968,-0.23465 -8.90688,-1.30503 -10.88477,-2.83789 l -0.002,-0.002 h -0.002 c -1.68452,-1.29949 -3.01165,-3.70237 -3.7539,-7.4707 l -0.002,-0.0137 -0.004,-0.0137 c -1.23739,-5.73697 -1.96289,-21.454317 -1.96289,-46.41211 0,-6.957954 0.52012,-11.917007 1.37695,-14.595703 1.4e-4,-4.46e-4 -1.4e-4,-0.0015 0,-0.002 0.83938,-2.568874 1.9892,-4.31364 3.35742,-5.388672 l 0.002,-0.002 0.004,-0.002 c 1.44534,-1.146301 3.60414,-1.986788 6.56055,-2.384766 4.93399,-0.645676 13.2772,-0.986328 24.88672,-0.986328 8.68366,0 14.20329,1.121605 15.85937,2.322266 l 0.002,0.0039 0.004,0.002 c 0.94249,0.676128 1.88229,2.127947 2.55274,4.572266 0.67044,2.444318 1.06364,5.807811 1.12304,10.02539 3.1e-4,0.777544 0.0313,2.30041 0.0918,4.658203 l 0.041,1.613282 h 17.48046 l 0.0703,-1.580079 c 0.0612,-1.345645 0.0937,-2.324625 0.0937,-2.986328 0,-5.339886 -0.30428,-9.788501 -0.93555,-13.386718 v -0.0039 -0.0039 c -1.77766,-9.840658 -7.34688,-16.581597 -16.2168,-19.474609 h -0.002 c -4.0917,-1.341166 -10.66179,-1.900391 -20.07227,-1.900391 z m 0,3.310547 c 9.26821,0 15.73543,0.65384 19.04297,1.738281 h 0.002 c 7.86811,2.565687 12.36779,7.954272 13.98632,16.914063 0.58093,3.314774 0.88282,7.597282 0.88282,12.80664 0,0.244119 -0.0275,0.855036 -0.0391,1.25586 H 417.3047 c -0.0254,-1.159837 -0.0586,-2.541831 -0.0586,-2.984375 V 58 57.988281 c -0.0619,-4.394537 -0.45705,-7.991073 -1.24218,-10.853515 -0.78482,-2.861312 -1.9664,-5.061272 -3.8125,-6.386719 -3.19643,-2.315038 -8.89739,-2.951172 -17.79883,-2.951172 -11.67618,0 -20.06671,0.327397 -25.32227,1.015625 h -0.004 -0.002 c -3.3482,0.45072 -6.10019,1.427353 -8.17187,3.068359 -7.1e-4,5.56e-4 -10e-4,0.0014 -0.002,0.002 -2.02499,1.591925 -3.48151,3.969101 -4.46093,6.972657 l -0.002,0.0039 v 0.0059 c -1.08367,3.386488 -1.53515,8.494082 -1.53515,15.605469 0,24.998453 0.6082,40.446435 2.03711,47.089845 0.83521,4.2317 2.41601,7.46763 4.97461,9.4414 2.87399,2.22628 7.12988,3.27687 12.76562,3.52735 l 0.006,0.002 h 0.008 c 3.35863,0.12213 6.95654,0.18164 10.79493,0.18164 8.82832,0 15.28617,-0.26521 19.50585,-0.83203 l 0.01,-0.002 0.0117,-0.002 c 4.28388,-0.62998 7.3908,-1.64164 9.36523,-3.53711 l 0.004,-0.002 0.004,-0.004 c 2.8153,-2.73486 3.68554,-7.72787 3.68554,-15.10742 0,-1.89448 -0.0681,-4.18885 -0.14453,-6.531246 h 11.11524 v 3.626956 0.004 c 0.06,8.70488 -0.65265,14.88595 -1.89844,18.24414 l -0.002,0.006 -0.002,0.008 c -2.59411,7.16199 -8.11492,11.33599 -17.35937,12.84766 h -0.002 -0.004 c -3.28427,0.54738 -12.51595,0.88867 -27.10938,0.88867 -6.5245,0 -11.18059,-0.15711 -13.83203,-0.44531 l -0.0176,-0.002 -0.0176,-0.002 c -2.64643,-0.23013 -5.26478,-0.80516 -7.86719,-1.73047 l -0.0137,-0.004 -0.0137,-0.006 c -10.01913,-3.35868 -15.61783,-11.9563 -16.98046,-26.86523 -0.60184,-6.981299 -0.9043,-14.484995 -0.9043,-22.509769 0,-16.528087 0.41592,-27.420048 1.16406,-32.314453 v -0.0039 c 1.20689,-7.809346 5.15457,-13.446774 12.17774,-17.361328 l 0.006,-0.002 0.004,-0.0039 c 4.30353,-2.43489 10.21858,-3.952945 17.75586,-4.427734 h 0.002 c 3.66717,-0.236591 10.49109,-0.361328 20.36328,-0.361328 z"
         id="path52881" />
    </g>
    <g
       id="path51771-6"
       transform="translate(-27.134672,-2.3210697)">
      <path
         style="color:#000000;-inkscape-font-specification:'Euro Caps';stroke:none;-inkscape-stroke:none"
         d="m 526.30444,112.50467 h -52.4915 l -8.36953,22.0155 H 450.06894 L 490.46102,28.081591 h 18.37658 l 41.21083,106.438579 h -15.28349 z m -4.7306,-12.1904 -21.74258,-56.858217 -21.37869,56.858217 z"
         id="path52878" />
      <path
         style="color:#000000;-inkscape-font-specification:'Euro Caps';stroke:none;-inkscape-stroke:none"
         d="M 489.31836,26.425781 447.66992,136.17578 h 18.91602 l 8.36914,-22.01562 h 50.21094 l 8.46093,22.01562 h 18.83789 L 509.97266,26.425781 Z m 2.28516,3.3125 h 16.0996 l 39.92774,103.124999 h -11.72852 l -8.46093,-22.01367 h -1.13672 -53.63477 l -8.36914,22.01367 h -11.83203 z m 8.21484,9.046875 -23.75781,63.185544 h 47.91992 l -0.85938,-2.248044 z m 0.0254,9.339844 19.32422,50.533203 h -38.32422 z"
         id="path52875" />
    </g>
    <g
       id="path51773-7"
       transform="translate(-27.134672,-2.3210697)">
      <path
         style="color:#000000;-inkscape-font-specification:'Euro Caps';stroke:none;-inkscape-stroke:none"
         d="M 575.70289,134.52017 V 28.081591 h 53.67415 q 14.19181,0 21.56064,4.821577 6.45909,4.184764 8.82439,12.73624 1.3646,5.094496 1.3646,13.373053 0,13.645972 -3.54795,19.832146 -3.7299,6.732012 -13.64597,7.641744 15.64738,1.000705 15.73835,20.196039 v 27.83778 h -14.46473 v -25.10859 q 0,-9.825096 -4.45768,-13.464022 -4.63964,-3.366006 -13.82792,-3.18406 h -36.75315 v 41.756672 z m 14.46473,-54.674859 h 35.29758 q 10.8258,0 15.64738,-2.91114 5.54936,-3.366007 5.54936,-13.736946 0,-14.100837 -2.54725,-17.739763 -3.18406,-4.457684 -14.64668,-4.457684 h -39.30039 z"
         id="path52872" />
      <path
         style="color:#000000;-inkscape-font-specification:'Euro Caps';stroke:none;-inkscape-stroke:none"
         d="M 574.04687,26.425781 V 136.17578 h 1.65625 16.1211 V 94.419922 h 35.11328 0.0156 c 5.88637,-0.116562 10.10981,0.928865 12.77344,2.839844 2.38911,1.971857 3.82422,5.877614 3.82422,12.152344 v 26.76367 h 17.77539 v -29.49805 -0.004 c -0.0314,-6.62335 -1.39425,-11.891402 -4.32812,-15.656252 -1.58947,-2.039659 -3.66424,-3.536184 -6.08399,-4.576172 3.53063,-1.424113 6.35214,-3.623859 8.10742,-6.787109 2.62181,-4.579896 3.76172,-11.409903 3.76172,-20.642578 0,-5.610022 -0.45413,-10.187905 -1.42187,-13.800782 l -0.002,-0.0059 -0.002,-0.0078 c -1.6609,-6.004814 -4.85626,-10.660007 -9.51367,-13.679688 l -0.002,-0.002 c -5.32,-3.48011 -12.81739,-5.089844 -22.46485,-5.089844 z m 3.3125,3.3125 h 52.01758 c 9.27366,0 16.14933,1.603089 20.6543,4.550781 l 0.002,0.002 0.004,0.002 c 3.94887,2.558422 6.63229,6.388366 8.125,11.777343 0.85145,3.179632 1.30859,7.514278 1.30859,12.941407 0,8.953786 -1.22427,15.341502 -3.32812,19.009765 l -0.006,0.0098 -0.006,0.01172 c -2.20043,3.971497 -6.09016,6.22066 -12.34961,6.794922 l 0.0449,3.300781 c 4.87938,0.312053 8.24635,1.946906 10.5586,4.914062 2.31224,2.967157 3.6016,7.463188 3.63085,13.636718 v 26.17383 h -11.15234 v -23.45117 c 0,-6.8005 -1.52903,-11.860395 -5.06641,-14.74805 l -0.0371,-0.0293 -0.0391,-0.02734 c -3.51902,-2.55301 -8.48337,-3.621052 -14.80078,-3.5 h -38.4082 v 41.75586 h -11.15235 z m 11.15235,9.605469 v 42.158203 h 1.65625 35.29687 c 7.36563,0 12.82006,-0.926182 16.50391,-3.150391 h 0.002 v -0.002 c 4.34437,-2.635112 6.34766,-7.943023 6.34766,-15.152343 0,-4.750133 -0.21221,-8.641873 -0.6543,-11.720704 -0.44209,-3.07883 -1.05614,-5.344153 -2.19336,-6.96875 l -0.004,-0.0059 -0.004,-0.0078 c -2.669,-3.736608 -8.13773,-5.150391 -15.99414,-5.150391 z m 3.3125,3.3125 h 37.64453 c 7.42033,0 11.71306,1.554028 13.29297,3.757812 0.56022,0.804142 1.21882,2.704434 1.625,5.533204 0.40699,2.834417 0.61914,6.599583 0.61914,11.25 0,6.618584 -1.69719,10.467419 -4.75195,12.320312 -2.74533,1.656609 -7.72199,2.671875 -14.78907,2.671875 h -33.64062 z"
         id="path52869" />
    </g>
    <g
       id="path51775-4"
       transform="translate(-27.134672,-2.3210697)">
      <path
         style="color:#000000;-inkscape-font-specification:'Euro Caps';stroke:none;-inkscape-stroke:none"
         d="m 764.92705,28.081591 h 14.46473 v 73.961169 q 0,13.64597 -3.00211,19.83214 -4.45769,9.37024 -16.01128,12.46333 -6.27714,1.63751 -24.28983,1.63751 -12.82721,0 -18.46754,-0.54584 -5.54937,-0.54584 -9.8251,-2.18335 -9.55218,-3.63893 -13.19111,-11.37165 -3.00211,-6.45909 -3.00211,-19.83214 V 28.081591 h 14.46473 v 73.961169 q 0,11.28067 1.91043,14.64668 2.45628,4.18476 9.55218,5.54936 4.27574,0.81876 16.46614,0.81876 17.92171,0 23.47107,-1.81947 5.0945,-1.63751 6.55007,-8.18758 0.90973,-3.63893 0.90973,-11.00775 z"
         id="path52866" />
      <path
         style="color:#000000;-inkscape-font-specification:'Euro Caps';stroke:none;-inkscape-stroke:none"
         d="m 689.94727,26.425781 v 75.617189 c 0,9.03927 0.97072,15.82711 3.15625,20.5293 l 0.002,0.004 v 0.004 c 2.62104,5.5697 7.43416,9.67488 14.10156,12.21484 3.0156,1.15444 6.43469,1.90774 10.25195,2.2832 h 0.002 c 3.88001,0.37549 10.052,0.55274 18.62695,0.55274 12.05863,0 20.14987,-0.50012 24.70898,-1.68945 l 0.004,-0.002 0.006,-0.002 c 8.04969,-2.15504 13.89112,-6.66229 17.07227,-13.33984 l 0.002,-0.006 c 2.20844,-4.55436 3.16602,-11.33356 3.16601,-20.54883 V 26.425781 h -17.77539 v 1.65625 73.960939 c 0,4.84439 -0.31863,8.43467 -0.86132,10.60547 l -0.004,0.0215 -0.006,0.0215 c -0.88797,3.99585 -2.61178,6.06181 -5.43945,6.9707 h -0.006 l -0.004,0.002 c -3.19808,1.04856 -11.06332,1.73828 -22.95508,1.73828 -8.08985,0 -13.58932,-0.29789 -16.15429,-0.78906 -4.44867,-0.85551 -7.09836,-2.49936 -8.42578,-4.75 -0.88078,-1.55752 -1.69336,-6.39951 -1.69336,-13.82031 V 26.425781 Z m 3.31054,3.3125 h 11.1543 v 72.304689 c 0,7.61392 0.45939,12.53018 2.125,15.46484 l 0.006,0.01 0.006,0.01 c 1.95014,3.32245 5.66389,5.37557 10.66797,6.33789 h 0.002 c 3.13601,0.60052 8.61334,0.84766 16.77734,0.84766 11.99769,0 19.77595,-0.52261 23.97852,-1.89844 3.95561,-1.27144 6.59259,-4.65302 7.65039,-9.37304 0.66882,-2.68055 0.95898,-6.42281 0.95898,-11.39844 V 29.738281 h 11.15235 v 72.304689 c 0,8.97586 -1.04335,15.41555 -2.83594,19.10937 l -0.004,0.006 -0.002,0.006 c -2.76349,5.80897 -7.59417,9.60629 -14.94336,11.57422 -6.3e-4,1.7e-4 -10e-4,-1.7e-4 -0.002,0 -3.81356,0.99282 -11.91099,1.58203 -23.86133,1.58203 -8.52707,0 -14.66413,-0.18683 -18.30469,-0.53906 h -0.002 c -3.57941,-0.35222 -6.70867,-1.05415 -9.39258,-2.08203 h -0.002 -0.002 c -6.06543,-2.31064 -10.04577,-5.78499 -12.27735,-10.52149 l -0.002,-0.004 c -6.3e-4,-10e-4 -10e-4,-0.003 -0.002,-0.004 -1.81526,-3.9106 -2.84571,-10.34078 -2.84571,-19.12695 z"
         id="path52863" />
    </g>
    <g
       id="path51777-5"
       transform="translate(-27.134672,-2.3210697)">
      <path
         style="color:#000000;-inkscape-font-specification:'Euro Caps';stroke:none;-inkscape-stroke:none"
         d="m 893.19919,59.012461 h -14.46473 q 0,-7.550771 -0.63682,-10.643858 -1.18265,-6.004228 -7.45979,-7.732718 -4.00282,-1.091678 -14.28279,-1.091678 -14.46473,0 -18.64949,0.727786 -7.82369,1.273624 -10.00705,7.004932 -1.27362,3.456979 -1.27362,9.097314 0,7.186879 1.72849,11.007751 2.00141,4.275738 9.91607,5.276443 2.91114,0.363892 17.19393,0.909731 15.82932,0.636812 21.56063,1.72849 11.46262,2.365302 15.64738,11.189697 2.63822,5.640335 2.63822,17.466839 0,17.19393 -5.64033,23.56205 -5.82228,6.55007 -16.64809,7.64174 -8.27855,0.81876 -22.37939,0.81876 -17.10295,0 -22.92523,-1.81946 -13.64598,-4.36671 -15.64739,-21.0148 -0.45486,-3.54795 -0.63681,-13.464023 h 14.46473 q 0,3.093083 0,4.002823 0.091,7.82369 1.18265,11.55359 1.09168,3.63892 3.91185,5.54936 2.63822,1.81946 8.36953,2.00141 6.27715,0.27292 14.91959,0.27292 11.82651,0 16.73906,-0.90974 4.91255,-0.90973 7.09591,-3.54795 2.72919,-3.18406 2.72919,-16.01127 0,-6.186176 -1.36459,-9.18829 -1.81947,-4.275738 -9.00635,-5.185469 -3.54795,-0.454866 -17.92171,-1.000705 -14.28278,-0.636812 -18.01268,-1.091678 -11.91748,-1.728489 -17.55782,-9.097314 -4.82157,-6.186174 -4.82157,-19.104361 0,-18.558522 8.27855,-24.926642 6.36812,-4.91255 16.46614,-5.822281 7.18688,-0.545839 16.64809,-0.545839 18.10366,0 24.83567,2.274328 13.73694,4.548658 14.91959,21.833555 0.091,1.910436 0.091,8.278557 z"
         id="path52860" />
      <path
         style="color:#000000;-inkscape-font-specification:'Euro Caps';stroke:none;-inkscape-stroke:none"
         d="m 853.35352,24.970703 c -6.33932,0 -11.92748,0.182733 -16.77344,0.550781 h -0.0117 l -0.0117,0.002 c -6.96524,0.6275 -12.78699,2.655807 -17.32812,6.158204 -6.13524,4.719417 -8.92383,13.61971 -8.92383,26.238281 0,8.815998 1.61377,15.554257 5.16992,20.11914 8.6e-4,0.0011 10e-4,0.0028 0.002,0.0039 4.06475,5.302708 10.39221,8.524681 18.625,9.71875 l 0.0195,0.002 0.0176,0.002 c 2.64655,0.32275 8.60766,0.678479 18.14063,1.103516 h 0.004 0.006 c 9.57023,0.363426 15.60505,0.710282 17.77344,0.988281 h 0.002 0.002 c 4.48785,0.568082 6.7675,2.024833 7.68945,4.191406 l 0.008,0.01758 0.01,0.01953 c 0.73241,1.611323 1.21484,4.499604 1.21484,8.501948 0,4.21701 -0.22795,7.61455 -0.6582,10.13867 -0.43025,2.52413 -1.11969,4.15071 -1.67188,4.79492 l -0.01,0.0117 -0.008,0.0117 c -1.12623,1.36087 -3.08664,2.41232 -6.12304,2.97461 -3.04108,0.56317 -8.59563,0.88281 -16.4375,0.88281 -5.74419,0 -10.69585,-0.091 -14.84766,-0.27148 l -0.01,-0.002 h -0.01 c -3.65395,-0.116 -6.16179,-0.79956 -7.48047,-1.70899 l -0.006,-0.004 -0.006,-0.004 c -1.55805,-1.05546 -2.61598,-2.52788 -3.2539,-4.6543 -0.64118,-2.19693 -1.05261,-5.95457 -1.11328,-11.07812 v -0.0195 -5.638681 h -17.8086 l 0.0312,1.685547 c 0.12166,6.630504 0.32611,11.109554 0.65039,13.640634 10e-5,7.2e-4 -9e-5,0.003 0,0.004 1.38813,11.51758 7.13193,19.29378 16.78516,22.38281 h 0.006 l 0.006,0.002 c 4.32214,1.35066 11.95729,1.89453 23.41797,1.89453 9.4326,0 16.9323,-0.27127 22.54296,-0.82617 h 0.002 0.002 c 7.51667,-0.75798 13.52899,-3.47597 17.71875,-8.18946 l 0.002,-0.002 c 4.2507,-4.79917 6.05665,-13.01647 6.05664,-24.66015 0,-8.007476 -0.84791,-14.005406 -2.79492,-18.167979 l -0.002,-0.0039 -0.002,-0.0039 C 890.95061,79.417243 885.16,75.326946 877.15813,73.675768 l -0.0117,-0.0039 -0.0117,-0.002 c -4.03801,-0.769144 -11.22187,-1.330113 -21.80469,-1.75586 h -0.002 -0.002 c -9.51102,-0.363478 -15.33695,-0.684546 -17.04883,-0.898437 h -0.002 c -4.99257,-0.631594 -7.61158,-2.195737 -8.61523,-4.326172 -0.98959,-2.192417 -1.58008,-5.66123 -1.58008,-10.314453 0,-3.629846 0.42404,-6.483757 1.16992,-8.513672 1.23695,-3.239958 3.87302,-5.165921 8.7207,-5.955078 l 0.01,-0.002 h 0.01 c 2.47252,-0.430004 8.74987,-0.703125 18.36524,-0.703125 6.79469,0 11.52434,0.400104 13.8457,1.033203 3.73415,1.029424 5.58487,2.9692 6.27149,6.455078 l 0.002,0.0059 0.002,0.0078 c 0.37088,1.80137 0.60156,5.321306 0.60156,10.308594 v 1.65625 h 16.1211 1.65625 v -1.65625 c 0,-4.253298 -0.0289,-6.996452 -0.0937,-8.357422 v -0.01563 l -0.002,-0.01758 C 893.94249,38.676278 888.45104,30.559073 878.71875,27.332031 873.8043,25.671745 865.49196,24.970703 853.35352,24.970703 Z m 0,3.310547 c 11.99974,0 20.24313,0.815352 24.30468,2.1875 l 0.006,0.002 0.004,0.002 c 8.57102,2.838088 13.02108,9.270736 13.78515,20.353516 0.0449,0.949174 0.0621,3.629716 0.0723,6.53125 h -11.17383 c -0.0439,-4.104052 -0.21567,-7.290278 -0.63281,-9.31836 -0.8928,-4.51267 -4.01203,-7.725457 -8.64063,-9 h -0.002 -0.002 c -3.01573,-0.82247 -7.80683,-1.15039 -14.71875,-1.15039 -9.66824,0 -15.8217,0.211908 -18.92969,0.751953 -5.57281,0.910894 -9.60157,3.653116 -11.27539,8.046875 l -0.002,0.0078 -0.004,0.0098 c -0.95008,2.578792 -1.375,5.785058 -1.375,9.669922 0,4.924007 0.56197,8.786961 1.875,11.689453 l 0.004,0.0098 0.006,0.0098 c 1.66856,3.564663 5.65663,5.515022 11.20703,6.216797 h 0.002 c 2.17014,0.271268 7.80434,0.557669 17.33399,0.921875 10.51914,0.423184 17.70553,1.015061 21.31054,1.701172 10e-4,2.46e-4 0.005,-2.46e-4 0.006,0 7.26407,1.504533 11.89582,4.869986 14.45703,10.265625 1.57023,3.358031 2.48243,9.003531 2.48242,16.763682 0,11.28152 -1.95291,18.77319 -5.22265,22.46484 -3.57318,4.01867 -8.65963,6.39432 -15.57617,7.09179 -5.4271,0.53656 -12.84629,0.81054 -22.21289,0.81054 -11.33517,0 -18.9755,-0.66825 -22.41993,-1.74219 -8.53787,-2.73211 -13.22472,-8.96183 -14.50781,-19.63475 l -0.002,-0.006 v -0.006 c -0.24621,-1.92047 -0.41583,-6.31288 -0.54297,-11.59767 h 11.07227 v 2.35547 0.01 c 0.0615,5.28974 0.43804,9.22575 1.25,12 l 0.002,0.006 v 0.004 c 0.81678,2.72261 2.36598,4.94768 4.56445,6.43946 2.19862,1.51417 5.26703,2.1645 9.25195,2.29101 4.21425,0.1829 9.19918,0.27343 14.97071,0.27343 7.92679,0 13.53203,-0.28768 17.04101,-0.9375 3.50854,-0.64973 6.27537,-1.96017 8.06055,-4.11133 1.26104,-1.47789 1.9358,-3.57505 2.41406,-6.38085 0.47948,-2.81297 0.70508,-6.36085 0.70508,-10.69531 0,-4.237202 -0.42765,-7.465423 -1.50976,-9.855473 -1.50999,-3.519999 -5.2238,-5.516357 -10.30665,-6.160156 h -0.002 c -2.56265,-0.328452 -8.47267,-0.649353 -18.0664,-1.013672 l 0.01,0.002 c -9.50135,-0.423627 -15.53745,-0.796444 -17.86914,-1.080078 -7.63865,-1.112024 -13.0064,-3.950302 -16.45898,-8.460938 l -0.006,-0.0059 -0.004,-0.0059 c -2.87079,-3.683287 -4.47266,-9.681802 -4.47266,-18.08789 0,-12.126101 2.73,-19.841881 7.63282,-23.613281 h 0.002 v -0.002 c 3.94727,-3.045038 9.10095,-4.896009 15.59375,-5.482421 4.7339,-0.359145 10.23933,-0.541016 16.50977,-0.541016 z"
         id="path52857" />
    </g>
    <g
       id="path51779-9"
       transform="translate(-27.134672,-2.3210697)">
      <path
         style="color:#000000;-inkscape-font-specification:'Euro Caps';stroke:none;-inkscape-stroke:none"
         d="m 318.66521,165.56843 v 65.01449 h -10.14456 v -65.01449 h -24.69147 v -9.63414 h 59.33609 v 9.63414 z"
         id="path52854" />
      <path
         style="color:#000000;-inkscape-font-specification:'Euro Caps';stroke:none;-inkscape-stroke:none"
         d="m 282.17383,154.27734 v 12.94727 h 24.6914 v 65.01367 h 13.45508 v -65.01367 h 24.5 v -12.94727 z m 3.31054,3.3125 h 56.0254 v 6.32227 h -24.5 v 1.65625 63.35937 h -6.83399 v -65.01562 h -24.69141 z"
         id="path52851" />
    </g>
    <g
       id="path51781-9"
       transform="translate(-27.134672,-2.3210697)">
      <path
         style="color:#000000;-inkscape-font-specification:'Euro Caps';stroke:none;-inkscape-stroke:none"
         d="m 361.22792,164.99421 v 22.586 h 38.91937 v 8.86851 H 361.22792 V 221.523 h 40.51443 v 9.05992 h -50.65899 v -74.64863 h 50.65899 v 9.05992 z"
         id="path52848" />
      <path
         style="color:#000000;-inkscape-font-specification:'Euro Caps';stroke:none;-inkscape-stroke:none"
         d="m 349.42773,154.27734 v 77.96094 h 53.97071 v -12.37109 h -40.51367 v -21.76172 h 38.91796 v -12.18164 h -38.91796 v -19.27344 h 40.51367 v -12.37305 z m 3.3125,3.3125 h 47.34571 v 5.74805 h -40.51367 v 1.65625 24.24219 h 38.91992 v 5.55664 h -38.91992 v 28.38672 h 40.51367 v 5.74804 h -47.34571 z"
         id="path52845" />
    </g>
    <g
       id="path51783-7"
       transform="translate(-27.134672,-2.3210697)">
      <path
         style="color:#000000;-inkscape-font-specification:'Euro Caps';stroke:none;-inkscape-stroke:none"
         d="m 428.09929,230.58292 v -74.64863 h 37.64333 q 9.95315,0 15.12113,3.38152 4.52996,2.9349 6.18882,8.93232 0.95703,3.57292 0.95703,9.37893 0,9.57033 -2.48828,13.90889 -2.6159,4.72136 -9.57034,5.35939 10.97399,0.70182 11.03779,14.1641 v 19.52348 H 476.84421 V 212.9735 q 0,-6.89064 -3.12631,-9.44273 -3.25391,-2.36068 -9.69794,-2.23308 h -25.77611 v 29.28523 z m 10.14456,-38.34515 h 24.75527 q 7.59247,0 10.97399,-2.04167 3.89194,-2.36068 3.89194,-9.63414 0,-9.88935 -1.78647,-12.44144 -2.23307,-3.12631 -10.27216,-3.12631 h -27.56257 z"
         id="path52842" />
      <path
         style="color:#000000;-inkscape-font-specification:'Euro Caps';stroke:none;-inkscape-stroke:none"
         d="m 426.44336,154.27734 v 77.96094 h 1.65625 11.80078 v -29.28516 h 24.13672 0.0156 c 4.06317,-0.0805 6.91004,0.65426 8.65039,1.9004 1.49783,1.25121 2.48438,3.81119 2.48438,8.11914 v 19.26562 h 13.45703 v -21.18359 -0.004 c -0.0223,-4.71233 -0.99018,-8.52172 -3.14062,-11.28125 -0.94228,-1.20916 -2.14047,-2.13595 -3.48633,-2.86523 2.10865,-1.0493 3.82315,-2.53822 4.94336,-4.55274 1.9173,-3.34798 2.70508,-8.20553 2.70508,-14.72461 0,-3.96165 -0.31765,-7.20814 -1.01368,-9.80664 l -0.002,-0.008 -0.002,-0.006 c -1.18996,-4.30214 -3.50757,-7.69049 -6.87891,-9.87695 l -0.002,-0.002 c -3.85274,-2.52005 -9.20369,-3.65039 -16.02539,-3.65039 z m 3.3125,3.3125 h 35.98633 c 6.44789,0 11.17711,1.12368 14.21484,3.11133 l 0.004,0.002 0.002,0.002 c 2.6638,1.72584 4.4707,4.29015 5.49219,7.97851 0.57889,2.1649 0.89844,5.16755 0.89844,8.94336 0,6.2367 -0.87212,10.64942 -2.26954,13.08594 l -0.006,0.01 -0.006,0.01 c -1.45776,2.63107 -3.98841,4.12055 -8.27344,4.51367 l 0.0469,3.30274 c 3.32158,0.21242 5.51611,1.29402 7.04492,3.25586 1.52882,1.96183 2.42121,4.9992 2.44141,9.26172 v 17.86132 H 478.5 v -15.95507 c 0,-4.8442 -1.08458,-8.56152 -3.73438,-10.72461 l -0.0371,-0.0293 -0.0391,-0.0293 c -2.60133,-1.88724 -6.19949,-2.63605 -10.70312,-2.54687 h -27.39844 v 29.28515 h -6.83203 z m 6.83203,5.74805 v 30.55664 H 438.24414 463 c 5.21008,0 9.10432,-0.63669 11.82812,-2.28125 h 0.002 l 0.002,-0.002 c 3.23943,-1.9649 4.68945,-5.90449 4.68945,-11.04883 0,-3.3463 -0.14759,-6.09524 -0.46289,-8.29102 -0.31529,-2.19577 -0.73942,-3.83924 -1.62304,-5.10156 l -0.004,-0.006 -0.006,-0.006 c -2.03501,-2.84903 -6.04509,-3.82031 -11.61914,-3.82031 z m 3.3125,3.3125 h 25.90625 c 5.13841,0 7.97207,1.11243 8.91797,2.42969 0.30739,0.4423 0.77522,1.71581 1.05469,3.66211 0.28019,1.95136 0.42968,4.57372 0.42968,7.82031 0,4.5536 -1.14392,7.03412 -3.09375,8.2168 -1.78521,1.07726 -5.20313,1.80273 -10.11523,1.80273 h -23.09961 z"
         id="path52839" />
    </g>
    <g
       id="path51785-9"
       transform="translate(-27.134672,-2.3210697)">
      <path
         style="color:#000000;-inkscape-font-specification:'Euro Caps';stroke:none;-inkscape-stroke:none"
         d="m 597.43707,155.93429 v 74.64863 h -10.14456 v -65.2697 l -26.86074,65.2697 h -9.57034 l -26.98835,-65.2697 v 65.2697 h -10.14456 v -74.64863 h 15.82296 l 25.96751,63.73845 25.90372,-63.73845 z"
         id="path52836" />
      <path
         style="color:#000000;-inkscape-font-specification:'Euro Caps';stroke:none;-inkscape-stroke:none"
         d="m 512.07227,154.27734 v 77.96094 H 525.5293 V 173.6543 l 24.22461,58.58398 h 11.78711 l 24.0957,-58.54883 v 58.54883 h 13.45703 v -77.96094 h -1.65625 -17.12891 l -24.79101,61.00196 -24.85352,-61.00196 z m 3.3125,3.3125 h 13.05273 l 27.08398,66.47657 27.01563,-66.47657 h 13.24414 v 71.33789 h -6.83203 V 165.3125 l -3.1875,-0.62891 -26.43945,64.24414 h -7.35352 l -26.56445,-64.24804 -3.1875,0.63281 v 63.61523 h -6.83203 z"
         id="path52833" />
    </g>
    <g
       id="path51787-3"
       transform="translate(-27.134672,-2.3210697)">
      <path
         style="color:#000000;-inkscape-font-specification:'Euro Caps';stroke:none;-inkscape-stroke:none"
         d="m 636.74588,155.93429 v 74.64863 h -10.14456 v -74.64863 z"
         id="path52830" />
      <path
         style="color:#000000;-inkscape-font-specification:'Euro Caps';stroke:none;-inkscape-stroke:none"
         d="m 624.94531,154.27734 v 77.96094 h 13.45703 v -77.96094 h -1.65625 z m 3.3125,3.3125 h 6.83203 v 71.33789 h -6.83203 z"
         id="path52827" />
    </g>
    <g
       id="path51789-2"
       transform="translate(-27.134672,-2.3210697)">
      <path
         style="color:#000000;-inkscape-font-specification:'Euro Caps';stroke:none;-inkscape-stroke:none"
         d="m 732.00926,155.93429 v 74.64863 h -14.99353 l -40.96104,-65.2697 v 65.2697 h -10.14456 v -74.64863 h 14.92973 l 41.02484,65.2697 v -65.2697 z"
         id="path52824" />
      <path
         style="color:#000000;-inkscape-font-specification:'Euro Caps';stroke:none;-inkscape-stroke:none"
         d="m 664.25391,154.27734 v 77.96094 h 13.45703 v -61.17187 l 38.38867,61.17187 h 17.56641 v -77.96094 h -1.65625 -11.80079 v 61.17969 l -38.45312,-61.17969 z m 3.3125,3.3125 h 12.35742 l 43.59765,69.36133 v -69.36133 h 6.83204 v 71.33789 h -12.42188 l -43.5332,-69.36914 v 69.36914 h -6.83203 z"
         id="path52821" />
    </g>
    <g
       id="path51791-5"
       transform="translate(-27.134672,-2.3210697)">
      <path
         style="color:#000000;-inkscape-font-specification:'Euro Caps';stroke:none;-inkscape-stroke:none"
         d="m 806.72829,215.14278 h -36.8139 l -5.8698,15.44014 h -10.78258 l 28.3282,-74.64863 h 12.88805 l 28.90242,74.64863 H 812.6619 Z m -3.31771,-8.5495 -15.24874,-39.87641 -14.99353,39.87641 z"
         id="path52818" />
      <path
         style="color:#000000;-inkscape-font-specification:'Euro Caps';stroke:none;-inkscape-stroke:none"
         d="m 780.44727,154.27734 -29.58399,77.96094 h 14.32422 l 5.86914,-15.43945 h 34.5332 l 5.9336,15.43945 h 14.27343 l -30.18359,-77.96094 z m 2.28515,3.3125 h 10.61133 l 27.61914,71.33789 h -7.16406 l -5.9336,-15.4414 h -1.13671 -37.95704 l -5.86914,15.4414 h -7.24023 z m 5.41602,4.45703 -17.3711,46.20313 h 35.03907 l -0.85938,-2.24805 z m 0.0254,9.33985 12.83008,33.55078 h -25.44336 z"
         id="path52815" />
    </g>
    <g
       id="path51793-5"
       transform="translate(-27.134672,-2.3210697)">
      <path
         style="color:#000000;-inkscape-font-specification:'Euro Caps';stroke:none;-inkscape-stroke:none"
         d="m 854.77801,155.93429 v 65.01449 h 39.42979 v 9.63414 h -49.57434 v -74.64863 z"
         id="path52812" />
      <path
         style="color:#000000;-inkscape-font-specification:'Euro Caps';stroke:none;-inkscape-stroke:none"
         d="m 842.97656,154.27734 v 77.96094 h 52.88672 v -12.94531 h -39.42969 v -65.01563 h -1.65625 z m 3.3125,3.3125 h 6.83203 v 65.01563 h 39.43164 v 6.32226 h -46.26367 z"
         id="path52809" />
    </g>
  </g>
  <g
     id="g52937"
     transform="matrix(1.1638705,0,0,1.1638705,-19.133448,-14.955039)">
    <g
       id="path845-8"
       style="fill:url(#radialGradient5831);fill-opacity:1"
       transform="matrix(0.23613406,0,0,0.23613406,19.8699,-4.3773164)">
      <path
         style="color:#000000;fill:url(#radialGradient6111);fill-opacity:1;fill-rule:evenodd;stroke-width:80;-inkscape-stroke:none;paint-order:fill markers stroke"
         d="m 407.94916,130.80266 c -211.00698,4e-5 -382.477167,171.47015 -382.477167,382.47714 0,101.43207 40.302984,198.73129 112.026257,270.45459 71.72327,71.72336 169.01885,112.02437 270.45091,112.02447 h 0.0517 0.0518 c 32.82714,-0.1717 65.40141,-4.65364 96.97542,-13.11421 l -0.8104,-2.51183 a 371.93942,379.42059 0 0 0 35.59952,-11.07823 l 9.49063,29.87023 c 2.09182,4.68948 186.42618,-75.77261 186.42618,-75.77261 l 41.39497,-97.31712 -84.75972,39.0393 a 371.93942,379.42059 0 0 0 29.66076,-39.14955 l 57.50423,-26.20077 37.22387,-102.28385 -44.60138,20.85917 a 371.93942,379.42059 0 0 0 5.83954,-27.38961 l 40.86392,-18.79385 40.33657,-112.38453 -72.75171,34.13872 a 371.93942,379.42059 0 0 0 -2.07638,-24.49742 l 77.20213,-35.85493 44.39375,-125.54832 -144.2907,67.7758 a 371.93942,379.42059 0 0 0 -8.85303,-21.42512 l 155.53615,-72.61759 47.05627,-134.19371 -260.13341,116.0926 a 371.93942,379.42059 0 0 0 -16.01188,-17.68217 l 57.58692,-25.07254 -69.78051,13.1013 a 371.93942,379.42059 0 0 0 -31.96496,-26.89901 l 1.22376,-0.2205 C 570.9575,157.94432 491.06263,130.80548 407.95095,130.80266 Z"
         id="path5747" />
      <path
         style="color:#000000;fill:url(#radialGradient6113);fill-opacity:1;fill-rule:evenodd;-inkscape-stroke:none;paint-order:fill markers stroke"
         d="m 1023.875,72.953125 -288.18555,128.611325 -6.21484,-20.23047 -48.02734,9.01758 -21.22266,-15.80469 C 588.03944,120.79176 499.77143,90.80585 407.95312,90.802734 h -0.002 -0.002 C 175.2724,90.802778 -14.527344,280.60246 -14.527344,513.2793 c 0,112.02768 44.526792,219.52481 123.742184,298.74023 79.21519,79.21528 186.70725,123.74013 298.73438,123.74024 H 408 h 0.1582 l 0.10352,-0.002 c 36.3294,-0.19002 72.31284,-5.14987 107.11914,-14.47656 l 0.6875,-0.18359 c 7.09862,10.6337 17.56,15.128 23.08594,16.61328 6.45858,1.73595 9.76147,1.47411 12.30664,1.38281 5.09033,-0.18259 7.10943,-0.77932 9.11914,-1.23438 4.01941,-0.91011 6.75763,-1.81681 10.01758,-2.90625 6.51989,-2.17886 14.20651,-5.07872 23.31054,-8.64453 18.20807,-7.13162 41.6004,-16.81966 64.92969,-26.65039 46.65858,-19.66145 92.89844,-39.8457 92.89844,-39.8457 l 14.58008,-6.36523 88.16796,-207.28125 -15.57617,7.17382 48.51367,-133.30664 -8.94335,4.18164 50.89453,-141.79882 -8.84375,4.15039 55.05078,-155.68946 -8.47852,3.98242 z M 407.94922,170.80273 h 0.002 c 66.55665,0.003 130.77684,19.49094 185.50977,54.8086 l 17.64648,13.23633 c 9.94059,7.45624 19.47,15.47486 28.54297,24.01953 l 6.3457,5.97461 4.48828,4.65234 c 4.93205,5.11124 9.7041,10.38227 14.31055,15.80469 l 19.41016,22.84765 202.74804,-90.48242 -10.77148,30.7168 -175.99609,82.16992 16.14648,35.95508 c 2.83445,6.31195 5.47882,12.71226 7.92969,19.19141 l 15.29297,40.42968 96.79492,-45.46484 -6.88281,19.46289 -88.18555,40.95508 3.35742,28.73633 c 0.85299,7.29877 1.47354,14.62448 1.86133,21.96484 l 3.13672,59.3457 39.38476,-18.48047 -2.13476,5.94727 -44.66016,20.53906 -3.62695,20.66016 c -1.44793,8.24759 -3.19395,16.43642 -5.23438,24.55078 l -19.38671,77.09375 -18.99415,8.6543 -6.33593,9.59375 c -8.08965,12.25276 -16.94999,23.94876 -26.52539,35.01367 l 41.20898,54.82812 c -12.26289,5.3343 -37.73671,16.47045 -75.55859,32.40821 -19.27641,8.12288 -37.075,15.38841 -52.79883,21.67773 l -9.70508,-30.54492 -39.26367,14.44726 c -10.40562,3.82841 -20.9907,7.12193 -31.71484,9.86915 l -41.19922,10.55273 0.15039,0.46484 c -15.01725,2.11294 -30.16184,3.27413 -45.35742,3.35547 C 317.0713,855.74061 229.99918,819.66528 165.7832,755.44922 101.5522,691.21819 65.472656,604.11555 65.472656,513.2793 c 0,-189.33672 153.139844,-342.47653 342.476564,-342.47657 z"
         id="path5749" />
    </g>
    <ellipse
       style="fill:url(#radialGradient4734);fill-opacity:1;fill-rule:evenodd;stroke-width:8.40158;stroke-dasharray:25.2049, 8.40158;paint-order:fill markers stroke"
       id="path845"
       cx="118.1133"
       cy="116.52352"
       rx="87.827553"
       ry="89.594131" />
    <ellipse
       style="fill:url(#radialGradient5008);fill-opacity:1;fill-rule:evenodd;stroke:none;stroke-width:5.80095;stroke-miterlimit:4;stroke-dasharray:none;stroke-dashoffset:0;stroke-opacity:1;paint-order:fill markers stroke"
       id="path4868"
       cx="117.03116"
       cy="92.975197"
       rx="78.800087"
       ry="66.750542" />
    <path
       id="path951-1"
       style="fill:#000000;stroke-width:0.0672796"
       d="m 87.710524,47.848327 -1.152814,3.628082 -6.907498,21.739719 -24.62435,8.319186 24.62435,8.319193 8.060312,25.367783 8.060144,-25.367783 24.624232,-8.319193 c 1.54193,0.01267 1.34995,-0.470102 -24.624232,-8.319186 z"
       sodipodi:nodetypes="cccccccccc" />
    <path
       id="path16357"
       style="color:#000000;fill:#000000;fill-rule:evenodd;stroke-width:0.218477;-inkscape-stroke:none;paint-order:fill markers stroke"
       d="m 116.45377,25.888516 c -49.825929,6e-6 -90.316088,40.490159 -90.316088,90.316084 0,23.95157 9.516826,46.92708 26.453146,63.86338 16.936306,16.93632 39.911396,26.45271 63.862942,26.45272 h 0.0119 0.0119 c 7.75161,-0.0406 15.44379,-1.09885 22.89949,-3.09666 l -2.82015,-8.748 c -6.55534,1.72339 -13.30862,2.64367 -20.11648,2.68018 -21.519764,-0.003 -42.152658,-8.55166 -57.369683,-23.7687 C 43.850653,158.36736 35.30212,137.72916 35.30212,116.2046 c -6e-6,-44.873156 36.278444,-81.152017 81.15161,-81.152025 14.54616,4.89e-4 28.61654,3.922355 40.88027,11.092803 l 13.04842,-2.351616 C 154.9452,32.297771 136.07928,25.889179 116.45377,25.888516 Z"
       sodipodi:nodetypes="cssscccccsscccc" />
    <path
       id="path7520-2"
       style="fill:#000000;fill-opacity:1;fill-rule:evenodd;stroke-width:15.3883;paint-order:fill markers stroke"
       d="M 245.72853,30.258721 161.75927,67.73229 v -6.067366 l 32.36016,-14.088627 -43.78592,8.220665 -19.09739,55.025918 -56.813919,19.19405 56.813919,19.19443 18.59687,58.52915 c 0.49393,1.10733 44.0215,-17.89224 44.0215,-17.89224 l 9.77486,-22.97997 -41.87008,19.28537 v -6.16256 l 42.43821,-19.3357 8.78989,-24.15276 -51.2281,23.95705 v -6.14825 l 51.72426,-23.7887 9.52484,-26.53793 -62.04172,29.11363 0.79262,-6.59602 61.80989,-28.707279 10.4827,-29.646443 -72.29259,33.957152 v -6.143606 l 72.85762,-34.015977 z"
       sodipodi:nodetypes="ccccccccccccccccccccccccccc" />
  </g>
</svg>
