<?xml version="1.0" encoding="UTF-8"?>
<svg viewBox="0 0 1000 1000" preserveAspectRatio="xMidYMid meet">
  <g
   id="g46"
   transform="matrix(0.53006405,0,0,0.53006405,-47.346813,-59.667317)">
      <path fill="#000000"
   d="m 777.6,301.333 c 24.801,-0.8 42.667,10.133 61.601,17.066 112,41.333 223.2,84.267 334.934,125.333 38.399,14.133 79.733,13.6 119.733,15.733 56.533,2.934 109.333,19.467 163.199,33.6 7.734,1.867 13.867,6.667 19.467,12.8 63.2,71.733 126.667,143.2 189.867,214.667 27.199,30.667 44,68 64.8,102.667 51.2,85.066 100.267,170.934 150.667,256.267 9.066,15.2 11.467,28.533 5.333,46.667 -30.667,93.866 -59.733,188.533 -89.067,282.933 -8.533,26.934 -35.199,35.2 -53.333,52 -18.667,17.067 -41.6,29.334 -59.466,47.2 -34.4,33.867 -78.667,28.533 -120,33.334 -65.335,7.466 -131.202,10.4 -196.535,18.4 -35.2,4.267 -66.667,23.2 -99.733,36.267 -98.133,38.934 -196.267,77.867 -293.6,118.934 -32,13.333 -58.4,-1.867 -85.867,-8.8 -87.467,-22.4 -174.133,-47.467 -261.066,-71.2 -15.733,-4.267 -26.133,-11.733 -32.533,-28 -50.4,-126.4 -121.6,-241.334 -192.8,-356.533 -35.467,-57.334 -67.467,-116.533 -101.601,-174.4 -9.866,-16.8 -13.066,-35.467 -14.667,-54.133 -8.533,-89.334 -17.6,-178.4 -29.333,-267.2 -1.867,-14.4 0.267,-28.267 7.466,-41.867 59.467,-111.733 118.667,-223.733 177.334,-336 8.8,-17.067 21.066,-26.667 39.732,-29.333 49.334,-7.467 98.4,-15.467 147.734,-23.2 45.066,-7.2 89.866,-14.4 134.933,-21.333 4.801,-1.069 10.668,-1.602 12.801,-1.869 z m 161.334,1362.934 c 12.8,0.8 19.733,-1.333 26.666,-4 89.867,-36 180.268,-70.667 269.601,-108.533 70.399,-29.867 141.333,-52.267 219.2,-53.6 54.666,-1.067 109.333,-9.601 164.267,-14.4 7.466,-0.8 13.866,-3.2 20,-7.733 32,-24.8 64,-49.601 96.267,-74.134 8.267,-6.399 13.333,-14.133 16.533,-24.533 25.6,-82.666 50.934,-165.6 78.4,-247.733 5.6,-16.8 2.666,-28.533 -5.334,-42.399 -43.467,-73.601 -86.4,-147.2 -129.6,-220.801 -21.6,-36.8 -40,-76.267 -66.934,-108.8 -57.333,-68.8 -118.4,-133.6 -177.6,-200.267 -8.267,-9.333 -17.867,-14.933 -30.4,-18.933 -58.4,-18.667 -118.4,-24 -178.934,-29.067 -28.267,-2.399 -57.333,-4 -85.066,-14.666 C 1037.867,449.333 919.2,405.6 800.8,361.6 c -10.133,-3.733 -20.267,-4.8 -31.733,-3.2 -82.666,13.067 -165.6,25.067 -248.267,38.133 -14.667,2.4 -29.866,4 -38.399,20.267 C 428,521.333 372.8,625.601 317.867,729.866 c -3.467,6.4 -6.134,13.067 -5.334,20.801 9.334,85.6 18.134,170.933 28,256.533 1.867,15.467 1.066,31.467 9.867,46.4 30.133,51.199 59.467,102.666 89.066,154.133 C 496.267,1305.866 564,1397.866 607.2,1504 c 8.533,20.8 18.399,41.066 27.2,61.6 5.066,11.733 12.267,19.2 26.133,22.934 66.4,17.333 132.267,36.533 198.134,54.667 28.267,7.466 56.8,14.933 80.267,21.066 z"
   id="path32" />
      <path fill="#000000"
   d="m 229.867,1710.134 c -26.667,-2.4 -52.533,-18.667 -81.333,-25.334 -29.333,-6.934 -38.4,-24 -41.333,-53.866 -4.8,-48.534 5.333,-91.2 29.6,-132.267 9.867,-16.801 17.867,-34.4 20,-54.667 1.867,-17.866 12,-28.8 31.733,-32.8 30.4,-6.4 59.733,-16.8 89.6,-24.8 6.933,-1.867 15.2,-3.733 21.333,-1.334 32.8,13.334 67.2,25.334 93.333,49.334 30.934,28.267 57.601,61.066 86.4,91.733 14.133,15.199 16.8,29.866 5.066,48.8 -14.934,24 -26.934,49.6 -40,74.399 -4.533,8.801 -10.934,15.2 -21.066,17.334 -58.934,14.133 -117.867,28.267 -177.067,42.133 -4,1.067 -8.533,0.801 -16.266,1.335 z M 286.4,1440 c -24.267,6.667 -47.2,12.8 -69.867,19.467 -5.066,1.333 -8.533,5.333 -9.6,10.933 -6.4,27.2 -19.733,51.467 -33.333,75.2 -14.667,25.334 -10.934,51.733 -10.934,78.134 0,3.2 1.333,9.066 3.467,9.6 26.933,8 50.933,28.533 81.867,21.066 44.267,-10.666 88.267,-21.333 132.533,-31.466 17.6,-4 50.4,-46.667 49.334,-64.8 -0.268,-5.601 -3.467,-9.334 -6.934,-13.067 -20,-21.866 -38.134,-45.866 -60.533,-65.066 -21.6,-19.468 -49.067,-30.135 -76,-40.001 z"
   id="path34" />
      <path fill="#000000"
   d="m 1530.667,264.8 c 11.2,35.2 -16,63.2 -32.8,94.4 -5.334,9.866 -16.268,13.6 -27.467,15.2 -25.867,3.467 -51.2,9.067 -75.467,17.867 -20.533,7.467 -39.2,6.667 -57.066,-7.467 -12.533,-9.866 -25.867,-18.667 -39.733,-26.4 -18.934,-10.4 -24.534,-25.6 -20.267,-45.333 5.6,-26.933 12.533,-53.333 17.6,-80.267 3.467,-17.6 15.2,-25.333 30.4,-30.133 22.934,-7.2 45.066,-15.2 64.8,-29.333 23.2,-16.8 46.134,-1.6 69.066,0.8 10.667,1.067 21.333,4.534 31.2,8.534 38.667,15.199 39.467,17.065 39.734,82.132 z m -52.267,-0.267 c -0.801,-32.8 -1.066,-32.8 -32.533,-40 -18.934,-4.267 -36.533,-4.533 -53.334,8.8 -7.733,6.133 -18.4,8 -27.199,12.533 -7.467,3.733 -19.467,3.467 -20.801,13.333 -2.399,18.667 -12.8,35.733 -9.6,55.2 0.267,1.867 1.866,4 3.467,5.333 16.8,12.8 32.8,26.4 56.533,16 11.733,-5.067 24.8,-8 37.333,-10.667 32.267,-6.932 46.934,-25.865 46.134,-60.532 z"
   id="path36" />
      <path fill="#000000"
   d="m 1637.334,1615.2 c 30.666,9.333 67.466,19.467 103.732,31.733 9.601,3.2 15.2,13.066 15.2,24.533 0,8 -1.333,16.533 1.067,23.733 16.8,51.733 -16,86.4 -41.601,123.2 -11.2,16 -27.2,23.733 -47.466,16 -3.201,-1.333 -7.201,-2.4 -10.667,-1.867 -46.4,5.601 -74.4,-23.733 -102.4,-53.333 -5.333,-5.6 -8.8,-11.2 -8.533,-19.2 2.134,-51.733 11.2,-100.533 57.066,-133.6 8.268,-6.132 16.535,-11.465 33.602,-11.199 z m 67.199,101.6 c 4.267,-18.934 -3.199,-30.4 -24.267,-33.333 -10.667,-1.333 -20.8,-5.867 -30.933,-9.067 -8.268,-2.399 -15.467,-1.066 -22.667,3.467 -29.601,19.467 -29.333,76.801 1.866,92.801 15.467,8 36.801,17.6 50.667,4 14.401,-13.868 29.601,-32.001 25.334,-57.868 z"
   id="path38" />
      <path fill="#000000"
   d="m 1027.467,1414.667 c -244.267,-1.867 -419.2,-184.267 -420,-420.533 -0.8,-216.801 182.934,-411.733 419.467,-407.467 224.533,4 412.267,169.866 413.333,425.066 1.067,211.201 -178.934,405.6 -412.8,402.934 z m 358.4,-403.467 c 1.066,-218.934 -166.667,-366.934 -358.934,-370.667 -193.334,-4 -367.467,165.333 -365.601,353.601 1.867,202.666 156,369.333 372,367.732 194.935,-1.599 356.002,-168.8 352.535,-350.666 z"
   id="path40" />
      <path
        fill="#000000"
        d="m 1605.066,1164.267 c -56.266,5.867 -87.199,-33.333 -82.133,-74.4 3.2,-25.866 18.934,-44.8 45.066,-52.533 21.066,-6.133 42.667,-8 64.533,-7.199 28,1.066 51.734,19.732 58.667,46.399 7.733,29.867 -4.267,61.867 -28.533,76 -18.399,10.666 -38.133,13.067 -57.6,11.733 z m -2.666,-55.734 c 9.6,0 16,0.267 22.666,0 8,-0.533 14.667,-4.533 14.134,-13.066 -0.533,-8.267 -7.2,-12.533 -15.467,-12 -7.2,0.533 -14.399,1.333 -21.333,3.733 -9.066,2.934 -26.4,-3.2 -24.533,13.066 1.866,14.401 17.866,6.134 24.533,8.267 z"
        id="path42" />
      <path
        fill="#000000"
        d="M 1028.8,1234.4 C 897.333,1242.933 788.267,1132.799 789.867,1005.066 791.733,864 885.333,770.933 1018.933,766.667 c 125.333,-4 240.8,93.866 244.267,230.133 3.467,119.467 -99.467,244.533 -234.4,237.6 z m -2.667,-413.334 c -101.6,-3.467 -181.866,76.267 -183.199,187.733 -1.066,75.467 77.6,172 176.8,174.4 104.533,2.399 189.6,-86.134 189.866,-181.334 -0.267,-107.731 -99.733,-186.132 -183.467,-180.799 z"
        id="path44" />
    </g>
    <rect
      x="-671.16302"
      y="-337.17096"
      transform="rotate(-164.36548)"
      fill="#000000"
      width="128.62848"
      height="29.54258"
      id="rect48"
      style="stroke-width:40"
    />
</svg>