<?xml version="1.0" encoding="UTF-8" standalone="no"?>
<svg
   viewBox="0 0 1000 1000"
   preserveAspectRatio="xMidYMid meet"
   version="1.1"
   id="svg4"
   sodipodi:docname="barrel.svg"
   inkscape:version="1.1.1 (3bf5ae0d25, 2021-09-20)"
   xmlns:inkscape="http://www.inkscape.org/namespaces/inkscape"
   xmlns:sodipodi="http://sodipodi.sourceforge.net/DTD/sodipodi-0.dtd"
   xmlns="http://www.w3.org/2000/svg"
   xmlns:svg="http://www.w3.org/2000/svg">
  <defs
     id="defs8" />
  <sodipodi:namedview
     id="namedview6"
     pagecolor="#ffffff"
     bordercolor="#666666"
     borderopacity="1.0"
     inkscape:pageshadow="2"
     inkscape:pageopacity="0.0"
     inkscape:pagecheckerboard="0"
     showgrid="false"
     inkscape:zoom="0.4365"
     inkscape:cx="269.18671"
     inkscape:cy="502.86369"
     inkscape:window-width="1680"
     inkscape:window-height="949"
     inkscape:window-x="1231"
     inkscape:window-y="570"
     inkscape:window-maximized="0"
     inkscape:current-layer="svg4" />
  <path
     id="path949"
     style="color:#000000;fill:#000000;fill-rule:evenodd;stroke-width:1.18913;-inkscape-stroke:none;paint-order:fill markers stroke"
     d="m 499.42676,7.0789031 c -92.47187,0 -176.13651,6.4696599 -237.77167,17.2063029 -30.81757,5.368442 -56.02562,11.672859 -75.08524,19.522536 -9.52978,3.924957 -17.58646,8.127827 -24.46107,13.980122 -6.87464,5.852186 -13.49827,14.836759 -13.49827,26.278908 0,11.442033 6.62363,20.424588 13.49827,26.276828 0.6247,0.5318 1.31194,0.98551 1.95638,1.49108 v 106.0173 55.62889 c -0.64444,0.5056 -1.32961,0.95925 -1.95432,1.49107 -6.87462,5.85224 -13.49826,14.83471 -13.49826,26.27683 0,11.44216 6.62364,20.42873 13.49826,26.28098 0.62471,0.53179 1.30988,0.98551 1.95432,1.49107 v 133.6177 c -0.64444,0.50558 -1.33168,0.95926 -1.95638,1.49108 -6.87464,5.85224 -13.49827,14.83472 -13.49827,26.27684 0,11.44215 6.62363,20.42873 13.49827,26.28097 0.6247,0.5318 1.31194,0.98549 1.95638,1.49107 v 100.60104 h -0.002 v 55.62889 c -0.64444,0.5056 -1.32962,0.95925 -1.95432,1.49107 -6.87463,5.85224 -13.49826,14.83471 -13.49826,26.27684 0,11.44215 6.62363,20.42872 13.49826,26.28097 0.6247,0.53179 1.30988,0.98549 1.95432,1.49107 -1.5e-4,-1.2e-4 0.002,1.2e-4 0.002,0 v 161.65446 c -0.64444,0.50559 -1.33168,0.95927 -1.95638,1.49108 -6.87464,5.85223 -13.49827,14.83676 -13.49827,26.2789 0,11.44214 6.62363,20.42666 13.49827,26.27891 6.87461,5.85225 14.93129,10.0532 24.46107,13.97805 19.05962,7.84966 44.26767,14.15626 75.08524,19.5246 61.63516,10.7367 145.2998,17.2042 237.77167,17.20424 92.47189,0 176.13444,-6.46754 237.7696,-17.20424 30.81757,-5.36834 56.02564,-11.67494 75.08525,-19.5246 9.52985,-3.92485 17.58855,-8.1258 24.46313,-13.97805 6.87469,-5.85225 13.49827,-14.83677 13.49827,-26.27891 0,-9.97746 -5.08626,-17.94238 -10.93386,-23.73519 V 725.91356 c 5.8476,-5.7928 10.93179,-13.75976 10.93179,-23.73724 0,-9.97776 -5.08387,-17.94281 -10.93179,-23.73519 V 618.77952 514.14368 c 5.8476,-5.7928 10.93386,-13.75975 10.93386,-23.73724 0,-9.97775 -5.08605,-17.9428 -10.93386,-23.73519 V 324.9881 l 0.002,-0.002 c 5.8476,-5.7928 10.93179,-13.75976 10.93179,-23.73725 0,-9.97775 -5.08387,-17.9428 -10.93179,-23.73518 v -59.66161 h -0.002 V 107.93638 h -0.1365 c 5.90584,-5.80113 11.07036,-13.814213 11.07036,-23.869608 0,-11.442149 -6.62358,-20.426722 -13.49827,-26.278908 C 829.87016,51.935571 821.81146,47.7327 812.28161,43.807742 793.222,35.958065 768.01393,29.653647 737.19636,24.285206 675.5612,13.548563 591.89865,7.0789031 499.42676,7.0789031 Z m 0,38.4453329 c 90.66225,0 172.79638,6.464017 231.17454,16.63345 29.18908,5.084595 52.54297,11.224404 67.04254,17.195957 4.01685,1.654441 7.13139,3.262812 9.62477,4.711054 -2.49359,1.448474 -5.60718,3.05639 -9.62477,4.711054 -14.49957,5.971571 -37.85346,12.111299 -67.04254,17.195969 -58.37816,10.16935 -140.51229,16.63551 -231.17454,16.63551 -90.66224,0 -172.79638,-6.46616 -231.17454,-16.63551 -29.18908,-5.08467 -52.54095,-11.224398 -67.04046,-17.195969 -4.01757,-1.654664 -7.13326,-3.26258 -9.62685,-4.711054 2.49342,-1.448242 5.61004,-3.056613 9.62685,-4.711054 14.4995,-5.971553 37.85138,-12.111362 67.04046,-17.195957 58.37816,-10.169433 140.5123,-16.63345 231.17454,-16.63345 z m 298.56038,84.015154 c -0.0577,29.37517 0.012,49.81753 0,88.31259 0.018,23.14947 0,87.95275 0,87.95275 -0.10705,0.0447 -0.19122,0.0882 -0.2916,0.13235 v 1.52416 c -24.29551,5.13864 -47.08417,12.15972 -67.09424,15.69662 -58.37819,10.16936 -140.51229,16.63345 -231.17454,16.63345 -90.66224,0 -172.79431,-6.46409 -231.17247,-16.63345 -26.74912,-4.65963 -48.24046,-10.20594 -62.86504,-15.69662 v -89.60926 h -0.002 v -86.9518 c 15.92255,4.90461 34.62527,9.17599 56.26792,12.94608 61.63516,10.73671 145.2998,17.20424 237.77167,17.20424 92.47189,0 176.13444,-6.46753 237.7696,-17.20424 23.66361,-4.12215 43.98619,-8.80492 60.79078,-14.30687 z m 0,217.18407 c 0.0307,55.81883 0,148.23892 0,148.23892 -0.10737,0.0447 -0.19122,0.0882 -0.2916,0.13236 v 1.52416 c -24.29553,5.13865 -47.08419,12.15971 -67.09424,15.69661 -58.37816,10.16935 -140.51229,16.63346 -231.17454,16.63346 -90.66224,0 -172.79638,-6.46411 -231.17454,-16.63346 -26.74912,-4.65962 -48.24047,-10.20595 -62.86505,-15.69661 V 348.08425 c 0,0 0.002,0 0.002,0 15.92255,4.9046 34.62527,9.17599 56.26791,12.94609 61.63516,10.73669 145.29773,17.20424 237.7696,17.20424 92.47189,0 176.13443,-6.46755 237.7696,-17.20424 23.66367,-4.12216 43.98627,-8.8049 60.79078,-14.30688 z m 0,189.15766 c 0,0 0.0797,61.8437 0.12408,82.8984 h -0.12616 c 0.018,23.14946 0,87.95274 0,87.95274 -0.10705,0.0447 -0.19121,0.0882 -0.29159,0.13236 v 1.52416 c -24.29551,5.13864 -47.08418,12.15972 -67.09424,15.69662 -58.37814,10.16935 -140.51233,16.63345 -231.17453,16.63345 -90.66225,0 -172.79432,-6.4641 -231.17248,-16.63345 -26.74912,-4.65963 -48.24047,-10.20596 -62.86505,-15.69662 v -89.60926 h -0.90167 l 0.90167,-81.53761 c 15.92255,4.90462 34.62528,9.17599 56.26792,12.94608 61.63516,10.73671 145.2998,17.20424 237.77167,17.20424 92.47189,0 176.13444,-6.46753 237.7696,-17.20424 23.66365,-4.12215 43.98618,-8.80491 60.79078,-14.30687 z m 0.31848,211.6003 c 0.12667,73.59001 0.26443,117.62887 0.2523,167.62703 3.48266,1.48812 6.45407,2.95153 8.71069,4.26228 -2.49359,1.44845 -5.60718,3.05851 -9.62477,4.71313 -14.49957,5.97161 -37.85346,12.11129 -67.04254,17.19596 -58.37816,10.16934 -140.51229,16.63344 -231.17454,16.63344 -90.66224,0 -172.79638,-6.4641 -231.17454,-16.63344 -29.18908,-5.08467 -52.54095,-11.22435 -67.04046,-17.19596 -4.01757,-1.65463 -7.13326,-3.26468 -9.62685,-4.71313 2.49342,-1.44826 5.61004,-3.05464 9.62685,-4.70898 l 1.8447,-166.75017 c 0.24257,0.11511 2.33071,1.10021 2.33071,1.10021 15.92255,4.9046 34.62528,9.17599 56.26792,12.94609 61.63516,10.73669 145.29773,17.20423 237.76961,17.20423 92.47193,0 176.13443,-6.46754 237.76959,-17.20423 23.66366,-4.12217 43.98626,-8.80491 60.79077,-14.30688 z" />
</svg>
