<?xml version="1.0" encoding="UTF-8" standalone="no"?>
<svg
   viewBox="0 0 1000 1000"
   preserveAspectRatio="xMidYMid meet"
   version="1.1"
   id="svg4"
   sodipodi:docname="cargo-import.svg"
   inkscape:version="1.2.1 (9c6d41e410, 2022-07-14)"
   xmlns:inkscape="http://www.inkscape.org/namespaces/inkscape"
   xmlns:sodipodi="http://sodipodi.sourceforge.net/DTD/sodipodi-0.dtd"
   xmlns="http://www.w3.org/2000/svg"
   xmlns:svg="http://www.w3.org/2000/svg">
  <defs
     id="defs8" />
  <sodipodi:namedview
     id="namedview6"
     pagecolor="#ffffff"
     bordercolor="#666666"
     borderopacity="1.0"
     inkscape:pageshadow="2"
     inkscape:pageopacity="0.0"
     inkscape:pagecheckerboard="0"
     showgrid="false"
     inkscape:zoom="0.33803678"
     inkscape:cx="-249.9728"
     inkscape:cy="516.21602"
     inkscape:window-width="2146"
     inkscape:window-height="1480"
     inkscape:window-x="737"
     inkscape:window-y="474"
     inkscape:window-maximized="0"
     inkscape:current-layer="g710"
     inkscape:snap-global="false"
     showguides="false"
     inkscape:showpageshadow="2"
     inkscape:deskcolor="#d1d1d1">
    <sodipodi:guide
       position="-408.23961,315.16326"
       orientation="1,0"
       id="guide2994"
       inkscape:locked="false" />
  </sodipodi:namedview>
  <g
     id="Layer_5"
     style="fill:#000000"
     transform="matrix(1.3990082,0.22543852,-0.22543852,1.3990082,72.636507,-49.836232)" />
  <g
     id="Layer_3"
     style="fill:#000000"
     transform="matrix(1.2929903,0.57984682,-0.57984682,1.2929903,257.38114,-85.50173)">
    <g
       id="g920"
       style="fill:#000000">
      <g
         id="line912"
         style="opacity:0.5"
         transform="matrix(-0.80302317,0.77746339,0.77746339,0.58197221,284.93769,-92.261352)" />
      <g
         id="line914"
         style="opacity:0.5"
         transform="matrix(-0.80302317,0.77746339,0.77746339,0.58197221,284.93769,-92.261352)" />
      <path
         id="path700"
         style="fill:#000000;stroke-width:0.701699"
         d="m 237.9082,85.704636 7.15442,-20.026798 -14.31234,-13.053099 -25.73252,2.118376 -39.19816,30.177525 -6.9204,20.66698 10.57491,12.67208 29.33402,-3.6136 z m -7.00606,-14.38456 -6.88534,11.064757 -26.80735,20.108807 -20.81391,3.75824 -3.87687,-5.59604 3.45129,-13.410828 31.95752,-24.005134 17.58669,-0.06268 z M 195.06324,3.3001071 288.70056,-14.110683 339.27814,34.428793 490.94809,282.25206 454.1198,363.8869 355.26732,431.46843 266.53896,440.79952 108.2342,184.54201 74.411343,138.54158 98.851234,71.888764 Z m 5.50177,23.8452449 -79.79091,57.110258 -17.52793,53.59566 25.80202,30.37516 78.63919,-15.46441 72.55912,-56.687256 24.12984,-55.333787 -27.72437,-29.622116 z m -54.53138,162.257068 134.52247,223.94397 71.86587,-9.07897 86.36085,-60.6526 23.25278,-53.78969 -136.23192,-226.790547 -24.40469,48.093907 -82.02203,64.00006 z m 55.17633,-25.35752 9.37517,-7.88674 150.46966,247.47862 -9.65627,7.25989 z m 83.03688,-60.72885 8.01106,-9.457389 152.53397,247.706029 -6.11397,10.14633 z"
         sodipodi:nodetypes="ccccccccccccccccccccccccccccccccccccccccccccccccccccccccc" />
      <g
         id="g710">
        <path
           id="path1836"
           style="fill-rule:evenodd;stroke-width:20.7788;paint-order:fill markers stroke"
           d="M 291.38877 496.18347 L 347.19756 556.27824 L 273.33717 589.40123 L 271.59348 591.83876 L 465.34759 612.53173 L 578.76617 454.0859 L 575.78496 453.76727 L 496.9079 489.14002 L 489.15302 407.49528 L 291.38877 496.18347 z " />
      </g>
    </g>
  </g>
</svg>
