<?xml version="1.0" encoding="UTF-8" standalone="no"?>
<svg
   viewBox="0 0 1000 1000"
   preserveAspectRatio="xMidYMid meet"
   version="1.1"
   id="svg4"
   sodipodi:docname="cargo-import.svg"
   inkscape:version="1.2.1 (9c6d41e410, 2022-07-14)"
   xmlns:inkscape="http://www.inkscape.org/namespaces/inkscape"
   xmlns:sodipodi="http://sodipodi.sourceforge.net/DTD/sodipodi-0.dtd"
   xmlns="http://www.w3.org/2000/svg"
   xmlns:svg="http://www.w3.org/2000/svg">
  <defs
     id="defs8" />
  <sodipodi:namedview
     id="namedview6"
     pagecolor="#ffffff"
     bordercolor="#666666"
     borderopacity="1.0"
     inkscape:pageshadow="2"
     inkscape:pageopacity="0.0"
     inkscape:pagecheckerboard="0"
     showgrid="false"
     inkscape:zoom="0.059757025"
     inkscape:cx="3689.9427"
     inkscape:cy="-1899.3583"
     inkscape:window-width="2146"
     inkscape:window-height="1480"
     inkscape:window-x="868"
     inkscape:window-y="583"
     inkscape:window-maximized="0"
     inkscape:current-layer="g920"
     inkscape:snap-global="false"
     showguides="false"
     inkscape:showpageshadow="2"
     inkscape:deskcolor="#d1d1d1">
    <sodipodi:guide
       position="-408.23961,315.16326"
       orientation="1,0"
       id="guide2994"
       inkscape:locked="false" />
  </sodipodi:namedview>
  <g
     id="Layer_5"
     style="fill:#000000"
     transform="matrix(1.3990082,0.22543852,-0.22543852,1.3990082,72.636507,-49.836232)" />
  <g
     id="Layer_3"
     style="fill:#000000"
     transform="matrix(1.2929903,0.57984682,-0.57984682,1.2929903,257.38114,-85.50173)">
    <g
       id="g920"
       style="fill:#000000">
      <g
         id="line912"
         style="opacity:0.5"
         transform="matrix(-0.80302317,0.77746339,0.77746339,0.58197221,284.93769,-92.261352)" />
      <g
         id="line914"
         style="opacity:0.5"
         transform="matrix(-0.80302317,0.77746339,0.77746339,0.58197221,284.93769,-92.261352)" />
      <path
         id="path700"
         style="fill:#000000;stroke-width:0.701699"
         d="m 225.03011,91.47987 7.15442,-20.026798 -14.31234,-13.053099 -25.73252,2.118376 -39.19816,30.177525 -6.9204,20.666976 10.57491,12.67208 29.33402,-3.6136 z m -7.00606,-14.38456 -6.88534,11.064757 -26.80735,20.108803 -20.81391,3.75824 -3.87687,-5.59604 3.45129,-13.410824 31.95752,-24.005134 17.58669,-0.06268 z M 182.18515,9.0753408 275.82247,-8.3354493 326.40005,40.204027 478.07,288.02729 441.24171,369.66213 342.38923,437.24366 253.66087,446.57475 95.356107,190.31724 61.53325,144.31681 85.973141,77.663998 Z M 187.68692,32.920586 107.89601,90.030844 90.368077,143.6265 116.1701,174.00166 194.80929,158.53725 267.36841,101.85 291.49825,46.516211 263.77388,16.894095 Z m -54.53138,162.257064 134.52247,223.94397 71.86587,-9.07897 86.36085,-60.6526 23.25278,-53.78969 L 312.92559,68.809817 288.5209,116.90372 206.49887,180.90378 Z m 55.17633,-25.35752 9.37517,-7.88674 150.46966,247.47862 -9.65627,7.25989 z m 83.03688,-60.72885 8.01106,-9.457385 152.53397,247.706025 -6.11397,10.14633 z"
         sodipodi:nodetypes="ccccccccccccccccccccccccccccccccccccccccccccccccccccccccc" />
      <g
         id="g710">
        <path
           id="path1836"
           style="fill-rule:evenodd;stroke-width:20.7788;paint-order:fill markers stroke"
           d="m 290.70585,496.48973 71.03434,54.92263 -90.14664,40.42663 193.75404,20.69274 113.41872,-158.44563 -90.14664,40.42664 6.23422,-89.57403 z"
           sodipodi:nodetypes="cccccccc" />
        <g
           id="g447" />
      </g>
    </g>
  </g>
</svg>
