<?xml version="1.0" encoding="UTF-8" standalone="no"?>
<svg
   viewBox="0 0 1000 1000"
   preserveAspectRatio="xMidYMid meet"
   version="1.1"
   id="svg4"
   sodipodi:docname="cargo-export.svg"
   inkscape:version="1.2.1 (9c6d41e410, 2022-07-14)"
   xmlns:inkscape="http://www.inkscape.org/namespaces/inkscape"
   xmlns:sodipodi="http://sodipodi.sourceforge.net/DTD/sodipodi-0.dtd"
   xmlns="http://www.w3.org/2000/svg"
   xmlns:svg="http://www.w3.org/2000/svg">
  <defs
     id="defs8" />
  <sodipodi:namedview
     id="namedview6"
     pagecolor="#ffffff"
     bordercolor="#666666"
     borderopacity="1.0"
     inkscape:pageshadow="2"
     inkscape:pageopacity="0.0"
     inkscape:pagecheckerboard="0"
     showgrid="false"
     inkscape:zoom="0.33803678"
     inkscape:cx="-1146.325"
     inkscape:cy="-69.519062"
     inkscape:window-width="2146"
     inkscape:window-height="1480"
     inkscape:window-x="411"
     inkscape:window-y="294"
     inkscape:window-maximized="0"
     inkscape:current-layer="g920"
     inkscape:snap-global="false"
     showguides="false"
     inkscape:showpageshadow="2"
     inkscape:deskcolor="#d1d1d1">
    <sodipodi:guide
       position="-408.23961,315.16326"
       orientation="1,0"
       id="guide2994"
       inkscape:locked="false" />
  </sodipodi:namedview>
  <g
     id="Layer_5"
     style="fill:#000000"
     transform="matrix(1.3990082,0.22543852,-0.22543852,1.3990082,72.636507,-49.836232)" />
  <g
     id="Layer_3"
     style="fill:#000000"
     transform="matrix(1.2929903,0.57984682,-0.57984682,1.2929903,257.38114,-85.50173)">
    <g
       id="g920"
       style="fill:#000000">
      <g
         id="line912"
         style="opacity:0.5"
         transform="matrix(-0.80302317,0.77746339,0.77746339,0.58197221,284.93769,-92.261352)" />
      <g
         id="line914"
         style="opacity:0.5"
         transform="matrix(-0.80302317,0.77746339,0.77746339,0.58197221,284.93769,-92.261352)" />
      <g
         id="g710"
         transform="matrix(0.08453343,-1.8008298,-1.8008297,-3.1235159,1389.6684,2677.532)">
        <path
           id="path1836"
           style="fill-rule:evenodd;stroke-width:20.7788;paint-order:fill markers stroke"
           d="m 359.2931,485.40537 61.12544,71.48959 -104.58197,46.90022 174.5365,-22.16011 132.63626,-115.59278 -104.58196,46.90023 -12.72754,-93.19381 z"
           sodipodi:nodetypes="cccccccc" />
        <g
           id="g447" />
      </g>
      <path
         id="path700"
         style="fill:#000000;stroke-width:0.83013"
         d="m 134.04386,212.9733 8.46387,-23.69229 -16.93191,-15.44219 -30.442323,2.50611 -46.372565,35.70088 -8.187022,24.44962 12.510417,14.99144 34.702997,-4.27499 z m -8.28837,-17.01735 -8.14557,13.08991 -31.713888,23.7893 -24.623446,4.44611 -4.586451,-6.62027 4.082977,-15.8654 37.806672,-28.39877 20.805576,-0.0742 z M 83.357014,115.48634 194.13268,94.888864 l 59.83475,57.423626 179.42994,293.18209 -43.56892,96.57639 -116.94535,79.9509 -104.96822,11.03895 -187.279132,-303.16005 -40.01343,-54.41986 28.913095,-78.85219 z m 6.508754,28.20963 -94.3949509,67.5631 -20.7360571,63.4052 30.5245418,35.93469 93.0324502,-18.29485 85.839528,-67.06265 28.54629,-65.46148 -32.79872,-35.04382 z m -64.512201,191.95482 159.143993,264.93219 85.01942,-10.74068 102.16737,-71.75379 27.5087,-63.63477 -161.1663,-268.29978 -28.87145,56.89647 -97.03444,75.71395 z m 65.275201,-29.99868 11.091102,-9.33027 178.00993,292.77439 -11.42363,8.58866 z m 98.235042,-71.844 9.47729,-11.18836 180.45213,293.04338 -7.23299,12.00341 z"
         sodipodi:nodetypes="ccccccccccccccccccccccccccccccccccccccccccccccccccccccccc" />
    </g>
  </g>
</svg>
