<?xml version="1.0" encoding="UTF-8" standalone="no"?>
<svg
   viewBox="0 0 1000 1000"
   preserveAspectRatio="xMidYMid meet"
   version="1.1"
   id="svg4"
   sodipodi:docname="settings.svg"
   inkscape:version="1.1.1 (3bf5ae0d25, 2021-09-20)"
   xmlns:inkscape="http://www.inkscape.org/namespaces/inkscape"
   xmlns:sodipodi="http://sodipodi.sourceforge.net/DTD/sodipodi-0.dtd"
   xmlns="http://www.w3.org/2000/svg"
   xmlns:svg="http://www.w3.org/2000/svg">
  <defs
     id="defs8" />
  <sodipodi:namedview
     id="namedview6"
     pagecolor="#ffffff"
     bordercolor="#666666"
     borderopacity="1.0"
     inkscape:pageshadow="2"
     inkscape:pageopacity="0.0"
     inkscape:pagecheckerboard="0"
     showgrid="false"
     inkscape:zoom="0.873"
     inkscape:cx="428.40779"
     inkscape:cy="493.12715"
     inkscape:window-width="1961"
     inkscape:window-height="1419"
     inkscape:window-x="207"
     inkscape:window-y="574"
     inkscape:window-maximized="0"
     inkscape:current-layer="svg4" />
  <path
     id="path932"
     style="fill:#000000;fill-rule:evenodd;stroke-width:55.7257;paint-order:fill markers stroke"
     d="m 353.96054,10.059338 c -29.66408,0 -58.90969,3.90421 -87.11409,11.30553 v 53.649034 a 293.94819,293.94819 0 0 0 -49.8064,20.88091 l -37.93004,-37.93004 c -24.53477,14.5233 -47.38194,32.13344 -67.88738,52.638878 -21.687925,21.68791 -40.087655,46.02175 -55.067315,72.17746 l 36.76532,36.76533 a 293.94819,293.94819 0 0 0 -20.25719,47.65593 H 21.712657 c -7.23475,27.90315 -11.0357,56.81894 -11.0357,86.14055 0,30.34948 4.10563,60.25428 11.84653,89.05981 h 49.240988 a 293.94819,293.94819 0 0 0 20.08771,48.10611 l -34.8657,34.86569 c 14.82828,25.59816 32.95334,49.42352 54.236145,70.7063 20.91067,20.91069 44.26904,38.78535 69.35718,53.47006 l 34.50231,-34.50097 a 293.94819,293.94819 0 0 0 51.76433,21.95208 v 48.31898 c 28.2043,7.4015 57.45013,11.30552 87.11409,11.30552 30.00699,0 59.58186,-4.00493 88.08763,-11.57535 v -49.52437 a 293.94819,293.94819 0 0 0 46.88172,-19.9711 l 35.59246,35.59247 c 26.15571,-14.97967 50.48954,-33.3794 72.17746,-55.06732 20.50542,-20.50542 38.11536,-43.35261 52.63888,-67.88737 l -36.75718,-36.75719 a 293.94819,293.94819 0 0 0 20.59346,-49.03354 h 52.22398 c 7.7409,-28.80553 11.84652,-58.71033 11.84652,-89.05981 0,-29.32161 -3.80096,-58.2374 -11.03569,-86.14055 h -53.59751 a 293.94819,293.94819 0 0 0 -20.57448,-49.10811 l 38.13478,-38.13343 C 635.48779,154.87228 617.61062,131.51444 596.69981,110.60365 575.41691,89.320742 551.58935,71.196952 525.9908,56.368872 l -38.57546,38.57682 A 293.94819,293.94819 0 0 0 442.04817,76.120322 V 21.633338 c -28.50573,-7.57016 -58.08068,-11.574 -88.08763,-11.574 z M 352.9165,170.59289 A 184.22388,184.22388 0 0 1 537.14039,354.81679 184.22388,184.22388 0 0 1 352.9165,539.04069 184.22388,184.22388 0 0 1 168.6926,354.81679 184.22388,184.22388 0 0 1 352.9165,170.59289 Z" />
  <path
     id="path932-5"
     style="fill:#000000;fill-rule:evenodd;stroke-width:37.1324;paint-order:fill markers stroke"
     d="m 557.53312,669.21709 c -8.42156,17.88263 -14.37072,36.62138 -17.91608,55.72529 l 32.34167,15.23082 a 195.86992,195.86992 0 0 0 -1.55212,35.95321 l -33.63389,12.09743 c 1.78983,18.91361 5.91963,37.68622 12.45964,55.86912 6.91715,19.23143 16.36287,37.23181 27.87783,53.68765 l 32.6011,-11.72594 a 195.86992,195.86992 0 0 0 22.97784,25.74121 l -14.46481,30.71505 c 14.76715,12.28302 31.1196,22.78348 48.79579,31.10784 18.29581,8.61613 37.48913,14.63099 57.0518,18.14231 l 13.9794,-29.68433 a 195.86992,195.86992 0 0 0 34.70304,1.54757 l 11.12006,30.91663 c 19.64125,-1.67172 39.14974,-5.83429 58.02194,-12.62223 18.54224,-6.66926 35.94913,-15.67601 51.92411,-26.63112 l -11.00338,-30.59402 a 195.86992,195.86992 0 0 0 27.92931,-24.97338 l 29.12851,13.71765 c 12.46899,-14.90137 23.12533,-31.42349 31.54688,-49.30605 8.51889,-18.08936 14.50082,-37.05518 18.02979,-56.38878 l -29.85517,-14.05984 a 195.86992,195.86992 0 0 0 1.27026,-33.93182 l 31.5611,-11.35186 c -1.60479,-20.02035 -5.7885,-39.91333 -12.70567,-59.14477 -6.53999,-18.18288 -15.31373,-35.28508 -25.98102,-51.00577 l -32.5939,11.72335 a 195.86992,195.86992 0 0 0 -23.71283,-26.33502 l 14.82625,-31.48259 c -15.16743,-12.84432 -32.0296,-23.80924 -50.32541,-32.42538 -17.67618,-8.32434 -36.1868,-14.24209 -55.06179,-17.80236 l -15.21619,32.31061 a 195.86992,195.86992 0 0 0 -35.44527,-1.53859 L 744.05,538.8839 c -19.29329,1.73001 -38.44956,5.87576 -56.99191,12.54507 -18.8723,6.78797 -36.5626,16.00683 -52.76888,27.22894 l 12.30408,34.20662 a 195.86992,195.86992 0 0 0 -24.22828,22.00456 l -32.84679,-15.46871 c -12.65629,15.03518 -23.46621,31.72739 -31.9851,49.81671 z m 96.47928,46.20448 A 122.75605,122.75605 0 0 1 817.37024,656.66513 122.75605,122.75605 0 0 1 876.12666,820.02297 122.75605,122.75605 0 0 1 712.76883,878.77939 122.75605,122.75605 0 0 1 654.0124,715.42157 Z" />
</svg>
