<?xml version="1.0" encoding="UTF-8" standalone="no"?>
<svg
   viewBox="0 0 1000 1000"
   preserveAspectRatio="xMidYMid meet"
   version="1.1"
   id="svg4"
   sodipodi:docname="color-picker.svg"
   inkscape:version="1.1.1 (3bf5ae0d25, 2021-09-20)"
   xmlns:inkscape="http://www.inkscape.org/namespaces/inkscape"
   xmlns:sodipodi="http://sodipodi.sourceforge.net/DTD/sodipodi-0.dtd"
   xmlns="http://www.w3.org/2000/svg"
   xmlns:svg="http://www.w3.org/2000/svg">
  <defs
     id="defs8" />
  <sodipodi:namedview
     id="namedview6"
     pagecolor="#ffffff"
     bordercolor="#666666"
     borderopacity="1.0"
     inkscape:pageshadow="2"
     inkscape:pageopacity="0.0"
     inkscape:pagecheckerboard="0"
     showgrid="false"
     inkscape:zoom="0.873"
     inkscape:cx="490.8362"
     inkscape:cy="533.79152"
     inkscape:window-width="1801"
     inkscape:window-height="1338"
     inkscape:window-x="1017"
     inkscape:window-y="564"
     inkscape:window-maximized="0"
     inkscape:current-layer="svg4"
     showguides="false" />
  <path
     id="path1860"
     style="fill:#000000;fill-rule:evenodd;stroke-width:125.06;paint-order:fill markers stroke"
     d="M 536.08203 21.912109 L 536.08203 228.42578 A 284.97464 284.97464 0 0 1 672.0332 284.98828 L 816.71875 140.30273 A 481.04968 481.04968 0 0 0 536.08203 21.912109 z M 469.64453 22.203125 A 481.04968 481.04968 0 0 0 189.00977 137.57617 L 331.78711 280.35352 A 284.97464 284.97464 0 0 1 469.64453 227.76758 L 469.64453 22.203125 z M 141.36719 183.89062 A 481.04968 481.04968 0 0 0 23.269531 469.64453 L 218.14648 469.64453 A 284.97464 284.97464 0 0 1 283.08984 325.61328 L 141.36719 183.89062 z M 863.49414 187.48438 L 719.43945 331.53906 A 284.97464 284.97464 0 0 1 779.69727 469.64453 L 979.99023 469.64453 A 481.04968 481.04968 0 0 0 863.49414 187.48438 z M 23.890625 536.08203 A 481.04968 481.04968 0 0 0 141.70117 815.32031 L 274.00781 683.01367 A 284.97464 284.97464 0 0 1 216.07617 536.08203 L 23.890625 536.08203 z M 781.22266 536.08203 A 284.97464 284.97464 0 0 1 728.28125 676.84766 L 864.81445 813.38086 A 481.04968 481.04968 0 0 0 979.51562 536.08203 L 781.22266 536.08203 z M 682.56055 725.08398 A 284.97464 284.97464 0 0 1 536.08203 790.51953 L 536.08203 978.57617 A 481.04968 481.04968 0 0 0 817.83984 860.36328 L 682.56055 725.08398 z M 320.64648 730.33203 L 188.80273 862.17578 A 481.04968 481.04968 0 0 0 469.64453 978.7832 L 469.64453 791.79297 A 284.97464 284.97464 0 0 1 320.64648 730.33203 z " />
</svg>
