<?xml version="1.0" encoding="UTF-8" standalone="no"?>
<svg
   viewBox="0 0 1000 1000"
   preserveAspectRatio="xMidYMid meet"
   version="1.1"
   id="svg4"
   sodipodi:docname="copy.svg"
   inkscape:version="1.1.1 (3bf5ae0d25, 2021-09-20)"
   xmlns:inkscape="http://www.inkscape.org/namespaces/inkscape"
   xmlns:sodipodi="http://sodipodi.sourceforge.net/DTD/sodipodi-0.dtd"
   xmlns="http://www.w3.org/2000/svg"
   xmlns:svg="http://www.w3.org/2000/svg">
  <defs
     id="defs8" />
  <sodipodi:namedview
     id="namedview6"
     pagecolor="#ffffff"
     bordercolor="#666666"
     borderopacity="1.0"
     inkscape:pageshadow="2"
     inkscape:pageopacity="0.0"
     inkscape:pagecheckerboard="0"
     showgrid="false"
     inkscape:zoom="0.2177188"
     inkscape:cx="909.42995"
     inkscape:cy="245.72981"
     inkscape:window-width="1622"
     inkscape:window-height="949"
     inkscape:window-x="690"
     inkscape:window-y="879"
     inkscape:window-maximized="0"
     inkscape:current-layer="svg4"
     inkscape:snap-page="false" />
  <path
     id="path1875"
     style="stroke-width:1.30694"
     d="M 28.291016,1.6894531 C 14.412347,1.6911941 3.1618977,12.941643 3.1601562,26.820312 V 808.37695 c 0.00174,13.87867 11.2521908,25.12912 25.1308598,25.13086 H 176.53711 v 138.89258 c 6.6e-4,13.87943 11.25143,25.13107 25.13086,25.13281 h 771.60742 c 13.87943,-0.002 25.1302,-11.25338 25.13086,-25.13281 V 190.8457 c -0.002,-13.87867 -11.25219,-25.12912 -25.13086,-25.13086 H 825.0293 V 26.820312 C 825.02756,12.941643 813.77711,1.691194 799.89844,1.6894531 Z M 53.421875,51.951172 H 774.76758 V 164.55078 H 201.66797 c -13.87867,0.002 -25.12912,11.25219 -25.13086,25.13086 v 1.16406 592.40039 H 53.421875 Z M 226.80078,215.97656 h 721.3418 V 947.26953 H 226.80078 Z M 797.53125,363.6582 659.31055,504.20117 528.74414,373.63477 371.60547,530.77344 l 131.875,131.87695 -137.3457,139.65039 h 276.99609 37.37305 119.76757 V 645.16211 363.6582 Z" />
</svg>
