<?xml version="1.0" encoding="UTF-8" standalone="no"?>
<svg
   viewBox="0 0 1000 1000"
   preserveAspectRatio="xMidYMid meet"
   version="1.1"
   id="svg4"
   sodipodi:docname="copy.svg"
   inkscape:version="1.1.1 (c3084ef, 2021-09-22)"
   xmlns:inkscape="http://www.inkscape.org/namespaces/inkscape"
   xmlns:sodipodi="http://sodipodi.sourceforge.net/DTD/sodipodi-0.dtd"
   xmlns="http://www.w3.org/2000/svg"
   xmlns:svg="http://www.w3.org/2000/svg">
  <defs
     id="defs8" />
  <sodipodi:namedview
     id="namedview6"
     pagecolor="#ffffff"
     bordercolor="#666666"
     borderopacity="1.0"
     inkscape:pageshadow="2"
     inkscape:pageopacity="0.0"
     inkscape:pagecheckerboard="0"
     showgrid="false"
     inkscape:zoom="0.61580177"
     inkscape:cx="330.46348"
     inkscape:cy="544.81818"
     inkscape:window-width="1622"
     inkscape:window-height="949"
     inkscape:window-x="42"
     inkscape:window-y="23"
     inkscape:window-maximized="0"
     inkscape:current-layer="svg4"
     inkscape:snap-page="false" />
  <path
     id="rect195-0"
     style="color:#000000;fill:#000000;fill-rule:evenodd;stroke-linejoin:round;-inkscape-stroke:none"
     d="M 28.291016,1.6894531 A 25.134013,25.134013 0 0 0 3.1601562,26.820312 V 808.37695 A 25.134013,25.134013 0 0 0 28.291016,833.50781 H 176.53711 v 138.89258 a 25.134013,25.134013 0 0 0 25.13086,25.13281 h 771.60742 a 25.134013,25.134013 0 0 0 25.13086,-25.13281 V 190.8457 A 25.134013,25.134013 0 0 0 973.27539,165.71484 H 825.0293 V 26.820312 A 25.134013,25.134013 0 0 0 799.89844,1.6894531 Z M 53.421875,51.951172 H 774.76758 V 164.55078 H 201.66797 a 25.134013,25.134013 0 0 0 -25.13086,25.13086 v 1.16406 592.40039 H 53.421875 Z M 226.80078,215.97656 h 721.3418 v 731.29297 h -721.3418 z m 236.38281,99.68946 -134.81445,129.00195 167.93164,175.49805 -117.35351,115.23437 295.18945,70.61328 c 55.81969,13.35279 111.63929,26.70581 167.45898,40.0586 L 808.94922,677.01172 750.46875,374.15039 747.55078,373.45312 629.44922,489.42188 Z" />
</svg>
