<?xml version="1.0" encoding="UTF-8"?>
<svg viewBox="0 0 1000 1000" preserveAspectRatio="xMidYMid meet">
  <path d="M 726.17383,38.947266 11.820312,426.54688 274.68359,687.84375 989.03711,300.67383 Z M 721.08594,74.03125 942.26758,294.27148 276.57812,654.54688 55.396484,434.66016 Z M 492.68555,240.79102 c -72.78799,0 -133.41992,40.88856 -133.41993,104.26367 0,63.3751 63.21177,127.52148 170.07227,127.52148 84.37367,0 126.47461,-38.83778 126.47461,-102.21289 0,-63.37201 -68.65744,-129.57226 -163.12695,-129.57226 z m 1.68164,13.30664 c 83.77277,0 144.65625,58.70342 144.65625,114.90039 0.002,56.20471 -37.33208,90.64257 -112.15039,90.64257 -94.76066,0 -150.81836,-56.88276 -150.81836,-113.08593 0,-56.20317 53.76658,-92.45703 118.3125,-92.45703 z m 49.14062,41.59375 c -5.18344,0.048 -11.13776,1.90815 -17.86523,5.58007 l -38.16797,20.83399 55.92773,61.55078 10.27735,-5.61523 -21.94141,-24.14844 26.13672,-14.26367 c 4.29759,-2.44692 8.12745,-3.62495 11.50977,-3.52735 3.38231,0.25088 6.79906,2.26857 10.24023,6.05664 l 13.19727,14.51953 10.28711,-5.61328 -14.62305,-16.10156 c -6.76773,-7.37791 -14.03496,-9.23139 -21.80469,-5.57031 4.38122,-2.91307 6.27755,-6.15248 5.6875,-9.71289 -0.48783,-3.30334 -3.11806,-7.58639 -7.90039,-12.84571 -2.89758,-3.18873 -5.56581,-5.59094 -7.99414,-7.20312 -4.1164,-2.68231 -8.43847,-3.99675 -12.9668,-3.93945 z m -0.77929,9.59961 c 0.91544,-0.0179 1.75567,0.0856 2.52343,0.30859 2.48098,0.74492 6.19563,3.8317 11.13282,9.26758 3.62856,4.00024 4.7226,7.36619 3.27148,10.09961 -1.26682,2.36947 -4.46688,4.9543 -9.59766,7.75586 l -25.09961,13.70312 -20.41015,-22.46484 27.94726,-15.25586 c 4.07458,-2.22313 7.48611,-3.36049 10.23243,-3.41406 z m -75.58204,30.54101 c -1.76912,0.0145 -3.57664,0.23107 -5.42382,0.64844 -3.26772,0.73872 -8.22253,2.91515 -14.86328,6.53906 -7.02946,3.83918 -11.81611,6.55841 -14.36524,8.1582 -5.2206,3.26927 -8.78653,6.55288 -10.69141,9.85157 -3.09736,5.25622 -2.92917,10.51687 0.49805,15.77929 2.14802,3.28785 7.57101,9.71437 16.27149,19.29297 4.23874,4.66307 8.422,8.91115 12.55078,12.74414 9.02261,8.29783 18.27005,11.40767 27.74023,9.33399 2.45002,-0.49867 4.7393,-1.20866 6.86719,-2.13477 2.12788,-0.91991 5.51931,-2.65513 10.17773,-5.20117 10.3932,-5.67281 16.72532,-9.38726 18.99414,-11.1543 6.03358,-4.65533 8.01362,-9.75016 5.94922,-15.28515 -0.98341,-2.71793 -3.80762,-6.60769 -8.4707,-11.67188 -0.44601,-0.49092 -1.37034,-1.50634 -2.77344,-3.04883 l -10.28711,5.61329 c 1.70974,1.74226 3.18603,3.29503 4.42188,4.66406 3.79426,4.17369 5.47748,7.26802 5.05469,9.28906 -0.31285,1.42943 -1.77289,3.10542 -4.38086,5.02734 -2.61263,1.92036 -7.04331,4.58867 -13.29688,8.00196 -2.71639,1.48364 -5.29048,2.83905 -7.72656,4.0625 -4.00799,1.97457 -7.37069,2.89321 -10.08399,2.74609 -2.36947,-0.1239 -4.8886,-1.18512 -7.55078,-3.19531 -4.20002,-3.0602 -12.86288,-11.81138 -25.99414,-26.26367 -3.69515,-4.06838 -5.99555,-7.16549 -6.89844,-9.29493 -0.81924,-1.96682 -0.97396,-3.68217 -0.46289,-5.14257 0.51261,-1.45885 1.77625,-2.92484 3.79883,-4.39453 3.2708,-2.36174 9.04734,-5.80517 17.32813,-10.32422 6.25358,-3.41329 10.70568,-5.08016 13.35547,-5.00586 3.03387,0.0743 6.85523,2.57608 11.46875,7.51172 0.38252,0.41969 1.21695,1.30263 2.5039,2.64843 l 10.15625,-5.54492 c -0.65818,-0.79446 -1.14426,-1.36565 -1.46484,-1.71875 -2.77214,-3.0509 -5.28022,-5.45717 -7.52735,-7.22266 -4.61004,-3.5821 -9.56762,-5.35215 -14.875,-5.30859 z M 960.58008,370.28906 272.27148,742.6543 37.943359,509.77734 11.455078,524.15039 266.21289,777.3418 980.57031,390.17188 Z m 0,89.75586 L 272.26953,832.41406 37.943359,599.53711 11.455078,613.90625 266.21289,867.09961 980.57031,479.92969 Z" />
</svg>
