<?xml version="1.0" encoding="UTF-8" standalone="no"?>
<svg
   viewBox="0 0 1000 1000"
   preserveAspectRatio="xMidYMid meet"
   version="1.1"
   id="svg4"
   sodipodi:docname="credits.svg"
   inkscape:version="1.2.1 (9c6d41e410, 2022-07-14)"
   xmlns:inkscape="http://www.inkscape.org/namespaces/inkscape"
   xmlns:sodipodi="http://sodipodi.sourceforge.net/DTD/sodipodi-0.dtd"
   xmlns:xlink="http://www.w3.org/1999/xlink"
   xmlns="http://www.w3.org/2000/svg"
   xmlns:svg="http://www.w3.org/2000/svg">
  <defs
     id="defs8">
    <linearGradient
       id="linearGradient1026"
       inkscape:swatch="solid">
      <stop
         style="stop-color:#000000;stop-opacity:1;"
         offset="0"
         id="stop1024" />
    </linearGradient>
    <linearGradient
       inkscape:collect="always"
       xlink:href="#linearGradient1026"
       id="linearGradient1028"
       x1="10.991314"
       y1="427.39537"
       x2="989.86583"
       y2="427.39537"
       gradientUnits="userSpaceOnUse" />
  </defs>
  <sodipodi:namedview
     id="namedview6"
     pagecolor="#ffffff"
     bordercolor="#666666"
     borderopacity="1.0"
     inkscape:pageshadow="2"
     inkscape:pageopacity="0.0"
     inkscape:pagecheckerboard="0"
     showgrid="false"
     inkscape:zoom="0.61730422"
     inkscape:cx="369.34787"
     inkscape:cy="679.56769"
     inkscape:window-width="2538"
     inkscape:window-height="1588"
     inkscape:window-x="373"
     inkscape:window-y="307"
     inkscape:window-maximized="0"
     inkscape:current-layer="svg4"
     inkscape:showpageshadow="2"
     inkscape:deskcolor="#d1d1d1" />
  <path
     d="M 960.58008,411.80499 272.27148,743.44298 37.943359,536.03681 13.455078,550.61907 266.21289,774.33655 978.57031,429.51313 Z"
     id="path422"
     sodipodi:nodetypes="ccccccc"
     style="stroke-width:0.943733" />
  <path
     d="M 955.16193,477.69587 266.85333,809.33386 32.525209,601.9277 8.0369288,616.50996 260.79474,840.22747 973.15216,495.40402 Z"
     id="path422-2"
     sodipodi:nodetypes="ccccccc"
     style="stroke-width:0.943733" />
  <g
     id="path420"
     transform="matrix(0.72493679,0,0,0.6329171,172.46382,92.70906)">
    <path
       style="color:#000000;fill:#000000;stroke-width:10.6667"
       d="m 566.85575,271.98605 c -3.29137,0.027 -6.65419,0.4299 -10.09079,1.20639 -6.07946,1.37437 -15.29768,5.42352 -27.65251,12.16566 -13.07802,7.14262 -21.98338,12.20163 -26.72593,15.17798 -9.71269,6.08235 -16.34696,12.19136 -19.89092,18.32844 -5.7625,9.77898 -5.44959,19.56618 0.92662,29.35671 3.99629,6.11689 14.08552,18.07316 30.27242,35.89375 7.88599,8.67545 15.66876,16.57883 23.35019,23.70994 16.78619,15.43776 33.99066,21.22349 51.60953,17.3655 4.55815,-0.92776 8.81728,-2.24867 12.77611,-3.97166 3.95885,-1.71145 10.26846,-4.93975 18.93526,-9.67655 19.33611,-10.55403 31.11675,-17.46461 35.3378,-20.75211 11.22522,-8.66105 14.909,-18.13977 11.06826,-28.43738 -1.82959,-5.05659 -7.08391,-12.29333 -15.75938,-21.71504 -0.82978,-0.91333 -2.54946,-2.80249 -5.15988,-5.67223 l -19.13873,10.4433 c 3.1809,3.24141 5.92747,6.13026 8.22672,8.67729 7.05907,7.76498 10.19063,13.52184 9.40405,17.2819 -0.58204,2.6594 -3.29839,5.77751 -8.1504,9.35316 -4.86069,3.57276 -13.10378,8.53702 -24.7383,14.88731 -5.05372,2.76024 -9.84271,5.28193 -14.37493,7.55811 -7.4567,3.6736 -13.71286,5.3827 -18.76085,5.10899 -4.40829,-0.23052 -9.09503,-2.20487 -14.04791,-5.94475 -7.81395,-5.69338 -23.93084,-21.97457 -48.361,-48.86246 -6.87466,-7.56904 -11.15446,-13.33108 -12.83426,-17.29281 -1.52415,-3.65919 -1.81201,-6.85052 -0.86118,-9.56754 0.95368,-2.71413 3.30463,-5.44155 7.06756,-8.17584 6.08518,-4.39392 16.83219,-10.80027 32.23826,-19.20778 11.63452,-6.35028 19.91746,-9.45142 24.84728,-9.31319 5.64439,0.13823 12.75388,4.79269 21.33715,13.97525 0.71165,0.7808 2.26406,2.42348 4.65839,4.92727 l 18.89527,-10.31608 c -1.22451,-1.47806 -2.12884,-2.54074 -2.72528,-3.19766 -5.15744,-5.67607 -9.82362,-10.15284 -14.00432,-13.43746 -8.57678,-6.66434 -17.80014,-9.95744 -27.6743,-9.87641 z"
       id="path4347" />
    <path
       style="color:#000000;fill:#000000"
       d="m 566.8125,266.65234 c -3.69677,0.0303 -7.44336,0.48397 -11.22266,1.33789 -7.146,1.61549 -16.48541,5.83918 -29.03125,12.68555 l -0.002,0.002 c -13.11094,7.1606 -22.01542,12.20989 -27,15.33789 -10.14171,6.35102 -17.44975,12.8678 -21.66992,20.16797 -6.57905,11.18615 -6.14751,23.87046 1.0664,34.94727 l 0.002,0.004 0.002,0.004 c 4.50385,6.89379 14.54551,18.67954 30.78906,36.5625 h 0.002 v 0.002 c 7.97634,8.77485 15.86298,16.78544 23.66797,24.03125 l 0.01,0.008 0.008,0.008 c 17.62326,16.20758 36.92216,22.89192 56.32618,18.65625 4.8716,-0.99434 9.47502,-2.41724 13.7871,-4.29297 4.30621,-1.86161 10.64826,-5.12109 19.375,-9.89062 19.38053,-10.57827 30.87533,-17.19293 36.03907,-21.21094 l 0.006,-0.004 c 6.13126,-4.73181 10.58361,-9.95912 12.89062,-15.88867 2.30362,-5.92083 2.21264,-12.43348 -0.0781,-18.59766 -2.39063,-6.59323 -7.98091,-13.87089 -16.84375,-23.49609 -0.83873,-0.92314 -2.54058,-2.79224 -5.13868,-5.64844 l -2.82031,-3.10156 -29.01172,15.83203 4.94141,5.03711 c 3.14632,3.20617 5.84844,6.04782 8.07617,8.51563 l 0.006,0.006 0.006,0.008 c 3.35229,3.68752 5.66179,6.81637 6.90625,9.10351 1.22511,2.25159 1.21281,3.47287 1.2207,3.47071 -0.0433,0.15052 -1.68871,2.93487 -6.09179,6.17968 -4.44274,3.26489 -12.59414,8.20416 -24.12891,14.5 h -0.002 c -5.00086,2.73137 -9.72695,5.22038 -14.1875,7.46094 -6.97674,3.43507 -12.49266,4.75623 -16.10157,4.56055 h -0.006 -0.006 c -3.01923,-0.15788 -6.72931,-1.56618 -11.11133,-4.875 l -0.0371,-0.0274 -0.0371,-0.0273 C 560.6891,393.12146 544.22501,376.69982 519.86,349.8837 v -0.002 c -6.70111,-7.37812 -10.72357,-13.09423 -11.86328,-15.77344 -1.18208,-2.84679 -1.15347,-4.56411 -0.74609,-5.73242 0.41556,-1.18056 1.91522,-3.261 5.15625,-5.61914 l 0.002,-0.002 c 5.66407,-4.08961 16.34786,-10.48706 31.66797,-18.84766 11.34107,-6.19011 19.61409,-8.73496 22.14258,-8.66406 h 0.01 0.01 c 2.82462,0.0692 9.37831,3.52105 17.57227,12.28711 0.81065,0.88819 2.31947,2.48216 4.69922,4.9707 l 2.82421,2.95312 28.16016,-15.375 -4.12695,-4.98242 c -1.2463,-1.50436 -2.16765,-2.59102 -2.88477,-3.38086 v -0.002 c -5.29553,-5.82804 -10.14226,-10.49692 -14.6582,-14.04492 l -0.01,-0.008 -0.0117,-0.01 c -9.36744,-7.2787 -19.90314,-11.08903 -30.99023,-10.99805 z m 0.0879,10.66602 c 8.65607,-0.071 16.56212,2.70361 24.34375,8.74609 3.36045,2.64118 7.28975,6.42073 11.55664,10.97461 l -9.38476,5.12305 c -0.51544,-0.54764 -1.52816,-1.60645 -1.76758,-1.86914 l -0.0234,-0.0234 -0.0234,-0.0254 c -8.96981,-9.59609 -16.63269,-15.45337 -25.09375,-15.66406 -7.32885,-0.20221 -15.61811,3.4552 -27.54101,9.96289 -15.49057,8.45362 -26.29996,14.86618 -32.80664,19.56445 l -0.006,0.006 -0.006,0.004 c -4.27276,3.10475 -7.47285,6.4765 -8.96485,10.72265 v 0.004 l -0.002,0.002 c -1.49176,4.26274 -0.88306,8.92565 0.97266,13.38086 l 0.006,0.0156 0.006,0.0156 c 2.2252,5.24805 6.75718,11.04614 13.79687,18.79688 24.47583,26.93815 40.23475,43.06887 49.14258,49.5664 5.50814,4.14927 11.15347,6.67772 16.93359,6.98047 6.4e-4,4e-5 0.001,-3e-5 0.002,0 6.48169,0.34902 13.47108,-1.74588 21.39648,-5.65039 l 0.0195,-0.01 0.0176,-0.01 c 4.59747,-2.30895 9.43871,-4.85793 14.53711,-7.64258 11.73062,-6.40274 20.06222,-11.39083 25.3418,-15.27148 l 0.002,-0.002 0.002,-0.002 c 5.27877,-3.89015 9.06041,-7.31146 10.19727,-12.50586 l 0.006,-0.0234 0.004,-0.0234 c 0.79546,-3.80249 -0.40548,-7.30871 -2.29492,-10.78125 -1.8872,-3.46842 -4.6709,-7.09642 -8.37109,-11.16797 l -0.002,-0.002 c -1.00325,-1.11135 -2.39049,-2.5156 -3.54492,-3.74024 l 9.375,-5.11523 c 0.74195,0.8155 1.96387,2.15863 2.33789,2.57031 l 0.0117,0.0117 0.0137,0.0137 c 8.48052,9.20998 13.39404,16.4025 14.66602,19.91797 l 0.01,0.0234 0.01,0.0254 c 1.53802,4.12367 1.52286,7.48753 0.14258,11.03515 -1.38028,3.54763 -4.38166,7.38835 -9.47266,11.31641 l -0.01,0.006 -0.01,0.008 c -3.2843,2.55793 -15.33889,9.75789 -34.61523,20.2793 h -0.002 c -8.60575,4.70344 -14.88299,7.90176 -18.49414,9.46289 l -0.006,0.002 -0.006,0.002 c -3.58994,1.56245 -7.48797,2.77679 -11.71289,3.63672 l -0.0371,0.008 -0.0391,0.008 c -15.81514,3.46303 -30.90885,-1.42077 -46.83984,-16.06445 l -0.008,-0.008 c -0.004,-0.004 -0.008,-0.006 -0.0117,-0.01 -7.55121,-7.01132 -15.22317,-14.801 -23.01172,-23.36914 l -0.002,-0.002 c -16.12546,-17.75304 -26.25934,-29.8753 -29.75,-35.21679 l -0.002,-0.002 c -4.5e-4,-6.9e-4 -10e-4,-0.003 -0.002,-0.004 -5.52859,-8.49238 -5.72504,-15.36931 -0.79688,-23.73242 l 0.0117,-0.0195 0.0117,-0.0215 c 2.869,-4.96826 8.82641,-10.66503 18.10352,-16.47461 l 0.002,-0.002 0.002,-0.002 c 4.50116,-2.82485 13.40516,-7.89066 26.44727,-15.01367 12.16279,-6.63734 21.25832,-10.51091 26.27148,-11.64453 3.0939,-0.69906 6.07497,-1.0525 8.96094,-1.07617 z"
       id="path4349" />
  </g>
  <g
     id="path418"
     transform="matrix(0.72493679,0,0,0.6329171,194.46013,83.103754)">
    <path
       style="color:#000000;fill:#000000;stroke-width:10.6667"
       d="m 708.9228,197.30611 c -9.64358,0.0894 -20.72134,3.55004 -33.23751,10.38149 l -71.00991,38.76076 104.05119,114.51264 19.12058,-10.44689 -40.82107,-44.92716 48.62627,-26.53696 c 7.99548,-4.55239 15.12077,-6.74407 21.41345,-6.56249 6.29264,0.46674 12.64937,4.22058 19.05151,11.26812 l 24.55296,27.01298 19.13874,-10.44327 -27.20557,-29.95628 c -12.59108,-13.72629 -26.11145,-17.17462 -40.56671,-10.36332 8.15107,-5.41965 11.67913,-11.44644 10.58137,-18.07043 -0.90761,-6.14573 -5.80104,-14.11415 -14.69836,-23.8989 -5.39082,-5.93249 -10.35494,-10.40171 -14.87276,-13.4011 -7.65839,-4.99033 -15.69942,-7.4358 -24.12418,-7.32919 z m -1.44984,17.85968 c 1.70314,-0.0334 3.26635,0.15925 4.69473,0.57412 4.61577,1.38588 11.52671,7.12871 20.71216,17.24195 6.75077,7.44227 8.78619,13.70447 6.08644,18.78989 -2.35686,4.4083 -8.31045,9.21727 -17.85605,14.42944 l -46.69677,25.49408 -37.97221,-41.79488 51.9947,-28.38289 c 7.58058,-4.13604 13.92759,-6.25206 19.037,-6.35171 z"
       id="path4341" />
    <path
       style="color:#000000;fill:#000000"
       d="m 708.86523,191.97266 c -10.8794,0.10258 -22.72447,3.93227 -35.73437,11.0332 l -76.96289,42.00976 111.43359,122.63672 28.75196,-15.70703 -40.82032,-44.92578 42.7168,-23.31055 0.041,-0.0234 c 7.38562,-4.20516 13.56354,-5.96541 18.48242,-5.85743 4.43134,0.36323 9.5848,3.11612 15.39648,9.51368 l 27.375,30.11718 28.77149,-15.69921 -31.77344,-34.98633 -0.01,-0.01 c -6.78796,-7.39996 -14.17793,-12.398 -22.19531,-14.44531 -2.55653,-0.65283 -5.16136,-0.87556 -7.7793,-0.9043 1.37706,-3.271 1.90478,-6.7364 1.32422,-10.30078 -1.22806,-8.21371 -6.82138,-16.55062 -16.01758,-26.66406 h 0.002 c -5.59016,-6.15186 -10.81923,-10.90387 -15.8711,-14.25781 l -0.0176,-0.0117 -0.0195,-0.0137 c -8.41841,-5.48558 -17.59772,-8.3115 -27.09375,-8.19336 z m 0.10743,10.66601 h 0.008 0.01 c 7.34378,-0.0929 14.23733,1.9698 21.12696,6.45508 3.9799,2.64549 8.67185,6.82483 13.85547,12.5293 l 0.002,0.002 c 8.58253,9.43856 12.76701,17.02588 13.36719,21.08984 l 0.008,0.0469 0.008,0.0449 c 0.71111,4.29088 -1.04956,7.95466 -8.27344,12.75781 l 5.22657,9.26563 c 6.33369,-2.98443 11.88429,-3.58138 17.38867,-2.17578 5.50437,1.40559 11.1715,4.994 16.97461,11.32031 l 22.6289,24.91601 -9.50586,5.1875 -21.73242,-23.9082 c -6.94979,-7.6504 -14.47144,-12.39878 -22.60351,-13.00195 l -0.1211,-0.008 -0.12109,-0.004 c -7.64553,-0.22062 -15.66526,2.39744 -24.20508,7.25977 l -54.49609,29.73828 40.82422,44.92968 -9.49024,5.18555 -96.66797,-106.39062 65.05664,-35.50977 c 12.0194,-6.5603 22.32676,-9.65254 30.73243,-9.73047 z m -1.60352,7.19531 c -6.49498,0.12668 -13.48033,2.63274 -21.48828,7.00196 l -57.94727,31.63281 45.35352,49.91797 50.37891,-27.50391 c 9.93798,-5.42642 16.64668,-10.31631 20.0039,-16.5957 l 0.004,-0.008 0.004,-0.006 c 2.0353,-3.83381 2.22256,-8.46549 0.86329,-12.65821 -1.35928,-4.19271 -4.01464,-8.14187 -7.71094,-12.21679 l -0.002,-0.002 c -9.40498,-10.35494 -16.02894,-16.6325 -23.12695,-18.76367 l -0.0234,-0.008 -0.0215,-0.006 c -2.00459,-0.58223 -4.11806,-0.82769 -6.28711,-0.78516 z m 0.20703,10.66407 h 0.002 c 1.22715,-0.0241 2.22834,0.11757 3.07618,0.36132 2.14952,0.6576 9.32944,5.85729 18.27734,15.70899 3.0524,3.36578 4.79195,6.26834 5.46289,8.33789 0.67013,2.06704 0.52506,3.11039 -0.13672,4.35937 -1.36187,2.53877 -6.55771,7.26026 -15.70312,12.25391 l -43.01563,23.48438 -30.59179,-33.66993 46.04296,-25.13476 c 7.1532,-3.90286 12.86211,-5.62855 16.58594,-5.70117 z"
       id="path4343" />
  </g>
  <g
     id="path414"
     transform="matrix(1,0,0,0.89062554,0,30.359813)">
    <path
       style="color:#000000;fill:#000000;stroke-width:13.3333"
       d="M 726.17383,102.94727 11.820312,490.54688 274.68359,751.84375 989.03711,364.67383 Z M 721.08594,138.03125 942.26758,358.27148 276.57812,718.54688 55.396484,498.66016 Z"
       id="path4335" />
    <path
       style="color:#000000;fill:url(#linearGradient1028)"
       d="M 727.35937,94.71875 722.99414,97.087891 0.76757812,488.95898 273.5,760.06836 1000.0859,366.26758 Z m -2.37109,16.45703 253,251.9043 L 275.86719,743.61914 22.873047,492.13477 Z m -2.71484,18.63086 -4.36328,2.36328 L 44.339844,497.06836 275.39258,726.76953 953.32031,359.86914 Z m -2.375,16.44922 211.3164,210.41601 L 277.76367,710.32422 66.453125,500.25195 Z"
       id="path4337" />
  </g>
  <path
     id="path4369"
     style="color:#000000;fill:#000000;stroke-width:0.92785"
     d="m 422.40811,271.21214 -29.61053,9.90532 c 1.39537,0.27902 177.37334,160.49175 177.37334,160.49175 L 889.37638,285.24101 874.92597,262.52085 576.21216,412.07753 Z"
     sodipodi:nodetypes="ccccccc" />
</svg>
