<?xml version="1.0" encoding="UTF-8" standalone="no"?>
<svg
   viewBox="0 0 1000 1000"
   preserveAspectRatio="xMidYMid meet"
   version="1.1"
   id="svg4"
   sodipodi:docname="dodec-starport.svg"
   inkscape:version="1.2.1 (9c6d41e410, 2022-07-14)"
   xml:space="preserve"
   xmlns:inkscape="http://www.inkscape.org/namespaces/inkscape"
   xmlns:sodipodi="http://sodipodi.sourceforge.net/DTD/sodipodi-0.dtd"
   xmlns="http://www.w3.org/2000/svg"
   xmlns:svg="http://www.w3.org/2000/svg"><defs
     id="defs8" /><sodipodi:namedview
     id="namedview6"
     pagecolor="#ffffff"
     bordercolor="#666666"
     borderopacity="1.0"
     inkscape:pageshadow="2"
     inkscape:pageopacity="0.0"
     inkscape:pagecheckerboard="0"
     showgrid="true"
     inkscape:zoom="0.61730422"
     inkscape:cx="52.648271"
     inkscape:cy="605.05013"
     inkscape:window-width="2257"
     inkscape:window-height="1434"
     inkscape:window-x="4319"
     inkscape:window-y="380"
     inkscape:window-maximized="0"
     inkscape:current-layer="g6079"
     inkscape:showpageshadow="2"
     inkscape:deskcolor="#d1d1d1" /><g
     id="g6079"><path
       id="path6316"
       style="color:#000000;fill:#000000;fill-rule:evenodd;stroke:none;stroke-opacity:1;paint-order:fill markers stroke"
       d="M 486.4043,17.507812 202.69727,119.64062 33.208984,369.0293 42.673828,670.4082 227.47852,908.66602 491.06836,985.25 v 0.39258 l 1.33984,-0.002 24.62696,7.1543 283.70312,-102.13281 169.49024,-249.38477 c -3.15734,-100.46088 -6.31148,-200.92186 -9.4668,-301.38281 L 775.95703,101.63672 Z m 1.64843,52.546876 253.01368,73.511722 -67.77735,95.85351 L 329.0293,244.125 263.1875,151.00781 Z M 228.29102,170.9375 298.52344,270.26367 197.55859,596.08398 91.339844,627.14648 83.693359,383.69531 Z m 540.375,2.87695 142.63086,183.88672 8.17578,260.23438 L 819.90039,588.81836 707.96094,259.66602 Z M 672.43359,279.43555 780.72656,597.85938 511.35352,799.24805 236.58008,605.29102 336.13281,284.03125 Z M 360.83203,468.83984 v 62.88282 H 628.85938 V 468.83984 Z M 808.38477,627.125 900.98828,654.20508 768.51562,849.12109 530.96289,934.64062 530.75586,834.6875 Z M 208.625,634.52344 490.75195,833.66797 490.95898,933.1543 257.0293,865.18555 102.24609,665.63281 Z"
       sodipodi:nodetypes="ccccccccccccccccccccccccccccccccccccccccccccccccccccccc" /></g></svg>
