<?xml version="1.0" encoding="UTF-8" standalone="no"?>
<svg
   viewBox="0 0 1000 1000"
   preserveAspectRatio="xMidYMid meet"
   version="1.1"
   id="svg18"
   sodipodi:docname="engineering.svg"
   inkscape:version="1.1.1 (3bf5ae0d25, 2021-09-20)"
   xmlns:inkscape="http://www.inkscape.org/namespaces/inkscape"
   xmlns:sodipodi="http://sodipodi.sourceforge.net/DTD/sodipodi-0.dtd"
   xmlns="http://www.w3.org/2000/svg"
   xmlns:svg="http://www.w3.org/2000/svg">
  <defs
     id="defs22" />
  <sodipodi:namedview
     id="namedview20"
     pagecolor="#ffffff"
     bordercolor="#666666"
     borderopacity="1.0"
     inkscape:pageshadow="2"
     inkscape:pageopacity="0.0"
     inkscape:pagecheckerboard="0"
     showgrid="false"
     inkscape:zoom="0.873"
     inkscape:cx="500.57274"
     inkscape:cy="500"
     inkscape:window-width="1922"
     inkscape:window-height="1425"
     inkscape:window-x="468"
     inkscape:window-y="486"
     inkscape:window-maximized="0"
     inkscape:current-layer="g16" />
  <g
     transform="matrix(1.443645,0,0,1.4665896,-13.613043,68.82957)"
     id="g6" />
  <g
     transform="matrix(1.443645,0,0,1.4665896,-13.613043,68.82957)"
     id="g10" />
  <g
     transform="matrix(1.443645,0,0,1.4665896,-13.613043,68.82957)"
     id="g16">
    <path
       id="path866"
       style="stroke-width:1.45507"
       transform="matrix(0.69269107,0,0,0.68185401,9.4296333,-46.931718)"
       d="M 241.56055,73.769531 0,473.96484 271.56641,928.61133 H 754.68555 L 998.95312,527.49609 724.68359,73.769531 Z m 30.00586,54.447269 h 423.11132 l 30.00391,54.44726 173.8125,299.37891 -203.81641,337.67187 H 271.56641 l -208.697269,-345.75 z m 210.53711,208.08984 c -75.76335,0 -137.19727,62.41337 -137.19727,139.38086 0,76.96747 61.43392,139.38086 137.19727,139.38086 75.76332,0 137.20117,-62.41339 137.20117,-139.38086 0,-76.96749 -61.43785,-139.38086 -137.20117,-139.38086 z m -12.88282,2.28906 a 136.39852,138.56638 0 0 0 -2.51562,0.28907 c 0.83933,-0.0965 1.67172,-0.20822 2.51562,-0.28907 z m -27.2832,5.49024 a 136.39852,138.56638 0 0 0 -1.08789,0.38672 c 0.36738,-0.1191 0.71915,-0.27073 1.08789,-0.38672 z m -35.33203,17.17578 a 136.39852,138.56638 0 0 0 -0.37695,0.24023 c 0.12278,-0.0844 0.25388,-0.15627 0.37695,-0.24023 z m -19.39649,16.10156 a 136.39852,138.56638 0 0 0 -1.88671,1.91797 c 0.62369,-0.64612 1.25069,-1.28438 1.88671,-1.91797 z m -17.5039,21.24414 a 136.39852,138.56638 0 0 0 -0.24024,0.38867 c 0.0839,-0.12697 0.15591,-0.262 0.24024,-0.38867 z m 119.42187,2.08008 c 2.12285,0 4.20455,0.16975 6.28907,0.32227 a 87.097468,88.481753 0 0 1 11.38867,1.52343 c 3.52218,0.74214 6.93399,1.7693 10.28515,2.93164 a 87.097468,88.481753 0 0 1 9.86524,4.15039 c 3.43217,1.69852 6.76805,3.56031 9.92773,5.6875 a 87.097468,88.481753 0 0 1 8.99024,7.00782 c 3.04943,2.69432 5.90656,5.59728 8.55859,8.69531 a 87.097468,88.481753 0 0 1 6.90039,9.13672 c 2.09047,3.20527 3.92009,6.58905 5.58985,10.07031 a 87.097468,88.481753 0 0 1 4.09374,10.04492 c 1.14311,3.40316 2.153,6.86666 2.88282,10.44336 a 87.097468,88.481753 0 0 1 1.49609,11.54688 c 0.15075,2.12202 0.31836,4.24121 0.31836,6.40234 0,48.58646 -38.75961,87.96291 -86.58594,87.96289 -2.12399,0 -4.20538,-0.16958 -6.29101,-0.32226 a 87.097468,88.481753 0 0 1 -11.37891,-1.52149 c -3.52988,-0.74353 -6.9485,-1.77391 -10.30664,-2.93945 a 87.097468,88.481753 0 0 1 -9.83789,-4.13867 c -3.43702,-1.70031 -6.77951,-3.56322 -9.94336,-5.69336 a 87.097468,88.481753 0 0 1 -8.98047,-7 c -3.05305,-2.69692 -5.91353,-5.6036 -8.56836,-8.70508 a 87.097468,88.481753 0 0 1 -6.89258,-9.12695 c -2.09697,-3.21441 -3.93167,-6.6096 -5.60546,-10.10157 a 87.097468,88.481753 0 0 1 -4.08985,-10.0332 c -1.14014,-3.39558 -2.14626,-6.85161 -2.875,-10.41992 a 87.097468,88.481753 0 0 1 -1.5,-11.57422 c -0.1501,-2.11741 -0.3164,-4.2304 -0.3164,-6.38672 0,-2.1552 0.16646,-4.26845 0.3164,-6.38477 a 87.097468,88.481753 0 0 1 1.5,-11.58007 c 0.72726,-3.56061 1.73026,-7.00982 2.86719,-10.39844 a 87.097468,88.481753 0 0 1 4.10742,-10.07422 c 1.66986,-3.48126 3.49927,-6.86504 5.58985,-10.07031 a 87.097468,88.481753 0 0 1 6.90039,-9.13672 c 2.65432,-3.10057 5.51404,-6.00694 8.5664,-8.70313 a 87.097468,88.481753 0 0 1 8.98047,-7 c 3.16385,-2.13002 6.50634,-3.99315 9.94336,-5.69335 a 87.097468,88.481753 0 0 1 9.83789,-4.13868 c 3.35681,-1.16501 6.77432,-2.19414 10.30273,-2.9375 a 87.097468,88.481753 0 0 1 11.38282,-1.52148 c 2.08564,-0.15268 4.16701,-0.32422 6.29101,-0.32422 z m -136.16797,33.04102 a 136.39852,138.56638 0 0 0 -0.40039,1.16406 c 0.12022,-0.39451 0.27679,-0.77108 0.40039,-1.16406 z m -5.50781,26.23828 a 136.39852,138.56638 0 0 0 -0.29883,2.68359 c 0.0833,-0.90036 0.1986,-1.78836 0.29883,-2.68359 z m -0.29883,28.75781 a 136.39852,138.56638 0 0 0 0.29883,2.68555 c -0.1003,-0.89581 -0.21552,-1.78461 -0.29883,-2.68555 z m 5.40625,27.75781 a 136.39852,138.56638 0 0 0 0.40235,1.16797 c -0.12404,-0.39432 -0.28172,-0.77211 -0.40235,-1.16797 z m 16.90625,35.89649 a 136.39852,138.56638 0 0 0 0.24024,0.38867 c -0.0843,-0.12667 -0.15632,-0.2617 -0.24024,-0.38867 z m 15.86328,19.72265 A 136.39852,138.56638 0 0 0 387.19727,574 c -0.62979,-0.62751 -1.25146,-1.25863 -1.86915,-1.89844 z m 20.89454,17.76953 a 136.39852,138.56638 0 0 0 0.41406,0.26368 c -0.13518,-0.0922 -0.27923,-0.17103 -0.41406,-0.26368 z m 34.62695,17.03125 a 136.39852,138.56638 0 0 0 1.08789,0.38672 c -0.36874,-0.11599 -0.72051,-0.26762 -1.08789,-0.38672 z m 25.8125,5.58399 a 136.39852,138.56638 0 0 0 2.58789,0.29687 c -0.86815,-0.083 -1.72459,-0.19734 -2.58789,-0.29687 z" />
  </g>
</svg>
