<?xml version="1.0" encoding="UTF-8" standalone="no"?>
<svg
   viewBox="0 0 1000 1000"
   preserveAspectRatio="xMidYMid meet"
   version="1.1"
   id="svg18"
   sodipodi:docname="engineer.svg"
   inkscape:version="1.1.1 (3bf5ae0d25, 2021-09-20)"
   xmlns:inkscape="http://www.inkscape.org/namespaces/inkscape"
   xmlns:sodipodi="http://sodipodi.sourceforge.net/DTD/sodipodi-0.dtd"
   xmlns="http://www.w3.org/2000/svg"
   xmlns:svg="http://www.w3.org/2000/svg">
  <defs
     id="defs22" />
  <sodipodi:namedview
     id="namedview20"
     pagecolor="#ffffff"
     bordercolor="#666666"
     borderopacity="1.0"
     inkscape:pageshadow="2"
     inkscape:pageopacity="0.0"
     inkscape:pagecheckerboard="0"
     showgrid="false"
     inkscape:zoom="0.61730422"
     inkscape:cx="235.70226"
     inkscape:cy="198.44348"
     inkscape:window-width="1922"
     inkscape:window-height="1425"
     inkscape:window-x="748"
     inkscape:window-y="521"
     inkscape:window-maximized="0"
     inkscape:current-layer="g16" />
  <g
     transform="matrix(1.443645,0,0,1.4665896,-13.613043,68.82957)"
     id="g6" />
  <g
     transform="matrix(1.443645,0,0,1.4665896,-13.613043,68.82957)"
     id="g10" />
  <g
     transform="matrix(1.443645,0,0,1.4665896,-13.613043,68.82957)"
     id="g16">
    <path
       id="path3163"
       style="color:#000000;fill:#000000;fill-rule:evenodd;-inkscape-stroke:none;paint-order:fill markers stroke"
       transform="matrix(0.69269107,0,0,0.68185401,9.4296333,-46.931718)"
       d="m 499.24609,1.3984375 c -150.94466,0 -274.21249,122.8725225 -274.21289,273.5742225 2.5e-4,90.75618 44.7433,171.37165 113.27735,221.18359 -34.75452,9.40419 -67.71812,21.81569 -97.69727,37.3457 C 161.04323,574.7214 99.630859,643.34488 99.630859,732.99023 V 999.01172 H 905.75977 V 732.99023 c 0,-88.92601 -54.12283,-157.83784 -126.98243,-198.86132 C 745.03095,515.12805 707.0615,501.01483 666.77539,491.19922 731.56472,441.08736 773.45875,362.7812 773.45898,274.97266 773.45858,124.27096 650.19076,1.3984311 499.24609,1.3984375 Z m 0,75.0078125 c 110.51612,-5e-6 199.20479,88.51209 199.20508,198.56641 -2.9e-4,110.05431 -88.68896,198.56641 -199.20508,198.5664 -110.5161,0 -199.20478,-88.51209 -199.20507,-198.5664 2.9e-4,-110.05432 88.68896,-198.56641 199.20507,-198.56641 z m 20.26172,472.41406 c 83.52673,0.70766 165.33749,18.5003 222.46875,50.66797 57.13127,32.16767 88.77539,73.3441 88.77539,133.50195 V 924.00391 H 174.63867 V 732.99023 c 0,-56.35712 35.77807,-99.36918 100.47656,-132.88476 64.6985,-33.51558 155.47705,-52.03847 244.39258,-51.28516 z" />
  </g>
</svg>
