<?xml version="1.0" encoding="UTF-8" standalone="no"?>
<svg
   viewBox="0 0 1000 1000"
   preserveAspectRatio="xMidYMid meet"
   version="1.1"
   id="svg18"
   sodipodi:docname="engineering.svg"
   inkscape:version="1.1.1 (3bf5ae0d25, 2021-09-20)"
   xmlns:inkscape="http://www.inkscape.org/namespaces/inkscape"
   xmlns:sodipodi="http://sodipodi.sourceforge.net/DTD/sodipodi-0.dtd"
   xmlns="http://www.w3.org/2000/svg"
   xmlns:svg="http://www.w3.org/2000/svg">
  <defs
     id="defs22" />
  <sodipodi:namedview
     id="namedview20"
     pagecolor="#ffffff"
     bordercolor="#666666"
     borderopacity="1.0"
     inkscape:pageshadow="2"
     inkscape:pageopacity="0.0"
     inkscape:pagecheckerboard="0"
     showgrid="false"
     inkscape:zoom="0.873"
     inkscape:cx="500.57274"
     inkscape:cy="500"
     inkscape:window-width="1922"
     inkscape:window-height="1425"
     inkscape:window-x="468"
     inkscape:window-y="486"
     inkscape:window-maximized="0"
     inkscape:current-layer="svg18" />
  <g
     transform="matrix(1.443645,0,0,1.4665896,-13.613043,68.82957)"
     id="g6">
    <path
       d="M 490.62643,40.493385 635.18724,276.24317 490.62643,511.99388 H 197.54164 L 52.978958,276.24317 197.54164,40.493385 H 490.62643 M 511.41123,3.3677267 H 176.75684 L 9.4296331,276.24317 176.75684,549.11954 H 511.4103 L 678.73657,276.24317 Z"
       id="path2" />
    <path
       d="M 511.4103,77.619043 649.71966,312.11854 511.4103,549.11954 H 218.32551 L 52.978958,276.24317 197.54164,40.493385 H 490.62643 M 511.41123,3.3677267 H 176.75684 L 9.4296331,276.24317 197.54071,586.2452 H 532.19417 L 701.39588,312.74368 Z"
       id="path4" />
  </g>
  <g
     transform="matrix(1.443645,0,0,1.4665896,-13.613043,68.82957)"
     id="g10">
    <path
       d="m 343.37891,182.38086 c -52.48059,0 -95.03516,42.55652 -95.03516,95.03711 0,52.48058 42.55457,95.03711 95.03516,95.03711 52.48058,0 95.03711,-42.55653 95.03711,-95.03711 0,-52.48059 -42.55653,-95.03711 -95.03711,-95.03711 z m 0,1.10937 c 51.88129,0 93.92773,42.04645 93.92773,93.92774 0,51.88129 -42.04644,93.92773 -93.92773,93.92773 -51.88129,0 -93.92774,-42.04644 -93.92774,-93.92773 0,-51.88129 42.04645,-93.92774 93.92774,-93.92774 z m 0,-0.55468 a 94.48204,94.48204 0 0 0 -94.48047,94.48242 94.48204,94.48204 0 0 0 94.48047,94.48242 94.48204,94.48204 0 0 0 94.48242,-94.48242 94.48204,94.48204 0 0 0 -94.48242,-94.48242 z"
       id="path8" />
  </g>
  <g
     transform="matrix(1.443645,0,0,1.4665896,-13.613043,68.82957)"
     id="g16">
    <path
       d="m 408.5752,286.25677 a 60.331638,60.331638 0 0 1 -60.33164,60.33164 60.331638,60.331638 0 0 1 -60.33164,-60.33164 60.331638,60.331638 0 0 1 60.33164,-60.33163 60.331638,60.331638 0 0 1 60.33164,60.33163 z"
       id="path12" />
    <path
       d="m 348.24414,225.57031 c -33.51155,0 -60.68554,27.174 -60.68555,60.68555 0,33.51155 27.174,60.6875 60.68555,60.6875 33.51155,0 60.68555,-27.17595 60.68555,-60.6875 -10e-6,-33.51155 -27.174,-60.68555 -60.68555,-60.68555 z m 0,0.70899 c 33.12887,0 59.97656,26.84769 59.97656,59.97656 0,33.12887 -26.84769,59.97852 -59.97656,59.97851 -33.12887,10e-6 -59.97852,-26.84964 -59.97852,-59.97851 10e-6,-33.12887 26.84965,-59.97656 59.97852,-59.97656 z"
       id="path14" />
  </g>
</svg>
