<?xml version="1.0" encoding="UTF-8" standalone="no"?>
<svg
   viewBox="0 0 1000 1000"
   preserveAspectRatio="xMidYMid meet"
   version="1.1"
   id="svg18"
   sodipodi:docname="engineer.svg"
   inkscape:version="1.1.1 (3bf5ae0d25, 2021-09-20)"
   xmlns:inkscape="http://www.inkscape.org/namespaces/inkscape"
   xmlns:sodipodi="http://sodipodi.sourceforge.net/DTD/sodipodi-0.dtd"
   xmlns="http://www.w3.org/2000/svg"
   xmlns:svg="http://www.w3.org/2000/svg">
  <defs
     id="defs22" />
  <sodipodi:namedview
     id="namedview20"
     pagecolor="#ffffff"
     bordercolor="#666666"
     borderopacity="1.0"
     inkscape:pageshadow="2"
     inkscape:pageopacity="0.0"
     inkscape:pagecheckerboard="0"
     showgrid="false"
     inkscape:zoom="0.61730422"
     inkscape:cx="298.07021"
     inkscape:cy="281.06077"
     inkscape:window-width="1922"
     inkscape:window-height="1425"
     inkscape:window-x="798"
     inkscape:window-y="513"
     inkscape:window-maximized="0"
     inkscape:current-layer="g16" />
  <g
     transform="matrix(1.443645,0,0,1.4665896,-13.613043,68.82957)"
     id="g6" />
  <g
     transform="matrix(1.443645,0,0,1.4665896,-13.613043,68.82957)"
     id="g10" />
  <g
     transform="matrix(1.443645,0,0,1.4665896,-13.613043,68.82957)"
     id="g16">
    <path
       id="path846"
       style="fill:#000000;fill-rule:evenodd;stroke-width:31.2742;paint-order:fill markers stroke"
       transform="matrix(0.69269107,0,0,0.68185401,9.4296333,-46.931718)"
       d="M 500.80859,8.5878906 A 234.19776,234.19777 0 0 0 266.60938,242.78711 234.19776,234.19777 0 0 0 410.92578,458.68945 H 238.67969 v 0.61914 a 123.24619,175.95063 0 0 0 -95.00781,77.72461 l -0.37891,-1.34961 -2.29688,8.17969 a 123.24619,175.95063 0 0 0 -15.51171,55.21289 L 14.126953,995.47656 H 122.61328 v 0.30274 h 595.93164 l -0.0996,0.35351 H 976.7793 L 866.79883,604.64258 a 123.24619,175.95063 0 0 0 -18.97852,-67.56055 l -0.20898,-0.74414 -0.0664,0.23828 a 123.24619,175.95063 0 0 0 -94.64648,-77.53515 v -0.35157 H 590.69141 A 234.19776,234.19777 0 0 0 735.00781,242.78711 234.19776,234.19777 0 0 0 500.80859,8.5878906 Z" />
  </g>
</svg>
