<?xml version="1.0" encoding="UTF-8" standalone="no"?>
<svg
   viewBox="0 0 1000 1000"
   preserveAspectRatio="xMidYMid meet"
   version="1.1"
   id="svg8"
   sodipodi:docname="fuel.svg"
   inkscape:version="1.1.1 (3bf5ae0d25, 2021-09-20)"
   xmlns:inkscape="http://www.inkscape.org/namespaces/inkscape"
   xmlns:sodipodi="http://sodipodi.sourceforge.net/DTD/sodipodi-0.dtd"
   xmlns="http://www.w3.org/2000/svg"
   xmlns:svg="http://www.w3.org/2000/svg">
  <defs
     id="defs12" />
  <sodipodi:namedview
     id="namedview10"
     pagecolor="#ffffff"
     bordercolor="#666666"
     borderopacity="1.0"
     inkscape:pageshadow="2"
     inkscape:pageopacity="0.0"
     inkscape:pagecheckerboard="0"
     showgrid="false"
     inkscape:zoom="0.25154993"
     inkscape:cx="679.78552"
     inkscape:cy="1206.5199"
     inkscape:window-width="2247"
     inkscape:window-height="1545"
     inkscape:window-x="377"
     inkscape:window-y="419"
     inkscape:window-maximized="0"
     inkscape:current-layer="g2387"
     showguides="false" />
  <g
     id="g2387"
     transform="matrix(1.1230386,0,0,1.1230386,-94.132787,10.706696)"
     style="stroke-width:1.71232;stroke-miterlimit:4;stroke-dasharray:none">
    <path
       id="path14369"
       style="color:#000000;fill:#000000;fill-rule:evenodd;stroke-width:3.44529;stroke-miterlimit:4;stroke-dasharray:none;paint-order:fill markers stroke"
       d="m 775.39859,122.29472 c 0,0 -205.30175,258.46797 -210.13332,408.81369 a 199.34701,219.61959 0 0 0 -2.44967,33.38405 199.34701,219.61959 0 0 0 199.34626,219.61851 199.34701,219.61959 0 0 0 199.34626,-219.61851 199.34701,219.61959 0 0 0 -1.69597,-28.20139 C 957.16086,381.80152 775.39859,122.29472 775.39859,122.29472 Z" />
    <path
       id="path14375"
       style="fill-rule:evenodd;stroke-width:1.70049;paint-order:fill markers stroke"
       transform="matrix(0.89044134,0,0,0.89044134,83.819725,-9.5336848)"
       d="M 180.69531,306.17578 V 459.85742 H 27.728516 V 565.18359 H 180.69531 V 711.66211 H 286.02148 V 565.18359 H 433.21484 V 459.85742 H 286.02148 V 306.17578 Z" />
  </g>
</svg>
