<?xml version="1.0" encoding="UTF-8" standalone="no"?>
<svg
   viewBox="0 0 1000 1000"
   preserveAspectRatio="xMidYMid meet"
   version="1.1"
   id="svg10"
   sodipodi:docname="fullscreen.svg"
   inkscape:version="1.1.1 (3bf5ae0d25, 2021-09-20)"
   xmlns:inkscape="http://www.inkscape.org/namespaces/inkscape"
   xmlns:sodipodi="http://sodipodi.sourceforge.net/DTD/sodipodi-0.dtd"
   xmlns="http://www.w3.org/2000/svg"
   xmlns:svg="http://www.w3.org/2000/svg">
  <defs
     id="defs14" />
  <sodipodi:namedview
     id="namedview12"
     pagecolor="#ffffff"
     bordercolor="#666666"
     borderopacity="1.0"
     inkscape:pageshadow="2"
     inkscape:pageopacity="0.0"
     inkscape:pagecheckerboard="0"
     showgrid="false"
     inkscape:zoom="0.873"
     inkscape:cx="732.5315"
     inkscape:cy="387.74341"
     inkscape:window-width="1509"
     inkscape:window-height="1095"
     inkscape:window-x="971"
     inkscape:window-y="612"
     inkscape:window-maximized="0"
     inkscape:current-layer="svg10" />
  <path
     id="path2"
     d="M 0,0 C 0,40.078127 0,80.156253 0,120.23438 V 332.17773 L 106.85352,227.08789 207.75781,327.99219 327.99219,207.75781 228.08984,107.85547 335.625,2.0957031 V 0 H 120.23438 Z"
     sodipodi:nodetypes="ccccccccccc" />
  <path
     id="path2-0"
     d="m 999.428,0 c 0,40.078127 0,80.156253 0,120.23438 V 332.17773 L 892.57447,227.08789 791.67018,327.99219 671.4358,207.75781 771.33815,107.85547 663.803,2.0957027 V 0 h 215.39061 z"
     sodipodi:nodetypes="ccccccccccc" />
  <path
     id="path2-06"
     d="M 0,999.6857 C 0,959.60756 0,919.52942 0,879.45128 V 667.50793 L 106.85352,772.59777 207.75781,671.69347 327.99219,791.92785 228.08984,891.83019 335.625,997.58996 v 2.09574 H 120.23438 Z"
     sodipodi:nodetypes="ccccccccccc" />
  <path
     id="path2-0-0"
     d="m 999.42798,999.6857 c 0,-40.07814 0,-80.15628 0,-120.23442 V 667.50793 L 892.57447,772.59777 791.67018,671.69347 671.4358,791.92785 771.33815,891.83019 663.803,997.58996 v 2.09574 h 215.39061 z"
     sodipodi:nodetypes="ccccccccccc" />
</svg>
