<?xml version="1.0" encoding="UTF-8"?>
<svg viewBox="0 0 1000 1000" preserveAspectRatio="xMidYMid meet">
  <path d="M 209.89285,106.75917 396.18675,293.05306 292.9306,396.30921 106.63671,210.01531 Z m -51.63348,-41.053377 -1e-5,335.624297 H 66.621338 l -5e-6,-335.6243 z m -91.638037,-3e-6 335.624297,1e-6 10e-6,91.638029 -335.6243,-1e-5 z" />
  <path d="M 896.81656,208.97731 710.52267,395.27121 607.26652,292.01506 793.56042,105.72117 Z m 41.05337,-51.63348 -335.62429,-1e-5 V 65.705798 l 335.62429,-1e-5 z m 0,-91.638042 V 401.33009 l -91.63802,1e-5 10e-6,-335.624302 z" />
  <path d="M 209.89284,895.90102 396.18674,709.60713 292.93059,606.35098 106.6367,792.64488 Z m -51.63348,41.05338 -10e-6,-335.6243 H 66.62133 l -1e-5,335.6243 z m -91.63804,0 h 335.6243 l 1e-5,-91.63803 -335.6243,10e-6 z" />
  <path d="M 896.81655,793.68288 710.52266,607.38898 607.26651,710.64513 793.56041,896.93902 Z m 41.05337,51.63348 -335.62429,10e-6 v 91.63802 l 335.62429,10e-6 z m 0,91.63804 V 601.3301 l -91.63802,-10e-6 10e-6,335.6243 z" />
</svg>
