<?xml version="1.0" encoding="UTF-8" standalone="no"?>
<svg
   viewBox="0 0 1000 1000"
   preserveAspectRatio="xMidYMid meet"
   version="1.1"
   id="svg4"
   sodipodi:docname="help.svg"
   inkscape:version="1.1.1 (3bf5ae0d25, 2021-09-20)"
   xmlns:inkscape="http://www.inkscape.org/namespaces/inkscape"
   xmlns:sodipodi="http://sodipodi.sourceforge.net/DTD/sodipodi-0.dtd"
   xmlns="http://www.w3.org/2000/svg"
   xmlns:svg="http://www.w3.org/2000/svg">
  <defs
     id="defs8" />
  <sodipodi:namedview
     id="namedview6"
     pagecolor="#ffffff"
     bordercolor="#666666"
     borderopacity="1.0"
     inkscape:pageshadow="2"
     inkscape:pageopacity="0.0"
     inkscape:pagecheckerboard="0"
     showgrid="false"
     inkscape:zoom="0.873"
     inkscape:cx="394.04353"
     inkscape:cy="478.80871"
     inkscape:window-width="1969"
     inkscape:window-height="1310"
     inkscape:window-x="509"
     inkscape:window-y="734"
     inkscape:window-maximized="0"
     inkscape:current-layer="svg4"
     showguides="false" />
  <path
     id="path16513"
     style="color:#000000;fill:#000000;fill-rule:evenodd;-inkscape-stroke:none;paint-order:fill markers stroke"
     d="m 503.16406,34.638672 c -122.95463,0 -240.90951,48.858732 -327.85156,135.800778 -86.942054,86.94206 -135.80078,204.89694 -135.800781,327.85157 0,122.95463 48.858727,240.9095 135.800781,327.85156 86.94205,86.94205 204.89693,135.80078 327.85156,135.80078 122.95463,0 240.90951,-48.85873 327.85156,-135.80078 C 917.95768,739.20052 966.81641,621.24565 966.81641,498.29102 966.8164,375.33639 917.95768,257.38151 831.01562,170.43945 744.07358,83.497404 626.11869,34.638672 503.16406,34.638672 Z M 508.5293,238.2207 h 0.002 c 41.1601,1e-4 71.50709,3.19359 92.42578,10.74024 30.99533,10.99671 51.83643,32.55122 59.08203,62.11328 l 0.008,0.0273 0.006,0.0274 c 3.39066,14.1791 4.57032,37.99801 4.57032,74.20117 0,39.69673 -1.49996,64.72769 -7.3125,79.77344 v 0.002 c -5.70925,14.83802 -13.90675,26.76504 -24.84766,34.89258 l -0.0547,0.0391 -0.0547,0.041 c -12.19072,8.80442 -37.51843,19.26155 -80.32227,35.18555 -10.30681,4.07864 -15.32124,8.68252 -15.61914,9.21875 l -0.19727,0.35547 -0.22461,0.33594 c 0.24046,-0.36068 -2.22656,7.4896 -2.22656,19.84375 v 68.75 10 h -81.32812 v -85 c 0,-35.026 9.13041,-61.48707 29.78515,-75.46875 l 0.11133,-0.0742 0.11133,-0.0723 c 11.61155,-7.41849 33.79377,-16.04822 69.64062,-28.34765 0.003,-10e-4 0.007,-0.003 0.01,-0.004 17.1713,-6.04773 26.21498,-13.46185 29.4375,-20.24609 l 0.0762,-0.16211 0.084,-0.16016 c 1.44664,-2.78203 3.94921,-15.74118 3.94921,-35.23047 0,-17.467 -0.2935,-31.48955 -0.86328,-41.93554 -0.56851,-10.42277 -1.64495,-17.66679 -2.22461,-19.61524 -4.01004,-12.80881 -10.989,-18.75466 -25.64062,-21.16015 l -0.0586,-0.01 -0.0586,-0.01 c -7.3175,-1.29132 -23.86936,-2.1914 -47.87304,-2.1914 -24.35359,0 -41.05365,1.78561 -47.3125,3.81054 l -0.10157,0.0332 -0.10156,0.0312 c -12.15621,3.64687 -18.36843,11.13264 -21.10352,27.83789 -0.57486,4.06891 -1.06835,15.38976 -1.06835,32.11523 v 21.32813 H 359.46875 V 374.7832 c 0,-27.21124 1.46454,-47.4211 4.97461,-61.7539 l 0.002,-0.002 c 7.11897,-29.04543 25.12872,-50.66029 51.89649,-61.90039 21.12634,-9.0836 51.44091,-12.90613 92.1875,-12.90625 z m -61.16992,457.42188 h 82.26562 10 v 102.8125 h -92.26562 z" />
  <g
     aria-label="?"
     id="text1175"
     style="font-size:800px;fill:#ff0000;stroke:#ff0000;stroke-width:20"
     transform="translate(-24.356482,-17.52843)">
    <g
       id="path14481" />
  </g>
</svg>
