<?xml version="1.0" encoding="UTF-8" standalone="no"?>
<svg
   viewBox="0 0 1000 1000"
   preserveAspectRatio="xMidYMid meet"
   version="1.1"
   id="svg4"
   sodipodi:docname="icarus.svg"
   inkscape:version="1.1.1 (3bf5ae0d25, 2021-09-20)"
   xmlns:inkscape="http://www.inkscape.org/namespaces/inkscape"
   xmlns:sodipodi="http://sodipodi.sourceforge.net/DTD/sodipodi-0.dtd"
   xmlns="http://www.w3.org/2000/svg"
   xmlns:svg="http://www.w3.org/2000/svg">
  <defs
     id="defs8" />
  <sodipodi:namedview
     id="namedview6"
     pagecolor="#ffffff"
     bordercolor="#666666"
     borderopacity="1.0"
     inkscape:pageshadow="2"
     inkscape:pageopacity="0.0"
     inkscape:pagecheckerboard="0"
     showgrid="false"
     inkscape:zoom="0.873"
     inkscape:cx="161.51203"
     inkscape:cy="500.57274"
     inkscape:window-width="2438"
     inkscape:window-height="1454"
     inkscape:window-x="306"
     inkscape:window-y="524"
     inkscape:window-maximized="0"
     inkscape:current-layer="svg4"
     showguides="false" />
  <path
     id="path1045"
     style="fill:#000000;fill-rule:evenodd;stroke-width:78.8657;paint-order:fill markers stroke"
     d="M 300.00781,9.9882812 A 82.905701,80.111126 0 0 0 218.53516,76.072266 h -88.20704 v 16.777343 a 280.06873,441.00803 0 0 1 260.2793,439.796871 280.06873,441.00803 0 0 1 -260.2793,438.96485 v 18.08008 h 384.13086 v -25.39844 c -23.38343,-1.10652 -45.74327,-6.17256 -66.94726,-15.70117 -17.85234,-8.0851 -29.56958,-17.74335 -35.14844,-28.97266 -1.75026,-3.57718 -3.27774,-8.11711 -4.60547,-13.52539 l 315.76367,65.59961 -159.08398,-77.0625 59.50195,-26.32031 v -92.67774 l -117.94726,52.17383 v -7.33203 L 654.75195,753.24609 V 628.84961 l -148.75976,67.23047 v -9.25781 l 193.52343,-89.59375 v -135.1504 l -193.52343,89.59766 v -9.58789 L 742.57422,430.48438 V 280.76953 L 505.99219,392.37109 v -9.23242 L 818.53516,234.25781 V 64.587891 L 505.99219,213.4707 v -8.83593 L 726.33398,97.896484 h 0.86133 V 97.400391 L 408.45898,163.61719 c 3.41009,-13.45772 8.00626,-23.47698 13.94727,-29.59961 19.74564,-20.49988 50.52776,-31.32442 92.05273,-32.73047 V 76.072266 H 381.60938 A 82.905701,80.111126 0 0 0 300.00781,9.9882812 Z m -2.25195,34.1113278 a 50.527494,48.824318 0 0 1 50.5293,48.824219 50.527494,48.824318 0 0 1 -50.5293,48.824222 50.527494,48.824318 0 0 1 -50.52539,-48.824222 50.527494,48.824318 0 0 1 50.52539,-48.824219 z" />
</svg>
