<?xml version="1.0" encoding="UTF-8" standalone="no"?>
<svg
   viewBox="0 0 1000 1000"
   preserveAspectRatio="xMidYMid meet"
   version="1.1"
   id="svg4"
   sodipodi:docname="info.svg"
   inkscape:version="1.2.1 (9c6d41e410, 2022-07-14)"
   xmlns:inkscape="http://www.inkscape.org/namespaces/inkscape"
   xmlns:sodipodi="http://sodipodi.sourceforge.net/DTD/sodipodi-0.dtd"
   xmlns="http://www.w3.org/2000/svg"
   xmlns:svg="http://www.w3.org/2000/svg">
  <defs
     id="defs8" />
  <sodipodi:namedview
     id="namedview6"
     pagecolor="#ffffff"
     bordercolor="#666666"
     borderopacity="1.0"
     inkscape:pageshadow="2"
     inkscape:pageopacity="0.0"
     inkscape:pagecheckerboard="0"
     showgrid="false"
     inkscape:zoom="0.30865211"
     inkscape:cx="-42.118617"
     inkscape:cy="396.88697"
     inkscape:window-width="1969"
     inkscape:window-height="1298"
     inkscape:window-x="741"
     inkscape:window-y="577"
     inkscape:window-maximized="0"
     inkscape:current-layer="svg4"
     inkscape:showpageshadow="2"
     inkscape:deskcolor="#d1d1d1" />
  <path
     id="path1266"
     style="color:#000000;fill:#000000;fill-rule:evenodd;stroke-width:1.04941;-inkscape-stroke:none;paint-order:fill markers stroke"
     d="M 503.16406,11.729165 C 226.87309,26.533484 20.388159,247.28115 16.602212,498.29102 31.406532,774.58198 252.1542,981.06692 503.16406,984.85287 779.45502,970.04855 985.93997,749.30088 989.72592,498.29102 974.92158,222.00006 754.17394,15.515111 503.16406,11.729165 Z m 0,92.993495 C 738.02019,117.29974 893.51448,284.94837 896.73036,498.29102 884.1533,733.14616 716.50547,888.64145 503.16406,891.85732 268.30809,879.28041 112.81159,711.6335 109.59571,498.29102 122.17263,263.43407 289.82034,107.93856 503.16406,104.72266 Z"
     sodipodi:nodetypes="cccccccccc" />
  <rect
     style="fill:#000000;fill-rule:evenodd;stroke-width:90.166;paint-order:fill markers stroke"
     id="rect844"
     width="100.97971"
     height="380.04913"
     x="450.31158"
     y="412.00839" />
  <rect
     style="fill:#000000;fill-rule:evenodd;stroke-width:74.6745;paint-order:fill markers stroke"
     id="rect844-1"
     width="100.97971"
     height="260.6745"
     x="692.20587"
     y="-627.91162"
     transform="rotate(90)" />
  <rect
     style="fill:#000000;fill-rule:evenodd;stroke-width:56.1296;paint-order:fill markers stroke"
     id="rect844-1-1"
     width="100.97971"
     height="147.27823"
     x="412.00839"
     y="-551.29132"
     transform="rotate(90)" />
  <circle
     style="fill:#000000;fill-rule:evenodd;stroke-width:103.313;paint-order:fill markers stroke"
     id="path1037"
     cx="501.23605"
     cy="270.4588"
     r="68.046822" />
</svg>
