<?xml version="1.0" encoding="UTF-8" standalone="no"?>
<svg
   viewBox="0 0 1000 1000"
   preserveAspectRatio="xMidYMid meet"
   version="1.1"
   id="svg4"
   sodipodi:docname="inventory.svg"
   inkscape:version="1.1.1 (3bf5ae0d25, 2021-09-20)"
   xmlns:inkscape="http://www.inkscape.org/namespaces/inkscape"
   xmlns:sodipodi="http://sodipodi.sourceforge.net/DTD/sodipodi-0.dtd"
   xmlns="http://www.w3.org/2000/svg"
   xmlns:svg="http://www.w3.org/2000/svg">
  <defs
     id="defs8" />
  <sodipodi:namedview
     id="namedview6"
     pagecolor="#ffffff"
     bordercolor="#666666"
     borderopacity="1.0"
     inkscape:pageshadow="2"
     inkscape:pageopacity="0.0"
     inkscape:pagecheckerboard="0"
     showgrid="false"
     inkscape:zoom="0.67607354"
     inkscape:cx="862.33222"
     inkscape:cy="721.81497"
     inkscape:window-width="2146"
     inkscape:window-height="1480"
     inkscape:window-x="1110"
     inkscape:window-y="356"
     inkscape:window-maximized="0"
     inkscape:current-layer="g920"
     inkscape:snap-global="false"
     showguides="false">
    <sodipodi:guide
       position="-408.23961,315.16326"
       orientation="1,0"
       id="guide2994" />
  </sodipodi:namedview>
  <g
     id="Layer_5"
     style="fill:#000000"
     transform="matrix(1.3990082,0.22543852,-0.22543852,1.3990082,72.636507,-49.836232)" />
  <g
     id="Layer_3"
     style="fill:#000000"
     transform="matrix(1.2929903,0.57984682,-0.57984682,1.2929903,257.38114,-85.50173)">
    <g
       id="g920"
       style="fill:#000000">
      <path
         id="path7499"
         style="color:#000000;fill-rule:evenodd;stroke-width:1.41938;-inkscape-stroke:none;paint-order:fill markers stroke"
         transform="matrix(0.64390464,-0.28876169,0.28876169,0.64390464,-141.03929,129.37677)"
         d="M 497.31836,6.9003906 113.33594,266.1582 113.08789,715.22852 C 110.7855,714.8367 497.39243,991.43357 497.4082,991.75586 l 384.05664,-276.67383 -0.25,-448.98437 z M 497.00195,70.644531 796.58008,275.70703 497.00391,477.36914 197.42578,275.70508 Z m 334.36914,257.189449 0.2168,351.46485 -305.83203,224.30664 -0.2168,-379.46289 z m -668.20312,24.11914 305.82422,209.08204 -0.0117,21.85156 L 163.1543,373.80078 Z m -0.0371,59.22071 305.82812,209.08594 -0.0117,21.08398 -305.82813,-209.08789 z m -0.0352,58.45312 305.83008,209.08985 -0.0117,19.93554 -305.83008,-209.08789 z m 608.51758,6.35743 -190.69531,129 -1.375,150.38671 190.69336,-129 z m -608.55273,50.95117 305.83398,209.08984 -0.0117,20.85547 -305.83593,-209.0918 z m -0.0352,58.22656 305.83594,209.0918 -0.0137,21.84961 -305.83594,-209.09375 z m -0.0371,59.2207 305.83984,209.09375 -0.0137,21.08399 -305.83984,-209.09571 z" />
    </g>
  </g>
</svg>
