<?xml version="1.0" encoding="UTF-8" standalone="no"?>
<svg
   viewBox="0 0 1000 1000"
   preserveAspectRatio="xMidYMid meet"
   version="1.1"
   id="svg4"
   sodipodi:docname="logo.svg"
   inkscape:version="1.1.1 (3bf5ae0d25, 2021-09-20)"
   xmlns:inkscape="http://www.inkscape.org/namespaces/inkscape"
   xmlns:sodipodi="http://sodipodi.sourceforge.net/DTD/sodipodi-0.dtd"
   xmlns="http://www.w3.org/2000/svg"
   xmlns:svg="http://www.w3.org/2000/svg">
  <defs
     id="defs8" />
  <sodipodi:namedview
     id="namedview6"
     pagecolor="#ffffff"
     bordercolor="#666666"
     borderopacity="1.0"
     inkscape:pageshadow="2"
     inkscape:pageopacity="0.0"
     inkscape:pagecheckerboard="0"
     showgrid="false"
     inkscape:zoom="0.4365"
     inkscape:cx="-270.33219"
     inkscape:cy="948.45361"
     inkscape:window-width="2438"
     inkscape:window-height="1454"
     inkscape:window-x="542"
     inkscape:window-y="414"
     inkscape:window-maximized="0"
     inkscape:current-layer="svg4"
     showguides="false"
     inkscape:snap-nodes="true"
     inkscape:snap-others="false" />
  <path
     id="path951-1-1"
     style="fill:#000000;stroke-width:0.27292"
     d="m 300.23543,247.3766 -4.67638,14.71731 -28.0203,88.18726 -99.88879,33.74683 99.88879,33.74686 32.69668,102.90455 32.69604,-102.90455 99.8883,-33.74686 c 6.25484,0.0512 5.47609,-1.90694 -99.8883,-33.74683 z"
     sodipodi:nodetypes="cccccccccc" />
  <path
     id="path16357-4"
     style="color:#000000;fill:#000000;fill-rule:evenodd;stroke-width:0.886251;-inkscape-stroke:none;paint-order:fill markers stroke"
     d="m 416.8326,158.29649 c -202.11915,3e-5 -366.367702,164.24854 -366.367697,366.3677 2e-6,97.15964 38.605057,190.3599 107.307297,259.06214 68.70223,68.70223 161.90079,107.30553 259.0604,107.30555 h 0.0485 0.0485 c 31.44439,-0.16446 62.6478,-4.45745 92.89188,-12.56156 l -11.43997,-35.48638 c -26.59175,6.99095 -53.98648,10.72408 -81.60256,10.87215 -87.29504,-0.0142 -170.99246,-34.68987 -232.72042,-96.41783 -61.74064,-61.74063 -96.41784,-145.45962 -96.41784,-232.77407 -1e-5,-182.02822 147.1637,-329.19361 329.19191,-329.19364 59.00661,0.002 116.08311,15.91106 165.831,44.99799 l 36.58056,-17.30533 C 556.62281,176.52965 496.44354,158.29919 416.8326,158.29649 Z"
     sodipodi:nodetypes="cssscccccsscccc" />
  <path
     id="path7520-2-8"
     style="fill:#000000;fill-opacity:1;fill-rule:evenodd;stroke-width:62.4232;paint-order:fill markers stroke"
     d="m 961.23717,108.02504 -406.9707,171.5957 -77.46875,223.21289 -230.4668,77.85938 230.4668,77.86328 75.4375,237.42382 c 2.00371,4.49193 178.57421,-72.58007 178.57421,-72.58007 l 30.97071,-98.05664 -161.6875,68.05859 v -31.92383 l 173.3164,-72.95312 36.35352,-115.09375 -209.66992,88.25586 V 629.76332 L 821.39147,536.61293 858.75865,418.30238 600.09264,527.18129 V 495.25551 L 870.38951,381.48011 906.01256,268.69496 600.09264,397.46644 V 365.54066 L 917.83287,231.79457 Z" />
</svg>
