<?xml version="1.0" encoding="UTF-8" standalone="no"?>
<svg
   viewBox="0 0 1000 1000"
   preserveAspectRatio="xMidYMid meet"
   version="1.1"
   id="svg4"
   sodipodi:docname="materials-manufactured.svg"
   inkscape:version="1.1.1 (3bf5ae0d25, 2021-09-20)"
   xmlns:inkscape="http://www.inkscape.org/namespaces/inkscape"
   xmlns:sodipodi="http://sodipodi.sourceforge.net/DTD/sodipodi-0.dtd"
   xmlns="http://www.w3.org/2000/svg"
   xmlns:svg="http://www.w3.org/2000/svg">
  <defs
     id="defs8" />
  <sodipodi:namedview
     id="namedview6"
     pagecolor="#ffffff"
     bordercolor="#666666"
     borderopacity="1.0"
     inkscape:pageshadow="2"
     inkscape:pageopacity="0.0"
     inkscape:pagecheckerboard="0"
     showgrid="false"
     inkscape:zoom="0.47805619"
     inkscape:cx="480.06909"
     inkscape:cy="909.93488"
     inkscape:window-width="2146"
     inkscape:window-height="1480"
     inkscape:window-x="987"
     inkscape:window-y="375"
     inkscape:window-maximized="0"
     inkscape:current-layer="svg4"
     inkscape:snap-global="false" />
  <path
     id="path1549"
     style="fill-rule:evenodd;stroke-width:50;paint-order:fill markers stroke"
     d="M 413.01758 30.994141 C 361.04576 30.994141 315.25164 58.743072 289.67773 100.14453 C 283.01553 110.33558 277.53936 121.36573 273.61914 133.11328 C 238.69828 216.31676 195.94869 296.06316 155.92383 376.90039 C 131.94943 378.52079 112.16915 394.17767 104.13281 415.49219 C 100.99384 422.46675 99.232424 430.13836 99.232422 438.26758 C 99.232422 438.41648 99.242971 438.56234 99.244141 438.71094 L 19.664062 509.56836 C 28.063538 533.19124 24.360733 594.54912 32.517578 627 L 86.283203 617.20898 L 78.693359 530.29688 L 125.80078 491.01562 C 127.2456 490.14722 128.46776 489.55239 129.77539 488.85352 C 137.35528 493.22727 145.92566 496.20722 155.01367 497.42383 L 166.32031 572.11914 L 113.66406 632.85938 L 162.07422 669.70117 C 162.10192 669.75677 233.25977 585.76172 233.25977 585.76172 L 216.27148 474.21875 C 224.45293 464.30792 229.38672 451.92493 229.38672 438.26758 C 229.38672 437.74213 229.35825 437.22479 229.34375 436.70312 C 247.07062 425.8757 423.63907 318.06393 424.06836 320.74805 L 522.55273 739.28906 C 537.0608 851.94474 633.91741 939.75195 750.35547 939.75195 C 876.7184 939.75195 980.10934 836.36294 980.10938 710 C 961.49192 562.52129 850.29843 478.74041 755.41406 367.82422 C 673.2514 277.27451 600.13112 168.3004 520.67188 79.203125 C 520.64778 79.137065 520.62967 79.083657 520.60547 79.017578 C 520.52597 78.799706 520.47387 78.619936 520.39453 78.402344 L 519.58789 78.011719 C 493.06061 49.157361 455.06179 30.994141 413.01758 30.994141 z M 413.01758 86.980469 C 462.43853 86.980469 501.90235 126.44429 501.90234 175.86523 C 501.90235 225.28618 462.43853 264.75 413.01758 264.75 C 363.59665 264.75 324.13281 225.28618 324.13281 175.86523 C 324.13282 126.44429 363.59665 86.980469 413.01758 86.980469 z M 410.94727 123.50781 A 53.341011 53.341011 0 0 0 357.60742 176.84961 A 53.341011 53.341011 0 0 0 410.94727 230.18945 A 53.341011 53.341011 0 0 0 464.28906 176.84961 A 53.341011 53.341011 0 0 0 410.94727 123.50781 z M 541.79688 241.92773 L 740.47266 480.49805 C 666.00379 483.69286 600.43476 522.7514 560.70312 580.75977 L 493.32031 296.25781 C 513.71841 282.57945 530.46393 263.85783 541.79688 241.92773 z M 293.55273 257.52734 C 302.94672 271.20034 314.62414 283.18523 328.01758 292.95117 L 249.00391 345.88086 L 293.55273 257.52734 z M 750.35547 569.03711 C 838.23019 572.82586 888.42604 631.45075 891.32031 710 C 891.32031 788.37734 828.7328 850.96094 750.35547 850.96094 C 671.97813 850.96094 609.39453 788.37734 609.39453 710 C 609.39453 631.62267 671.97813 569.03711 750.35547 569.03711 z M 746.77344 624.4043 A 88.901688 88.901688 0 0 0 657.87305 713.30469 A 88.901688 88.901688 0 0 0 746.77344 802.20703 A 88.901688 88.901688 0 0 0 835.67578 713.30469 A 88.901688 88.901688 0 0 0 746.77344 624.4043 z " />
</svg>
