<?xml version="1.0" encoding="UTF-8" standalone="no"?>
<svg
   viewBox="0 0 1000 1000"
   preserveAspectRatio="xMidYMid meet"
   version="1.1"
   id="svg4"
   sodipodi:docname="materials-manufactured.svg"
   inkscape:version="1.1.1 (3bf5ae0d25, 2021-09-20)"
   xmlns:inkscape="http://www.inkscape.org/namespaces/inkscape"
   xmlns:sodipodi="http://sodipodi.sourceforge.net/DTD/sodipodi-0.dtd"
   xmlns="http://www.w3.org/2000/svg"
   xmlns:svg="http://www.w3.org/2000/svg">
  <defs
     id="defs8" />
  <sodipodi:namedview
     id="namedview6"
     pagecolor="#ffffff"
     bordercolor="#666666"
     borderopacity="1.0"
     inkscape:pageshadow="2"
     inkscape:pageopacity="0.0"
     inkscape:pagecheckerboard="0"
     showgrid="false"
     inkscape:zoom="1.3521471"
     inkscape:cx="469.62347"
     inkscape:cy="440.78045"
     inkscape:window-width="2146"
     inkscape:window-height="1480"
     inkscape:window-x="987"
     inkscape:window-y="375"
     inkscape:window-maximized="0"
     inkscape:current-layer="svg4"
     inkscape:snap-global="false" />
  <path
     id="path1055"
     style="fill-rule:evenodd;stroke-width:17.2263;paint-order:fill markers stroke"
     d="m 289.01983,149.72021 c -49.76226,0 -91.33534,36.52047 -99.31818,84.09395 l -1.2043,-0.59722 -77.80637,157.13636 c -22.033337,1.48921 -39.161374,19.76731 -39.217574,41.85085 0.02632,1.51851 0.134891,3.03448 0.32522,4.54125 l -57.374685,50.30658 2.635266,2.31004 -1.756187,0.41392 21.858712,71.52864 18.604544,-4.37174 -19.82264,-64.86656 42.260834,-37.05338 c 7.744285,11.99466 21.045354,19.24081 35.32281,19.24316 2.52468,-0.003 5.04398,-0.23311 7.52736,-0.68789 l 9.11601,29.82561 -38.48237,58.44692 16.67885,8.44389 42.2293,-64.1294 -1.60246,-0.81206 1.59851,-0.37647 -11.93457,-39.04806 c 10.64789,-7.93574 16.92181,-20.43463 16.92325,-33.71445 l -0.006,-0.0749 106.39426,-80.48106 389.67047,384.15751 c 2.05768,2.1228 4.16548,4.19473 6.31519,6.22451 l 0.77067,0.76081 0.0157,-0.0118 c 35.39746,33.062 82.82313,53.38927 134.82037,53.38927 108.88614,0 197.8716,-88.9874 197.8716,-197.87357 0,-97.24655 -70.99776,-178.56228 -163.7393,-194.84806 L 354.59991,174.16491 c -17.65235,-15.20722 -40.57673,-24.4447 -65.58008,-24.4447 z m 0,33.96674 c 37.06909,0 66.75481,29.68769 66.75481,66.75678 0,37.06909 -29.68572,66.75482 -66.75481,66.75482 -37.0691,0 -66.75482,-29.68573 -66.75482,-66.75482 0,-37.06909 29.68572,-66.75678 66.75482,-66.75678 z m 99.78334,79.74587 318.79424,156.97669 C 649.04002,448.8918 606.53777,505.34086 597.62188,572.21423 L 342.0208,335.84646 c 25.06278,-15.6289 42.80227,-41.88749 46.78237,-72.41364 z m -191.23909,28.74943 c 6.96216,15.15378 29.37504,31.23399 42.50618,41.24549 l -95.7549,72.61203 c -0.86993,-0.86783 -6.21486,-6.87407 -7.15741,-7.66242 z m 595.9978,174.97219 c 72.8221,0 131.14044,58.31836 131.14044,131.14045 0,72.82208 -58.31835,131.14044 -131.14044,131.14044 -72.82211,0 -131.14045,-58.31836 -131.14045,-131.14044 0,-72.8221 58.31833,-131.14045 131.14045,-131.14045 z"
     sodipodi:nodetypes="sccccccccccccccccccccccccccccssccssssssccccccccccsssss" />
</svg>
