<?xml version="1.0" encoding="UTF-8" standalone="no"?>
<svg
   viewBox="0 0 1000 1000"
   preserveAspectRatio="xMidYMid meet"
   version="1.1"
   id="svg4"
   sodipodi:docname="materials-manufactured.svg"
   inkscape:version="1.1.1 (3bf5ae0d25, 2021-09-20)"
   xmlns:inkscape="http://www.inkscape.org/namespaces/inkscape"
   xmlns:sodipodi="http://sodipodi.sourceforge.net/DTD/sodipodi-0.dtd"
   xmlns="http://www.w3.org/2000/svg"
   xmlns:svg="http://www.w3.org/2000/svg">
  <defs
     id="defs8" />
  <sodipodi:namedview
     id="namedview6"
     pagecolor="#ffffff"
     bordercolor="#666666"
     borderopacity="1.0"
     inkscape:pageshadow="2"
     inkscape:pageopacity="0.0"
     inkscape:pagecheckerboard="0"
     showgrid="false"
     inkscape:zoom="0.67607355"
     inkscape:cx="644.90025"
     inkscape:cy="809.08357"
     inkscape:window-width="2146"
     inkscape:window-height="1480"
     inkscape:window-x="987"
     inkscape:window-y="375"
     inkscape:window-maximized="0"
     inkscape:current-layer="svg4"
     inkscape:snap-global="false" />
  <path
     id="path4388"
     style="fill-rule:evenodd;stroke-width:17.4872;paint-order:fill markers stroke"
     d="m 284.29793,141.40933 c -45.03336,0 -83.38863,29.49262 -96.9404,70.10251 l -12.11632,28.81863 -71.97219,145.35609 c -22.367042,1.51176 -39.755678,20.06741 -39.812729,42.4854 0.02672,1.54151 0.889345,-1.42451 1.082556,0.10508 l -58.620011,52.1948 c 6.001055,16.87751 12.374858,53.31787 18.202565,76.5026 l 28.645503,-7.81636 -15.243038,-60.21741 35.768625,-31.23436 c 7.861573,12.17632 19.863254,15.4032 32.855409,13.1533 0,0 -0.88526,-0.98769 1.63573,-1.44937 l 9.25329,37.7864 -27.052061,46.56788 26.314491,12.3264 c 6.74504,-14.90534 30.47815,-59.9252 30.47815,-59.9252 l -9.11251,-45.2712 c 9.55474,-7.12102 10.87395,-16.7999 11.06944,-28.2357 l 78.96322,-52.89659 37.89742,-24.73226 386.81588,381.34162 c 2.08885,2.15495 4.22782,4.25638 6.41009,6.31691 l 0.78317,0.77325 0.0158,-0.0119 c 35.93356,33.56273 84.07743,54.19725 136.86218,54.19725 110.53523,0 200.86786,-90.33459 200.86786,-200.86985 0,-92.73376 -63.60644,-171.1755 -149.35718,-194.05331 l -32.437,-11.29349 -464.68464,-225.20756 c -17.9197,-15.43753 -41.19127,-24.81356 -66.5733,-24.81356 z m 0,34.48123 c 37.63051,0 67.76689,30.13638 67.76689,67.76689 0,37.6305 -30.13638,67.76688 -67.76689,67.76688 -37.63051,0 -67.76489,-30.13638 -67.7649,-67.76688 0,-37.63051 30.13439,-67.76689 67.7649,-67.76689 z m 101.29443,80.95385 323.6231,159.354 c -59.44424,28.91365 -102.59125,86.2176 -111.64217,154.10377 L 338.1026,330.35321 c 25.44236,-15.8656 43.44938,-42.52032 47.48976,-73.5088 z m -183.82651,43.22694 c 8.22979,8.81432 18.61782,17.02624 27.39107,23.67351 l -59.38599,39.781 z m 594.7164,163.57914 c 73.92499,0 133.12675,59.20177 133.12675,133.12676 0,73.92497 -59.20177,133.12676 -133.12675,133.12676 -73.92501,0 -133.12677,-59.20179 -133.12676,-133.12676 0,-73.925 59.20174,-133.12676 133.12676,-133.12676 z"
     sodipodi:nodetypes="sccccccccccccccccccccccccsscccsssssscccccccccsssss" />
</svg>
