<?xml version="1.0" encoding="UTF-8" standalone="no"?>
<!-- Generator: Adobe Illustrator 16.0.0, SVG Export Plug-In . SVG Version: 6.00 Build 0)  -->

<svg
   version="1.1"
   x="0px"
   y="0px"
   width="827.721px"
   height="721.5px"
   viewBox="0 0 827.721 721.5"
   enable-background="new 0 0 827.721 721.5"
   xml:space="preserve"
   id="svg20"
   sodipodi:docname="materials-grade-1.svg"
   inkscape:version="1.1.1 (3bf5ae0d25, 2021-09-20)"
   xmlns:inkscape="http://www.inkscape.org/namespaces/inkscape"
   xmlns:sodipodi="http://sodipodi.sourceforge.net/DTD/sodipodi-0.dtd"
   xmlns="http://www.w3.org/2000/svg"
   xmlns:svg="http://www.w3.org/2000/svg"><defs
   id="defs24" /><sodipodi:namedview
   id="namedview22"
   pagecolor="#ffffff"
   bordercolor="#666666"
   borderopacity="1.0"
   inkscape:pageshadow="2"
   inkscape:pageopacity="0.0"
   inkscape:pagecheckerboard="0"
   showgrid="false"
   inkscape:zoom="1.2099792"
   inkscape:cx="174.38316"
   inkscape:cy="360.75"
   inkscape:window-width="1510"
   inkscape:window-height="1095"
   inkscape:window-x="1331"
   inkscape:window-y="610"
   inkscape:window-maximized="0"
   inkscape:current-layer="svg20" />
<g
   id="Layer_2"
   style="fill:#000000">
	<g
   id="g14"
   style="fill:#000000">
		
		
		
		
		
		
	</g>
</g>
<g
   id="Layer_3"
   style="fill:#000000">
	<path
   id="path870"
   style="fill:#000000"
   d="m 305.878,483.814 231.265,-111.948 7.283,-134.18 -190.834,84.465 z m 522.448,-75.365 -46.92,-0.004 -142.01,231.551 23.473,38.237 z M 269.201,683.58 244.673,723.578 582.581,723.602 558.027,683.6 Z M 164.598,677.869 188.061,639.607 46.303,408.393 -0.619,408.392 Z M 827.721,316.288 661.083,44.495 637.621,82.756 780.801,316.286 Z M 554.445,42.1 578.973,2.102 247.811,2.078 272.367,42.081 Z M 0,316.231 46.921,316.235 189.656,83.5 166.185,45.262 Z" />
</g>
</svg>
