<?xml version="1.0" encoding="UTF-8" standalone="no"?>
<svg
   viewBox="0 0 1000 1000"
   preserveAspectRatio="xMidYMid meet"
   version="1.1"
   id="svg4"
   sodipodi:docname="materials-raw.svg"
   inkscape:version="1.1.1 (3bf5ae0d25, 2021-09-20)"
   xmlns:inkscape="http://www.inkscape.org/namespaces/inkscape"
   xmlns:sodipodi="http://sodipodi.sourceforge.net/DTD/sodipodi-0.dtd"
   xmlns="http://www.w3.org/2000/svg"
   xmlns:svg="http://www.w3.org/2000/svg">
  <defs
     id="defs8" />
  <sodipodi:namedview
     id="namedview6"
     pagecolor="#ffffff"
     bordercolor="#666666"
     borderopacity="1.0"
     inkscape:pageshadow="2"
     inkscape:pageopacity="0.0"
     inkscape:pagecheckerboard="0"
     showgrid="false"
     inkscape:zoom="0.67607354"
     inkscape:cx="405.28135"
     inkscape:cy="295.82581"
     inkscape:window-width="2146"
     inkscape:window-height="1480"
     inkscape:window-x="663"
     inkscape:window-y="310"
     inkscape:window-maximized="0"
     inkscape:current-layer="svg4" />
  <path
     id="path1247"
     style="fill-rule:evenodd;stroke-width:33.8824;paint-order:fill markers stroke"
     d="M 494.0293,14.423828 A 100.94891,100.94891 0 0 0 393.91406,103.71094 C 215.65229,150.99311 83.873047,313.6687 83.873047,506.60156 c -3e-6,110.53334 43.923163,216.5716 122.082033,294.73047 52.60791,52.60791 117.87281,89.61968 188.61133,108.25195 a 100.94891,100.94891 0 0 0 98.1582,78.47461 100.94891,100.94891 0 0 0 97.38477,-74.47461 c 77.14975,-16.95649 148.58539,-55.5307 205.30664,-112.25195 78.15887,-78.15887 122.08008,-184.19713 122.08007,-294.73047 0,-110.53333 -43.9212,-216.5716 -122.08007,-294.73047 C 739.61757,156.07265 669.57751,117.8421 593.86914,100.4668 A 100.94891,100.94891 0 0 0 494.0293,14.423828 Z m 89.74023,146.705082 c 63.16155,15.18986 121.5174,47.47638 168.21485,94.17382 66.65714,66.65714 104.09179,157.0314 104.09179,251.29883 0,94.26743 -37.43466,184.64364 -104.09179,251.30078 -45.88238,45.88239 -103.00291,77.91313 -164.89454,93.42578 a 100.94891,100.94891 0 0 0 -94.36523,-65.16796 100.94891,100.94891 0 0 0 -92.65625,61.23632 C 343.66324,830.74289 291.72919,800.24677 249.38477,757.90234 182.72763,691.2452 145.29297,600.86899 145.29297,506.60156 c 0,-163.77974 110.16475,-301.18215 260.58594,-342.5625 a 100.94891,100.94891 0 0 0 88.15039,52.28125 100.94891,100.94891 0 0 0 89.74023,-55.1914 z M 494.55078,287.38867 A 212.9946,212.9946 0 0 0 281.55469,500.38281 212.9946,212.9946 0 0 0 494.55078,713.37695 212.9946,212.9946 0 0 0 707.54492,500.38281 212.9946,212.9946 0 0 0 494.55078,287.38867 Z" />
</svg>
