<?xml version="1.0" encoding="UTF-8" standalone="no"?>
<svg
   viewBox="0 0 1000 1000"
   preserveAspectRatio="xMidYMid meet"
   version="1.1"
   id="svg4"
   sodipodi:docname="materials-xeno.svg"
   inkscape:version="1.1.1 (3bf5ae0d25, 2021-09-20)"
   xmlns:inkscape="http://www.inkscape.org/namespaces/inkscape"
   xmlns:sodipodi="http://sodipodi.sourceforge.net/DTD/sodipodi-0.dtd"
   xmlns="http://www.w3.org/2000/svg"
   xmlns:svg="http://www.w3.org/2000/svg">
  <defs
     id="defs8" />
  <sodipodi:namedview
     id="namedview6"
     pagecolor="#ffffff"
     bordercolor="#666666"
     borderopacity="1.0"
     inkscape:pageshadow="2"
     inkscape:pageopacity="0.0"
     inkscape:pagecheckerboard="0"
     showgrid="false"
     inkscape:zoom="0.67607354"
     inkscape:cx="405.28135"
     inkscape:cy="295.82581"
     inkscape:window-width="2146"
     inkscape:window-height="1480"
     inkscape:window-x="1006"
     inkscape:window-y="328"
     inkscape:window-maximized="0"
     inkscape:current-layer="svg4" />
  <path
     id="path1295"
     style="color:#000000;fill:#000000;fill-rule:evenodd;stroke-width:1.06275;-inkscape-stroke:none;paint-order:fill markers stroke"
     d="m 406.76758,14.111328 -89.98242,151.119142 91.64453,152.32617 181.62304,1.20898 89.98047,-151.11718 C 649.48567,116.8719 618.93817,66.094899 588.39062,15.318359 Z m 25.21484,41.916016 131.64649,0.878906 66.42578,110.4082 -65.22071,109.53516 -131.64257,-0.875 L 366.76562,165.5625 Z M 102.74023,177.32617 12.759766,328.44531 104.4043,480.77539 l 181.625,1.20899 89.97851,-151.11915 c -30.548,-50.77646 -61.0961,-101.55387 -91.64453,-152.33007 z m 612.26172,12.5918 -89.97851,151.11914 91.64258,152.33008 181.62304,1.20898 89.98242,-151.12109 C 957.72043,292.6809 927.17517,241.90283 896.62695,191.12695 Z m -587.04297,29.32617 131.64649,0.87695 66.42578,110.41016 -65.2207,109.53516 L 129.16406,439.18945 62.738281,328.7793 Z m 612.26172,12.5918 131.64649,0.87695 66.42578,110.41016 -65.2207,109.53515 -131.64454,-0.8789 -66.42578,-110.40821 z m -331.8457,119.0332 -89.97852,151.12109 91.64258,152.32618 181.625,1.20898 89.97852,-151.11914 C 651.09155,453.63121 620.54573,402.85322 589.99805,352.07617 Z m -302.54102,156.89453 -89.980464,151.1211 91.644534,152.32812 181.625,1.20899 89.97851,-151.11915 C 348.55634,610.52481 318.00685,559.74899 287.45898,508.97266 Z m 601.16407,13.82813 -89.98243,151.12109 91.64454,152.32617 181.625,1.20899 89.97851,-151.11719 C 949.71617,624.35429 919.16862,573.57733 888.62109,522.80078 Z m -575.94727,28.08984 131.64649,0.87695 66.42578,110.41211 -65.21875,109.53321 -131.64453,-0.875 L 65.833984,659.2168 Z m 601.16211,13.82813 131.64649,0.87695 66.42773,110.4082 -65.22266,109.53711 -131.64257,-0.875 -66.42579,-110.41211 z M 402.9707,684.80664 312.99219,835.92773 404.63672,988.25781 586.25977,989.4668 676.24023,838.3457 C 645.69222,787.56927 615.14412,736.79377 584.5957,686.01758 Z m 25.21875,41.91992 131.64649,0.875 66.42578,110.41211 -65.2207,109.53321 -131.64454,-0.875 -66.42578,-110.41016 z" />
</svg>
