<?xml version="1.0" encoding="UTF-8" standalone="no"?>
<!-- Generator: Adobe Illustrator 16.0.0, SVG Export Plug-In . SVG Version: 6.00 Build 0)  -->

<svg
   version="1.1"
   x="0px"
   y="0px"
   width="797.16px"
   height="647px"
   viewBox="0 0 797.16 647"
   enable-background="new 0 0 797.16 647"
   xml:space="preserve"
   id="svg16"
   sodipodi:docname="materials-grade-5.svg"
   inkscape:version="1.1.1 (3bf5ae0d25, 2021-09-20)"
   xmlns:inkscape="http://www.inkscape.org/namespaces/inkscape"
   xmlns:sodipodi="http://sodipodi.sourceforge.net/DTD/sodipodi-0.dtd"
   xmlns="http://www.w3.org/2000/svg"
   xmlns:svg="http://www.w3.org/2000/svg"><defs
   id="defs20" /><sodipodi:namedview
   id="namedview18"
   pagecolor="#ffffff"
   bordercolor="#666666"
   borderopacity="1.0"
   inkscape:pageshadow="2"
   inkscape:pageopacity="0.0"
   inkscape:pagecheckerboard="0"
   showgrid="false"
   inkscape:zoom="1.3493045"
   inkscape:cx="398.72394"
   inkscape:cy="323.12944"
   inkscape:window-width="2350"
   inkscape:window-height="1482"
   inkscape:window-x="1255"
   inkscape:window-y="259"
   inkscape:window-maximized="0"
   inkscape:current-layer="svg16" />
<g
   id="Layer_2"
   style="fill:#000000">
	<path
   fill="#ff7100"
   d="M 566.08,54 733.58,323.5 566.08,593 h -335 L 63.58,323.5 231.08,54 h 334.5 M 596.098,0 h -30.018 -335 -30.018 L 185.216,25.245 17.717,294.62 0,323.063 17.717,351.537 185.217,621.271 201.063,647 h 30.018 335 30.018 L 611.945,621.255 779.445,351.63 797.162,323.063 779.445,294.526 611.943,25.26 Z"
   id="path2"
   style="fill:#000000" />
</g>
<g
   id="Layer_3"
   style="fill:#000000">
	<polygon
   fill="#ff7100"
   points="345.914,394.139 312.58,182.333 206.58,144.333 227.914,316.667 "
   id="polygon5"
   style="fill:#000000" />
	<polygon
   fill="#ff7100"
   points="450.914,394.381 239.175,360.632 170.278,449.701 340.77,482.666 "
   id="polygon7"
   style="fill:#000000" />
	<polygon
   fill="#ff7100"
   points="483.591,294.595 386.063,485.542 449.482,578.59 533.519,426.63 "
   id="polygon9"
   style="fill:#000000" />
	<polygon
   fill="#ff7100"
   points="398.786,232.682 550.25,384.442 658.342,352.88 539.787,225.998 "
   id="polygon11"
   style="fill:#000000" />
	<polygon
   fill="#ff7100"
   points="313.697,294.203 504.836,197.05 508.22,84.494 350.913,158.038 "
   id="polygon13"
   style="fill:#000000" />
</g>
</svg>
