<?xml version="1.0" encoding="UTF-8" standalone="no"?>
<svg
   viewBox="0 0 1000 1000"
   preserveAspectRatio="xMidYMid meet"
   version="1.1"
   id="svg4"
   sodipodi:docname="materials-encoded.svg"
   inkscape:version="1.1.1 (3bf5ae0d25, 2021-09-20)"
   xmlns:inkscape="http://www.inkscape.org/namespaces/inkscape"
   xmlns:sodipodi="http://sodipodi.sourceforge.net/DTD/sodipodi-0.dtd"
   xmlns="http://www.w3.org/2000/svg"
   xmlns:svg="http://www.w3.org/2000/svg">
  <defs
     id="defs8" />
  <sodipodi:namedview
     id="namedview6"
     pagecolor="#ffffff"
     bordercolor="#666666"
     borderopacity="1.0"
     inkscape:pageshadow="2"
     inkscape:pageopacity="0.0"
     inkscape:pagecheckerboard="0"
     showgrid="false"
     inkscape:zoom="0.67607354"
     inkscape:cx="334.28316"
     inkscape:cy="686.31587"
     inkscape:window-width="2146"
     inkscape:window-height="1480"
     inkscape:window-x="977"
     inkscape:window-y="465"
     inkscape:window-maximized="0"
     inkscape:current-layer="svg4"
     inkscape:snap-global="true" />
  <path
     id="path1717"
     style="color:#000000;fill:#000000;fill-opacity:1;fill-rule:evenodd;stroke:none;stroke-width:1.10395;stroke-opacity:1;-inkscape-stroke:none;paint-order:fill markers stroke"
     d="M 546.71844,60.252532 439.97739,458.617 479.36494,469.17102 586.106,70.806542 Z M 768.15578,131.7226 c -88.45334,0.13901 -170.18445,62.26103 -194.93284,154.6233 -29.33144,109.46643 31.89365,222.16732 137.63495,250.50063 105.7412,28.33325 215.11744,-38.65484 244.44884,-148.12127 29.3314,-109.46639 -31.8969,-222.16839 -137.63806,-250.50165 -16.52207,-4.42708 -33.13264,-6.52675 -49.51289,-6.50101 z m -0.14767,34.74076 c 13.46799,-0.0174 27.11076,1.71203 40.66232,5.34315 86.7299,23.2392 137.7398,115.78069 113.0513,207.91948 C 897.03323,471.8648 806.58703,526.50283 719.85715,503.26362 633.12717,480.0244 582.11733,387.48295 606.80585,295.34415 627.63678,217.60204 695.28089,166.55757 768.00811,166.46336 Z" />
  <path
     id="path1717-3"
     style="color:#000000;fill:#000000;fill-opacity:1;fill-rule:evenodd;stroke:none;stroke-width:1.10395;stroke-opacity:1;-inkscape-stroke:none;paint-order:fill markers stroke"
     d="m 640.8574,549.34352 -106.74104,398.36443 39.38756,10.554 106.74105,-398.36442 z m 221.43736,71.47007 c -88.45335,0.13901 -170.18446,62.26103 -194.93285,154.62329 -29.33144,109.46641 31.89364,222.16737 137.63495,250.50062 105.74117,28.3334 215.11734,-38.65475 244.44884,-148.12127 29.3314,-109.46638 -31.8969,-222.16836 -137.63807,-250.50163 -16.5221,-4.42708 -33.1326,-6.52676 -49.51287,-6.50101 z m -0.14769,34.74075 c 13.46796,-0.0174 27.11076,1.71203 40.66226,5.34316 86.73,23.2392 137.73987,115.78068 113.05137,207.91948 C 991.17213,960.95575 900.72603,1015.5939 813.99613,992.35465 727.26614,969.11545 676.2563,876.574 700.94481,784.43518 721.77575,706.69303 789.41986,655.64855 862.14707,655.55434 Z" />
  <path
     id="path1717-8"
     style="color:#000000;fill:#000000;fill-opacity:1;fill-rule:evenodd;stroke:none;stroke-width:1.10395;stroke-opacity:1;-inkscape-stroke:none;paint-order:fill markers stroke"
     d="M 41.690009,-48.62829 -65.05104,349.73618 -25.663471,360.2902 81.077579,-38.074274 Z M 263.12736,22.841782 C 174.67402,22.980792 92.942909,85.102812 68.194519,177.46509 38.863079,286.93151 100.08817,399.6324 205.82947,427.96571 311.57067,456.29897 420.94683,389.31087 450.27828,279.84444 479.6097,170.37805 418.38145,57.676062 312.64025,29.342792 c -16.52207,-4.42708 -33.13263,-6.52675 -49.51289,-6.50101 z m -0.14767,34.74076 c 13.468,-0.0174 27.11076,1.71203 40.66232,5.34315 86.72988,23.2392 137.73982,115.780688 113.05131,207.919478 C 392.00481,362.98398 301.55861,417.62201 214.82873,394.38281 128.09876,371.14358 77.088909,278.60213 101.77742,186.46333 122.60837,108.72122 190.25247,57.676752 262.97969,57.582542 Z" />
  <path
     id="path1717-3-5"
     style="color:#000000;fill:#000000;fill-opacity:1;fill-rule:evenodd;stroke:none;stroke-width:1.10395;stroke-opacity:1;-inkscape-stroke:none;paint-order:fill markers stroke"
     d="m 135.82898,440.4627 -106.741041,398.36447 39.38756,10.554 106.741051,-398.36446 z m 221.43736,71.47008 c -88.45335,0.13901 -170.18446,62.26102 -194.93285,154.62329 -29.33144,109.46642 31.89365,222.16734 137.63495,250.50068 105.7412,28.3332 215.11737,-38.65485 244.44884,-148.1213 29.33142,-109.46642 -31.89685,-222.1684 -137.63805,-250.50167 -16.52209,-4.42708 -33.13264,-6.52675 -49.51289,-6.501 z m -0.14769,34.74075 c 13.46801,-0.0175 27.11077,1.71202 40.66233,5.34316 86.72988,23.2392 137.73983,115.78068 113.05131,207.91947 C 486.14378,852.07496 395.69757,906.71305 308.9677,883.4738 222.23772,860.2346 171.22788,767.69316 195.91639,675.55436 216.74733,597.81221 284.39144,546.76774 357.11865,546.67353 Z" />
</svg>
