<?xml version="1.0" encoding="UTF-8" standalone="no"?>
<svg
   viewBox="0 0 1000 1000"
   preserveAspectRatio="xMidYMid meet"
   version="1.1"
   id="svg4"
   sodipodi:docname="materials-encoded.svg"
   inkscape:version="1.1.1 (3bf5ae0d25, 2021-09-20)"
   xmlns:inkscape="http://www.inkscape.org/namespaces/inkscape"
   xmlns:sodipodi="http://sodipodi.sourceforge.net/DTD/sodipodi-0.dtd"
   xmlns="http://www.w3.org/2000/svg"
   xmlns:svg="http://www.w3.org/2000/svg">
  <defs
     id="defs8" />
  <sodipodi:namedview
     id="namedview6"
     pagecolor="#ffffff"
     bordercolor="#666666"
     borderopacity="1.0"
     inkscape:pageshadow="2"
     inkscape:pageopacity="0.0"
     inkscape:pagecheckerboard="0"
     showgrid="false"
     inkscape:zoom="0.67607354"
     inkscape:cx="334.28316"
     inkscape:cy="659.69155"
     inkscape:window-width="2146"
     inkscape:window-height="1480"
     inkscape:window-x="977"
     inkscape:window-y="465"
     inkscape:window-maximized="0"
     inkscape:current-layer="svg4"
     inkscape:snap-global="false" />
  <path
     id="path1769"
     style="color:#000000;fill:#000000;fill-opacity:1;fill-rule:evenodd;stroke:none;stroke-width:0.677891;stroke-opacity:1;-inkscape-stroke:none;paint-order:fill markers stroke"
     d="m 808.63991,66.772298 c -36.9918,0.57877 -72.95392,13.64432 -100.92322,38.096022 -9.74964,8.52346 -18.52751,18.42983 -26.0403,29.67393 -48.08163,71.96217 -25.72439,170.86883 48.77297,220.64436 74.4974,49.77554 174.42929,32.57692 222.51095,-39.38524 48.08169,-71.96224 25.7219,-170.86631 -48.77545,-220.641852 -29.4643,-19.6866 -62.90511,-28.89791 -95.54495,-28.38722 z m 6.96615,53.889932 c 37.56502,0.34501 74.32296,22.36613 92.94415,60.12437 25.90771,52.53326 6.27371,114.37856 -43.17566,138.7654 -49.44937,24.38688 -110.46594,2.31677 -136.37367,-50.21647 -21.85966,-44.32492 -11.29756,-95.2788 22.2399,-124.7684 6.21071,-5.46096 13.2093,-10.18654 20.93577,-13.997 13.90761,-6.85879 28.73016,-10.04291 43.42951,-9.9079 z m -579.49909,23.13089 -49.39517,43.32 418.38927,477.06518 0.15182,-0.13192 185.46271,211.47313 49.39765,-43.32001 -418.38927,-477.06516 -0.15182,0.1319 z m 251.64978,54.39516 -47.80979,41.92876 326.1171,371.85374 47.8098,-41.93126 z m -239.42729,209.97985 -47.80981,41.93125 326.1171,371.85125 47.8098,-41.93126 z m -71.51312,206.41839 c -36.9918,0.57877 -72.95392,13.64432 -100.923235,38.09601 -9.749638,8.52346 -18.527498,18.42984 -26.04028,29.67394 -48.0816378,71.96216 -25.72439,170.86882 48.772966,220.64435 74.497399,49.77554 174.429289,32.57692 222.510949,-39.38523 48.0817,-71.96225 25.72439,-170.86632 -48.77296,-220.64186 -29.4643,-19.6866 -62.90761,-28.89791 -95.54744,-28.38721 z m 6.96614,53.88992 c 37.56502,0.34502 74.32545,22.36613 92.94664,60.12438 25.90771,52.53326 6.27372,114.37607 -43.17566,138.7629 -49.44936,24.38689 -110.46842,2.31678 -136.376151,-50.21647 -21.859661,-44.3249 -11.297577,-95.27631 22.239891,-124.7659 6.21071,-5.46097 13.20928,-10.18655 20.93576,-13.99701 13.90763,-6.85879 28.73017,-10.04291 43.42952,-9.9079 z" />
</svg>
