<?xml version="1.0" encoding="UTF-8" standalone="no"?>
<svg
   viewBox="0 0 1000 1000"
   preserveAspectRatio="xMidYMid meet"
   version="1.1"
   id="svg8"
   sodipodi:docname="megaship.svg"
   inkscape:version="1.1.1 (3bf5ae0d25, 2021-09-20)"
   xmlns:inkscape="http://www.inkscape.org/namespaces/inkscape"
   xmlns:sodipodi="http://sodipodi.sourceforge.net/DTD/sodipodi-0.dtd"
   xmlns="http://www.w3.org/2000/svg"
   xmlns:svg="http://www.w3.org/2000/svg">
  <defs
     id="defs12" />
  <sodipodi:namedview
     id="namedview10"
     pagecolor="#ffffff"
     bordercolor="#666666"
     borderopacity="1.0"
     inkscape:pageshadow="2"
     inkscape:pageopacity="0.0"
     inkscape:pagecheckerboard="0"
     showgrid="false"
     inkscape:zoom="0.32"
     inkscape:cx="-35.9375"
     inkscape:cy="1135.9375"
     inkscape:window-width="2045"
     inkscape:window-height="1133"
     inkscape:window-x="1021"
     inkscape:window-y="818"
     inkscape:window-maximized="0"
     inkscape:current-layer="g2387" />
  <g
     id="g2387"
     transform="matrix(1.1230386,0,0,1.1230386,-94.132787,10.706696)">
    <path
       id="path853"
       style="stroke-width:0.581812"
       d="m 453.89305,390.22652 h 151.27132 v 35.49059 H 453.89305 Z m 75.63567,-90.18088 c 59.44556,0 107.63538,48.18983 107.63538,107.63537 0,59.44554 -48.18982,107.63537 -107.63538,107.63537 -59.44555,0 -107.63536,-48.18983 -107.63536,-107.63537 0,-59.44554 48.18981,-107.63537 107.63536,-107.63537 m 0,-21.52708 c -17.42763,0 -34.34499,3.41811 -50.28258,10.15905 -15.38313,6.50633 -29.19421,15.81661 -41.04981,27.67217 -11.85443,11.85498 -21.1646,25.66605 -27.67218,41.04917 -6.73972,15.93707 -10.15786,32.85446 -10.15786,50.28206 0,17.42702 3.41814,34.34441 10.15903,50.28262 6.50641,15.38312 15.81658,29.19419 27.67275,41.04917 11.85502,11.85558 25.66553,21.16584 41.04923,27.67275 15.93643,6.73969 32.85379,10.15791 50.28142,10.15791 17.42704,0 34.34442,-3.41822 50.28258,-10.15906 15.38315,-6.50758 29.19422,-15.81775 41.04981,-27.67274 11.85501,-11.85498 21.16519,-25.66491 27.67219,-41.04929 6.73972,-15.93695 10.15787,-32.85434 10.15787,-50.28136 0,-17.4276 -3.41815,-34.34499 -10.15904,-50.28262 -6.50698,-15.38314 -15.81715,-29.19419 -27.67277,-41.04918 -11.85501,-11.85499 -25.66491,-21.16527 -41.0492,-27.67218 -15.93702,-6.74036 -32.8544,-10.15847 -50.28144,-10.15847 z M 238.28446,66.755979 v 2.2275 l -0.96422,-0.556422 -28.86145,49.989163 -85.09272,147.38299 -28.861412,49.98918 0.964219,0.55643 -1.928448,1.11465 24.781601,42.92244 267.40343,463.15527 1.92844,-1.11284 v 1.11284 h 227.90652 57.7211 v -1.11465 l 1.93025,1.11465 24.78162,-42.92425 150.42429,-260.5433 92.19571,-159.68772 24.78162,-42.92244 -1.92844,-1.11465 0.96422,-0.55643 -28.86146,-49.98918 -113.95234,-197.372153 -0.96604,0.558232 v -2.22931 h -49.56326 z m 30.08485,52.107911 h 504.71838 19.48022 l 14.78234,25.60448 99.87686,172.9911 -252.36009,437.09949 -9.74011,16.87029 H 615.56042 415.81031 L 163.4484,334.32976 l -9.7401,-16.87029 14.78415,-25.6063 85.09271,-147.3848 z m 17.48108,42.67233 -86.44479,149.72649 0.21931,0.12687 0.002,0.002 244.39619,423.30493 v 0.25738 h 172.88961 v -0.25738 l 244.39617,-423.30675 0.22113,-0.12686 -86.44299,-149.7265 -0.2193,0.12687 h -488.7981 z m 32.58242,47.78161 h 424.0716 l 30.67753,53.1356 30.67753,53.1356 L 697.8402,499.21739 591.82276,682.84576 H 469.11264 l -212.0367,-367.25673 30.67935,-53.1356 z" />
  </g>
</svg>
