<?xml version="1.0" encoding="UTF-8" standalone="no"?>
<svg
   viewBox="0 0 1000 1000"
   preserveAspectRatio="xMidYMid meet"
   version="1.1"
   id="svg8"
   sodipodi:docname="megaship.svg"
   inkscape:version="1.2.1 (9c6d41e410, 2022-07-14)"
   xmlns:inkscape="http://www.inkscape.org/namespaces/inkscape"
   xmlns:sodipodi="http://sodipodi.sourceforge.net/DTD/sodipodi-0.dtd"
   xmlns="http://www.w3.org/2000/svg"
   xmlns:svg="http://www.w3.org/2000/svg">
  <defs
     id="defs12" />
  <sodipodi:namedview
     id="namedview10"
     pagecolor="#ffffff"
     bordercolor="#666666"
     borderopacity="1.0"
     inkscape:pageshadow="2"
     inkscape:pageopacity="0.0"
     inkscape:pagecheckerboard="0"
     showgrid="false"
     inkscape:zoom="0.16"
     inkscape:cx="-3200"
     inkscape:cy="-56.25"
     inkscape:window-width="2045"
     inkscape:window-height="1133"
     inkscape:window-x="1149"
     inkscape:window-y="691"
     inkscape:window-maximized="0"
     inkscape:current-layer="g2387"
     inkscape:showpageshadow="2"
     inkscape:deskcolor="#d1d1d1" />
  <g
     id="g2387"
     transform="matrix(1.1230386,0,0,1.1230386,-94.132787,10.706696)">
    <path
       id="path853"
       style="stroke:#000000;stroke-width:0.581458;stroke-dasharray:none;stroke-opacity:1"
       d="m 391.45686,373.11251 h 278.36978 v 65.30985 H 391.45686 Z M 530.64177,216.06589 c 109.39183,0 189.16642,79.77461 189.16642,189.16641 0,109.39179 -79.77459,189.1664 -189.16642,189.1664 -109.39182,0 -189.16639,-79.77461 -189.16639,-189.1664 0,-109.3918 79.77457,-189.16641 189.16639,-189.16641 m 0,-48.51858 c -32.07036,0 -63.20172,6.29001 -92.5301,18.6947 -28.30807,11.97296 -53.72324,29.10576 -75.53994,50.92238 -21.81455,21.81556 -38.94714,47.23072 -50.9224,75.53876 -12.40245,29.32743 -18.69251,60.45884 -18.69251,92.52915 0,32.06923 6.29006,63.20065 18.69466,92.53017 11.97311,28.30805 29.1057,53.7232 50.92345,75.53876 21.81563,21.81666 47.22976,38.94942 75.53887,50.92345 29.32625,12.40239 60.45761,18.69261 92.52797,18.69261 32.06927,0 63.20067,-6.29022 92.5301,-18.69473 28.3081,-11.97526 53.72326,-29.10785 75.53994,-50.92343 21.81561,-21.81555 38.94822,-47.22861 50.92241,-75.53898 12.40245,-29.3272 18.69254,-60.45862 18.69254,-92.52785 0,-32.07031 -6.29009,-63.20172 -18.69469,-92.53018 -11.97416,-28.30808 -29.10675,-53.7232 -50.92348,-75.53878 -21.81561,-21.81557 -47.22862,-38.94837 -75.53882,-50.9224 -29.32733,-12.40362 -60.45873,-18.69363 -92.528,-18.69363 z M 238.28446,66.755979 v 2.2275 l -0.96422,-0.556422 C 184.56724,159.79735 144.01884,230.02774 94.504658,315.78839 l 0.964219,0.55643 -1.928448,1.11465 C 190.93586,486.1518 288.33052,654.84457 385.72546,823.53718 l 1.92844,-1.11284 v 1.11284 h 285.62762 v -1.11465 l 1.93025,1.11465 C 784.59859,634.07214 873.35715,480.33559 967.39501,317.45947 l -1.92844,-1.11465 0.96422,-0.55643 C 918.82581,233.33483 871.22151,150.88088 823.61699,68.427057 l -0.96604,0.558232 v -2.22931 z m 30.08485,52.107911 h 524.1986 c 38.21905,66.19892 76.43935,132.39712 114.6592,198.59558 -87.36681,151.32321 -174.73333,302.6466 -262.1002,453.96978 H 415.81031 C 328.4432,620.10586 241.07525,468.78295 153.7083,317.45947 193.00385,249.40111 234.4035,177.68919 268.36931,118.86389 Z"
       sodipodi:nodetypes="ccccccssscssccscccscccscccscccccccccccccccccccccccccc" />
  </g>
</svg>
