<?xml version="1.0" encoding="UTF-8" standalone="no"?>
<svg
   viewBox="0 0 1000 1000"
   preserveAspectRatio="xMidYMid meet"
   version="1.1"
   id="svg8"
   sodipodi:docname="megaship.svg"
   inkscape:version="1.1.1 (3bf5ae0d25, 2021-09-20)"
   xmlns:inkscape="http://www.inkscape.org/namespaces/inkscape"
   xmlns:sodipodi="http://sodipodi.sourceforge.net/DTD/sodipodi-0.dtd"
   xmlns="http://www.w3.org/2000/svg"
   xmlns:svg="http://www.w3.org/2000/svg">
  <defs
     id="defs12" />
  <sodipodi:namedview
     id="namedview10"
     pagecolor="#ffffff"
     bordercolor="#666666"
     borderopacity="1.0"
     inkscape:pageshadow="2"
     inkscape:pageopacity="0.0"
     inkscape:pagecheckerboard="0"
     showgrid="false"
     inkscape:zoom="0.32"
     inkscape:cx="-34.375"
     inkscape:cy="1135.9375"
     inkscape:window-width="2045"
     inkscape:window-height="1133"
     inkscape:window-x="1021"
     inkscape:window-y="818"
     inkscape:window-maximized="0"
     inkscape:current-layer="g2387" />
  <g
     id="g2387"
     transform="matrix(1.1230386,0,0,1.1230386,-94.132787,10.706696)">
    <path
       id="rect6"
       style="stroke-width:0.55828"
       d="m 455.07257,395.28613 h 145.15297 v 34.05513 H 455.07257 Z m 72.5765,-86.53341 c 57.04121,0 103.28193,46.24074 103.28193,103.28193 0,57.04119 -46.24072,103.28193 -103.28193,103.28193 -57.04121,0 -103.28192,-46.24074 -103.28192,-103.28193 0,-57.04119 46.24071,-103.28193 103.28192,-103.28193 m 0,-20.65639 c -16.72275,0 -32.95587,3.27986 -48.24885,9.74815 -14.76094,6.24318 -28.01341,15.17689 -39.3895,26.55294 -11.37496,11.37549 -20.30857,24.62796 -26.55294,39.38889 -6.46713,15.29247 -9.74702,31.52562 -9.74702,48.24834 0,16.72216 3.27989,32.95531 9.74814,48.24888 6.24325,14.76093 15.17686,28.0134 26.55349,39.38889 11.37553,11.37606 24.62746,20.30976 39.38895,26.55349 15.29186,6.46709 31.52498,9.74706 48.24773,9.74706 16.72218,0 32.95531,-3.27997 48.24884,-9.74816 14.76096,-6.24438 28.01342,-15.17799 39.3895,-26.55349 11.37552,-11.37549 20.30914,-24.62686 26.55295,-39.389 6.46713,-15.29236 9.74703,-31.52551 9.74703,-48.24767 0,-16.72272 -3.2799,-32.95587 -9.74815,-48.24888 -6.2438,-14.76095 -15.17741,-28.0134 -26.55351,-39.3889 -11.37552,-11.3755 -24.62686,-20.30921 -39.38892,-26.55294 -15.29243,-6.46774 -31.52556,-9.7476 -48.24774,-9.7476 z M 248.18453,84.898719 v 2.137406 l -0.92522,-0.533917 -27.69412,47.967312 -81.65104,141.42191 -27.69411,47.96731 0.92522,0.53392 -1.85045,1.06957 23.77931,41.18639 256.58798,444.4224 1.85044,-1.06783 v 1.06783 h 218.68857 55.3865 v -1.06957 l 1.85218,1.06957 23.7793,-41.18813 144.3402,-250.00531 88.46674,-153.22896 23.7793,-41.18639 -1.85044,-1.06957 0.92522,-0.53392 -27.69412,-47.96731 -109.34341,-189.389222 -0.92696,0.535654 V 84.898719 H 761.357 Z m 28.86803,50.000361 H 761.357 780.04932 l 14.18445,24.56888 95.83722,165.99427 -242.15308,419.42048 -9.34616,16.18795 H 610.20111 418.53013 L 176.3753,341.65018 l -9.34615,-16.18795 14.18619,-24.57062 81.65103,-141.42365 z m 16.77404,40.9464 -82.94843,143.67062 0.21044,0.12174 0.002,0.002 234.51129,406.18385 v 0.24697 h 165.89688 v -0.24697 l 234.51128,-406.1856 0.21218,-0.12173 -82.9467,-143.67063 -0.21043,0.12174 H 294.03704 Z m 31.26458,45.84903 H 732.0107 l 29.43674,50.98646 29.43674,50.98647 -101.73119,176.20129 -101.72944,176.2013 H 469.67659 L 266.21596,323.66744 295.65445,272.68097 Z" />
  </g>
</svg>
