<?xml version="1.0" encoding="UTF-8" standalone="no"?>
<svg
   viewBox="0 0 1000 1000"
   preserveAspectRatio="xMidYMid meet"
   version="1.1"
   id="svg8"
   sodipodi:docname="notifications-disabled.svg"
   inkscape:version="1.1.1 (3bf5ae0d25, 2021-09-20)"
   xmlns:inkscape="http://www.inkscape.org/namespaces/inkscape"
   xmlns:sodipodi="http://sodipodi.sourceforge.net/DTD/sodipodi-0.dtd"
   xmlns="http://www.w3.org/2000/svg"
   xmlns:svg="http://www.w3.org/2000/svg">
  <defs
     id="defs12" />
  <sodipodi:namedview
     id="namedview10"
     pagecolor="#ffffff"
     bordercolor="#666666"
     borderopacity="1.0"
     inkscape:pageshadow="2"
     inkscape:pageopacity="0.0"
     inkscape:pagecheckerboard="0"
     showgrid="false"
     inkscape:zoom="0.32"
     inkscape:cx="23.4375"
     inkscape:cy="1135.9375"
     inkscape:window-width="2045"
     inkscape:window-height="1133"
     inkscape:window-x="744"
     inkscape:window-y="663"
     inkscape:window-maximized="0"
     inkscape:current-layer="path1255" />
  <g
     id="g2387"
     transform="matrix(1.1230386,0,0,1.1230386,-94.132787,10.706696)">
    <g
       id="path1255"
       inkscape:transform-center-x="-0.32243286"
       inkscape:transform-center-y="38.572236"
       transform="matrix(0.89044134,0,0,0.89044134,83.819725,-9.5336848)">
      <path
         id="path3632"
         style="color:#000000;fill:#000000;fill-rule:evenodd;stroke-linecap:square;stroke-linejoin:bevel;stroke-miterlimit:16.6;-inkscape-stroke:none;paint-order:stroke markers fill"
         d="m 56.855469,104.07227 -25.462891,25.46289 v 615.07226 l 97.767582,-88.92383 v -72.78515 h 80.02148 l 95.58594,-86.93946 H 129.12891 V 390.81836 h 291.23437 l 95.64453,-86.99414 H 129.12891 V 198.68359 h 502.47461 l 104.01953,-94.61132 z m 920.492191,33.5957 -103.35157,94.00391 v 72.15234 h -79.32812 l -95.64453,86.99414 H 873.99609 V 495.95898 H 583.42773 l -95.58398,86.93946 h 112.62109 c 3.13391,3.84069 6.07532,7.97211 8.81055,12.41211 v 90.03906 l -235.4375,1.24414 -98.92773,89.98047 h 330.11718 l 103.07618,180.2539 44.10156,0.18165 105.17383,-180.43555 h 94.50586 l 25.46289,-25.46289 z" />
      <rect
         style="fill:#000000;fill-rule:evenodd;stroke-width:68.5435;paint-order:fill markers stroke"
         id="rect950"
         width="1192.3711"
         height="110.66917"
         x="-530.01672"
         y="611.12714"
         transform="rotate(-42.591444)" />
    </g>
  </g>
</svg>
