<?xml version="1.0" encoding="UTF-8" standalone="no"?>
<svg
   viewBox="0 0 1000 1000"
   preserveAspectRatio="xMidYMid meet"
   version="1.1"
   id="svg8"
   sodipodi:docname="ocellus-starport.svg"
   inkscape:version="1.2.1 (9c6d41e410, 2022-07-14)"
   xmlns:inkscape="http://www.inkscape.org/namespaces/inkscape"
   xmlns:sodipodi="http://sodipodi.sourceforge.net/DTD/sodipodi-0.dtd"
   xmlns="http://www.w3.org/2000/svg"
   xmlns:svg="http://www.w3.org/2000/svg">
  <defs
     id="defs12" />
  <sodipodi:namedview
     id="namedview10"
     pagecolor="#ffffff"
     bordercolor="#666666"
     borderopacity="1.0"
     inkscape:pageshadow="2"
     inkscape:pageopacity="0.0"
     inkscape:pagecheckerboard="0"
     showgrid="false"
     inkscape:zoom="0.30865211"
     inkscape:cx="777.57447"
     inkscape:cy="1096.704"
     inkscape:window-width="1931"
     inkscape:window-height="1446"
     inkscape:window-x="1532"
     inkscape:window-y="574"
     inkscape:window-maximized="0"
     inkscape:current-layer="svg8"
     inkscape:showpageshadow="2"
     inkscape:deskcolor="#d1d1d1" />
  <path
     id="path1230"
     style="color:#000000;fill:#000000;fill-rule:evenodd;paint-order:fill markers stroke"
     d="M 497.22461 26.697266 C 375.58497 26.697264 258.97462 76.729974 173.25195 165.375 C 87.529294 254.02002 39.558594 373.96976 39.558594 498.94336 C 39.558591 623.91695 87.529294 743.86864 173.25195 832.51367 C 258.97462 921.1587 375.58497 971.18946 497.22461 971.18945 C 618.86425 971.18945 735.47266 921.1587 821.19531 832.51367 C 906.91798 743.86865 954.89063 623.91695 954.89062 498.94336 C 954.89062 373.96976 906.91798 254.02002 821.19531 165.375 C 735.47266 76.729975 618.86425 26.697266 497.22461 26.697266 z M 497.22461 86.697266 C 602.43264 86.697266 703.38159 129.85511 778.06445 207.08398 C 852.74732 284.31287 894.89063 389.33583 894.89062 498.94336 C 894.89063 608.55089 852.74732 713.57386 778.06445 790.80273 C 703.38159 868.03162 602.43264 911.18945 497.22461 911.18945 C 392.01657 911.18945 291.06763 868.03162 216.38477 790.80273 C 141.70189 713.57386 99.558591 608.55089 99.558594 498.94336 C 99.558594 389.33583 141.70189 284.31287 216.38477 207.08398 C 291.06763 129.85511 392.01657 86.697264 497.22461 86.697266 z M 497.95508 266.73438 C 368.98002 269.27917 267.66193 374.05809 266.73438 497.95508 C 269.27938 626.92691 374.06059 728.24988 497.95508 729.17773 C 626.92715 726.63048 728.24985 621.84959 729.17773 497.95508 C 726.6306 368.98218 621.84938 267.66184 497.95508 266.73438 z M 497.95508 305.27148 C 604.37216 305.27148 690.64063 391.538 690.64062 497.95508 C 690.64062 604.37216 604.37216 690.64063 497.95508 690.64062 C 391.538 690.64062 305.27148 604.37216 305.27148 497.95508 C 305.27148 391.538 391.538 305.27148 497.95508 305.27148 z M 362.55469 466.70898 L 362.55469 530.24219 L 633.35547 530.24219 L 633.35547 466.70898 L 362.55469 466.70898 z " />
</svg>
