<?xml version="1.0" encoding="UTF-8"?>
<svg viewBox="0 0 1000 1000" preserveAspectRatio="xMidYMid meet">
  <path d="M455,37c230.855,0,418,187.145,418,418c0,230.854-187.145,418-418,418C224.145,873,37,685.854,37,455
           C37,224.145,224.145,37,455,37 M455,0c-61.408,0-121,12.035-177.118,35.771c-54.186,22.918-102.841,55.721-144.616,97.495
           s-74.577,90.43-97.495,144.616C12.035,334,0,393.592,0,455s12.035,121,35.771,177.118c22.918,54.186,55.721,102.841,97.495,144.615
           c41.774,41.773,90.43,74.576,144.616,97.494C334,897.965,393.592,910,455,910s121-12.035,177.118-35.771
           c54.186-22.918,102.841-55.722,144.615-97.495c41.773-41.774,74.577-90.431,97.495-144.615C897.965,576,910,516.408,910,455
           s-12.035-121-35.771-177.118c-22.918-54.186-55.721-102.841-97.494-144.616c-41.774-41.775-90.431-74.577-144.615-97.495
           C576,12.035,516.408,0,455,0L455,0z"/>
  <path d="M455,270c102.173,0,185,82.827,185,185s-82.827,185-185,185s-185-82.827-185-185S352.827,270,455,270
           M455,233c-29.954,0-59.031,5.875-86.424,17.461c-26.44,11.183-50.178,27.185-70.555,47.562
           c-20.375,20.376-36.377,44.114-47.562,70.554C238.875,395.969,233,425.046,233,455c0,29.953,5.875,59.03,17.461,86.424
           c11.183,26.44,27.185,50.178,47.563,70.554c20.376,20.377,44.113,36.379,70.554,47.563C395.969,671.125,425.046,677,455,677
           c29.953,0,59.03-5.875,86.424-17.461c26.44-11.185,50.178-27.187,70.555-47.563c20.376-20.376,36.378-44.112,47.562-70.554
           C671.125,514.03,677,484.953,677,455c0-29.954-5.875-59.031-17.461-86.424c-11.184-26.44-27.186-50.178-47.563-70.554
           c-20.376-20.376-44.112-36.378-70.554-47.562C514.03,238.875,484.953,233,455,233L455,233z"/>
  <rect x="325" y="425" width="260" height="61"/>
</svg>
