<?xml version="1.0" encoding="UTF-8" standalone="no"?>
<svg
   viewBox="0 0 1000 1000"
   preserveAspectRatio="xMidYMid meet"
   version="1.1"
   id="svg8"
   sodipodi:docname="ocellus-starport.svg"
   inkscape:version="1.1.1 (3bf5ae0d25, 2021-09-20)"
   xmlns:inkscape="http://www.inkscape.org/namespaces/inkscape"
   xmlns:sodipodi="http://sodipodi.sourceforge.net/DTD/sodipodi-0.dtd"
   xmlns="http://www.w3.org/2000/svg"
   xmlns:svg="http://www.w3.org/2000/svg">
  <defs
     id="defs12" />
  <sodipodi:namedview
     id="namedview10"
     pagecolor="#ffffff"
     bordercolor="#666666"
     borderopacity="1.0"
     inkscape:pageshadow="2"
     inkscape:pageopacity="0.0"
     inkscape:pagecheckerboard="0"
     showgrid="false"
     inkscape:zoom="0.873"
     inkscape:cx="500"
     inkscape:cy="500.57274"
     inkscape:window-width="1931"
     inkscape:window-height="1396"
     inkscape:window-x="338"
     inkscape:window-y="351"
     inkscape:window-maximized="0"
     inkscape:current-layer="svg8" />
  <path
     d="m 497.95532,62.591933 c 240.44454,0 435.3634,194.918857 435.3634,435.363387 0,240.4435 -194.91886,435.3634 -435.3634,435.3634 -240.44453,0 -435.363387,-194.9199 -435.363387,-435.3634 0,-240.44453 194.918857,-435.363387 435.363387,-435.363387 m 0,-38.536951 c -63.95884,0 -126.02624,12.534924 -184.47534,37.256899 C 257.04314,85.181879 206.36705,119.34749 162.85675,162.85675 119.34644,206.366 85.181879,257.04314 61.311881,313.47998 c -24.721975,58.4491 -37.256899,120.5165 -37.256899,184.47534 0,63.95884 12.534924,126.02625 37.256899,184.47535 23.869998,56.43684 58.035609,107.11293 101.544869,150.62219 43.50925,43.50822 94.18639,77.67383 150.62323,101.54382 58.4491,24.72406 120.5165,37.25899 184.47534,37.25899 63.95884,0 126.02625,-12.53493 184.47535,-37.2569 56.43684,-23.87 107.11293,-58.03665 150.62219,-101.54487 43.50822,-43.50926 77.67487,-94.18743 101.54487,-150.62219 24.72301,-58.45014 37.25794,-120.51755 37.25794,-184.47639 0,-63.95884 -12.53493,-126.02624 -37.2569,-184.47534 C 910.72877,257.04314 876.56316,206.36705 833.05494,162.85675 789.54568,119.34644 738.86751,85.181879 682.43275,61.311881 623.98157,36.589906 561.91416,24.054982 497.95532,24.054982 Z"
     id="path2"
     style="stroke-width:1.04154" />
  <path
     d="m 497.95532,305.27057 c 106.41719,0 192.68476,86.26757 192.68476,192.68475 0,106.41719 -86.26757,192.68476 -192.68476,192.68476 -106.41718,0 -192.68475,-86.26757 -192.68475,-192.68476 0,-106.41718 86.26757,-192.68475 192.68475,-192.68475 m 0,-38.53695 c -31.19826,0 -61.4831,6.11904 -90.01398,18.18631 -27.5383,11.64754 -52.26236,28.31425 -73.4858,49.53769 -21.22136,21.22241 -37.88807,45.94646 -49.53769,73.48476 -12.06519,28.52984 -18.18423,58.81468 -18.18423,90.01294 0,31.19723 6.11904,61.48206 18.18631,90.01399 11.64754,27.5383 28.31425,52.26235 49.53873,73.48476 21.22241,21.22344 45.94542,37.89015 73.48476,49.53873 28.5288,12.06519 58.81364,18.18423 90.0119,18.18423 31.19723,0 61.48206,-6.11904 90.01399,-18.18632 27.5383,-11.64961 52.26235,-28.31632 73.4858,-49.53873 21.2224,-21.2224 37.88911,-45.94437 49.53769,-73.48475 12.06519,-28.52985 18.18423,-58.81468 18.18423,-90.01191 0,-31.19826 -6.11904,-61.4831 -18.18632,-90.01398 -11.64857,-27.5383 -28.31528,-52.26236 -49.53873,-73.48476 -21.2224,-21.2224 -45.94437,-37.88911 -73.48475,-49.53769 -28.52985,-12.06623 -58.81468,-18.18527 -90.01191,-18.18527 z"
     id="path4"
     style="stroke-width:1.04154" />
  <rect
     x="362.55524"
     y="466.70917"
     width="270.8002"
     height="63.533894"
     id="rect6"
     style="stroke-width:1.04154" />
</svg>
