<?xml version="1.0" encoding="UTF-8" standalone="no"?>
<svg
   viewBox="0 0 1000 1000"
   preserveAspectRatio="xMidYMid meet"
   version="1.1"
   id="svg8"
   sodipodi:docname="ocellus-starport.svg"
   inkscape:version="1.1.1 (3bf5ae0d25, 2021-09-20)"
   xmlns:inkscape="http://www.inkscape.org/namespaces/inkscape"
   xmlns:sodipodi="http://sodipodi.sourceforge.net/DTD/sodipodi-0.dtd"
   xmlns="http://www.w3.org/2000/svg"
   xmlns:svg="http://www.w3.org/2000/svg">
  <defs
     id="defs12" />
  <sodipodi:namedview
     id="namedview10"
     pagecolor="#ffffff"
     bordercolor="#666666"
     borderopacity="1.0"
     inkscape:pageshadow="2"
     inkscape:pageopacity="0.0"
     inkscape:pagecheckerboard="0"
     showgrid="false"
     inkscape:zoom="0.873"
     inkscape:cx="500"
     inkscape:cy="500.57274"
     inkscape:window-width="1931"
     inkscape:window-height="1396"
     inkscape:window-x="338"
     inkscape:window-y="351"
     inkscape:window-maximized="0"
     inkscape:current-layer="svg8" />
  <path
     id="path849"
     style="stroke-width:1.04154"
     d="m 497.95508,24.054688 c -63.95884,0 -126.02551,12.535837 -184.47461,37.257812 -56.43684,23.869998 -107.11275,58.03566 -150.62305,101.54492 -43.51031,43.50925 -77.674922,94.18621 -101.54492,150.62305 -24.721975,58.4491 -37.257813,120.51577 -37.257812,184.47461 0,63.95884 12.535837,126.02746 37.257812,184.47656 23.869998,56.43684 58.03566,107.11183 101.54492,150.62109 43.50925,43.50822 94.18621,77.67494 150.62305,101.54493 58.4491,24.72406 120.51577,37.25781 184.47461,37.25781 63.95884,0 126.02746,-12.53389 184.47656,-37.25586 56.43684,-23.87 107.11183,-58.0367 150.62109,-101.54492 43.50822,-43.50926 77.67493,-94.18829 101.54493,-150.62305 24.72301,-58.45014 37.25781,-120.51772 37.25781,-184.47656 0,-63.95884 -12.53389,-126.02551 -37.25586,-184.47461 -23.87,-56.43684 -58.0367,-107.11275 -101.54492,-150.62305 C 789.54543,119.34711 738.86835,85.182498 682.43359,61.3125 623.98241,36.590525 561.91392,24.054688 497.95508,24.054688 Z m 0,38.537109 c 240.44454,0 435.36328,194.918753 435.36328,435.363283 0,240.4435 -194.91874,435.36328 -435.36328,435.36328 -240.44453,0 -435.363283,-194.91978 -435.363283,-435.36328 0,-240.44453 194.918753,-435.363283 435.363283,-435.363283 z m 0,204.142583 c -31.19826,0 -61.48279,6.11827 -90.01367,18.18554 -27.5383,11.64754 -52.26289,28.31367 -73.48633,49.53711 -21.22136,21.22241 -37.88749,45.94608 -49.53711,73.48438 -12.06519,28.52984 -18.1836,58.81541 -18.18359,90.01367 0,31.19723 6.11827,61.48174 18.18554,90.01367 11.64754,27.5383 28.31458,52.26196 49.53906,73.48437 21.22241,21.22344 45.94504,37.89049 73.48438,49.53907 28.5288,12.06519 58.81346,18.18554 90.01172,18.18554 31.19723,0 61.48174,-6.12022 90.01367,-18.1875 27.5383,-11.64961 52.26288,-28.31665 73.48633,-49.53906 21.2224,-21.2224 37.88853,-45.94399 49.53711,-73.48437 12.06519,-28.52985 18.18554,-58.81449 18.18554,-90.01172 0,-31.19826 -6.12022,-61.48279 -18.1875,-90.01367 -11.64857,-27.5383 -28.31561,-52.26198 -49.53906,-73.48438 -21.2224,-21.2224 -45.94399,-37.89048 -73.48437,-49.53906 -28.52985,-12.06623 -58.81449,-18.18359 -90.01172,-18.18359 z m 0,38.5371 c 106.41719,0 192.68555,86.26642 192.68554,192.6836 0,106.41719 -86.26835,192.68555 -192.68554,192.68554 -106.41718,0 -192.6836,-86.26835 -192.6836,-192.68554 0,-106.41718 86.26642,-192.6836 192.6836,-192.6836 z m -135.40039,161.4375 v 63.53321 h 270.80078 v -63.53321 z" />
</svg>
