<?xml version="1.0" encoding="UTF-8"?>
<svg viewBox="0 0 1000 1000" preserveAspectRatio="xMidYMid meet">
  <path d="M 455,0 C 393.592,0 334.00081,12.035484 277.88281,35.771484 223.69681,58.689484 175.04062,91.491625 133.26562,133.26562 91.490625,175.03963 58.689484,223.69681 35.771484,277.88281 12.035484,334.00081 0,393.592 0,455 c 0,61.408 12.035484,120.99919 35.771484,177.11719 22.918,54.186 55.720141,102.84123 97.494136,144.61523 41.77401,41.773 90.43119,74.57614 144.61719,97.49414 C 334.00081,897.96456 393.592,910 455,910 c 61.408,0 120.99919,-12.03548 177.11719,-35.77148 54.186,-22.918 102.84123,-55.72115 144.61523,-97.49414 41.773,-41.77401 74.5781,-90.43124 97.4961,-144.61524 C 897.96552,576.00014 910,516.408 910,455 910,393.592 897.96452,334.00081 874.22852,277.88281 851.31052,223.69681 818.50738,175.04062 776.73438,133.26562 734.96037,91.490625 686.30314,58.689484 632.11914,35.771484 575.99914,12.035484 516.408,0 455,0 Z m 18.03711,37.455078 C 695.51589,46.910343 873,230.19451 873,455 c 0,90.48406 -28.84657,174.18022 -77.71094,242.59766 L 640.93555,576.27344 c 7.18776,-11.00483 13.43406,-22.62496 18.60547,-34.85156 C 671.12502,514.02987 677,484.953 677,455 c 0,-29.954 -5.87494,-59.03083 -17.46094,-86.42383 -11.184,-26.44 -27.1855,-50.17869 -47.5625,-70.55469 -20.376,-20.376 -44.11269,-36.37654 -70.55468,-47.56054 -21.85529,-9.24334 -44.79506,-14.78816 -68.38477,-16.67774 z M 433,37.580078 V 234.07812 c -22.2,2.17636 -43.7899,7.6556 -64.42383,16.38282 -26.44,11.183 -50.17769,27.1855 -70.55469,47.5625 -20.375,20.376 -36.3775,44.11273 -47.5625,70.55273 C 238.87498,395.96817 233,425.046 233,455 c 0,29.953 5.87494,59.02983 17.46094,86.42383 1.46009,3.4521 3.01136,6.85243 4.63476,10.21094 L 97.419922,671.58203 C 59.079684,608.41727 37,534.2876 37,455 37,231.52581 212.37334,49.02222 433,37.580078 Z M 455,270 c 102.173,0 185,82.827 185,185 0,102.173 -82.827,185 -185,185 C 352.827,640 270,557.173 270,455 270,352.827 352.827,270 455,270 Z M 325,425 v 61 h 260 v -61 z m -49.125,161.13281 c 6.68465,9.111 14.05576,17.75382 22.14844,25.84571 20.376,20.377 44.11369,36.3785 70.55468,47.5625 C 395.96913,671.12502 425.046,677 455,677 c 29.953,0 59.02983,-5.87494 86.42383,-17.46094 26.44,-11.185 50.17769,-27.1865 70.55469,-47.5625 1.40756,-1.40756 2.7437,-2.86918 4.10937,-4.30859 L 770.49219,729.0332 C 693.85583,817.18777 580.98074,873 455,873 317.81125,873 196.06422,806.90471 119.84961,704.82617 Z" />
</svg>
