<?xml version="1.0" encoding="UTF-8" standalone="no"?>
<svg
   viewBox="0 0 1000 1000"
   preserveAspectRatio="xMidYMid meet"
   version="1.1"
   id="svg4"
   sodipodi:docname="orbis-starport.svg"
   inkscape:version="1.2.1 (9c6d41e410, 2022-07-14)"
   xmlns:inkscape="http://www.inkscape.org/namespaces/inkscape"
   xmlns:sodipodi="http://sodipodi.sourceforge.net/DTD/sodipodi-0.dtd"
   xmlns="http://www.w3.org/2000/svg"
   xmlns:svg="http://www.w3.org/2000/svg">
  <defs
     id="defs8" />
  <sodipodi:namedview
     id="namedview6"
     pagecolor="#ffffff"
     bordercolor="#666666"
     borderopacity="1.0"
     inkscape:pageshadow="2"
     inkscape:pageopacity="0.0"
     inkscape:pagecheckerboard="0"
     showgrid="true"
     inkscape:zoom="0.30865211"
     inkscape:cx="42.118617"
     inkscape:cy="918.50984"
     inkscape:window-width="2257"
     inkscape:window-height="1450"
     inkscape:window-x="746"
     inkscape:window-y="487"
     inkscape:window-maximized="0"
     inkscape:current-layer="svg4"
     inkscape:showpageshadow="2"
     inkscape:deskcolor="#d1d1d1" />
  <path
     id="path1230"
     style="color:#000000;fill:#000000;fill-rule:evenodd;paint-order:fill markers stroke"
     d="M 495.70312,13.738281 C 370.30814,13.738282 250.09962,65.313566 161.73047,156.69531 73.361311,248.07706 23.908201,371.73258 23.908203,500.56445 c 0,128.83188 49.453108,252.48544 137.822267,343.86719 88.36915,91.38175 208.57767,142.95703 333.97265,142.95703 125.39501,0 245.60546,-51.57528 333.97461,-142.95703 C 918.0469,753.04989 967.5,629.39633 967.5,500.56445 967.5,371.73257 918.0469,248.07706 829.67773,156.69531 741.30858,65.313565 621.09813,13.738278 495.70312,13.738281 Z m 17.9629,62.314453 c 101.92688,4.626023 198.8205,48.434946 271.54687,123.640626 76.98853,79.61314 120.4336,187.87968 120.43359,300.87109 0,86.5875 -25.59417,170.34593 -72.16406,240.61524 C 784.57107,702.73461 735.6594,664.28883 686.74805,625.84375 751.99999,530.88172 728.35133,389.57311 636.20898,320.64453 601.24597,293.11203 558.04984,274.1959 513.66602,270.78125 Z m -41.27344,0.291016 v 194.74023 c -115.93333,8.67209 -211.73177,119.57135 -206.10352,235.52149 -3.70885,33.15127 18.32483,70.25436 18.48438,97.05273 L 140.86523,713.13281 C 105.17064,649.08862 85.759766,575.90374 85.759766,500.56445 85.759764,387.57305 129.20484,279.3065 206.19336,199.69336 277.64598,125.80484 372.43004,82.236682 472.39258,76.34375 Z m 22.67969,233.77148 C 604.20332,306.79077 699.24448,412.09377 684.79883,520.32617 676.89889,629.08025 562.77659,712.81289 456.63672,687.66406 349.34019,668.83852 277.48494,547.18332 312.93555,444.11523 c 23.32243,-78.21269 100.42594,-135.19484 182.13672,-134 z M 361.05859,469.90039 v 62.88281 h 268.02735 v -62.88281 z m -50.64062,166.10742 c 65.79707,94.45499 206.15116,122.3612 303.19922,60.63086 24.49162,-14.56939 48.20508,-39.3125 48.20508,-39.3125 0,0 103.46457,82.75013 147.19726,117.125 -7.55756,9.29192 -15.44505,18.33578 -23.80664,26.98242 -76.98853,79.61314 -181.05367,124.10352 -289.50977,124.10352 -108.45608,0 -212.52124,-44.49038 -289.50976,-124.10352 -15.97643,-16.52108 -30.41706,-34.33641 -43.41602,-53.11132 49.21359,-37.4383 98.42705,-74.87616 147.64063,-112.31446 z"
     sodipodi:nodetypes="ssssssssscssccccccccccsscccccccccccccccssscc" />
</svg>
