<?xml version="1.0" encoding="UTF-8" standalone="no"?>
<svg
   viewBox="0 0 1000 1000"
   preserveAspectRatio="xMidYMid meet"
   version="1.1"
   id="svg4"
   sodipodi:docname="orbis-starport.svg"
   inkscape:version="1.1.1 (3bf5ae0d25, 2021-09-20)"
   xmlns:inkscape="http://www.inkscape.org/namespaces/inkscape"
   xmlns:sodipodi="http://sodipodi.sourceforge.net/DTD/sodipodi-0.dtd"
   xmlns="http://www.w3.org/2000/svg"
   xmlns:svg="http://www.w3.org/2000/svg">
  <defs
     id="defs8" />
  <sodipodi:namedview
     id="namedview6"
     pagecolor="#ffffff"
     bordercolor="#666666"
     borderopacity="1.0"
     inkscape:pageshadow="2"
     inkscape:pageopacity="0.0"
     inkscape:pagecheckerboard="0"
     showgrid="false"
     inkscape:zoom="0.873"
     inkscape:cx="499.42726"
     inkscape:cy="500.57274"
     inkscape:window-width="3840"
     inkscape:window-height="2096"
     inkscape:window-x="-8"
     inkscape:window-y="-8"
     inkscape:window-maximized="1"
     inkscape:current-layer="svg4" />
  <path
     d="m 495.09164,45.819015 c -61.408,0 -120.99919,12.035484 -177.11719,35.771484 -54.186,22.918001 -102.84219,55.720141 -144.61719,97.494131 -41.775,41.77401 -74.576138,90.43119 -97.494138,144.61719 -23.736,56.118 -35.771484,115.70919 -35.771484,177.11719 0,61.408 12.035484,120.99919 35.771484,177.11719 22.918,54.186 55.720138,102.84123 97.494138,144.61523 41.77401,41.773 90.43119,74.57614 144.61719,97.49414 56.118,23.738 115.70919,35.77344 177.11719,35.77344 61.408,0 120.99919,-12.03548 177.11719,-35.77148 54.186,-22.918 102.84123,-55.72115 144.61523,-97.49414 41.773,-41.77401 74.5781,-90.43124 97.4961,-144.61524 23.737,-56.119 35.77148,-115.71114 35.77148,-177.11914 0,-61.408 -12.03548,-120.99919 -35.77148,-177.11719 -22.918,-54.186 -55.72114,-102.84219 -97.49414,-144.61719 -41.77401,-41.77499 -90.43124,-74.57613 -144.61524,-97.494131 -56.12,-23.736 -115.71114,-35.771484 -177.11914,-35.771484 z m 18.03711,37.455078 c 222.47878,9.455265 399.96289,192.739427 399.96289,417.544917 0,90.48406 -28.84657,174.18022 -77.71094,242.59766 L 681.02719,622.09245 c 7.18776,-11.00483 13.43406,-22.62496 18.60547,-34.85156 11.584,-27.39201 17.45898,-56.46888 17.45898,-86.42188 0,-29.954 -5.87494,-59.03083 -17.46094,-86.42383 -11.184,-26.44 -27.1855,-50.17869 -47.5625,-70.55469 -20.376,-20.376 -44.11269,-36.37654 -70.55468,-47.56054 -21.85529,-9.24334 -44.79506,-14.78816 -68.38477,-16.67774 z m -40.03711,0.125 V 279.89713 c -22.2,2.17636 -43.7899,7.6556 -64.42383,16.38282 -26.44,11.183 -50.17769,27.1855 -70.55469,47.5625 -20.375,20.376 -36.3775,44.11273 -47.5625,70.55273 -11.584,27.392 -17.45898,56.46983 -17.45898,86.42383 0,29.953 5.87494,59.02983 17.46094,86.42383 1.46009,3.4521 3.01136,6.85243 4.63476,10.21094 L 137.51156,717.40104 C 99.171322,654.23628 77.091638,580.10661 77.091638,500.81901 77.091638,277.34482 252.46498,94.841235 473.09164,83.399093 Z m 22,232.419917 c 102.173,0 185,82.827 185,185 0,102.173 -82.827,185 -185,185 -102.173,0 -185,-82.827 -185,-185 0,-102.173 82.827,-185 185,-185 z m -130,155 v 61 h 260 v -61 z m -49.125,161.13281 c 6.68465,9.111 14.05576,17.75382 22.14844,25.84571 20.376,20.377 44.11369,36.3785 70.55468,47.5625 27.39101,11.584 56.46788,17.45898 86.42188,17.45898 29.953,0 59.02983,-5.87494 86.42383,-17.46094 26.44,-11.185 50.17769,-27.1865 70.55469,-47.5625 1.40756,-1.40756 2.7437,-2.86918 4.10937,-4.30859 l 154.4043,121.36523 c -76.63636,88.15457 -189.51145,143.9668 -315.49219,143.9668 -137.18875,0 -258.93578,-66.09529 -335.15039,-168.17383 z"
     id="path2" />
</svg>
