<?xml version="1.0" encoding="UTF-8"?>
<svg viewBox="0 0 1000 1000" preserveAspectRatio="xMidYMid meet">
  <path d="M 732.83789 35.765625 L 732.83789 92.630859 L 761.83203 92.630859 L 761.83203 35.765625 L 732.83789 35.765625 z M 776.59766 35.765625 L 776.59766 331.53906 L 685.54102 331.53906 C 685.73051 352.53371 685.78306 373.80261 685.85938 395.02344 L 657.46094 395.02344 L 657.46094 309.375 L 538.32422 309.375 L 538.32422 343.65625 L 538.32422 395.02344 L 512.04688 395.02344 L 512.04688 309.34375 L 392.91016 309.34375 L 392.91016 343.625 L 392.91016 395.02344 L 364.83594 395.02344 L 364.83594 309.18164 L 245.69922 309.18164 L 245.69922 343.46289 L 245.69922 395.02344 L 217.48828 395.02344 L 217.48828 309.18164 L 98.351562 309.18164 L 98.351562 343.46289 L 98.351562 518.61133 L 217.48828 518.61133 L 217.48828 435.18555 L 245.69922 435.18555 L 245.69922 518.61133 L 364.83594 518.61133 L 364.83594 435.18555 L 392.91016 435.18555 L 392.91016 518.77344 L 512.04688 518.77344 L 512.04688 435.18555 L 538.32422 435.18555 L 538.32422 518.80469 L 657.46094 518.80469 L 657.46094 435.18555 L 686 435.18555 C 686.09252 524.62997 685.54102 614.31215 685.54102 697.61523 L 799.97852 810.20703 L 865.53125 810.20703 L 865.53125 945.56055 L 905.80078 945.56055 L 905.80078 810.20703 L 905.80078 331.53906 L 816.86914 331.53906 L 816.86914 247.86523 L 832.50977 247.86523 L 832.50977 276.13672 L 861.50391 276.13672 L 861.50391 192.49219 L 832.50977 192.49219 L 832.50977 221.68945 L 816.86914 221.68945 L 816.86914 35.765625 L 776.59766 35.765625 z M 831.63477 35.765625 L 831.63477 92.630859 L 860.62891 92.630859 L 860.62891 35.765625 L 831.63477 35.765625 z M 722.45508 368.45508 L 868.88672 368.45508 L 868.88672 773.29297 L 815.0918 773.29297 L 722.45508 682.14844 L 722.45508 368.45508 z " />
</svg>
