<?xml version="1.0" encoding="UTF-8" standalone="no"?>
<svg
   viewBox="0 0 1000 1000"
   preserveAspectRatio="xMidYMid meet"
   version="1.1"
   id="svg8"
   sodipodi:docname="pin-window.svg"
   inkscape:version="1.1.1 (3bf5ae0d25, 2021-09-20)"
   xmlns:inkscape="http://www.inkscape.org/namespaces/inkscape"
   xmlns:sodipodi="http://sodipodi.sourceforge.net/DTD/sodipodi-0.dtd"
   xmlns="http://www.w3.org/2000/svg"
   xmlns:svg="http://www.w3.org/2000/svg">
  <defs
     id="defs12" />
  <sodipodi:namedview
     id="namedview10"
     pagecolor="#ffffff"
     bordercolor="#666666"
     borderopacity="1.0"
     inkscape:pageshadow="2"
     inkscape:pageopacity="0.0"
     inkscape:pagecheckerboard="0"
     showgrid="false"
     inkscape:zoom="0.873"
     inkscape:cx="500"
     inkscape:cy="317.29668"
     inkscape:window-width="2343"
     inkscape:window-height="1638"
     inkscape:window-x="1107"
     inkscape:window-y="386"
     inkscape:window-maximized="0"
     inkscape:current-layer="g1730" />
  <g
     id="g1730">
    <path
       id="path2647"
       style="stroke-width:97.1214;paint-order:fill markers stroke"
       d="m 457.77341,10.990912 c -36.02786,-1.755647 -59.70996,5.894969 -67.90039,21.935547 -0.26153,0.780415 -0.49072,1.576714 -0.6875,2.388672 l -41.11523,80.511719 0.70898,0.36329 c -2.9589,55.67713 70.38232,83.08055 93.7297,111.08228 2.96081,3.55106 -69.45213,-45.52486 -66.03903,-41.85055 l -142.48559,305.01631 -0.002,0.004 -0.002,0.004 -2.17578,4.26172 0.5586,0.28516 c -17.44109,43.24358 34.87809,85.24116 107.06986,138.21447 L 204.39779,990.40213 436.29691,684.15487 c 87.81188,29.89791 166.34241,53.58183 191.77533,12.92394 l 0.55859,0.28515 160.6141,-315.88929 c 6.92096,0.51417 -61.02841,-16.47852 -54.95783,-16.60817 26.53102,-0.56661 113.46356,22.55434 121.54295,10.26895 l 0.10352,0.0527 0.27344,-0.53515 c 0.53113,-0.62299 -0.37696,0.48245 -0.37696,0.48245 0.7092,-1.42712 3.17426,-5.31702 3.63672,-6.86722 l 38.09766,-74.5957 -0.42969,-0.21875 c 0.28392,-0.346 0.55867,-0.69692 0.82422,-1.05274 C 920.25216,248.74881 824.58531,155.27596 684.28122,83.623726 600.79381,40.987124 516.11751,13.834517 457.77341,10.990912 Z"
       sodipodi:nodetypes="cccccsccccccccccccscccccccccc" />
  </g>
</svg>
