<?xml version="1.0" encoding="UTF-8" standalone="no"?>
<svg
   viewBox="0 0 1000 1000"
   preserveAspectRatio="xMidYMid meet"
   version="1.1"
   id="svg4"
   sodipodi:docname="planet-gas-giant.svg"
   inkscape:version="1.1.1 (3bf5ae0d25, 2021-09-20)"
   xmlns:inkscape="http://www.inkscape.org/namespaces/inkscape"
   xmlns:sodipodi="http://sodipodi.sourceforge.net/DTD/sodipodi-0.dtd"
   xmlns="http://www.w3.org/2000/svg"
   xmlns:svg="http://www.w3.org/2000/svg">
  <defs
     id="defs8" />
  <sodipodi:namedview
     id="namedview6"
     pagecolor="#ffffff"
     bordercolor="#666666"
     borderopacity="1.0"
     inkscape:pageshadow="2"
     inkscape:pageopacity="0.0"
     inkscape:pagecheckerboard="0"
     showgrid="false"
     inkscape:zoom="0.873"
     inkscape:cx="420.38946"
     inkscape:cy="645.47537"
     inkscape:window-width="1969"
     inkscape:window-height="1310"
     inkscape:window-x="582"
     inkscape:window-y="636"
     inkscape:window-maximized="0"
     inkscape:current-layer="svg4" />
  <path
     id="path5956"
     style="color:#000000;fill:#000000;fill-rule:evenodd;-inkscape-stroke:none;paint-order:fill markers stroke"
     d="M 503.16406 34.638672 C 380.20943 34.638672 262.25455 83.497416 175.3125 170.43945 C 88.370446 257.38151 39.51172 375.33639 39.511719 498.29102 C 39.511719 621.24565 88.370446 739.20052 175.3125 826.14258 C 262.25455 913.08463 380.20943 961.94336 503.16406 961.94336 C 626.11869 961.94336 744.07357 913.08463 831.01562 826.14258 C 917.95768 739.20052 966.81641 621.24565 966.81641 498.29102 C 966.8164 375.33639 917.95768 257.38151 831.01562 170.43945 C 744.07358 83.497416 626.11869 34.638672 503.16406 34.638672 z M 261.25 187.33008 L 718.21289 187.33008 L 745.07422 187.33008 C 757.89584 197.30536 770.22079 208.01571 781.83008 219.625 C 789.65559 227.45052 797.03476 235.63055 804.12305 244.01953 L 202.20117 244.01953 C 209.28999 235.62976 216.66992 227.44922 224.49609 219.62305 C 236.10473 208.01441 248.42908 197.30481 261.25 187.33008 z M 124.17578 390.60742 L 882.15039 390.60742 C 891.73788 424.34859 896.89484 459.47008 897.17969 495.14648 L 109.14648 495.14648 C 109.43133 459.47047 114.5885 424.34855 124.17578 390.60742 z M 396.33398 518.90039 C 450.04697 518.90639 500.10909 543.24402 529.36523 583.57422 L 887.80469 583.57422 C 881.01834 614.18187 870.63476 643.81191 856.86719 671.86719 L 554.10938 671.86719 C 552.91966 685.60048 549.43473 727.74304 510.68359 758.92383 C 480.86284 786.9435 439.56254 802.85498 396.33398 802.97852 C 353.10543 802.85498 311.80512 786.9435 281.98438 758.92383 C 251.2509 733.47051 239.74893 685.60057 238.55859 671.86719 L 149.45898 671.86719 C 135.69141 643.81191 125.30783 614.18187 118.52148 583.57422 L 263.34961 583.57422 C 292.59669 543.25651 342.63763 518.92027 396.33398 518.90039 z M 394.30664 564.97461 C 333.5754 564.97501 284.34292 609.05269 284.3418 663.42578 C 284.34171 717.79964 333.57454 761.87851 394.30664 761.87891 C 455.0395 761.87948 504.27353 717.80032 504.27344 663.42578 C 504.27244 609.052 455.03865 564.97404 394.30664 564.97461 z " />
</svg>
