<?xml version="1.0" encoding="UTF-8" standalone="no"?>
<svg
   viewBox="0 0 1000 1000"
   preserveAspectRatio="xMidYMid meet"
   version="1.1"
   id="svg4"
   sodipodi:docname="planet-water-world.svg"
   inkscape:version="1.1.1 (3bf5ae0d25, 2021-09-20)"
   xmlns:inkscape="http://www.inkscape.org/namespaces/inkscape"
   xmlns:sodipodi="http://sodipodi.sourceforge.net/DTD/sodipodi-0.dtd"
   xmlns="http://www.w3.org/2000/svg"
   xmlns:svg="http://www.w3.org/2000/svg">
  <defs
     id="defs8" />
  <sodipodi:namedview
     id="namedview6"
     pagecolor="#ffffff"
     bordercolor="#666666"
     borderopacity="1.0"
     inkscape:pageshadow="2"
     inkscape:pageopacity="0.0"
     inkscape:pagecheckerboard="0"
     showgrid="false"
     inkscape:zoom="0.873"
     inkscape:cx="381.4433"
     inkscape:cy="556.70103"
     inkscape:window-width="1969"
     inkscape:window-height="1298"
     inkscape:window-x="866"
     inkscape:window-y="513"
     inkscape:window-maximized="0"
     inkscape:current-layer="svg4" />
  <path
     id="path900"
     style="color:#000000;fill:#000000;fill-rule:evenodd;-inkscape-stroke:none;paint-order:fill markers stroke"
     d="m 503.16406,34.638672 c -122.95459,0 -240.90953,48.85876 -327.85156,135.800778 -86.942026,86.94203 -135.80078,204.89697 -135.800781,327.85157 0,122.95459 48.858755,240.90953 135.800781,327.85156 86.94203,86.94202 204.89697,135.80078 327.85156,135.80078 122.95459,0 240.90955,-48.85876 327.85156,-135.80078 C 917.95765,739.20055 966.81641,621.24561 966.81641,498.29102 966.8164,375.33642 917.95765,257.38148 831.01562,170.43945 744.07361,83.497432 626.11865,34.638672 503.16406,34.638672 Z m 0,69.556638 c 104.53367,0 204.74955,41.51127 278.66602,115.42774 73.91646,73.91646 115.42773,174.1343 115.42773,278.66797 0,104.53367 -41.51126,204.74954 -115.42773,278.66601 -73.91647,73.91647 -174.13235,115.42774 -278.66602,115.42774 -104.53367,0 -204.7515,-41.51127 -278.66797,-115.42774 -73.91646,-73.91647 -115.42773,-174.13234 -115.42773,-278.66601 0,-104.53367 41.51127,-204.75151 115.42773,-278.66797 73.91647,-73.91647 174.1343,-115.42774 278.66797,-115.42774 z m 5.94532,69.79883 c -34.24559,125.60567 -224.09073,336.5645 -206.64258,479.80469 9.76949,80.20241 93.29948,152.53527 206.11523,151.74219 112.65599,0 174.62612,-64.7743 182.47656,-146.11133 C 705.45248,510.29706 546.16479,301.54531 509.10938,173.99414 Z" />
</svg>
