<?xml version="1.0" encoding="UTF-8" standalone="no"?>
<svg
   viewBox="0 0 1000 1000"
   preserveAspectRatio="xMidYMid meet"
   version="1.1"
   id="svg4"
   sodipodi:docname="planet-atmosphere.svg"
   inkscape:version="1.1.1 (3bf5ae0d25, 2021-09-20)"
   xmlns:inkscape="http://www.inkscape.org/namespaces/inkscape"
   xmlns:sodipodi="http://sodipodi.sourceforge.net/DTD/sodipodi-0.dtd"
   xmlns="http://www.w3.org/2000/svg"
   xmlns:svg="http://www.w3.org/2000/svg">
  <defs
     id="defs8" />
  <sodipodi:namedview
     id="namedview6"
     pagecolor="#ffffff"
     bordercolor="#666666"
     borderopacity="1.0"
     inkscape:pageshadow="2"
     inkscape:pageopacity="0.0"
     inkscape:pagecheckerboard="0"
     showgrid="false"
     inkscape:zoom="0.873"
     inkscape:cx="456.47194"
     inkscape:cy="500"
     inkscape:window-width="2038"
     inkscape:window-height="1319"
     inkscape:window-x="151"
     inkscape:window-y="585"
     inkscape:window-maximized="0"
     inkscape:current-layer="svg4" />
  <path
     id="path850"
     style="stroke-width:0.797775"
     d="M 501.14453,7.9101562 C 369.1539,7.9101552 242.54607,59.906946 149.17969,152.49805 55.813304,245.08914 3.3281264,370.72517 3.328125,501.71875 c 0,130.99358 52.485179,256.62765 145.851565,349.21875 93.36638,92.5911 219.97421,144.58984 351.96484,144.58984 131.99063,0 258.60042,-51.99874 351.9668,-144.58984 93.36638,-92.5911 145.85156,-218.22517 145.85156,-349.21875 0,-130.99358 -52.48518,-256.62961 -145.85156,-349.2207 C 759.74495,59.906946 633.13516,7.9101563 501.14453,7.9101562 Z m 0,29.9999998 c 124.11164,0 243.11653,48.893799 330.8418,135.890624 87.72527,86.99683 136.97656,204.93587 136.97656,327.91797 0,122.9821 -49.25129,240.92114 -136.97656,327.91797 -87.72527,86.99683 -206.73016,135.89062 -330.8418,135.89062 -124.11164,0 -243.11457,-48.89379 -330.83984,-135.89062 C 82.579417,742.63989 33.328125,624.70085 33.328125,501.71875 33.328126,378.73665 82.579417,260.79761 170.30469,173.80078 258.02996,86.803955 377.03289,37.910155 501.14453,37.910156 Z m -14.89062,91.574224 c -98.86818,0 -193.70289,39.28103 -263.61329,109.1914 -69.91035,69.91039 -109.19335,164.74705 -109.19335,263.61524 0,82.98494 27.76633,163.06697 77.99804,228.01562 5.52252,7.58716 11.28063,14.98872 17.39258,22.07813 26.54168,30.78624 57.68888,55.37303 91.61523,72.99609 56.06052,32.23468 120.01452,49.7168 185.80079,49.7168 98.86822,0 193.70295,-39.28107 263.61328,-109.19141 69.91043,-69.91038 109.19336,-164.74702 109.19336,-263.61523 0,-98.86819 -39.28293,-193.70485 -109.19336,-263.61524 -69.91033,-69.91037 -164.74506,-109.1914 -263.61328,-109.1914 z m 17.69726,32.38867 c 83.96788,4.36176 163.60166,39.61922 223.35156,99.36914 63.9346,63.93458 99.84766,150.63168 99.84766,241.04883 0,90.41717 -35.91306,177.11424 -99.84766,241.04882 -57.1175,57.11752 -132.4147,91.78534 -212.28906,98.54688 48.82581,-16.84293 93.60887,-47.45649 129.85742,-89.50195 57.27143,-66.43033 88.99414,-155.73952 88.99414,-248.72266 0,-92.98314 -31.72271,-182.29233 -88.99414,-248.72266 -38.96967,-45.20176 -87.80156,-77.20385 -140.91992,-93.0664 z m -77.09765,25.50976 c 70.86909,0 139.12056,32.52318 190.08398,91.63672 50.96342,59.11352 80.04688,140.07989 80.04688,224.64258 0,84.56268 -29.08346,165.52709 -80.04688,224.64062 -50.96342,59.11352 -119.21489,91.63868 -190.08398,91.63868 -70.86907,0 -139.11862,-32.52516 -190.08204,-91.63868 -50.96341,-59.11353 -80.04687,-140.07794 -80.04687,-224.64062 0,-84.56268 29.08346,-165.52906 80.04687,-224.64258 50.96342,-59.11354 119.21297,-91.63672 190.08204,-91.63672 z" />
</svg>
