<?xml version="1.0" encoding="UTF-8" standalone="no"?>
<svg
   viewBox="0 0 1000 1000"
   preserveAspectRatio="xMidYMid meet"
   version="1.1"
   id="svg6"
   sodipodi:docname="planet.svg"
   inkscape:version="1.1.1 (3bf5ae0d25, 2021-09-20)"
   xmlns:inkscape="http://www.inkscape.org/namespaces/inkscape"
   xmlns:sodipodi="http://sodipodi.sourceforge.net/DTD/sodipodi-0.dtd"
   xmlns="http://www.w3.org/2000/svg"
   xmlns:svg="http://www.w3.org/2000/svg">
  <defs
     id="defs10" />
  <sodipodi:namedview
     id="namedview8"
     pagecolor="#ffffff"
     bordercolor="#666666"
     borderopacity="1.0"
     inkscape:pageshadow="2"
     inkscape:pageopacity="0.0"
     inkscape:pagecheckerboard="0"
     showgrid="false"
     inkscape:zoom="0.873"
     inkscape:cx="499.42726"
     inkscape:cy="500"
     inkscape:window-width="1510"
     inkscape:window-height="1095"
     inkscape:window-x="260"
     inkscape:window-y="270"
     inkscape:window-maximized="0"
     inkscape:current-layer="svg6" />
  <path
     id="path850"
     d="m 518.32812,30.400391 c -123.93,0 -242.80574,49.239342 -330.4375,136.871089 -87.63174,87.63176 -136.871089,206.50749 -136.871089,330.4375 3e-6,104.02054 34.804726,204.40216 97.769529,285.81446 6.92239,9.51041 14.13952,18.78736 21.80078,27.67383 33.26965,38.59015 72.3136,69.41167 114.83985,91.50195 70.27115,40.40579 150.43618,62.31836 232.89843,62.31836 123.93003,0 242.8038,-49.23934 330.43555,-136.8711 87.63175,-87.63175 136.87305,-206.50748 136.87305,-330.4375 0,-123.93001 -49.2413,-242.80574 -136.87305,-330.4375 C 761.13192,79.639733 642.25815,30.400393 518.32812,30.400391 Z M 540.51172,71 c 105.25266,5.467396 205.073,49.66089 279.96875,124.55664 80.14117,80.14117 125.15625,188.81561 125.15625,302.15234 0,113.33674 -45.01508,222.01118 -125.15625,302.15235 -71.59607,71.59607 -165.98206,115.05182 -266.10352,123.52734 61.2025,-21.11236 117.33829,-59.48796 162.77539,-112.1914 71.789,-83.26956 111.55274,-195.21637 111.55274,-311.76954 0,-116.55316 -39.76374,-228.50192 -111.55274,-311.77148 C 668.30435,130.99644 607.09491,90.883487 540.51172,71 Z m -96.64063,31.97656 c 88.83348,0 174.3856,40.76719 238.26758,114.86524 63.88198,74.09804 100.33789,175.5877 100.33789,281.58593 0,105.99823 -36.45591,207.48594 -100.33789,281.58399 -63.88198,74.09804 -149.4341,114.86719 -238.26758,114.86719 -88.83347,0 -174.38559,-40.76915 -238.26757,-114.86719 -63.88198,-74.09805 -100.33594,-175.58576 -100.33594,-281.58399 0,-105.99822 36.45396,-207.48789 100.33594,-281.58593 63.88198,-74.09805 149.4341,-114.86524 238.26757,-114.86524 z" />
</svg>
