<?xml version="1.0" encoding="UTF-8" standalone="no"?>
<svg
   viewBox="0 0 1000 1000"
   preserveAspectRatio="xMidYMid meet"
   version="1.1"
   id="svg4"
   sodipodi:docname="planet-ringed.svg"
   inkscape:version="1.1.1 (3bf5ae0d25, 2021-09-20)"
   xmlns:inkscape="http://www.inkscape.org/namespaces/inkscape"
   xmlns:sodipodi="http://sodipodi.sourceforge.net/DTD/sodipodi-0.dtd"
   xmlns="http://www.w3.org/2000/svg"
   xmlns:svg="http://www.w3.org/2000/svg">
  <defs
     id="defs8" />
  <sodipodi:namedview
     id="namedview6"
     pagecolor="#ffffff"
     bordercolor="#666666"
     borderopacity="1.0"
     inkscape:pageshadow="2"
     inkscape:pageopacity="0.0"
     inkscape:pagecheckerboard="0"
     showgrid="false"
     inkscape:zoom="1.2346084"
     inkscape:cx="543.49215"
     inkscape:cy="349.90851"
     inkscape:window-width="1969"
     inkscape:window-height="1298"
     inkscape:window-x="264"
     inkscape:window-y="606"
     inkscape:window-maximized="0"
     inkscape:current-layer="svg4" />
  <path
     id="path6227"
     style="color:#000000;fill:#000000;fill-rule:evenodd;stroke-width:0.704769;-inkscape-stroke:none;paint-order:fill markers stroke"
     d="m 493.42578,154.91406 c -86.65464,0 -169.78646,34.43294 -231.06055,95.70703 -61.27409,61.27409 -95.70703,144.4059 -95.70703,231.06055 0,6.37285 0.278,12.71273 0.6543,19.03906 -7.78387,3.30738 -11.67956,5.76954 -19.81836,9.2461 -43.14773,18.43087 -76.413379,35.361 -99.568359,50.99609 -11.577491,7.81755 -20.679162,15.17121 -27.599609,23.58203 -6.920447,8.41083 -13.0688032,20.10386 -9.47461,33.51758 3.594196,13.41372 14.764196,20.46334 24.962891,24.28711 10.198695,3.82376 21.760135,5.64355 35.695313,6.625 27.87035,1.96291 65.142134,-0.009 111.724614,-5.62109 93.16492,-11.22454 215.4219,-36.39607 341.04492,-70.05664 125.62301,-33.66059 244.08539,-72.98983 330.38086,-109.85157 43.14774,-18.43087 76.41338,-35.35904 99.56836,-50.99414 11.57749,-7.81755 20.6811,-15.17315 27.60156,-23.58398 6.92044,-8.41083 13.06685,-20.10191 9.47265,-33.51563 -3.59419,-13.41371 -14.76224,-20.46529 -24.96093,-24.28906 -10.19871,-3.82376 -21.76014,-5.64355 -35.69532,-6.625 -6.96758,-0.49072 -14.52245,-0.73472 -22.66406,-0.73828 -24.42481,-0.0107 -54.12564,2.15017 -89.0625,6.35937 -10.62765,1.28043 -22.27956,3.07031 -33.70703,4.74805 C 769.69655,303.97767 749.34474,275.47951 724.48633,250.62109 663.21225,189.347 580.08043,154.91406 493.42578,154.91406 Z m 0,49.02149 c 73.67215,0 144.30046,29.25553 196.39453,81.34961 39.44481,39.44479 65.76313,89.52485 76.23438,143.49804 16.33417,-6.13069 31.62643,-12.18626 46.21484,-18.17773 -2.86316,-12.83989 -6.42869,-25.49084 -10.80078,-37.85352 7.51391,-1.04014 15.11754,-2.12084 22.23633,-2.97851 45.11006,-5.43487 80.78191,-7.07987 104.1289,-5.43555 8.43594,0.59415 14.52058,1.70848 19.24024,2.86328 -3.50995,3.35991 -8.22181,7.3671 -15.23047,12.09961 -19.39693,13.09752 -51.11259,29.51108 -92.89648,47.35938 -83.56778,35.69658 -200.86023,74.72914 -325.02149,107.99804 -124.16126,33.26891 -245.25645,58.11268 -335.47656,68.98242 -45.11006,5.43489 -80.783868,7.07792 -104.130861,5.4336 -8.435356,-0.5941 -14.516702,-1.70858 -19.236328,-2.86328 3.50996,-3.35983 8.218382,-7.36743 15.226563,-12.09961 19.065503,-12.87373 60.969736,-34.51134 102.074216,-52.19727 l 0.13086,1.04297 c 2.2673,11.87091 5.16179,23.5872 8.71289,35.08985 15.49812,-1.94011 32.04199,-4.35578 49.26563,-7.09571 -9.67397,-28.49267 -14.8125,-58.60539 -14.8125,-89.26953 0,-73.67215 29.25555,-144.30242 81.34961,-196.39648 52.09408,-52.09408 122.72434,-81.34961 196.39648,-81.34961 z m 325.85547,300.82226 c -16.3896,6.39364 -33.54888,12.79704 -51.37305,19.19531 -8.93189,58.01222 -36.06558,112.10074 -78.08789,154.12305 -52.09407,52.09407 -122.72238,81.35156 -196.39453,81.35156 -73.67214,0 -144.3024,-29.25749 -196.39648,-81.35156 -7.44906,-7.44906 -14.37474,-15.31483 -20.8711,-23.47656 -18.6908,3.27054 -36.94596,6.28641 -54.29297,8.80664 11.77677,17.60049 25.30744,34.14337 40.5,49.33594 61.27409,61.27408 144.40591,95.70703 231.06055,95.70703 86.65465,0 169.78647,-34.43295 231.06055,-95.70703 55.80851,-55.80852 89.25492,-129.76461 94.79492,-207.98438 z" />
  <g
     id="path933-4"
     style="fill:#ffffff" />
</svg>
