<?xml version="1.0" encoding="UTF-8" standalone="no"?>
<svg
   viewBox="0 0 1000 1000"
   preserveAspectRatio="xMidYMid meet"
   version="1.1"
   id="svg4"
   sodipodi:docname="planet-terraformable.svg"
   inkscape:version="1.1.1 (3bf5ae0d25, 2021-09-20)"
   xmlns:inkscape="http://www.inkscape.org/namespaces/inkscape"
   xmlns:sodipodi="http://sodipodi.sourceforge.net/DTD/sodipodi-0.dtd"
   xmlns="http://www.w3.org/2000/svg"
   xmlns:svg="http://www.w3.org/2000/svg">
  <defs
     id="defs8" />
  <sodipodi:namedview
     id="namedview6"
     pagecolor="#ffffff"
     bordercolor="#666666"
     borderopacity="1.0"
     inkscape:pageshadow="2"
     inkscape:pageopacity="0.0"
     inkscape:pagecheckerboard="0"
     showgrid="false"
     inkscape:zoom="0.873"
     inkscape:cx="122.56586"
     inkscape:cy="512.02749"
     inkscape:window-width="2681"
     inkscape:window-height="1270"
     inkscape:window-x="213"
     inkscape:window-y="649"
     inkscape:window-maximized="0"
     inkscape:current-layer="svg4"
     inkscape:snap-nodes="false"
     inkscape:snap-others="false" />
  <path
     id="path6483"
     style="color:#000000;fill:#000000;fill-rule:evenodd;-inkscape-stroke:none;paint-order:fill markers stroke"
     d="m 507.82812,56.193359 c -3.158,0.02963 -6.3195,0.09244 -9.48632,0.189453 l 1.22461,39.980469 c 2.87416,-0.08804 5.75507,-0.144812 8.64062,-0.171875 h 0.002 c 15.17646,-0.143865 30.3493,0.731433 45.45313,2.273438 L 480.23438,160.93945 534,352.01367 l 93.20117,26.54102 -22.10937,100.2539 97.59179,51.05469 147.53907,-23.56445 -94.13086,175.63086 -63.94532,31.1289 28.88477,68.05469 c 0,0 25.38569,24.81575 45.85352,46.36133 -1.03565,0.82168 -1.99942,1.73146 -3.04297,2.54297 l 24.55664,31.57617 c 33.05595,-25.70568 62.46913,-56.0261 87.1582,-89.84961 l -32.30859,-23.58398 c -14.89633,20.40764 -31.85918,39.27258 -50.26172,56.59961 l -41.55664,-37.29102 -22.90821,-41.23828 60.70899,-24.05469 105.38476,-226.80273 -185.56835,22.9082 -65.29102,-34.36328 22.9082,-103.09375 -106.52929,-34.36328 -42.38086,-163.80274 71.51562,-59.08008 c 7.93316,1.5211 15.83342,3.21261 23.66016,5.20118 L 622.7793,70.011719 C 585.26061,60.479192 546.5358,55.826617 507.83008,56.193359 Z m -51.19921,3.400391 c -39.2071,4.854857 -77.73633,14.902247 -114.32227,29.802734 -2.1878,0.890882 -4.37366,1.801719 -6.55859,2.732422 l 15.67383,36.798824 c 1.97768,-0.84242 3.97002,-1.6689 5.97265,-2.48437 v -0.002 c 33.31503,-13.56834 68.45125,-22.73016 104.14844,-27.150394 z m 206.16992,22.582031 -13.37695,37.697269 c 1.07219,0.38046 2.15413,0.77023 3.24414,1.16797 34.73675,12.67465 67.77196,30.09308 97.84765,51.5996 l 23.26563,-32.5371 C 740.74515,116.48144 704.52457,97.384041 666.37695,83.464844 c -1.18016,-0.430633 -2.37287,-0.861382 -3.57812,-1.289063 z M 298.05664,110.28125 C 263.44307,128.97333 231.32603,152.21648 202.75,179.25 c -1.83598,1.73683 -3.66528,3.4961 -5.48633,5.2793 L 225.25,213.10742 c 1.64149,-1.60737 3.30574,-3.2053 4.99023,-4.79883 26.0197,-24.61518 55.30893,-45.81113 86.82422,-62.83007 z m 508.58984,55.70508 -26.17187,30.25 c 1.65166,1.42908 3.29514,2.87687 4.93359,4.34179 26.79227,23.95295 50.43529,51.46642 70.06836,81.5625 l 33.5,-21.85546 c -21.56443,-33.05673 -47.48638,-63.22509 -76.90625,-89.52735 h -0.002 c -1.78955,-1.60002 -3.59612,-3.19177 -5.42188,-4.77148 z m -637.89453,49.15039 c -26.03298,30.67731 -47.89802,64.83932 -64.85937,101.32031 v 0.002 c -0.68687,1.47757 -1.3742,2.97122 -2.05664,4.48438 l 36.46289,16.44531 c 0.60688,-1.3456 1.23014,-2.70019 1.86523,-4.0664 v -0.002 c 4.4024,-9.46869 9.26656,-18.71368 14.38282,-27.82031 l 20.70898,10.65039 6.87305,63.00195 130.58398,91.63868 50.40039,119.1289 10.31055,107.67383 -105.38477,32.07422 -37.06054,75.21289 c -7.13515,-6.71532 -14.08228,-13.6275 -20.71485,-20.83594 l -29.43555,27.08399 c 26.43559,28.73082 56.60709,53.98243 89.55274,74.9375 2.38312,1.5161 4.78333,3.01275 7.20312,4.48828 l 20.82618,-34.15235 c -2.19498,-1.33844 -4.38133,-2.70079 -6.5586,-4.08593 h -0.002 v -0.002 c -12.29817,-7.82218 -24.05531,-16.4653 -35.45313,-25.55859 12.41521,-25.38276 31.97071,-70.16797 31.97071,-70.16797 L 402.1875,721.09375 389.16992,578.46484 C 360.52329,513.46638 340.14453,452.75195 340.14453,452.75195 L 208.75586,357.96094 c -3.17314,0.13151 -9.777,-56.90222 -12.93555,-56.55469 l -26.52343,-20.12109 c 9.18953,-13.99752 19.12579,-27.50634 29.95507,-40.26758 z m 741.4336,81.20312 -35.3711,18.67774 c 0.83888,1.58868 1.6711,3.19525 2.5,4.81836 16.51567,32.3437 28.7146,66.92234 36.14649,102.46875 l 39.15429,-8.1875 C 944.45282,375.07672 931.07528,337.16455 912.9375,301.64453 v -0.002 c -0.89994,-1.76221 -1.8159,-3.53003 -2.75195,-5.30274 z M 86.402344,359.81836 c -12.716229,36.92691 -20.589283,75.48759 -23.361328,114.44531 -0.200139,2.80766 -0.374081,5.61982 -0.521485,8.43555 l 39.945309,2.08984 c 0.13404,-2.56039 0.29391,-5.12139 0.47657,-7.68359 v -0.002 c 2.52396,-35.47129 9.70237,-70.6376 21.28125,-104.26172 z m 872.867186,95.60547 -39.74219,4.52734 c 4.31462,37.8832 3.30466,76.40144 -2.99218,114.00391 l 39.45117,6.60547 c 6.91624,-41.30132 8.0217,-83.53174 3.2832,-125.13672 z M 61.900391,506.29688 c -0.0067,38.33199 4.910113,76.63425 14.601562,113.72265 0.893296,3.41971 1.827267,6.836 2.804688,10.24414 l 38.449219,-11.02734 c -0.8871,-3.09321 -1.73666,-6.20399 -2.55274,-9.32813 -8.82424,-33.76966 -13.30879,-68.70043 -13.30273,-103.60547 z m 846.609379,104.90624 -0.29883,1.13086 -0.32813,1.2129 c -9.75641,36.03191 -24.47959,70.74746 -43.60351,102.80468 l 34.35351,20.49219 C 919.63686,701.63488 935.77931,663.57151 946.49414,624 l 0.002,-0.0117 0.35352,-1.3125 0.31641,-1.1875 z m -778.5586,44.16602 -37.265623,14.53125 c 14.628363,37.51431 34.305883,73.02303 58.367183,105.31055 l 0.002,0.002 c 0.95217,1.27741 1.91995,2.56431 2.9082,3.85938 l 31.79883,-24.26563 c -0.87473,-1.14629 -1.75165,-2.31329 -2.63477,-3.49805 l -0.002,-0.002 c -21.90681,-29.39685 -39.85427,-61.77961 -53.17383,-95.9375 z m 602.73047,196.64258 c -1.55892,0.99641 -3.1388,1.98615 -4.73437,2.97461 -30.82657,19.09486 -64.22812,34.084 -98.98633,44.41797 l 11.39844,38.33984 c 38.17246,-11.34906 74.79692,-27.78073 108.65234,-48.75195 h 0.002 v -0.002 c 1.73253,-1.07329 3.46918,-2.16335 5.20899,-3.27539 z m -400.83008,22.7168 -17.57812,35.93164 c 36.37653,17.79764 75.13591,30.64137 114.94336,38.08593 1.35126,0.25292 2.70411,0.49959 4.05859,0.74024 l 6.99805,-39.38477 c -1.23286,-0.21904 -2.46553,-0.44329 -3.69727,-0.67383 h -0.002 -0.002 c -36.24638,-6.77826 -71.5975,-18.4933 -104.72071,-34.69921 z m 260.07813,33.83984 c -1.05485,0.21061 -2.1294,0.41855 -3.22266,0.62695 -36.37267,6.9299 -73.72071,8.89375 -110.62305,5.82422 l -3.3164,39.86328 c 40.52608,3.37095 81.47699,1.21728 121.42773,-6.39453 h 0.002 c 1.17064,-0.22316 2.35922,-0.45272 3.56445,-0.69336 z" />
</svg>
