<?xml version="1.0" encoding="UTF-8"?>
<svg viewBox="0 0 1000 1000" preserveAspectRatio="xMidYMid meet">
  <g transform="matrix(1.9925419,0,0,1.9925419,13.088497,11.243999)">
    <g transform="matrix(0.47598604,0,0,0.47598604,-6.6046925,156.5972)">
      <path d="m 483.11523,239.83594 a 12,12 0 0 0 -8.91211,2.21875 12,12 0 0 0 -2.51562,16.7832 c 0,0 17.59085,23.25977 49.25781,23.25977 31.25936,0 46.44336,-22.95313 46.44336,-22.95313 a 12,12 0 0 0 -4.20898,-16.44141 12,12 0 0 0 -16.44141,4.21094 c 0,0 -5.03425,11.1836 -25.79297,11.1836 -20.35111,0 -29.95898,-13.52735 -29.95898,-13.52735 a 12,12 0 0 0 -7.8711,-4.73437 z m 75.21875,-72.00586 a 12,12 0 0 0 -7.99023,4.52734 c 0,0 -10.54537,13.77539 -30.89648,13.77539 -20.35111,0 -29.96094,-13.52734 -29.96094,-13.52734 a 12,12 0 0 0 -16.78321,-2.51563 12,12 0 0 0 -2.51562,16.78321 c 0,0 17.59281,23.25976 49.25977,23.25976 31.66695,0 49.82031,-23.01172 49.82031,-23.01172 a 12,12 0 0 0 -2.08008,-16.84375 12,12 0 0 0 -8.85352,-2.44726 z m 19.47071,-493.96875 a 6,6 0 0 0 -6.18555,5.80859 l -2.43359,77.37305 a 6,6 0 0 0 5.80859,6.18555 6,6 0 0 0 6.18555,-5.8086 l 2.43359,-77.37109 a 6,6 0 0 0 -5.80859,-6.1875 z m 31.56836,496.16015 a 12,12 0 0 0 -8.62891,3.14454 c 0,0 -14.3636,12.32031 -30.89648,12.32031 a 12,12 0 0 0 -12,12 12,12 0 0 0 12,12 c 27.72333,0 47.11718,-18.63086 47.11718,-18.63086 a 12,12 0 0 0 0.73438,-16.95508 12,12 0 0 0 -8.32617,-3.87891 z m -179.32422,50.24219 a 12,12 0 0 0 -6.85938,6.10547 12,12 0 0 0 5.57422,16.0293 c 12.55384,6.07467 25.23155,6.80665 34.77539,6.16211 4.77192,-0.32228 8.78192,-1.00369 11.81446,-1.70313 1.51626,-0.34972 2.7576,-0.69028 3.92968,-1.08398 0.58605,-0.19685 1.10477,-0.36931 1.99414,-0.78516 0.44469,-0.20793 0.93472,-0.39347 2.0586,-1.19336 0.56194,-0.39994 1.31632,-0.87829 2.49804,-2.37305 1.18173,-1.49475 3.54857,-5.20446 2.23047,-10.41406 a 12,12 0 0 0 -14.57812,-8.68945 12,12 0 0 0 -7.02735,5.23828 c 0.18802,-0.27665 0.39029,-0.81951 0.54688,-1.01758 1.16388,-1.47218 1.88968,-1.92505 2.41211,-2.29687 1.04485,-0.74364 1.41205,-0.86261 1.69336,-0.99414 0.56261,-0.26307 0.58874,-0.24458 0.52929,-0.22461 -0.11888,0.0399 -0.77971,0.23969 -1.67968,0.44726 -1.79995,0.41515 -4.67404,0.91728 -8.03907,1.14453 -6.73005,0.45452 -15.34023,-0.25654 -22.70507,-3.82031 a 12,12 0 0 0 -9.16797,-0.53125 z m 36,8.05664 a 12,12 0 0 0 -1.25196,8.57422 c -1.00446,-3.97002 0.13805,-6.68019 1.25196,-8.57422 z m -41.98633,-65.8164 a 12,12 0 0 0 -6.78516,6.18945 12,12 0 0 0 5.76758,15.96094 c 12.70972,5.9609 25.61655,6.48047 35.33203,5.76172 4.85775,-0.35938 8.94404,-1.05693 11.95703,-1.71875 1.5065,-0.33092 2.72514,-0.64647 3.75391,-0.95313 0.51439,-0.15333 0.94293,-0.28471 1.58203,-0.52734 0.31955,-0.12132 0.61672,-0.20715 1.50195,-0.67188 0.44262,-0.23236 0.95603,-0.36148 2.45118,-1.69531 0.74757,-0.66692 1.98426,-1.52595 3.18164,-4.5625 0.59869,-1.51828 0.68768,-6.30157 0.6875,-6.30274 -1.9e-4,-0.001 -3.17877,-6.39943 -3.17969,-6.40039 a 12,12 0 0 0 -16.91992,-0.39648 c 0.0737,-0.0635 0.18774,-0.18707 0.2539,-0.24609 1.47931,-1.3197 1.96511,-1.43243 2.36914,-1.64454 0.80807,-0.42421 0.98279,-0.45913 1.13672,-0.51757 0.30787,-0.11689 0.2305,-0.08 0.0801,-0.0352 -0.30083,0.0897 -1.05127,0.29303 -2.04687,0.51172 -1.99122,0.43739 -5.03762,0.96449 -8.58008,1.22656 -7.08493,0.52415 -16.04666,-0.12237 -23.36914,-3.55664 a 12,12 0 0 0 -9.17383,-0.42187 z m 39.26172,4.75195 a 12,12 0 0 0 -3.36524,7.64258 c 0.10016,-1.29415 0.24508,-2.71804 0.51954,-3.41407 1.05907,-2.68582 2.09689,-3.58215 2.8457,-4.22851 z m -3.45703,8.92773 a 12,12 0 0 0 3.10156,7.99024 c 9.2e-4,9.5e-4 -3.17597,-6.3957 -3.17578,-6.39453 6e-5,3.6e-4 0.0449,-0.91848 0.0742,-1.59571 z M 428.2832,20.869141 a 12,12 0 0 0 -12.04297,11.957031 l -0.83984,232.615238 a 12,12 0 0 0 11.95703,12.04492 12,12 0 0 0 12.04297,-11.95703 L 440.24023,32.914062 A 12,12 0 0 0 428.2832,20.869141 Z m 47.37305,-51.478516 a 12,12 0 0 0 -11.94141,12.058594 l 1.6875,345.714841 a 12,12 0 0 0 12.0586,11.94141 12,12 0 0 0 11.9414,-12.0586 l -1.6875,-345.714839 a 12,12 0 0 0 -12.05859,-11.941406 z m 88.5293,0.002 a 12,12 0 0 0 -12.25391,11.740235 L 544.5293,326.84766 a 12,12 0 0 0 11.74023,12.2539 12,12 0 0 0 12.25391,-11.74023 l 7.40234,-345.714846 a 12,12 0 0 0 -11.74023,-12.253906 z m 54.28906,-221.427738 a 12,12 0 0 0 -12.25781,11.73633 c -3.83527,176.142593 -7.72184,352.60119 -10.92969,525.00586 a 12,12 0 0 0 11.77539,12.22266 12,12 0 0 0 12.2207,-11.77539 c 3.20681,-172.34877 7.09239,-348.785073 10.92774,-524.93164 a 12,12 0 0 0 -11.73633,-12.25782 z m -88.56836,-0.002 A 12,12 0 0 0 518,-239.94531 l 1.55078,199.970701 a 12,12 0 0 0 12.09375,11.90625 12,12 0 0 0 11.90625,-12.09375 L 542,-240.13086 a 12,12 0 0 0 -12.09375,-11.90625 z m -102.41797,505.625 a 12.0012,12.0012 0 0 0 -12.08594,11.71875 c -9.2e-4,0.0623 0.0198,0.11761 0.0195,0.17969 h -0.0215 c 0,0.60095 0.15911,1.14604 0.2168,1.72851 0.5164,5.43128 3.3118,10.12104 6.53906,13.22071 3.60793,3.46529 7.76556,5.73334 12.3457,7.57617 2.27448,0.91514 4.67202,1.71362 7.17383,2.40234 1.13409,0.31221 2.36244,0.51943 3.53906,0.78516 6.37723,1.45047 13.32141,2.26423 20.74805,2.32812 0.33198,0.003 0.64289,0.039 0.97656,0.0391 0.007,0 0.0142,0 0.0215,0 a 12.0012,12.0012 0 0 0 0.0215,-23.99805 c -0.007,-1e-5 -0.0141,10e-6 -0.0215,0 -3e-5,0 3e-5,-0.002 0,-0.002 -0.23493,0 -0.44984,-0.0273 -0.6836,-0.0293 -6.62074,-0.0705 -12.76961,-0.93101 -17.61718,-2.16602 -1.93562,-0.49908 -3.70574,-1.04201 -5.1543,-1.63086 -2.59331,-1.05419 -4.25448,-2.23594 -4.68164,-2.64648 -0.0471,-0.0453 0.0429,0.0951 0.0273,0.084 -0.0108,-0.01 -0.0609,-0.0417 -0.0703,-0.0508 -0.3655,-0.35105 0.40196,0.65509 0.53516,2.16211 a 12.0012,12.0012 0 0 0 -11.82813,-11.70117 z m 179.78516,19.5 a 12.0012,12.0012 0 0 0 -11.97657,11.81836 c 0.0205,-1.72937 0.99746,-2.77801 0.57813,-2.37695 -0.003,0.003 -0.0167,0.011 -0.0195,0.0137 -0.0141,0.013 0.0314,-0.052 0.0117,-0.0332 -0.44129,0.42117 -2.13042,1.61347 -4.74219,2.67187 -1.29132,0.5233 -2.79948,1.02026 -4.47266,1.47461 -0.004,9.5e-4 -0.006,0.001 -0.01,0.002 -5.09128,1.36944 -11.77152,2.33649 -18.94922,2.35547 a 12.0012,12.0012 0 0 0 0.0312,24 c 0.0107,0 0.0206,-0.002 0.0312,-0.002 v 0.002 c 0.2427,-6.4e-4 0.46909,-0.0272 0.71094,-0.0293 8.84917,-0.0573 17.14006,-1.09497 24.48828,-3.13476 0.17125,-0.0473 0.31999,-0.11768 0.49023,-0.16602 2.3303,-0.66158 4.58622,-1.40006 6.71485,-2.25976 4.56826,-1.84501 8.71084,-4.11356 12.30468,-7.55078 2.60947,-2.49575 4.99427,-5.99298 6.1211,-10.09571 0.0343,-0.12498 0.10287,-0.23128 0.13476,-0.35742 3.1e-4,-0.001 -3.1e-4,-0.003 0,-0.004 0.23835,-0.94353 0.28598,-1.96172 0.37305,-2.96485 0.0449,-0.5143 0.19141,-0.9906 0.19141,-1.51953 h -0.004 c 0,-0.009 0.004,-0.0165 0.004,-0.0254 a 12.0012,12.0012 0 0 0 -12.01172,-11.81836 z m -141.8711,42.01758 v 12 c 0,6.20888 3.21825,11.47266 6.79493,14.91015 3.57667,3.4375 7.70753,5.72207 12.27343,7.57813 9.13181,3.71213 20.25141,5.59375 32.49414,5.59375 12.24274,0 23.36038,-1.88162 32.49219,-5.59375 4.56591,-1.85606 8.69872,-4.14063 12.27539,-7.57813 3.57667,-3.43749 6.79297,-8.70127 6.79297,-14.91015 v -12 h -24 v 10.01562 c -0.71552,0.54334 -2.0009,1.38277 -4.10547,2.23828 -5.18661,2.10839 -13.84864,3.82813 -23.45508,3.82813 -9.60643,0 -18.26846,-1.71974 -23.45507,-3.82813 -2.10457,-0.85551 -3.3919,-1.69494 -4.10743,-2.23828 V 315.10547 Z M 607.47656,49.089844 a 12,12 0 0 0 -7.27734,5.605468 c -3.4417,5.985625 -10.03453,11.046875 -29.66406,11.046875 a 12,12 0 0 0 -12,12 12,12 0 0 0 12,12 c 24.62668,0 42.23357,-8.758405 50.4707,-23.083984 a 12,12 0 0 0 -4.42188,-16.384766 12,12 0 0 0 -9.10742,-1.183593 z M 519.82227,-52.751953 c -13.80773,0 -26.40318,2.654637 -36.57227,7.759766 -10.16909,5.105128 -19.53516,13.809113 -19.53516,26.382812 0,12.573699 9.36607,21.2757305 19.53516,26.3808594 10.16909,5.1051286 22.76454,7.7617186 36.57227,7.7617186 13.80772,0 26.40317,-2.65659 36.57226,-7.7617186 10.16909,-5.1051289 19.5332,-13.8071604 19.5332,-26.3808594 0,-12.573699 -9.36411,-21.277684 -19.5332,-26.382812 -10.16909,-5.105129 -22.76454,-7.759766 -36.57226,-7.759766 z m 0,24 c 10.55195,0 20.00819,2.299983 25.80273,5.208984 5.79454,2.909001 6.30273,5.278144 6.30273,4.933594 0,-0.34455 -0.50819,2.024593 -6.30273,4.933594 -5.79454,2.909001 -15.25078,5.2089838 -25.80273,5.2089841 -10.55196,-3e-7 -20.01015,-2.2999831 -25.80469,-5.2089841 -5.79454,-2.909001 -6.30274,-5.278144 -6.30274,-4.933594 0,0.34455 0.5082,-2.024593 6.30274,-4.933594 5.79454,-2.909001 15.25273,-5.208984 25.80469,-5.208984 z m -47.47461,20.6933592 c -14.30659,7e-7 -27.44902,3.6672957 -37.77149,10.4375001 -10.32247,6.7702043 -18.33594,17.5578167 -18.33594,30.4902347 0,12.932417 8.01347,23.720029 18.33594,30.490234 10.32247,6.770205 23.4649,10.439453 37.77149,10.439453 h 12 v -24 h -12 c -10.05309,0 -18.96627,-2.807944 -24.60743,-6.507812 -5.64115,-3.699869 -7.5,-7.377501 -7.5,-10.421875 0,-3.044375 1.85885,-6.720054 7.5,-10.419922 5.64116,-3.699869 14.55434,-6.507812 24.60743,-6.507813 h 12 V -8.0585938 Z M 574.10742,-274.18164 c -13.80772,0 -26.40318,2.65659 -36.57226,7.76172 -10.16909,5.10512 -19.53515,13.80716 -19.53516,26.38086 0,12.5737 9.36607,21.27768 19.53516,26.38281 10.16909,5.10513 22.76454,7.76172 36.57226,7.76172 13.80772,0 26.40318,-2.65659 36.57227,-7.76172 10.16908,-5.10513 19.53516,-13.80911 19.53515,-26.38281 0,-12.5737 -9.36607,-21.27574 -19.53515,-26.38086 -10.16909,-5.10513 -22.76455,-7.76172 -36.57227,-7.76172 z m 0,24 c 10.55196,0 20.01015,2.30194 25.80469,5.21094 5.79454,2.909 6.30273,5.27619 6.30273,4.93164 0,-0.34455 -0.50819,2.02459 -6.30273,4.93359 -5.79454,2.909 -15.25273,5.21094 -25.80469,5.21094 -10.55196,0 -20.01014,-2.30194 -25.80469,-5.21094 -5.79454,-2.909 -6.30273,-5.27814 -6.30273,-4.93359 0,0.34455 0.50819,-2.02264 6.30273,-4.93164 5.79455,-2.909 15.25274,-5.21094 25.80469,-5.21094 z m -368.4375,567.14453 c -36.30581,7.37839 -63.3359,17.92482 -96.80469,14.38867 l -11.933589,-1.26172 -2.521485,23.86719 11.933594,1.26172 c 35.00072,3.698 62.96496,-5.12513 92.40234,-12.02148 0.70501,3.18735 1.73207,7.05808 2.60743,9.96093 -30.57318,17.29425 -69.77116,30.07526 -91.87305,31.27539 l -11.982423,0.65039 1.300781,23.96485 11.982422,-0.65039 c 31.50328,-1.71064 76.25108,-17.58709 111.29102,-39.52149 a 12.0012,12.0012 0 0 0 4.9121,-14.26758 c -4.01658,-11.0577 -4.5533,-13.27773 -7.10156,-27.9414 a 12.0012,12.0012 0 0 0 -14.21289,-9.70508 z m 22.81836,63.65234 a 12.0012,12.0012 0 0 0 -9.43164,0.72657 c -32.22881,16.8708 -72.86686,36.72366 -101.67383,40.45507 l -11.90039,1.54102 3.08203,23.80078 11.90235,-1.54101 c 32.12394,-4.16107 67.80727,-21.35761 98.24023,-37.09571 1.05567,2.5417 2.5704,5.79243 3.4707,7.94336 -25.04359,21.67084 -66.15033,42.69269 -89.41992,52.1875 l -11.10937,4.53321 9.0664,22.22265 11.11133,-4.53515 c 27.3404,-11.15585 74.39669,-34.33461 103.26367,-62.67969 a 12.0012,12.0012 0 0 0 2.36914,-13.83985 c -4.07016,-8.31351 -4.83301,-11.97954 -11.9414,-27.38671 a 12.0012,12.0012 0 0 0 -7.0293,-6.33204 z m 28.4707,57.08204 a 12.0012,12.0012 0 0 0 -8.60351,2.86523 c -28.00991,24.02312 -59.57823,51.88636 -86.59766,65.89258 l -10.65234,5.52148 11.04492,21.3086 10.6543,-5.52344 c 28.37424,-14.70853 56.83639,-39.35833 82.46875,-61.48828 5.73896,5.82932 11.59748,11.02517 18.34961,16.36914 -15.4624,26.48027 -39.4509,47.10285 -60.77149,64.52734 l -9.29297,7.59375 15.1875,18.58399 9.29297,-7.59375 c 23.80605,-19.45577 54.06679,-44.6064 71.84961,-81.13086 a 12.0012,12.0012 0 0 0 -3.71289,-14.94336 c -13.30331,-9.71616 -20.874,-16.62026 -31.06641,-28.01172 a 12.0012,12.0012 0 0 0 -8.15039,-3.9707 z m 558.09961,-69.375 a 12.0012,12.0012 0 0 0 -7.81445,4.09375 c -6.05522,7.01996 -9.19767,12.00083 -11.86914,15.96289 -2.67147,3.96206 -4.97347,7.20039 -11.08789,13.39257 a 12.0012,12.0012 0 0 0 -0.28125,16.56836 c 25.39684,27.53453 55.8383,45.34641 84.96875,61.79688 l 10.44726,5.90039 11.80274,-20.89649 -10.44922,-5.90234 c -25.67022,-14.49641 -50.53781,-29.2627 -71.48242,-49.42383 2.43828,-2.98975 4.38991,-5.65571 5.98242,-8.01758 1.22803,-1.82129 2.32185,-3.45702 3.50586,-5.1621 24.40276,17.24502 43.89206,26.51776 73.91797,37.75195 l 11.23828,4.20508 8.41016,-22.47852 -11.23829,-4.20508 C 867.81243,399.45015 851.62236,391.86206 823.5625,370.67773 a 12.0012,12.0012 0 0 0 -8.50391,-2.35546 z m -46.88867,61.97656 a 12.0012,12.0012 0 0 0 -8.46875,2.79492 c -14.86067,12.50671 -17.60978,16.92727 -30.68555,25.57812 a 12.0012,12.0012 0 0 0 -4.04882,15.49805 c 16.66678,32.39236 41.30107,59.46654 66.79297,83.81836 l 8.67773,8.28906 16.57812,-17.35547 -8.67773,-8.2871 c -22.00431,-21.02022 -42.40037,-43.46053 -57.01562,-68.42579 5.53552,-4.2814 10.46515,-8.76224 15.61328,-13.43554 21.65501,21.89354 45.96851,41.18989 75.48632,59.56836 l 10.1875,6.34179 12.6836,-20.37304 -10.18555,-6.3418 c -31.83413,-19.82066 -56.77937,-40.00503 -78.87695,-63.84961 a 12.0012,12.0012 0 0 0 -8.06055,-3.82031 z m -69.0293,52.80273 a 12.0012,12.0012 0 0 0 -8.65625,0.58594 c -17.4304,8.15159 -24.61479,11.46437 -39.62304,17.86914 a 12.0012,12.0012 0 0 0 -7.19141,12.57422 c 5.13046,39.69209 23.71562,74.01314 39.44141,100.79101 l 6.07812,10.34766 20.69532,-12.15234 -6.07813,-10.34766 c -13.99936,-23.8381 -28.95428,-52.26956 -34.8125,-82.95508 6.84021,-2.9875 14.28246,-6.34062 21.71875,-9.78906 14.97185,25.74399 30.14862,51.30143 56.4707,77.77148 l 8.46094,8.50977 17.01953,-16.92383 -8.46289,-8.50976 c -27.09502,-27.24734 -41.13128,-53.03157 -58.27148,-82.36914 a 12.0012,12.0012 0 0 0 -6.78907,-5.40235 z m -92.55273,32.47071 c -19.1741,2.62267 -36.03914,5.59182 -52.37891,8.66796 a 12.0012,12.0012 0 0 0 -9.77343,12.1836 c 1.16328,35.67518 4.26913,69.91448 11.75586,100.99219 l 2.81054,11.66601 23.33203,-5.62109 -2.81054,-11.66602 c -6.20112,-25.74109 -9.21175,-54.92724 -10.59961,-85.81055 9.89812,-1.79765 20.22132,-3.50892 31.04883,-5.125 9.74984,29.99381 20.15512,60.33654 34.97265,90.46875 l 5.29688,10.76954 21.53515,-10.5918 -5.29492,-10.76758 c -15.47501,-31.46922 -26.1965,-63.92063 -36.84765,-96.95898 a 12.0012,12.0012 0 0 0 -13.04688,-8.20703 z m 6.4375,-413.1875 a 12,12 0 0 0 -13.9043,9.72656 12,12 0 0 0 9.72852,13.90625 c 136.91009,24.19727 233.82727,116.69148 239.25,205.5625 1.2094,19.82031 -3.06065,42.60463 -10.97266,64.04687 a 12,12 0 0 0 7.10352,15.41407 12,12 0 0 0 15.41211,-7.10547 c 8.82882,-23.92689 13.89218,-49.5601 12.41211,-73.81641 C 865.66533,225.40651 758.26048,128.05338 613.02539,102.38477 Z m -188.64648,7.72265 C 288.2791,144.37287 186.63999,234.69196 172.72461,332.38867 a 12,12 0 0 0 10.1875,13.57227 12,12 0 0 0 13.57226,-10.1875 C 208.33013,252.60715 301.18686,165.87176 430.23828,133.38086 a 12,12 0 0 0 8.70703,-14.56641 12,12 0 0 0 -14.5664,-8.70703 z M 183.17969,365.32227 a 12,12 0 0 0 -10.17774,13.58007 c 1.19429,8.34146 2.94295,16.66599 5.23242,24.92969 a 12,12 0 0 0 14.76758,8.35938 12,12 0 0 0 8.36133,-14.76758 c -2.0213,-7.29577 -3.55726,-14.61439 -4.60351,-21.92188 a 12,12 0 0 0 -13.58008,-10.17968 z m 641.88867,64.48046 a 12,12 0 0 0 -7.46094,5.35743 c -6.71474,10.82244 -13.61467,20.06721 -22.44922,30.51367 a 12,12 0 0 0 1.41407,16.91211 12,12 0 0 0 16.9121,-1.41407 c 9.37462,-11.08507 17.13568,-21.45969 24.51758,-33.35742 a 12,12 0 0 0 -3.87109,-16.52343 12,12 0 0 0 -9.0625,-1.48829 z m -614.68359,1.70899 a 12,12 0 0 0 -9.13672,0.92383 12,12 0 0 0 -4.88477,16.25195 c 6.01742,11.18835 13.07938,22.10692 21.1582,32.64453 a 12,12 0 0 0 16.82422,2.22266 12,12 0 0 0 2.22266,-16.82422 C 229.2507,457.18568 222.89197,447.34574 217.5,437.32031 a 12,12 0 0 0 -7.11523,-5.80859 z M 766.2793,500.2832 a 12,12 0 0 0 -8.75782,2.76953 c -11.57025,9.72446 -24.06378,18.87798 -37.36523,27.28907 a 12,12 0 0 0 -3.72852,16.55468 12,12 0 0 0 16.55664,3.73047 c 14.21047,-8.98589 27.57409,-18.77397 39.98047,-29.20117 a 12,12 0 0 0 1.46485,-16.9082 12,12 0 0 0 -8.15039,-4.23438 z m -501.56641,2.15625 a 12,12 0 0 0 -8.16602,4.20313 12,12 0 0 0 1.4004,16.91211 c 63.49685,53.77935 160.05089,89.32054 284.87304,85.51562 6.33061,-0.19298 12.6154,-0.54557 18.84961,-1.05273 a 12,12 0 0 0 10.98828,-12.9336 12,12 0 0 0 -12.93359,-10.98828 c -5.83265,0.4745 -11.71218,0.80579 -17.63477,0.98633 -119.9032,3.65498 -210.31107,-30.44721 -268.63086,-79.8418 a 12,12 0 0 0 -8.74609,-2.80078 z m 412.28906,55.14063 a 12,12 0 0 0 -9.18359,0.0449 c -13.38845,5.62405 -27.29915,10.5071 -41.65234,14.53711 a 12,12 0 0 0 -8.3086,14.79687 12,12 0 0 0 14.79688,8.31055 c 15.32535,-4.30296 30.17124,-9.51576 44.45898,-15.51758 a 12,12 0 0 0 6.41602,-15.71093 12,12 0 0 0 -6.52735,-6.46094 z M 424.12171,133.25194 c -103.33381,33.18388 -176.50548,110.0623 -171.70082,189.5282 5.95097,98.42509 112.25086,185.40105 286.13018,180.05198 71.59742,-2.20257 134.92089,-28.88743 180.00372,-67.18716 45.08284,-38.29972 72.50645,-88.65259 69.4825,-138.66685 -4.56604,-75.51976 -75.93907,-144.67724 -174.05881,-170.28027 a 12,12 0 0 0 -14.64163,8.58092 12,12 0 0 0 8.58093,14.64164 c 90.56539,23.63182 152.48037,87.59339 156.16326,148.50614 2.42839,40.16411 -20.25988,84.26216 -61.06471,118.92753 -40.80481,34.66539 -99.14662,59.45847 -165.20336,61.49059 C 372.10705,483.94229 281.33089,403.26331 276.37714,321.3317 272.54893,258.01567 335.34456,186.96834 431.45947,156.10269 a 12,12 0 0 0 7.75547,-15.09518 12,12 0 0 0 -15.09323,-7.75557 z m 6.70671,78.75637 a 12,12 0 0 0 -9.12222,1.06616 c -36.92894,20.6084 -62.10354,52.58714 -59.91232,88.8285 1.86906,30.91299 23.39371,56.56326 53.69564,73.14075 30.30191,16.57749 70.08979,25.02849 113.12413,22.42655 43.03433,-2.60193 81.51418,-15.78514 109.59804,-35.89273 28.08388,-20.10761 46.3613,-48.16439 44.49226,-79.07738 -2.17449,-35.96465 -30.61671,-64.52773 -69.28523,-80.59434 a 12,12 0 0 0 -15.6845,6.47792 12,12 0 0 0 6.47597,15.68464 c 33.31422,13.84192 53.08774,35.90196 54.5375,59.88022 1.24613,20.61023 -10.89424,41.20805 -34.50679,58.11425 -23.61253,16.9062 -58.10877,29.09516 -97.07569,31.45117 -38.96692,2.35601 -74.68043,-5.58793 -100.15788,-19.52607 -25.47744,-13.93813 -40.01106,-32.92319 -41.2572,-53.53342 -1.46093,-24.16275 15.80092,-48.64789 47.65236,-66.42275 a 12,12 0 0 0 4.63051,-16.3268 12,12 0 0 0 -7.20458,-5.69667 z" />
    </g>
  </g>
</svg>
