<?xml version="1.0" encoding="UTF-8" standalone="no"?>
<svg
   viewBox="0 0 1000 1000"
   preserveAspectRatio="xMidYMid meet"
   version="1.1"
   id="svg6"
   sodipodi:docname="planet-landable.svg"
   inkscape:version="1.2.1 (9c6d41e410, 2022-07-14)"
   xmlns:inkscape="http://www.inkscape.org/namespaces/inkscape"
   xmlns:sodipodi="http://sodipodi.sourceforge.net/DTD/sodipodi-0.dtd"
   xmlns="http://www.w3.org/2000/svg"
   xmlns:svg="http://www.w3.org/2000/svg">
  <defs
     id="defs10" />
  <sodipodi:namedview
     id="namedview8"
     pagecolor="#ffffff"
     bordercolor="#666666"
     borderopacity="1.0"
     inkscape:pageshadow="2"
     inkscape:pageopacity="0.0"
     inkscape:pagecheckerboard="0"
     showgrid="false"
     inkscape:zoom="0.61730422"
     inkscape:cx="531.34255"
     inkscape:cy="617.19973"
     inkscape:window-width="1510"
     inkscape:window-height="1095"
     inkscape:window-x="260"
     inkscape:window-y="270"
     inkscape:window-maximized="0"
     inkscape:current-layer="svg6"
     inkscape:showpageshadow="2"
     inkscape:deskcolor="#d1d1d1" />
  <path
     id="path850"
     d="M 518.32812 30.400391 C 394.39825 30.400391 275.5223 79.639825 187.89062 167.27148 C 100.25897 254.90316 51.019531 373.7791 51.019531 497.70898 C 51.019534 601.72942 85.824322 702.11122 148.78906 783.52344 C 155.71145 793.03384 162.92859 802.3108 170.58984 811.19727 C 184.81346 827.69553 200.14739 842.6805 216.30273 856.26367 L 296.51367 856.26367 C 263.29251 837.43541 232.51004 812.22115 205.60352 781.01172 C 141.7216 706.91374 105.26758 605.42586 105.26758 499.42773 C 105.26758 393.42962 141.7216 291.93976 205.60352 217.8418 C 269.48543 143.74382 355.03771 102.97656 443.87109 102.97656 C 532.70448 102.97656 618.25676 143.74382 682.13867 217.8418 C 736.62077 281.03672 771.05984 364.17639 780.04297 453.02344 L 828.33789 482.20117 C 824.62098 371.89465 785.39461 266.81188 717.15234 187.65625 C 668.3044 130.9965 607.09484 90.883467 540.51172 71 C 645.76427 76.467391 745.58479 120.66097 820.48047 195.55664 C 900.62156 275.69773 945.63672 384.37237 945.63672 497.70898 C 945.63672 515.6214 944.38557 533.39325 942.17578 550.97852 L 979.34375 573.43359 C 983.43176 548.55107 985.63672 523.25013 985.63672 497.70898 C 985.63672 373.7791 936.39533 254.90316 848.76367 167.27148 C 761.13201 79.639825 642.25803 30.400393 518.32812 30.400391 z M 782.78711 594.88477 L 732.51953 753.17969 L 763.42969 746.11719 C 786.99287 705.73847 804.4669 661.28765 815.38672 614.58008 L 782.78711 594.88477 z M 699.3418 759.32617 C 698.91473 759.90183 698.49061 760.47977 698.06055 761.05273 L 705.61914 759.32617 L 699.3418 759.32617 z " />
  <g
     id="path13974-0">
    <path
       style="color:#000000;fill:#ff0000;stroke-width:120;-inkscape-stroke:none;paint-order:fill markers stroke"
       d="m 741.72431,499.97422 c -87.08761,-0.0767 -163.77527,0.0477 -245.80894,0.0426 L 426.10066,542.18417 238.92578,655.23582 411.1807,808.03098 364.8796,916.26464 H 238.92578 l 3.2e-4,82.8919 c 250.29496,0.0246 530.30011,-0.0422 759.78746,-0.0387 l -2e-4,-82.89557 H 872.7601 l -46.30124,-108.23213 172.2545,-152.7544 z m -6.78544,47.347 -48.27059,152.00517 H 550.94271 L 502.70077,547.36387 Z m 27.0828,260.66533 46.30114,108.23549 c -39.13419,-0.0152 -157.66947,0.0185 -157.66947,0.0185 l 1.92213,-83.24984 109.4462,-25.00417 z M 586.95765,916.24619 c 0,0 -121.28124,0.0199 -157.64083,0.0185 l 46.30112,-108.2374 c 112.30077,24.00977 112.30077,24.9634 112.30077,24.9634 z"
       id="path19328" />
  </g>
  <path
     id="path13974"
     style="stroke:none;stroke-width:562.586;paint-order:fill markers stroke"
     d="m 741.53369,500.31115 c -87.08761,-0.0767 -163.77527,0.0477 -245.80894,0.0426 l -256.98959,155.219 172.25492,152.79516 -46.3011,108.23366 H 238.73516 l 3.2e-4,82.8919 c 250.29496,0.0246 530.30011,-0.0422 759.78747,-0.0387 l -2.4e-4,-82.89557 H 872.56948 L 826.26824,808.32707 998.52271,655.57267 Z m -6.78544,47.347 -48.27059,152.00517 H 550.75209 L 502.51015,547.7008 Z m 27.0828,260.66533 46.30114,108.23549 c -39.13419,-0.0152 -157.66947,0.0185 -157.66947,0.0185 l 1.92213,-83.24984 109.4462,-25.00417 z M 586.76703,916.58312 c 0,0 -121.28124,0.0199 -157.64083,0.0185 l 46.30112,-108.2374 c 112.30077,24.00977 112.30077,24.9634 112.30077,24.9634 z"
     sodipodi:nodetypes="ccccccccccccccccccccccccccccc" />
</svg>
