<?xml version="1.0" encoding="UTF-8" standalone="no"?>
<svg
   viewBox="0 0 1000 1000"
   preserveAspectRatio="xMidYMid meet"
   version="1.1"
   id="svg4"
   sodipodi:docname="planet-earthlike.svg"
   inkscape:version="1.1.1 (3bf5ae0d25, 2021-09-20)"
   xmlns:inkscape="http://www.inkscape.org/namespaces/inkscape"
   xmlns:sodipodi="http://sodipodi.sourceforge.net/DTD/sodipodi-0.dtd"
   xmlns="http://www.w3.org/2000/svg"
   xmlns:svg="http://www.w3.org/2000/svg">
  <defs
     id="defs8" />
  <sodipodi:namedview
     id="namedview6"
     pagecolor="#ffffff"
     bordercolor="#666666"
     borderopacity="1.0"
     inkscape:pageshadow="2"
     inkscape:pageopacity="0.0"
     inkscape:pagecheckerboard="0"
     showgrid="false"
     inkscape:zoom="0.873"
     inkscape:cx="431.27148"
     inkscape:cy="580.75601"
     inkscape:window-width="1969"
     inkscape:window-height="1310"
     inkscape:window-x="1496"
     inkscape:window-y="517"
     inkscape:window-maximized="0"
     inkscape:current-layer="svg4" />
  <path
     id="path976"
     style="color:#000000;fill:#000000;fill-rule:evenodd;-inkscape-stroke:none;paint-order:fill markers stroke"
     d="M 505.6582,32.673828 C 377.44096,32.67383 254.40876,81.669792 163.54688,169.12305 72.684977,256.5763 21.472655,375.43316 21.472656,499.4082 c 0,123.97504 51.212321,242.83387 142.074224,330.28711 90.86189,87.45325 213.89408,136.44922 342.11132,136.44922 128.21724,0 251.24943,-48.99597 342.11133,-136.44922 90.8619,-87.45324 142.07422,-206.31206 142.07422,-330.28711 0,-123.97504 -51.21232,-242.8319 -142.07422,-330.28515 C 756.90763,81.669792 633.87544,32.673828 505.6582,32.673828 Z m -2.49414,71.523442 c 12.43496,0 24.80237,0.62956 37.07813,1.78906 l -64.58789,54.95312 53.76562,191.07422 93.20117,26.54102 -22.10937,100.2539 97.5918,51.05469 147.53906,-23.56445 -94.13086,175.63086 -63.94531,31.1289 28.88476,68.05469 c 0,0 13.38753,13.08988 28.41602,28.30078 -68.7772,53.43531 -153.67609,82.97071 -241.70313,82.97071 -88.43914,0 -173.7229,-29.81156 -242.66992,-83.72266 11.30138,-24.58436 23.29297,-52.07422 23.29297,-52.07422 L 397.60742,721.09375 384.58984,578.46484 C 355.94321,513.46638 335.56445,452.75195 335.56445,452.75195 L 204.17578,357.96094 c -3.17314,0.13151 -9.777,-56.90222 -12.93555,-56.55469 L 171.1543,286.16992 c 15.23627,-23.84763 33.01496,-46.22004 53.34179,-66.54687 73.91644,-73.91644 174.13434,-115.42578 278.66797,-115.42578 z" />
</svg>
