<?xml version="1.0" encoding="UTF-8" standalone="no"?>
<svg
   viewBox="0 0 1000 1000"
   preserveAspectRatio="xMidYMid meet"
   version="1.1"
   id="svg4"
   sodipodi:docname="planet-ammonia-based-life.svg"
   inkscape:version="1.1.1 (3bf5ae0d25, 2021-09-20)"
   xmlns:inkscape="http://www.inkscape.org/namespaces/inkscape"
   xmlns:sodipodi="http://sodipodi.sourceforge.net/DTD/sodipodi-0.dtd"
   xmlns="http://www.w3.org/2000/svg"
   xmlns:svg="http://www.w3.org/2000/svg">
  <defs
     id="defs8" />
  <sodipodi:namedview
     id="namedview6"
     pagecolor="#ffffff"
     bordercolor="#666666"
     borderopacity="1.0"
     inkscape:pageshadow="2"
     inkscape:pageopacity="0.0"
     inkscape:pagecheckerboard="0"
     showgrid="false"
     inkscape:zoom="0.4365"
     inkscape:cx="-106.52921"
     inkscape:cy="903.78007"
     inkscape:window-width="1969"
     inkscape:window-height="1299"
     inkscape:window-x="557"
     inkscape:window-y="716"
     inkscape:window-maximized="0"
     inkscape:current-layer="svg4"
     inkscape:snap-nodes="false" />
  <path
     id="path1468"
     style="color:#000000;fill:#000000;fill-rule:evenodd;-inkscape-stroke:none;paint-order:fill markers stroke"
     d="m 503.16406,34.63867 c -122.95459,0 -240.90953,48.85876 -327.85156,135.80078 -86.94203,86.94203 -135.80078,204.89697 -135.80078,327.85157 0,122.95459 48.85875,240.90953 135.80078,327.85156 86.94203,86.94204 204.89697,135.80074 327.85156,135.80074 122.95459,0 240.90955,-48.8587 327.85156,-135.80074 C 917.95765,739.20055 966.81641,621.24561 966.81641,498.29102 966.8164,375.33642 917.95765,257.38148 831.01562,170.43945 744.07362,83.49743 626.11865,34.63867 503.16406,34.63867 Z m 0,69.55664 c 104.53367,0 204.74955,41.51127 278.66602,115.42774 73.91646,73.91646 115.42773,174.1343 115.42773,278.66797 0,104.53367 -41.51126,204.74954 -115.42773,278.66601 -73.91647,73.91647 -174.13235,115.42774 -278.66602,115.42774 -104.53367,0 -204.7515,-41.51127 -278.66797,-115.42774 -73.91646,-73.91647 -115.42773,-174.13234 -115.42773,-278.66601 0,-104.53367 41.51127,-204.75151 115.42773,-278.66797 73.91647,-73.91647 174.1343,-115.42774 278.66797,-115.42774 z"
     sodipodi:nodetypes="ssssssssssssssssss" />
  <path
     style="color:#000000;fill:#000000;fill-rule:evenodd;stroke-width:0.87725;-inkscape-stroke:none;paint-order:fill markers stroke"
     d="m 396.45741,236.18839 c -32.5199,-1.52716 -55.35481,9.03126 -61.78679,28.56901 -11.42597,34.70954 31.2379,87.21074 95.29178,117.26391 19.47281,9.1053 39.49364,15.40384 58.21787,18.31524 l -0.0626,0.0731 c 76.07132,48.14246 133.03304,179.99933 94.72417,276.70555 h 42.30346 c 21.74661,-82.55522 -0.58544,-169.86911 -38.59187,-238.64102 27.56902,3.61706 65.03124,-6.18248 100.99168,-26.41789 62.69626,-35.331 102.63316,-91.51422 89.20142,-125.48831 -13.43109,-33.97422 -75.1441,-32.87448 -137.83984,2.45626 -29.31667,16.55147 -55.04651,38.60072 -71.79893,61.52818 -7.54032,-32.99423 -46.06242,-70.89436 -95.77165,-94.22523 -25.53105,-11.97889 -51.8514,-19.05771 -74.87859,-20.13875 z"
     id="path1471" />
  <path
     id="path1205"
     style="fill:#000000;fill-rule:evenodd;stroke-width:22.6979;paint-order:fill markers stroke"
     d="M 463.56641 488.00781 A 65.063016 65.063016 0 0 0 398.50195 553.07227 A 65.063016 65.063016 0 0 0 405.23242 581.05078 L 403.50195 582.57812 A 58.963361 58.963361 0 0 0 368.48828 570.5957 A 58.963361 58.963361 0 0 0 314.27148 607.25977 L 310.60938 606.99609 A 65.063016 65.063016 0 0 0 246.01172 549.26367 A 65.063016 65.063016 0 0 0 180.94922 614.32617 A 65.063016 65.063016 0 0 0 246.01172 679.39062 A 65.063016 65.063016 0 0 0 305.6543 639.60156 L 310.69727 639.96289 A 58.963361 58.963361 0 0 0 366.94727 688.34961 L 369.40625 694.01758 A 65.063016 65.063016 0 0 0 339.53906 748.26172 A 65.063016 65.063016 0 0 0 404.60352 813.32422 A 65.063016 65.063016 0 0 0 469.66602 748.26172 A 65.063016 65.063016 0 0 0 404.60352 683.19727 A 65.063016 65.063016 0 0 0 400.73633 683.63281 L 398.98438 679.59766 A 58.963361 58.963361 0 0 0 427.45312 629.56055 A 58.963361 58.963361 0 0 0 425.43555 614.58398 L 431.4082 609.3125 A 65.063016 65.063016 0 0 0 463.56641 618.13477 A 65.063016 65.063016 0 0 0 528.62891 553.07227 A 65.063016 65.063016 0 0 0 463.56641 488.00781 z M 367.69727 583.90234 A 46.964489 46.964489 0 0 1 414.66211 630.86523 A 46.964489 46.964489 0 0 1 367.69727 677.83008 A 46.964489 46.964489 0 0 1 320.73242 630.86523 A 46.964489 46.964489 0 0 1 367.69727 583.90234 z " />
</svg>
