<?xml version="1.0" encoding="UTF-8"?>
<svg viewBox="0 0 1000 1000" preserveAspectRatio="xMidYMid meet">
  <path d="m 518.32812,30.400391 c -123.93001,0 -242.80574,49.239338 -330.4375,136.871089 -87.63175,87.63176 -136.871089,206.50749 -136.871089,330.4375 3e-6,123.93002 49.239339,242.80575 136.871089,330.4375 87.63176,87.63176 206.50749,136.8711 330.4375,136.8711 123.93002,0 242.8038,-49.23934 330.43555,-136.8711 87.63175,-87.63175 136.87305,-206.50748 136.87305,-330.4375 0,-123.93001 -49.2413,-242.80574 -136.87305,-330.4375 C 761.13192,79.639729 642.25814,30.400393 518.32812,30.400391 Z m 0,40 c 113.33674,2e-6 222.01118,45.015079 302.15235,125.156249 80.14117,80.14117 125.15625,188.81561 125.15625,302.15234 0,113.33674 -45.01508,222.01118 -125.15625,302.15235 C 740.3393,880.0025 631.66486,925.01758 518.32812,925.01758 404.99139,925.01758 296.31695,880.0025 216.17578,799.86133 136.03461,719.72016 91.019534,611.04572 91.019531,497.70898 91.019531,384.37225 136.03461,275.69781 216.17578,195.55664 296.31696,115.41547 404.99139,70.400391 518.32812,70.400391 Z"/>
  <path d="m 443.87109,56.746094 c -103.03426,0 -201.49225,47.640596 -273.28125,130.910156 -71.788991,83.26956 -111.552731,195.21832 -111.552731,311.77148 0,116.55317 39.76374,228.49998 111.552731,311.76954 71.789,83.26955 170.24699,130.91015 273.28125,130.91015 103.03427,10e-6 201.49226,-47.6406 273.28125,-130.91015 71.789,-83.26956 111.55274,-195.21637 111.55274,-311.76954 0,-116.55316 -39.76374,-228.50192 -111.55274,-311.77148 C 645.36335,104.38669 546.90536,56.74609 443.87109,56.746094 Z m 0,46.230466 c 88.83348,0 174.3856,40.76719 238.26758,114.86524 63.88198,74.09804 100.33789,175.5877 100.33789,281.58593 0,105.99823 -36.45591,207.48594 -100.33789,281.58399 -63.88198,74.09804 -149.4341,114.86719 -238.26758,114.86719 -88.83347,0 -174.38559,-40.76915 -238.26757,-114.86719 -63.88198,-74.09805 -100.33594,-175.58576 -100.33594,-281.58399 0,-105.99822 36.45396,-207.48789 100.33594,-281.58593 63.88198,-74.09805 149.4341,-114.86524 238.26757,-114.86524 z"/>
</svg>
