<?xml version="1.0" encoding="UTF-8" standalone="no"?>
<svg
   viewBox="0 0 1000 1000"
   preserveAspectRatio="xMidYMid meet"
   version="1.1"
   id="svg4"
   sodipodi:docname="planet-supports-life.svg"
   inkscape:version="1.1.1 (3bf5ae0d25, 2021-09-20)"
   xmlns:inkscape="http://www.inkscape.org/namespaces/inkscape"
   xmlns:sodipodi="http://sodipodi.sourceforge.net/DTD/sodipodi-0.dtd"
   xmlns="http://www.w3.org/2000/svg"
   xmlns:svg="http://www.w3.org/2000/svg">
  <defs
     id="defs8" />
  <sodipodi:namedview
     id="namedview6"
     pagecolor="#ffffff"
     bordercolor="#666666"
     borderopacity="1.0"
     inkscape:pageshadow="2"
     inkscape:pageopacity="0.0"
     inkscape:pagecheckerboard="0"
     showgrid="false"
     inkscape:zoom="0.4365"
     inkscape:cx="-91.63803"
     inkscape:cy="979.38144"
     inkscape:window-width="1969"
     inkscape:window-height="1299"
     inkscape:window-x="557"
     inkscape:window-y="716"
     inkscape:window-maximized="0"
     inkscape:current-layer="svg4" />
  <path
     id="path3400"
     style="color:#000000;fill:#000000;fill-rule:evenodd;-inkscape-stroke:none;paint-order:fill markers stroke"
     d="m 503.16406,34.638672 c -122.95459,0 -240.90953,48.858763 -327.85156,135.800778 -86.942026,86.94203 -135.80078,204.89697 -135.800781,327.85157 0,122.95459 48.858755,240.90953 135.800781,327.85156 86.94203,86.94202 204.89697,135.80078 327.85156,135.80078 122.95459,0 240.90955,-48.85876 327.85156,-135.80078 C 917.95765,739.20055 966.81641,621.24561 966.81641,498.29102 966.8164,375.33642 917.95765,257.38148 831.01562,170.43945 744.07362,83.497435 626.11865,34.638672 503.16406,34.638672 Z m 0,69.556638 c 104.53367,0 204.74955,41.51127 278.66602,115.42774 73.91646,73.91646 115.42773,174.1343 115.42773,278.66797 0,104.53367 -41.51126,204.74954 -115.42773,278.66601 -73.91647,73.91647 -174.13235,115.42774 -278.66602,115.42774 -104.53367,0 -204.7515,-41.51127 -278.66797,-115.42774 -73.91646,-73.91647 -115.42773,-174.13234 -115.42773,-278.66601 0,-104.53367 41.51127,-204.75151 115.42773,-278.66797 73.91647,-73.91647 174.1343,-115.42774 278.66797,-115.42774 z M 294.45703,317.7793 a 155.21191,70.446739 21.45389 0 0 -76.95898,29.80468 155.21191,70.446739 21.45389 0 0 118.6914,122.33594 155.21191,70.446739 21.45389 0 0 72.51367,19.10742 l -0.0781,0.0762 c 94.75119,50.22476 165.70031,187.78479 117.98438,288.67382 h 52.6914 c 27.08677,-86.12596 -0.72919,-177.21641 -48.06836,-248.96289 a 70.965866,156.35568 64.732725 0 0 125.79102,-27.56054 70.965866,156.35568 64.732725 0 0 111.10547,-130.91602 70.965866,156.35568 64.732725 0 0 -171.6875,2.5625 70.965866,156.35568 64.732725 0 0 -89.42969,64.18945 155.21191,70.446739 21.45389 0 0 -119.28906,-98.30078 155.21191,70.446739 21.45389 0 0 -93.26563,-21.00976 z" />
</svg>
