<?xml version="1.0" encoding="UTF-8" standalone="no"?>
<svg
   viewBox="0 0 1000 1000"
   preserveAspectRatio="xMidYMid meet"
   version="1.1"
   id="svg4"
   sodipodi:docname="planet-water-based-life.svg"
   inkscape:version="1.1.1 (3bf5ae0d25, 2021-09-20)"
   xmlns:inkscape="http://www.inkscape.org/namespaces/inkscape"
   xmlns:sodipodi="http://sodipodi.sourceforge.net/DTD/sodipodi-0.dtd"
   xmlns="http://www.w3.org/2000/svg"
   xmlns:svg="http://www.w3.org/2000/svg">
  <defs
     id="defs8" />
  <sodipodi:namedview
     id="namedview6"
     pagecolor="#ffffff"
     bordercolor="#666666"
     borderopacity="1.0"
     inkscape:pageshadow="2"
     inkscape:pageopacity="0.0"
     inkscape:pagecheckerboard="0"
     showgrid="false"
     inkscape:zoom="0.30865211"
     inkscape:cx="124.7359"
     inkscape:cy="192.77367"
     inkscape:window-width="1969"
     inkscape:window-height="1299"
     inkscape:window-x="1353"
     inkscape:window-y="649"
     inkscape:window-maximized="0"
     inkscape:current-layer="svg4" />
  <path
     id="path3400"
     style="color:#000000;fill:#000000;fill-rule:evenodd;-inkscape-stroke:none;paint-order:fill markers stroke"
     d="m 503.16406,34.638672 c -122.95459,0 -240.90953,48.858763 -327.85156,135.800778 -86.942026,86.94203 -135.80078,204.89697 -135.800781,327.85157 0,122.95459 48.858755,240.90953 135.800781,327.85156 86.94203,86.94202 204.89697,135.80078 327.85156,135.80078 122.95459,0 240.90955,-48.85876 327.85156,-135.80078 C 917.95765,739.20055 966.81641,621.24561 966.81641,498.29102 966.8164,375.33642 917.95765,257.38148 831.01562,170.43945 744.07362,83.497435 626.11865,34.638672 503.16406,34.638672 Z m 0,69.556638 c 104.53367,0 204.74955,41.51127 278.66602,115.42774 73.91646,73.91646 115.42773,174.1343 115.42773,278.66797 0,104.53367 -41.51126,204.74954 -115.42773,278.66601 -73.91647,73.91647 -174.13235,115.42774 -278.66602,115.42774 -104.53367,0 -204.7515,-41.51127 -278.66797,-115.42774 -73.91646,-73.91647 -115.42773,-174.13234 -115.42773,-278.66601 0,-104.53367 41.51127,-204.75151 115.42773,-278.66797 73.91647,-73.91647 174.1343,-115.42774 278.66797,-115.42774 z"
     sodipodi:nodetypes="ssssssssssssssssss" />
  <path
     style="color:#000000;fill:#000000;fill-rule:evenodd;stroke-width:0.87725;-inkscape-stroke:none;paint-order:fill markers stroke"
     d="m 396.45741,236.18839 c -32.5199,-1.52716 -55.35481,9.03126 -61.78679,28.56901 -11.42597,34.70954 31.2379,87.21074 95.29178,117.26391 19.47281,9.1053 39.49364,15.40384 58.21787,18.31524 l -0.0626,0.0731 c 76.07132,48.14246 133.03304,179.99933 94.72417,276.70555 h 42.30346 c 21.74661,-82.55522 -0.58544,-169.86911 -38.59187,-238.64102 27.56902,3.61706 65.03124,-6.18248 100.99168,-26.41789 62.69626,-35.331 102.63316,-91.51422 89.20142,-125.48831 -13.43109,-33.97422 -75.1441,-32.87448 -137.83984,2.45626 -29.31667,16.55147 -55.04651,38.60072 -71.79893,61.52818 -7.54032,-32.99423 -46.06242,-70.89436 -95.77165,-94.22523 -25.53105,-11.97889 -51.8514,-19.05771 -74.87859,-20.13875 z"
     id="path2811" />
  <path
     id="path2446"
     style="color:#000000;fill:#000000;fill-rule:evenodd;stroke-width:0.507975;-inkscape-stroke:none;paint-order:fill markers stroke"
     d="m 385.05969,447.68476 c 0,0 -103.39208,130.16723 -105.82536,205.88292 a 100.39326,110.60275 0 0 0 -1.23364,16.8126 100.39326,110.60275 0 0 0 100.39292,110.60214 100.39326,110.60275 0 0 0 100.39292,-110.60214 100.39326,110.60275 0 0 0 -0.85416,-14.2026 C 476.59712,578.37515 385.05969,447.68476 385.05969,447.68476 Z" />
</svg>
