<?xml version="1.0" encoding="UTF-8" standalone="no"?>
<svg
   viewBox="0 0 1000 1000"
   preserveAspectRatio="xMidYMid meet"
   version="1.1"
   id="svg4"
   sodipodi:docname="planet-terraformable.svg"
   inkscape:version="1.1.1 (3bf5ae0d25, 2021-09-20)"
   xmlns:inkscape="http://www.inkscape.org/namespaces/inkscape"
   xmlns:sodipodi="http://sodipodi.sourceforge.net/DTD/sodipodi-0.dtd"
   xmlns="http://www.w3.org/2000/svg"
   xmlns:svg="http://www.w3.org/2000/svg">
  <defs
     id="defs8" />
  <sodipodi:namedview
     id="namedview6"
     pagecolor="#ffffff"
     bordercolor="#666666"
     borderopacity="1.0"
     inkscape:pageshadow="2"
     inkscape:pageopacity="0.0"
     inkscape:pagecheckerboard="0"
     showgrid="false"
     inkscape:zoom="0.873"
     inkscape:cx="172.96678"
     inkscape:cy="512.02749"
     inkscape:window-width="2681"
     inkscape:window-height="1270"
     inkscape:window-x="177"
     inkscape:window-y="681"
     inkscape:window-maximized="0"
     inkscape:current-layer="svg4"
     inkscape:snap-nodes="false"
     inkscape:snap-others="false" />
  <path
     id="path6483"
     style="color:#000000;fill:#000000;fill-rule:evenodd;-inkscape-stroke:none;paint-order:fill markers stroke"
     d="m 496.89844,32.882812 c -18.56975,0.32396 -37.009,1.660712 -55.25196,4.00586 l 4.66993,37.791016 c 16.83528,-2.172607 33.85685,-3.414178 51,-3.722657 z m 55.41015,1.984376 -3.86132,38.039062 c 1.69841,0.158925 3.41215,0.228301 5.10742,0.404297 5.68809,2.054873 11.46155,3.858325 17.42187,5.017578 0.48165,0.0781 0.95036,0.209333 1.43164,0.289063 l -96.7539,82.322262 53.76562,191.07422 93.20117,26.54102 -22.10937,100.2539 97.5918,51.05469 147.53906,-23.56445 -94.13086,175.63086 -63.94531,31.1289 28.88476,68.05469 c 0,0 38.22087,37.14735 58.55469,59.88086 -3.81851,2.77977 -7.71281,5.44777 -11.61524,8.10352 l 21.76563,31.27148 c 15.44673,-10.53122 30.36797,-21.8704 44.54687,-34.18359 l -32.03515,-36.21094 c 12.62621,-11.17039 24.59695,-23.07887 35.81641,-35.64453 l 36.35351,32.45898 c 12.70815,-13.99218 24.51031,-28.62648 35.32227,-43.86133 l -40.33594,-28.1914 c 9.64295,-13.79738 18.4573,-28.17202 26.36914,-43.01758 l 43.75976,23.32227 c 8.97488,-16.60661 16.87382,-33.71753 23.71485,-51.23243 l -46.48828,-17.95117 c 6.05643,-15.68445 11.15538,-31.73813 15.25,-48.03711 l 48.54101,12.19336 c 4.61911,-18.24338 8.03976,-36.80408 10.35352,-55.57226 l -49.63672,-6.1543 c 2.06639,-16.67129 3.10164,-33.47642 3.10156,-50.2793 h 50.01953 c -0.0273,-8.75547 -0.36837,-17.47579 -0.90234,-26.16992 l -49.7832,2.8418 c -0.95721,-16.7733 -2.94984,-33.49242 -5.96289,-50.02149 l 48.70898,-8.8789 c -3.50385,-18.52991 -8.08407,-36.80643 -13.85156,-54.71289 l -46.91797,14.66015 c -5.01288,-16.04403 -11.01054,-31.78855 -17.94141,-47.11133 l 44.2168,-20 c -7.89249,-16.98046 -16.71951,-33.5604 -26.67969,-49.54687 l -41.0664,24.92187 c -8.72938,-14.38467 -18.33286,-28.25088 -28.72657,-41.5 l 37.1543,-29.14648 C 876.40539,198.86859 863.8842,184.97121 850.41602,171.80078 l -32.99024,32.86328 C 805.53252,192.72462 792.9288,181.47905 779.71484,171.00391 l 28.45899,-35.90235 c -14.77138,-11.39912 -30.18512,-21.87639 -46.12695,-31.47265 l -23.72461,38.30078 c -14.34457,-8.88562 -29.2087,-16.94716 -44.48438,-24.13672 L 712.7832,77.541016 C 695.91704,69.846779 678.56546,63.205613 660.89062,57.4375 L 646.86523,98.861328 C 630.86596,93.444622 614.55386,88.93324 598.04102,85.353516 L 607.1875,43.162109 C 589.12372,39.427403 570.81962,36.593254 552.30859,34.867188 Z M 387.17188,46.873047 c -17.98965,4.376256 -35.63878,9.850102 -52.95118,16.169922 l 13,35.796875 c 15.96401,-5.830757 32.24312,-10.88025 48.83985,-14.923828 z M 283.34961,84.888672 c -16.53316,8.238751 -32.61488,17.356098 -48.11719,27.419918 l 20.77539,31.92188 c 14.27497,-9.26274 29.08912,-17.65883 44.32422,-25.25 z M 592.2098,97.364611 C 660.55649,94.691839 777.30415,163.34884 805.55921,207.64056 995.46337,369.56714 959.16112,665.50569 791.52412,807.55928 L 746.84961,767.46875 723.94141,726.23047 784.65039,702.17578 890.03516,475.37305 704.4668,498.28125 639.17578,463.91797 662.08398,360.82422 555.55469,326.46094 513.17383,162.6582 Z M 190.61914,145.16211 c -9.27517,7.66557 -18.3643,15.57964 -27.07226,23.96094 -4.65253,4.47798 -9.13117,9.09134 -13.57422,13.73047 l 27.70507,26.36718 c 4.05111,-4.25152 8.02154,-8.56212 12.2793,-12.66015 8.0333,-7.73194 16.42339,-15.03518 24.98828,-22.10938 z m -76.59375,79.94922 c -11.19804,14.85975 -21.403674,30.32492 -30.669921,46.27539 l 36.599611,21.05859 c -8.3916,14.58376 -15.90328,29.6741 -22.468752,45.15625 l -39.210937,-16.6289 c -7.322836,17.06066 -13.470563,34.57904 -18.65625,52.38867 L 80.666016,385.125 c -4.630848,16.15776 -8.269956,32.60011 -10.884766,49.19727 l -42.484375,-6.69336 c -2.951551,18.26871 -4.723402,36.77241 -5.402344,55.41797 l 43.123047,1.42968 c -0.556615,16.79189 -0.0777,33.62334 1.435547,50.35547 l -43.132813,3.90039 c 1.630968,18.58095 4.347109,36.98349 8.234376,55.10938 l 42.513671,-9.20508 c 3.555669,16.42398 8.123316,32.63687 13.66211,48.50976 l -41.085938,14.33594 c 6.09191,17.54411 13.127205,34.76419 21.328125,51.48047 L 107.20898,679.6582 c 7.4259,15.09306 15.77039,29.74189 24.9629,43.83985 L 95.605469,747.3418 c 10.082661,15.49949 21.084151,30.4828 33.062501,44.81836 l 33.55469,-28.0918 c 10.81127,12.91304 22.39716,25.19061 34.66406,36.75 l -30.05078,31.89062 c 13.54241,12.79229 27.80524,24.69527 42.65234,35.76758 l 26.15625,-35.18945 c 3.17025,2.35637 6.47909,4.52119 9.71289,6.79101 10.51381,-19.04822 38.42969,-83.49023 38.42969,-83.49023 L 397.60742,721.09375 384.58984,578.46484 C 355.94321,513.46638 335.56445,452.75195 335.56445,452.75195 L 204.17578,357.96094 c -3.17314,0.13151 -9.777,-56.90222 -12.93555,-56.55469 l -49.96484,-37.90234 5.85742,-13.64453 z m 16.55886,70.42087 40.09153,20.61819 6.87305,63.00195 130.58398,91.63868 50.40039,119.1289 10.31055,107.67383 -105.38477,32.07422 -38.94505,79.03753 C 139.74875,755.63181 88.202577,646.43027 76.747817,554.41041 60.029174,403.11822 107.36552,329.25276 130.58425,295.5322 Z m 144.43528,570.5596 -19.12695,33.12695 c 16.05432,9.31951 32.66357,17.64382 49.68164,25.08984 l 15.26367,-35.17187 c -15.6857,-6.87298 -31.03032,-14.45553 -45.81836,-23.04492 z m 444.04297,9.56054 c -15.24043,7.98699 -30.9428,15.09819 -47.02734,21.32227 l 14.10937,35.44141 c 17.43208,-6.75131 34.44923,-14.46918 50.97461,-23.14063 z m -350.21289,31.63086 -11.10742,36.42774 c 17.69562,5.47389 35.70054,10.06761 54,13.55468 l 7.00586,-37.77148 c -16.88285,-3.23112 -33.58096,-7.15092 -49.89844,-12.21094 z m 254.09961,5.56836 c -16.57683,4.35151 -33.43522,7.79756 -50.51563,10.28906 l 5.82227,37.70508 c 18.49583,-2.70293 36.73299,-6.53397 54.69141,-11.25195 z m -153.28516,13.80274 -2.6914,37.86523 c 12.83096,0.99103 25.72065,1.625 38.68554,1.625 5.6919,0 11.35825,-0.21406 17.02735,-0.40625 l -1.55469,-37.98242 c -5.14884,0.1721 -10.30274,0.30469 -15.47266,0.30469 -12.0588,0 -24.06446,-0.47687 -35.99414,-1.40625 z"
     sodipodi:nodetypes="cccccccccccccccccccccccccccccccccccccccccccccccccccccccccccccccccccccccccccccccccccccccsccscccccccccccccccccccccccccccccccccccccccccccccccccccccccccccccccccccccccsccsc" />
</svg>
