<?xml version="1.0" encoding="UTF-8" standalone="no"?>
<svg
   viewBox="0 0 1000 1000"
   preserveAspectRatio="xMidYMid meet"
   version="1.1"
   id="svg4"
   sodipodi:docname="planet-high-value.svg"
   inkscape:version="1.1.1 (3bf5ae0d25, 2021-09-20)"
   xmlns:inkscape="http://www.inkscape.org/namespaces/inkscape"
   xmlns:sodipodi="http://sodipodi.sourceforge.net/DTD/sodipodi-0.dtd"
   xmlns="http://www.w3.org/2000/svg"
   xmlns:svg="http://www.w3.org/2000/svg">
  <defs
     id="defs8" />
  <sodipodi:namedview
     id="namedview6"
     pagecolor="#ffffff"
     bordercolor="#666666"
     borderopacity="1.0"
     inkscape:pageshadow="2"
     inkscape:pageopacity="0.0"
     inkscape:pagecheckerboard="0"
     showgrid="false"
     inkscape:zoom="0.873"
     inkscape:cx="384.87973"
     inkscape:cy="556.70103"
     inkscape:window-width="1969"
     inkscape:window-height="1310"
     inkscape:window-x="762"
     inkscape:window-y="535"
     inkscape:window-maximized="0"
     inkscape:current-layer="text1175" />
  <g
     aria-label="$"
     id="text1175"
     style="font-size:859.495px;line-height:1.25;stroke:#000000;stroke-width:16.1155">
    <path
       id="path12482"
       style="font-weight:bold;font-family:'Euro Caps';-inkscape-font-specification:'Euro Caps Bold'"
       d="m 503.16406,34.638672 c -122.95463,0 -240.90951,48.858732 -327.85156,135.800778 -86.942054,86.94206 -135.80078,204.89694 -135.800781,327.85157 0,122.95463 48.858727,240.9095 135.800781,327.85156 86.94205,86.94205 204.89693,135.80078 327.85156,135.80078 122.95463,0 240.90951,-48.85873 327.85156,-135.80078 C 917.95768,739.20052 966.81641,621.24565 966.81641,498.29102 966.8164,375.33639 917.95768,257.38151 831.01562,170.43945 744.07358,83.497404 626.11869,34.638672 503.16406,34.638672 Z m 0,69.558598 c 104.53363,0 204.74958,41.51129 278.66602,115.42773 73.91644,73.91644 115.42773,174.13239 115.42773,278.66602 0,104.53363 -41.51129,204.74957 -115.42773,278.66601 -73.91644,73.91644 -174.13239,115.42774 -278.66602,115.42774 -104.53363,0 -204.75153,-41.5113 -278.66797,-115.42774 -73.91644,-73.91644 -115.42773,-174.13238 -115.42773,-278.66601 0,-104.53363 41.51129,-204.75153 115.42773,-278.66797 73.91644,-73.91644 174.13434,-115.42578 278.66797,-115.42578 z m -27.32617,91.14062 v 45.32617 c -17.62636,0.27979 -31.89508,0.69825 -42.80664,1.25782 -51.75995,2.79783 -87.71106,14.82825 -107.85547,36.09179 -19.02528,19.58485 -28.53906,52.60086 -28.53906,99.04492 0,34.1336 4.33647,60.71301 13.00976,79.73829 10.07221,22.66246 28.67936,38.4688 55.81836,47.42187 20.98377,6.99459 57.77375,10.63233 110.37305,10.91211 v 168.28906 c -8.95307,-0.27978 -28.9577,-0.83838 -60.01367,-1.67773 -18.18593,-1.11914 -31.8941,-5.59575 -41.12695,-13.42969 -8.95308,-7.83393 -14.26857,-19.72422 -15.94727,-35.67188 -1.11914,-10.35199 -1.81983,-26.30041 -2.09961,-47.84374 v -8.39258 h -65.46875 v 5.875 c 0.27979,20.14441 0.97852,36.37116 2.09766,48.68164 2.51805,24.62095 8.11382,44.20712 16.78711,58.75586 8.67329,14.54874 21.82285,26.15874 39.44921,34.83203 12.59026,6.15524 25.87997,10.21143 39.86915,12.16992 13.98918,1.95848 36.23211,2.79931 66.72851,2.51953 h 19.72461 v 54.97656 h 52.46094 v -54.97656 c 48.12276,-1.6787 78.05963,-3.63868 89.81055,-5.87695 36.65163,-7.55416 62.11189,-24.47965 76.38085,-50.7793 11.19134,-20.42419 16.78711,-48.2629 16.78711,-83.51562 0,-27.41879 -2.939,-50.08214 -8.81445,-67.98829 -9.51264,-29.65705 -28.67839,-49.66168 -57.49609,-60.01367 -24.34117,-8.95307 -63.22932,-13.70801 -116.66797,-14.26757 V 298.99805 c 13.42961,0 23.92045,0.14014 31.47461,0.41992 29.37727,0.83935 49.52204,5.03569 60.43359,12.58984 5.59567,3.91698 9.79201,11.33064 12.58985,22.24219 1.11913,5.03611 1.95801,20.00552 2.51757,44.90625 l 0.41993,9.23242 h 64.21093 c 0.27978,-8.67329 0.41992,-15.80668 0.41992,-21.40234 0,-28.81771 -3.63773,-51.34091 -10.91211,-67.56836 -10.63177,-23.7816 -29.09683,-40.28863 -55.39648,-49.52149 -15.94767,-5.59567 -46.30495,-8.53467 -91.07031,-8.81445 -2.51806,0 -7.41313,-0.13818 -14.6875,-0.41797 v -45.32617 z m 0,103.24023 v 158.21876 c -10.35199,0 -18.18607,-0.14014 -23.50195,-0.41993 -32.17511,-0.83934 -54.55623,-4.61722 -67.14649,-11.33203 -16.50722,-8.95307 -24.76172,-33.0139 -24.76172,-72.18359 0,-25.18052 3.91802,-43.08698 11.75196,-53.71875 8.11372,-11.75091 25.45963,-18.18556 52.03906,-19.30469 12.31047,-0.55957 29.51624,-0.97998 51.61914,-1.25977 z m 52.46094,217.39258 c 31.33576,0.27979 52.878,1.2588 64.6289,2.9375 23.22204,3.07762 38.19145,10.9117 44.90625,23.50196 6.71481,12.03069 10.07227,29.3766 10.07227,52.03906 0,36.37186 -7.55576,60.2945 -22.66406,71.76562 -15.94767,11.75091 -44.48511,17.625 -85.61328,17.625 h -11.33008 z" />
  </g>
</svg>
