<?xml version="1.0" encoding="UTF-8" standalone="no"?>
<svg
   viewBox="0 0 1000 1000"
   preserveAspectRatio="xMidYMid meet"
   version="1.1"
   id="svg4"
   sodipodi:docname="planet-ammonia-world.svg"
   inkscape:version="1.1.1 (3bf5ae0d25, 2021-09-20)"
   xmlns:inkscape="http://www.inkscape.org/namespaces/inkscape"
   xmlns:sodipodi="http://sodipodi.sourceforge.net/DTD/sodipodi-0.dtd"
   xmlns="http://www.w3.org/2000/svg"
   xmlns:svg="http://www.w3.org/2000/svg">
  <defs
     id="defs8" />
  <sodipodi:namedview
     id="namedview6"
     pagecolor="#ffffff"
     bordercolor="#666666"
     borderopacity="1.0"
     inkscape:pageshadow="2"
     inkscape:pageopacity="0.0"
     inkscape:pagecheckerboard="0"
     showgrid="false"
     inkscape:zoom="0.4365"
     inkscape:cx="-106.52921"
     inkscape:cy="903.78007"
     inkscape:window-width="1969"
     inkscape:window-height="1299"
     inkscape:window-x="557"
     inkscape:window-y="716"
     inkscape:window-maximized="0"
     inkscape:current-layer="svg4"
     inkscape:snap-nodes="false" />
  <path
     id="path1468"
     style="color:#000000;fill:#000000;fill-rule:evenodd;-inkscape-stroke:none;paint-order:fill markers stroke"
     d="m 503.16406,34.63867 c -122.95459,0 -240.90953,48.85876 -327.85156,135.80078 -86.94203,86.94203 -135.80078,204.89697 -135.80078,327.85157 0,122.95459 48.85875,240.90953 135.80078,327.85156 86.94203,86.94204 204.89697,135.80074 327.85156,135.80074 122.95459,0 240.90955,-48.8587 327.85156,-135.80074 C 917.95765,739.20055 966.81641,621.24561 966.81641,498.29102 966.8164,375.33642 917.95765,257.38148 831.01562,170.43945 744.07362,83.49743 626.11865,34.63867 503.16406,34.63867 Z m 0,69.55664 c 104.53367,0 204.74955,41.51127 278.66602,115.42774 73.91646,73.91646 115.42773,174.1343 115.42773,278.66797 0,104.53367 -41.51126,204.74954 -115.42773,278.66601 -73.91647,73.91647 -174.13235,115.42774 -278.66602,115.42774 -104.53367,0 -204.7515,-41.51127 -278.66797,-115.42774 -73.91646,-73.91647 -115.42773,-174.13234 -115.42773,-278.66601 0,-104.53367 41.51127,-204.75151 115.42773,-278.66797 73.91647,-73.91647 174.1343,-115.42774 278.66797,-115.42774 z"
     sodipodi:nodetypes="ssssssssssssssssss" />
  <path
     id="path1205"
     style="fill:#000000;fill-rule:evenodd;stroke-width:40.2395;paint-order:fill markers stroke"
     d="m 670.81841,247.16703 a 115.34584,115.34584 0 0 0 -115.3484,115.34841 115.34584,115.34584 0 0 0 11.932,49.60121 l -3.06784,2.70771 a 104.53217,104.53217 0 0 0 -62.07338,-21.24282 104.53217,104.53217 0 0 0 -96.11731,64.99927 l -6.4923,-0.46747 A 115.34584,115.34584 0 0 0 285.13034,355.76342 115.34584,115.34584 0 0 0 169.78542,471.10835 115.34584,115.34584 0 0 0 285.13034,586.45673 115.34584,115.34584 0 0 0 390.86666,515.91738 l 8.94034,0.64058 a 104.53217,104.53217 0 0 0 99.72184,85.78156 l 4.35935,10.04837 a 115.34584,115.34584 0 0 0 -52.94953,96.16578 115.34584,115.34584 0 0 0 115.34841,115.34492 115.34584,115.34584 0 0 0 115.34492,-115.34492 115.34584,115.34584 0 0 0 -115.34492,-115.34839 115.34584,115.34584 0 0 0 -6.85588,0.77214 l -3.10591,-7.15364 a 104.53217,104.53217 0 0 0 50.47031,-88.70743 104.53217,104.53217 0 0 0 -3.57682,-26.55095 l 10.58851,-9.34545 A 115.34584,115.34584 0 0 0 670.81841,477.86036 115.34584,115.34584 0 0 0 786.16333,362.51544 115.34584,115.34584 0 0 0 670.81841,247.16703 Z M 500.85846,417.17198 a 83.26018,83.26018 0 0 1 83.2608,83.25736 83.26018,83.26018 0 0 1 -83.2608,83.26081 83.26018,83.26018 0 0 1 -83.26081,-83.26081 83.26018,83.26018 0 0 1 83.26081,-83.25736 z" />
</svg>
