<?xml version="1.0" encoding="UTF-8" standalone="no"?>
<svg
   viewBox="0 0 1000 1000"
   preserveAspectRatio="xMidYMid meet"
   version="1.1"
   id="svg4"
   sodipodi:docname="planet-ringed.svg"
   inkscape:version="1.1.1 (3bf5ae0d25, 2021-09-20)"
   xmlns:inkscape="http://www.inkscape.org/namespaces/inkscape"
   xmlns:sodipodi="http://sodipodi.sourceforge.net/DTD/sodipodi-0.dtd"
   xmlns="http://www.w3.org/2000/svg"
   xmlns:svg="http://www.w3.org/2000/svg">
  <defs
     id="defs8" />
  <sodipodi:namedview
     id="namedview6"
     pagecolor="#ffffff"
     bordercolor="#666666"
     borderopacity="1.0"
     inkscape:pageshadow="2"
     inkscape:pageopacity="0.0"
     inkscape:pagecheckerboard="0"
     showgrid="false"
     inkscape:zoom="0.6173042"
     inkscape:cx="164.42461"
     inkscape:cy="620.43965"
     inkscape:window-width="1969"
     inkscape:window-height="1298"
     inkscape:window-x="264"
     inkscape:window-y="606"
     inkscape:window-maximized="0"
     inkscape:current-layer="svg4" />
  <path
     id="path6227"
     style="color:#000000;fill:#000000;fill-rule:evenodd;stroke-width:0.643477;-inkscape-stroke:none;paint-order:fill markers stroke"
     d="m 413.02681,209.87777 c -76.4226,20.47737 -141.6015,70.48944 -181.16076,139.00806 -39.55925,68.51864 -50.28151,149.97126 -29.80413,226.39386 1.50597,5.62036 3.24932,11.14593 5.07617,16.63633 0,0 -207.16602337,156.92762 -196.339319,193.16061 C 22.027017,815.44765 184.2438,742.21969 254.88552,713.9445 334.42811,682.10662 436.27,630.93962 539.10533,571.56764 641.94065,512.19564 737.12128,449.51646 804.51632,396.6148 c 0,0 203.08108,-150.30857 185.76094,-179.69475 C 979.48417,180.56057 712.87064,299.57667 712.87064,299.57667 691.90124,276.0546 667.21813,255.7308 639.42066,239.6819 570.90203,200.12266 489.44943,189.4004 413.02681,209.87777 Z m 11.58428,43.23312 c 64.97306,-17.40948 134.17508,-8.29859 192.42834,25.33395 44.10843,25.466 79.15356,63.4134 101.14279,108.53906 12.95672,-9.26671 25.0123,-18.22096 36.46228,-26.95237 -5.55927,-10.64718 -11.69334,-20.96176 -18.47061,-30.8315 0,0 129.26412,-50.02297 130.39793,-42.60042 7.4774,4.65701 -61.86225,63.35287 -84.60575,81.28669 -65.26477,51.2295 -159.48373,113.37056 -261.12245,172.05168 -101.63872,58.68115 -202.56436,109.20744 -279.5628,140.11364 -33.8996,16.96205 -108.1024,43.32318 -111.4898,34.71674 -0.71883,-9.501 64.18106,-65.99633 91.55309,-87.72119 l 0.36187,0.8889 c 4.8048,9.93343 10.12619,19.58228 15.97618,28.88756 13.20966,-5.3734 27.2292,-11.41331 41.77163,-17.89984 C 264.189,616.08155 252.54128,590.73878 245.29503,563.69541 227.88556,498.72234 236.996,429.5186 270.62852,371.26535 304.26105,313.0121 359.63804,270.52036 424.61109,253.11089 Z m 358.46636,188.29869 c -12.94346,9.51172 -26.56342,19.21393 -40.77095,29.06873 5.83164,53.27294 -5.31647,107.38674 -32.44656,154.37742 -33.63253,58.25326 -89.00732,100.74626 -153.98038,118.15574 -64.97306,17.40947 -134.17727,8.29731 -192.43052,-25.33522 -8.32977,-4.8092 -16.29644,-10.10958 -23.95443,-15.77242 -15.71095,7.30118 -31.09789,14.27483 -45.80104,20.59673 14.54537,12.7393 30.3876,24.13138 47.37642,33.93988 68.51863,39.55925 149.97124,50.28151 226.39384,29.80414 76.42262,-20.47737 141.6015,-70.48943 181.16076,-139.00807 36.0306,-62.40686 48.05114,-135.53405 34.45286,-205.82693 z"
     sodipodi:nodetypes="sssccsscccsssscccccsccccccsssccsssccsssc" />
  <g
     id="path933-4"
     style="fill:#ffffff"
     transform="matrix(0.88192165,-0.2363102,0.2363102,0.88192165,-58.743843,189.85725)" />
</svg>
