<?xml version="1.0" encoding="UTF-8" standalone="no"?>
<svg
   viewBox="0 0 1000 1000"
   preserveAspectRatio="xMidYMid meet"
   version="1.1"
   id="svg4"
   sodipodi:docname="planet-atmosphere-landable.svg"
   inkscape:version="1.2.1 (9c6d41e410, 2022-07-14)"
   xmlns:inkscape="http://www.inkscape.org/namespaces/inkscape"
   xmlns:sodipodi="http://sodipodi.sourceforge.net/DTD/sodipodi-0.dtd"
   xmlns="http://www.w3.org/2000/svg"
   xmlns:svg="http://www.w3.org/2000/svg">
  <defs
     id="defs8" />
  <sodipodi:namedview
     id="namedview6"
     pagecolor="#ffffff"
     bordercolor="#666666"
     borderopacity="1.0"
     inkscape:pageshadow="2"
     inkscape:pageopacity="0.0"
     inkscape:pagecheckerboard="0"
     showgrid="false"
     inkscape:zoom="0.4365"
     inkscape:cx="854.52463"
     inkscape:cy="1044.6735"
     inkscape:window-width="2038"
     inkscape:window-height="1319"
     inkscape:window-x="657"
     inkscape:window-y="542"
     inkscape:window-maximized="0"
     inkscape:current-layer="svg4"
     inkscape:showpageshadow="2"
     inkscape:deskcolor="#d1d1d1" />
  <path
     id="path850"
     style="stroke-width:0.797775"
     d="M 501.14453,7.9101562 C 369.15398,7.9101562 242.54597,59.907039 149.17969,152.49805 55.813391,245.08908 3.328125,370.72528 3.328125,501.71875 c 0,130.99347 52.485266,256.62774 145.851565,349.21875 12.65334,12.54827 25.96446,24.28176 39.76953,35.31055 L 205.4668,862.3457 C 196.14756,854.45673 179.03074,838.29032 170.30469,829.63672 82.579505,742.64001 33.328125,624.70073 33.328125,501.71875 c 0,-122.98198 49.25138,-240.92126 136.976565,-327.91797 87.72518,-86.996742 206.72827,-135.890624 330.83984,-135.890624 124.11148,0 243.11669,48.893882 330.8418,135.890624 87.72521,86.99671 136.97656,204.93599 136.97656,327.91797 0,12.56191 -0.64392,25.05139 -1.66016,37.48047 l 28.48633,17.20898 c 2.03187,-18.0807 3.17383,-36.32167 3.17383,-54.68945 0,-130.99347 -52.48526,-256.62967 -145.85156,-349.2207 C 759.74512,59.907039 633.135,7.9101562 501.14453,7.9101562 Z M 486.25391,129.48438 c -98.8681,0 -193.70295,39.28107 -263.61329,109.1914 -69.91028,69.91033 -109.19335,164.74723 -109.19335,263.61524 0,82.98491 27.76638,163.06699 77.99804,228.01562 5.52252,7.58709 11.28064,14.98873 17.39258,22.07813 26.54165,30.78616 57.68892,55.37301 91.61523,72.99609 3.6711,2.11087 7.46409,3.98322 11.20118,5.9668 l 0.0371,-0.0879 c 0,0 14.78692,-22.39273 16.32226,-29.19922 C 297.3998,786.60525 261.10164,756.52377 236.77147,728.30272 185.80812,669.18918 156.7246,588.22471 156.7246,503.6621 c 0,-84.56252 29.08352,-165.52914 80.04687,-224.64258 50.96337,-59.11354 119.21308,-91.63672 190.08204,-91.63672 70.86902,0 139.12063,32.52318 190.08398,91.63672 33.20266,38.51246 56.90825,86.37567 69.54492,138.39063 12.89816,3.1e-4 24.80955,-0.0135 38.09766,-0.006 -13.27734,-60.769 -40.49694,-116.98197 -79.70899,-162.46485 -38.96966,-45.20175 -87.80157,-77.20389 -140.91992,-93.0664 83.96782,4.36175 163.60172,39.6193 223.35156,99.36914 52.0298,52.02979 85.49312,119.13623 96.1543,191.05273 12.81014,6.77723 28.63724,17.22733 34.34375,20.74801 C 850.86086,384.88139 812.8469,301.6555 749.86719,238.67578 679.95696,168.76545 585.12201,129.48437 486.25391,129.48438 Z"
     sodipodi:nodetypes="ssssccssssssccsssssscsccccsssssccscsccss" />
  <g
     id="rect24658"
     transform="matrix(0.72727795,0.68634305,-0.66278872,0.74880646,0,0)" />
  <path
     id="path13974"
     style="stroke:none;stroke-width:562.586;paint-order:fill markers stroke"
     d="m 741.53353,500.31105 c -87.08761,-0.0767 -163.77527,0.0477 -245.80894,0.0426 L 238.735,655.5727 410.98992,808.3678 364.68882,916.6015 H 238.735 l 3.2e-4,82.8919 c 250.29496,0.025 530.30011,-0.042 759.78751,-0.039 l -3e-4,-82.8956 H 872.56933 L 826.26813,808.3267 998.52253,655.5723 Z M 734.74813,547.658 686.4775,699.6632 H 550.75193 L 502.50999,547.7007 Z m 27.0828,260.6654 46.3011,108.2355 c -39.1342,-0.015 -157.66947,0.019 -157.66947,0.019 l 1.92213,-83.2499 109.44624,-25.0041 z M 586.76687,916.583 c 0,0 -121.28124,0.02 -157.64083,0.019 l 46.30112,-108.2374 c 112.30077,24.0098 112.30077,24.9634 112.30077,24.9634 z"
     sodipodi:nodetypes="ccccccccccccccccccccccccccccc" />
  <g
     id="path13974-9" />
</svg>
