<?xml version="1.0" encoding="UTF-8" standalone="no"?>
<svg
   viewBox="0 0 1000 1000"
   preserveAspectRatio="xMidYMid meet"
   version="1.1"
   id="svg4"
   sodipodi:docname="planet-high-metal-content.svg"
   inkscape:version="1.1.1 (3bf5ae0d25, 2021-09-20)"
   xmlns:inkscape="http://www.inkscape.org/namespaces/inkscape"
   xmlns:sodipodi="http://sodipodi.sourceforge.net/DTD/sodipodi-0.dtd"
   xmlns="http://www.w3.org/2000/svg"
   xmlns:svg="http://www.w3.org/2000/svg">
  <defs
     id="defs8" />
  <sodipodi:namedview
     id="namedview6"
     pagecolor="#ffffff"
     bordercolor="#666666"
     borderopacity="1.0"
     inkscape:pageshadow="2"
     inkscape:pageopacity="0.0"
     inkscape:pagecheckerboard="0"
     showgrid="false"
     inkscape:zoom="0.873"
     inkscape:cx="500"
     inkscape:cy="500.57274"
     inkscape:window-width="2007"
     inkscape:window-height="1522"
     inkscape:window-x="628"
     inkscape:window-y="382"
     inkscape:window-maximized="0"
     inkscape:current-layer="svg4" />
  <path
     id="path1049"
     style="color:#000000;fill:#000000;fill-rule:evenodd;stroke-width:1.07209;-inkscape-stroke:none;paint-order:fill markers stroke"
     d="M 493.69922,38.066406 C 370.74464,38.066408 252.79162,86.92513 165.84961,173.86719 78.907597,260.80924 30.048828,378.76412 30.048828,501.71875 c 0,122.95463 48.858769,240.90951 135.800782,327.85156 86.94201,86.94206 204.89503,135.79883 327.84961,135.79883 122.95458,0 240.90955,-48.85677 327.85156,-135.79883 86.94201,-86.94205 135.80078,-204.89693 135.80078,-327.85156 0,-122.95463 -48.85877,-240.90951 -135.80078,-327.85156 C 734.60877,86.92513 616.6538,38.066406 493.69922,38.066406 Z m 0,69.556644 c 104.53357,0 204.75157,41.51129 278.66797,115.42773 73.9164,73.91644 115.42773,174.13433 115.42773,278.66797 0,104.53364 -41.51133,204.74958 -115.42773,278.66602 C 698.45079,854.3012 598.23279,895.8125 493.69922,895.8125 389.16565,895.8125 288.9496,854.3012 215.0332,780.38477 141.1168,706.46833 99.605469,606.25238 99.605469,501.71875 99.605469,397.18512 141.1168,296.96722 215.0332,223.05078 288.9496,149.13434 389.16565,107.62305 493.69922,107.62305 Z m -86.49805,126.88281 -40,176.65625 h 234.93555 l -40,-176.65625 z m -130.91992,270.69726 -40,176.65626 h 214.9375 l -40,-176.65626 z m 288.74414,0.65235 -40,176.65625 h 214.9375 l -40,-176.65625 z"
     sodipodi:nodetypes="ssssssssssssssssssccccccccccccccc" />
</svg>
