<?xml version="1.0" encoding="UTF-8" standalone="no"?>
<svg
   viewBox="0 0 1000 1000"
   preserveAspectRatio="xMidYMid meet"
   version="1.1"
   id="svg4"
   sodipodi:docname="planet-terraformable.svg"
   inkscape:version="1.1.1 (3bf5ae0d25, 2021-09-20)"
   xmlns:inkscape="http://www.inkscape.org/namespaces/inkscape"
   xmlns:sodipodi="http://sodipodi.sourceforge.net/DTD/sodipodi-0.dtd"
   xmlns="http://www.w3.org/2000/svg"
   xmlns:svg="http://www.w3.org/2000/svg">
  <defs
     id="defs8" />
  <sodipodi:namedview
     id="namedview6"
     pagecolor="#ffffff"
     bordercolor="#666666"
     borderopacity="1.0"
     inkscape:pageshadow="2"
     inkscape:pageopacity="0.0"
     inkscape:pagecheckerboard="0"
     showgrid="false"
     inkscape:zoom="0.873"
     inkscape:cx="431.27148"
     inkscape:cy="580.75601"
     inkscape:window-width="1969"
     inkscape:window-height="1310"
     inkscape:window-x="1496"
     inkscape:window-y="517"
     inkscape:window-maximized="0"
     inkscape:current-layer="svg4" />
  <path
     id="path6483"
     style="color:#000000;fill:#000000;fill-rule:evenodd;-inkscape-stroke:none;paint-order:fill markers stroke"
     d="M 505.6582,32.673828 C 377.44096,32.67383 254.40877,81.669795 163.54688,169.12305 72.684982,256.5763 21.472655,375.43316 21.472656,499.4082 c 0,123.97504 51.212326,242.83387 142.074224,330.28711 90.86189,87.45325 213.89408,136.44922 342.11132,136.44922 128.21724,0 251.24943,-48.99597 342.11133,-136.44922 90.8619,-87.45324 142.07422,-206.31206 142.07422,-330.28711 0,-123.97504 -51.21232,-242.8319 -142.07422,-330.28515 C 756.90763,81.669795 633.87544,32.673828 505.6582,32.673828 Z m 0,38.083984 c 16.0816,0 32.05869,0.908519 47.89649,2.552735 5.68809,2.054873 11.46155,3.858325 17.42187,5.017578 0.48165,0.0781 0.95036,0.209333 1.43164,0.289063 l -96.7539,82.322262 53.76562,191.07422 93.20117,26.54102 -22.10937,100.2539 97.5918,51.05469 147.53906,-23.56445 -94.13086,175.63086 -63.94531,31.1289 28.88476,68.05469 c 0,0 38.22087,37.14735 58.55469,59.88086 -77.03478,56.07905 -171.4886,87.06641 -269.34766,87.06641 -95.42993,0 -187.63972,-29.44483 -263.59961,-82.91016 5.34373,-4.56934 41.72852,-88.5625 41.72852,-88.5625 L 397.60742,721.09375 384.58984,578.46484 C 355.94321,513.46638 335.56445,452.75195 335.56445,452.75195 L 204.17578,357.96094 c -3.17314,0.13151 -9.777,-56.90222 -12.93555,-56.55469 l -49.96484,-37.90234 10.89258,-25.375 c 11.62598,-14.51945 24.16515,-28.45555 37.78906,-41.56836 C 273.55747,116.09634 387.14843,70.757814 505.6582,70.757812 Z" />
</svg>
