<?xml version="1.0" encoding="UTF-8" standalone="no"?>
<svg
   viewBox="0 0 1000 1000"
   preserveAspectRatio="xMidYMid meet"
   version="1.1"
   id="svg4"
   sodipodi:docname="route.svg"
   inkscape:version="1.1.1 (3bf5ae0d25, 2021-09-20)"
   xmlns:inkscape="http://www.inkscape.org/namespaces/inkscape"
   xmlns:sodipodi="http://sodipodi.sourceforge.net/DTD/sodipodi-0.dtd"
   xmlns="http://www.w3.org/2000/svg"
   xmlns:svg="http://www.w3.org/2000/svg">
  <defs
     id="defs8" />
  <sodipodi:namedview
     id="namedview6"
     pagecolor="#ffffff"
     bordercolor="#666666"
     borderopacity="1.0"
     inkscape:pageshadow="2"
     inkscape:pageopacity="0.0"
     inkscape:pagecheckerboard="0"
     showgrid="false"
     inkscape:zoom="0.873"
     inkscape:cx="499.42726"
     inkscape:cy="500.57274"
     inkscape:window-width="3840"
     inkscape:window-height="2096"
     inkscape:window-x="-8"
     inkscape:window-y="-8"
     inkscape:window-maximized="1"
     inkscape:current-layer="svg4" />
  <path
     d="m 862.98602,220.5041 a 136.44227,136.44227 0 0 0 -136.44297,136.44296 136.44227,136.44227 0 0 0 11.45936,54.34709 L 602.91264,510.8725 a 97.011715,97.011715 0 0 0 -33.46669,-6.21736 97.011715,97.011715 0 0 0 -54.47088,16.91477 L 384.71534,429.61973 a 97.011715,97.011715 0 0 0 3.85038,-26.98466 97.011715,97.011715 0 0 0 -97.01073,-97.01074 97.011715,97.011715 0 0 0 -97.01288,97.01074 97.011715,97.011715 0 0 0 29.37302,69.20649 L 103.40088,685.5866 A 82.616429,82.616429 0 0 0 83.762656,683.03177 82.616429,82.616429 0 0 0 1.1460234,765.64627 82.616429,82.616429 0 0 0 83.762656,848.26291 82.616429,82.616429 0 0 0 166.3793,765.64627 82.616429,82.616429 0 0 0 149.50508,715.96061 L 272.64886,497.552 a 97.011715,97.011715 0 0 0 18.90613,2.09593 97.011715,97.011715 0 0 0 63.39675,-23.61878 l 125.13302,88.33031 a 97.011715,97.011715 0 0 0 -7.64953,37.3064 97.011715,97.011715 0 0 0 97.01072,97.01288 97.011715,97.011715 0 0 0 97.01286,-97.01288 97.011715,97.011715 0 0 0 -18.00969,-55.93292 l 121.3808,-89.47432 a 136.44227,136.44227 0 0 0 93.1561,37.12925 A 136.44227,136.44227 0 0 0 999.42687,356.94706 136.44227,136.44227 0 0 0 862.98602,220.5041 Z"
     id="path2"
     style="stroke-width:1.0519" />
</svg>
