<?xml version="1.0" encoding="UTF-8"?>
<svg viewBox="0 0 1000 1000" preserveAspectRatio="xMidYMid meet">
  <path d="m 837.64473,227.37695 a 129.71018,129.71018 0 0 0 -129.71083,129.71083 129.71018,129.71018 0 0 0 10.89395,51.66559 l -128.4244,94.66513 a 92.225131,92.225131 0 0 0 -31.81544,-5.9106 92.225131,92.225131 0 0 0 -51.78328,16.08019 L 382.97206,426.17476 a 92.225131,92.225131 0 0 0 3.6604,-25.65323 92.225131,92.225131 0 0 0 -92.2242,-92.2242 92.225131,92.225131 0 0 0 -92.22623,92.2242 92.225131,92.225131 0 0 0 27.92374,65.79182 L 115.53772,669.51215 A 78.540112,78.540112 0 0 0 96.868461,667.08338 78.540112,78.540112 0 0 0 18.328154,745.62166 78.540112,78.540112 0 0 0 96.868461,824.16197 78.540112,78.540112 0 0 0 175.40878,745.62166 78.540112,78.540112 0 0 0 159.36714,698.3875 L 276.43497,490.75523 a 92.225131,92.225131 0 0 0 17.97329,1.99252 92.225131,92.225131 0 0 0 60.26875,-22.45342 l 118.95891,83.97207 a 92.225131,92.225131 0 0 0 -7.2721,35.46569 92.225131,92.225131 0 0 0 92.22419,92.22623 92.225131,92.225131 0 0 0 92.22622,-92.22623 92.225131,92.225131 0 0 0 -17.12109,-53.17318 L 749.08498,451.49928 A 129.71018,129.71018 0 0 0 837.64473,486.79656 129.71018,129.71018 0 0 0 967.35352,357.08778 129.71018,129.71018 0 0 0 837.64473,227.37695 Z" />
</svg>
