<?xml version="1.0" encoding="UTF-8" standalone="no"?>
<svg
   viewBox="0 0 1000 1000"
   preserveAspectRatio="xMidYMid meet"
   version="1.1"
   id="svg4"
   sodipodi:docname="scan.svg"
   inkscape:version="1.1.1 (3bf5ae0d25, 2021-09-20)"
   xmlns:inkscape="http://www.inkscape.org/namespaces/inkscape"
   xmlns:sodipodi="http://sodipodi.sourceforge.net/DTD/sodipodi-0.dtd"
   xmlns="http://www.w3.org/2000/svg"
   xmlns:svg="http://www.w3.org/2000/svg">
  <defs
     id="defs8" />
  <sodipodi:namedview
     id="namedview6"
     pagecolor="#ffffff"
     bordercolor="#666666"
     borderopacity="1.0"
     inkscape:pageshadow="2"
     inkscape:pageopacity="0.0"
     inkscape:pagecheckerboard="0"
     showgrid="false"
     inkscape:zoom="0.873"
     inkscape:cx="432.98969"
     inkscape:cy="556.70103"
     inkscape:window-width="1969"
     inkscape:window-height="1310"
     inkscape:window-x="775"
     inkscape:window-y="472"
     inkscape:window-maximized="0"
     inkscape:current-layer="svg4" />
  <path
     id="path900"
     style="color:#000000;fill:#000000;fill-rule:evenodd;-inkscape-stroke:none;paint-order:fill markers stroke"
     d="m 503.16406,34.638672 c -122.95463,0 -240.90951,48.858732 -327.85156,135.800778 -86.942054,86.94206 -135.80078,204.89694 -135.800781,327.85157 0,122.95463 48.858727,240.9095 135.800781,327.85156 86.94205,86.94205 204.89693,135.80078 327.85156,135.80078 122.95463,0 240.90951,-48.85873 327.85156,-135.80078 C 917.95768,739.20052 966.81641,621.24565 966.81641,498.29102 966.8164,375.33639 917.95768,257.38151 831.01562,170.43945 744.07358,83.497404 626.11869,34.638672 503.16406,34.638672 Z m 0,69.558598 c 4.21694,0 8.41379,0.17799 12.61524,0.3125 l -25.21485,136.15429 c -50.22167,2.84239 -98.4041,19.76959 -139.21679,48.48438 a 65.292099,65.292099 0 0 0 -42.06836,-15.37891 65.292099,65.292099 0 0 0 -65.29297,65.29102 65.292099,65.292099 0 0 0 22.09961,48.9082 c -18.65376,37.07781 -28.70703,78.29873 -28.70703,120.57617 0,71.16264 28.27806,139.43236 78.59765,189.75196 26.12845,26.12844 57.12064,46.24951 90.82032,59.61914 a 65.292099,65.292099 0 0 0 63.99414,53.08007 65.292099,65.292099 0 0 0 57.73632,-35.13867 c 62.80974,-5.35767 122.03606,-32.64543 166.95118,-77.56054 31.27001,-31.27001 54.01203,-69.47798 66.76171,-110.99805 l 120.40235,16.90234 c -18.06614,64.72837 -52.44631,124.38967 -100.8125,172.75586 -73.91644,73.91644 -174.13239,115.42774 -278.66602,115.42774 -104.53363,0 -204.75153,-41.5113 -278.66797,-115.42774 -73.91644,-73.91644 -115.42773,-174.13238 -115.42773,-278.66601 0,-104.53363 41.51129,-204.75153 115.42773,-278.66797 73.91644,-73.91644 174.13434,-115.42578 278.66797,-115.42578 z m -20.17773,177.39648 -26.7461,144.42383 a 99.656357,99.656357 0 0 0 -53.0332,87.79687 99.656357,99.656357 0 0 0 99.65625,99.65625 99.656357,99.656357 0 0 0 86.39063,-50.45508 l 132.47851,18.59766 c -11.13326,32.9115 -29.68511,63.18121 -54.7207,88.2168 -35.78894,35.78894 -82.24308,58.38793 -131.88867,64.83984 a 65.292099,65.292099 0 0 0 -64.33203,-54.25781 65.292099,65.292099 0 0 0 -58.32618,36.21484 c -25.08908,-11.24466 -48.20363,-26.97707 -68.02343,-46.79687 -42.78073,-42.78073 -66.80469,-100.78407 -66.80469,-161.28516 0,-36.75883 8.91689,-72.57203 25.47266,-104.63281 a 65.292099,65.292099 0 0 0 6.16992,0.44141 65.292099,65.292099 0 0 0 65.29101,-65.29297 65.292099,65.292099 0 0 0 -1.91992,-15.69532 c 32.42052,-23.29933 70.44735,-37.77721 110.33594,-41.77148 z" />
</svg>
