<?xml version="1.0" encoding="UTF-8" standalone="no"?>
<svg
   viewBox="0 0 1000 1000"
   preserveAspectRatio="xMidYMid meet"
   version="1.1"
   id="svg4"
   sodipodi:docname="scan.svg"
   inkscape:version="1.1.1 (3bf5ae0d25, 2021-09-20)"
   xmlns:inkscape="http://www.inkscape.org/namespaces/inkscape"
   xmlns:sodipodi="http://sodipodi.sourceforge.net/DTD/sodipodi-0.dtd"
   xmlns="http://www.w3.org/2000/svg"
   xmlns:svg="http://www.w3.org/2000/svg">
  <defs
     id="defs8" />
  <sodipodi:namedview
     id="namedview6"
     pagecolor="#ffffff"
     bordercolor="#666666"
     borderopacity="1.0"
     inkscape:pageshadow="2"
     inkscape:pageopacity="0.0"
     inkscape:pagecheckerboard="0"
     showgrid="false"
     inkscape:zoom="0.873"
     inkscape:cx="431.84422"
     inkscape:cy="556.70103"
     inkscape:window-width="1969"
     inkscape:window-height="1310"
     inkscape:window-x="775"
     inkscape:window-y="472"
     inkscape:window-maximized="0"
     inkscape:current-layer="svg4" />
  <path
     id="path900"
     style="color:#000000;fill:#000000;fill-rule:evenodd;-inkscape-stroke:none;paint-order:fill markers stroke"
     d="m 503.16406,34.638672 c -122.95463,0 -240.90951,48.858729 -327.85156,135.800778 -86.942054,86.94206 -135.80078,204.89694 -135.800781,327.85157 0,122.95463 48.858727,240.9095 135.800781,327.85156 86.94205,86.94205 204.89693,135.80078 327.85156,135.80078 122.95463,0 240.90951,-48.85873 327.85156,-135.80078 C 917.95768,739.20052 966.81641,621.24565 966.81641,498.29102 966.8164,375.33639 917.95768,257.38151 831.01562,170.43945 744.07357,83.497401 626.11869,34.638672 503.16406,34.638672 Z m 0,69.558598 c 104.53363,0 204.74958,41.51129 278.66602,115.42773 73.91644,73.91644 115.42773,174.13239 115.42773,278.66602 0,104.53363 -41.51129,204.74957 -115.42773,278.66601 -73.91644,73.91644 -174.13239,115.42774 -278.66602,115.42774 -104.53363,0 -204.75153,-41.5113 -278.66797,-115.42774 -73.91644,-73.91644 -115.42773,-174.13238 -115.42773,-278.66601 0,-104.53363 41.51129,-204.75153 115.42773,-278.66797 73.91644,-73.91644 174.13434,-115.42578 278.66797,-115.42578 z" />
  <path
     id="path900-3"
     style="color:#000000;fill:#000000;fill-rule:evenodd;stroke-width:0.578772;-inkscape-stroke:none;paint-order:fill markers stroke"
     d="m 505.72738,240.19645 c -71.16264,0 -139.43157,28.27804 -189.75116,78.59763 -50.31959,50.31959 -78.59763,118.58852 -78.59763,189.75117 0,71.16264 28.27804,139.43157 78.59763,189.75116 50.31959,50.31958 118.58852,78.59761 189.75116,78.59761 71.16264,0 139.43158,-28.27803 189.75116,-78.59761 50.31961,-50.31959 78.59764,-118.58852 78.59764,-189.75116 0,-71.16265 -28.27803,-139.43158 -78.59764,-189.75117 -50.31958,-50.31959 -118.58852,-78.59763 -189.75116,-78.59763 z m 0,40.25854 c 60.50109,0 118.50324,24.02555 161.28397,66.80629 42.78073,42.78073 66.80629,100.78287 66.80629,161.28397 0,60.50109 -24.02556,118.50323 -66.80629,161.28396 -42.78073,42.78073 -100.78288,66.80629 -161.28397,66.80629 -60.50109,0 -118.50436,-24.02556 -161.2851,-66.80629 C 301.66155,627.04848 277.636,569.04634 277.636,508.54525 c 0,-60.5011 24.02555,-118.50437 66.80628,-161.2851 42.78074,-42.78073 100.78401,-66.80516 161.2851,-66.80516 z" />
  <path
     id="path931"
     style="fill:#000000;fill-rule:evenodd;stroke-width:409.542;paint-order:fill markers stroke"
     inkscape:transform-center-x="22.199787"
     inkscape:transform-center-y="-51.991951"
     d="M 527.10938,43.326172 434.88281,541.3457 950.66602,613.75 898.50977,489.21484 a 241.03577,152.35658 63.436012 0 0 6.3125,-142.58593 l 12.30664,-5.09961 -16.90235,-12.92383 a 241.03577,152.35658 63.436012 0 0 -21.91015,-57.97266 241.03577,152.35658 63.436012 0 0 -243.08594,-156.00586 241.03577,152.35658 63.436012 0 0 -8.50781,4.86133 z" />
  <circle
     style="fill:#000000;fill-rule:evenodd;stroke-width:80;paint-order:fill markers stroke"
     id="path1425"
     cx="502.86365"
     cy="513.81445"
     r="99.656357" />
  <circle
     style="fill:#000000;fill-rule:evenodd;stroke-width:52.4138;paint-order:fill markers stroke"
     id="path1425-6"
     cx="470.79034"
     cy="745.70447"
     r="65.292099" />
  <circle
     style="fill:#000000;fill-rule:evenodd;stroke-width:52.4138;paint-order:fill markers stroke"
     id="path1425-6-4"
     cx="309.27835"
     cy="339.06067"
     r="65.292099" />
</svg>
