<?xml version="1.0" encoding="UTF-8" standalone="no"?>
<svg
   viewBox="0 0 1000 1000"
   preserveAspectRatio="xMidYMid meet"
   version="1.1"
   id="svg4"
   sodipodi:docname="search.svg"
   inkscape:version="1.1.1 (3bf5ae0d25, 2021-09-20)"
   xmlns:inkscape="http://www.inkscape.org/namespaces/inkscape"
   xmlns:sodipodi="http://sodipodi.sourceforge.net/DTD/sodipodi-0.dtd"
   xmlns="http://www.w3.org/2000/svg"
   xmlns:svg="http://www.w3.org/2000/svg">
  <defs
     id="defs8" />
  <sodipodi:namedview
     id="namedview6"
     pagecolor="#ffffff"
     bordercolor="#666666"
     borderopacity="1.0"
     inkscape:pageshadow="2"
     inkscape:pageopacity="0.0"
     inkscape:pagecheckerboard="0"
     showgrid="false"
     inkscape:zoom="0.873"
     inkscape:cx="463.91753"
     inkscape:cy="500.57274"
     inkscape:window-width="1941"
     inkscape:window-height="1390"
     inkscape:window-x="686"
     inkscape:window-y="592"
     inkscape:window-maximized="0"
     inkscape:current-layer="svg4" />
  <path
     id="path900"
     style="color:#000000;fill:#000000;stroke-width:1.02727;-inkscape-stroke:none;paint-order:fill markers stroke"
     d="m 656.21715,48.188617 c -162.72865,0 -295.52941,132.802773 -295.52941,295.531413 0,162.72866 132.80076,295.52943 295.52941,295.52943 162.72864,-2e-5 295.53142,-132.80078 295.53142,-295.52943 0,-162.72863 -132.80278,-295.531407 -295.53142,-295.531413 z m 0,82.387893 c 118.20294,0 213.14353,94.9406 213.14353,213.14352 0,118.20296 -94.94059,213.14151 -213.14353,213.14152 -118.20296,0 -213.14152,-94.93856 -213.14152,-213.14152 0,-118.20292 94.93857,-213.14352 213.14152,-213.14352 z M 655.41661,6.1810862 c -187.61175,0 -342.71141,148.0000738 -342.71141,331.6542338 0,67.26536 20.87023,129.70414 56.45948,181.88417 L 81.26352,807.62065 81.797217,808.15436 3.4902992,886.46127 114.54332,997.51428 441.49059,670.565 l -0.5337,-0.53169 44.53156,-44.53156 c 50.25894,27.94627 108.3137,43.98982 169.92816,43.98982 187.61173,0 342.70939,-148.00208 342.70939,-331.65625 C 998.126,154.18116 843.02834,6.1810923 655.41661,6.1810862 Z m 0,102.7265538 c 134.20093,0 239.98284,102.98079 239.98284,228.92768 0,125.94691 -105.78191,228.92971 -239.98284,228.92971 -134.20095,0 -239.98486,-102.9828 -239.98486,-228.92971 0,-125.94689 105.78391,-228.92768 239.98486,-228.92768 z" />
</svg>
