<?xml version="1.0" encoding="UTF-8" standalone="no"?>
<svg
   viewBox="0 0 1000 1000"
   preserveAspectRatio="xMidYMid meet"
   version="1.1"
   id="svg4"
   sodipodi:docname="search.svg"
   inkscape:version="1.1.1 (c3084ef, 2021-09-22)"
   xmlns:inkscape="http://www.inkscape.org/namespaces/inkscape"
   xmlns:sodipodi="http://sodipodi.sourceforge.net/DTD/sodipodi-0.dtd"
   xmlns="http://www.w3.org/2000/svg"
   xmlns:svg="http://www.w3.org/2000/svg">
  <defs
     id="defs8" />
  <sodipodi:namedview
     id="namedview6"
     pagecolor="#ffffff"
     bordercolor="#666666"
     borderopacity="1.0"
     inkscape:pageshadow="2"
     inkscape:pageopacity="0.0"
     inkscape:pagecheckerboard="0"
     showgrid="false"
     inkscape:zoom="0.873"
     inkscape:cx="464.49026"
     inkscape:cy="501.14548"
     inkscape:window-width="1680"
     inkscape:window-height="949"
     inkscape:window-x="28"
     inkscape:window-y="23"
     inkscape:window-maximized="0"
     inkscape:current-layer="svg4" />
  <path
     id="path34"
     style="color:#000000;fill:#000000;stroke-width:1.02727;-inkscape-stroke:none;paint-order:fill markers stroke"
     d="m 655.41602,6.1816406 c -187.61175,0 -342.71094,148.0001394 -342.71094,331.6542994 0,67.26536 20.86973,129.70278 56.45898,181.88281 L 81.263672,807.62109 81.796875,808.1543 3.4902344,886.46094 114.54297,997.51367 441.49023,670.56445 l -0.5332,-0.53125 44.53125,-44.53125 c 50.25894,27.94627 108.31328,43.99024 169.92774,43.99024 187.61173,0 342.71093,-148.00208 342.71093,-331.65625 0,-183.65416 -155.0992,-331.6542933 -342.71093,-331.6542994 z M 656.2168,130.57617 c 118.20294,0 213.14453,94.94161 213.14453,213.14453 0,118.20296 -94.94159,213.14062 -213.14453,213.14063 -118.20296,0 -213.14063,-94.93767 -213.14063,-213.14063 0,-118.20292 94.93768,-213.14453 213.14063,-213.14453 z" />
</svg>
