<?xml version="1.0" encoding="UTF-8" standalone="no"?>
<svg
   viewBox="0 0 1000 1000"
   preserveAspectRatio="xMidYMid meet"
   version="1.1"
   id="svg4"
   sodipodi:docname="settings.svg"
   inkscape:version="1.1.1 (3bf5ae0d25, 2021-09-20)"
   xmlns:inkscape="http://www.inkscape.org/namespaces/inkscape"
   xmlns:sodipodi="http://sodipodi.sourceforge.net/DTD/sodipodi-0.dtd"
   xmlns="http://www.w3.org/2000/svg"
   xmlns:svg="http://www.w3.org/2000/svg">
  <defs
     id="defs8" />
  <sodipodi:namedview
     id="namedview6"
     pagecolor="#ffffff"
     bordercolor="#666666"
     borderopacity="1.0"
     inkscape:pageshadow="2"
     inkscape:pageopacity="0.0"
     inkscape:pagecheckerboard="0"
     showgrid="false"
     inkscape:zoom="0.61730422"
     inkscape:cx="371.77779"
     inkscape:cy="750.84534"
     inkscape:window-width="1961"
     inkscape:window-height="1419"
     inkscape:window-x="207"
     inkscape:window-y="574"
     inkscape:window-maximized="0"
     inkscape:current-layer="svg4" />
  <path
     id="path2527"
     style="fill:#000000;fill-rule:evenodd;stroke-width:53.4804;paint-order:fill markers stroke"
     d="M 99.786305,24.054689 V 164.05469 h -12 -84.5605486 v 52.7832 40 52.7832 h 84.5605486 12 V 982.81832 H 160.04998 V 309.62109 h 12.29883 84.56055 v -92.7832 -52.7832 H 172.34881 160.04998 V 24.054689 Z m 380.000005,0 V 664.05469 h -12 -84.56055 v 52.7832 40 52.7832 h 84.56055 12 v 173.19723 h 60.26367 V 809.62109 h 12.29883 84.56055 v -92.7832 -52.7832 H 552.34881 540.04998 V 24.054689 Z m 360,0 V 377.25195 h -12 -84.56055 v 52.78321 40 52.7832 h 84.56055 12 v 459.99996 h 60.26367 V 522.81836 h 12.29883 84.56055 v -52.7832 -92.78321 H 912.34881 900.04998 V 24.054689 Z" />
  <path
     id="path2530"
     style="fill-rule:evenodd;stroke-width:739.026;paint-order:fill markers stroke"
     transform="scale(-1,1)"
     d="m -916.31659,24.054691 h 90.53031 V 982.81836 h -90.53031 z" />
  <path
     id="path2533"
     style="fill-rule:evenodd;stroke-width:739.026;paint-order:fill markers stroke"
     transform="scale(-1,1)"
     d="m -554.04999,24.054691 h 90.53031 V 982.81836 h -90.53031 z" />
  <path
     id="path2536"
     style="fill-rule:evenodd;stroke-width:739.026;paint-order:fill markers stroke"
     transform="scale(-1,1)"
     d="m -174.3166,24.054615 h 90.530307 V 982.81829 H -174.3166 Z" />
</svg>
