<?xml version="1.0" encoding="UTF-8" standalone="no"?>
<svg
   viewBox="0 0 1000 1000"
   preserveAspectRatio="xMidYMid meet"
   version="1.1"
   id="svg4"
   sodipodi:docname="settings.svg"
   inkscape:version="1.1.1 (3bf5ae0d25, 2021-09-20)"
   xmlns:inkscape="http://www.inkscape.org/namespaces/inkscape"
   xmlns:sodipodi="http://sodipodi.sourceforge.net/DTD/sodipodi-0.dtd"
   xmlns="http://www.w3.org/2000/svg"
   xmlns:svg="http://www.w3.org/2000/svg">
  <defs
     id="defs8" />
  <sodipodi:namedview
     id="namedview6"
     pagecolor="#ffffff"
     bordercolor="#666666"
     borderopacity="1.0"
     inkscape:pageshadow="2"
     inkscape:pageopacity="0.0"
     inkscape:pagecheckerboard="0"
     showgrid="false"
     inkscape:zoom="0.61730422"
     inkscape:cx="371.77779"
     inkscape:cy="750.84534"
     inkscape:window-width="1961"
     inkscape:window-height="1419"
     inkscape:window-x="407"
     inkscape:window-y="595"
     inkscape:window-maximized="0"
     inkscape:current-layer="svg4" />
  <path
     id="path851"
     style="fill:#000000;fill-rule:evenodd;stroke-width:54.3846;paint-order:fill markers stroke"
     d="M 996.1458,85.155272 H 851.37151 V 4.5947252 h -54.5832 -41.36408 -54.5832 V 85.155272 H 4.686525 v 15.999998 60.26367 14.26563 H 700.84103 v 82.59375 h 95.94728 54.5832 V 175.68457 H 996.1458 v -14.26563 -60.26367 z m 0,379.732418 H 334.32061 v -80.29297 h -54.5832 -41.36407 -54.5832 v 80.29297 H 4.686525 v 16.26758 60.26367 14 H 183.79014 v 82.85938 h 95.94727 54.5832 V 555.41894 H 996.1458 v -14 -60.26367 z m 0,362.26758 H 630.90384 v -82.56055 h -54.58321 -41.36407 -54.58321 v 82.56055 H 4.686525 v 14 60.26367 16.26563 H 480.37335 v 80.59373 h 54.58321 95.94728 V 917.68457 H 996.1458 v -16.26563 -60.26367 z" />
</svg>
