<?xml version="1.0" encoding="UTF-8" standalone="no"?>
<svg
   viewBox="0 0 1000 1000"
   preserveAspectRatio="xMidYMid meet"
   version="1.1"
   id="svg4"
   sodipodi:docname="shield.svg"
   inkscape:version="1.1.1 (3bf5ae0d25, 2021-09-20)"
   xmlns:inkscape="http://www.inkscape.org/namespaces/inkscape"
   xmlns:sodipodi="http://sodipodi.sourceforge.net/DTD/sodipodi-0.dtd"
   xmlns="http://www.w3.org/2000/svg"
   xmlns:svg="http://www.w3.org/2000/svg">
  <defs
     id="defs8" />
  <sodipodi:namedview
     id="namedview6"
     pagecolor="#ffffff"
     bordercolor="#666666"
     borderopacity="1.0"
     inkscape:pageshadow="2"
     inkscape:pageopacity="0.0"
     inkscape:pagecheckerboard="0"
     showgrid="false"
     inkscape:zoom="0.4365"
     inkscape:cx="1183.2761"
     inkscape:cy="1008.0183"
     inkscape:window-width="1969"
     inkscape:window-height="1310"
     inkscape:window-x="1008"
     inkscape:window-y="766"
     inkscape:window-maximized="0"
     inkscape:current-layer="svg4"
     showguides="false" />
  <path
     id="path3354"
     style="color:#000000;fill:#000000;fill-rule:evenodd;stroke-width:1.29373;-inkscape-stroke:none;paint-order:fill markers stroke"
     d="m 503.14298,19.742706 c 0,0 -273.05503,163.832224 -414.325534,166.213864 l 2.493383,197.49685 c 0,0 30.166641,187.61198 115.905641,319.59129 102.41047,161.97461 277.88533,276.15426 297.55086,278.93578 -0.006,0.0581 0.002,0.34477 -0.004,0.39594 0.12033,0.008 0.92419,-0.17945 1.14111,-0.19695 0.21679,0.0176 1.02081,0.20514 1.1411,0.19695 -0.006,-0.0514 0.002,-0.33797 -0.004,-0.39594 0,0 141.87659,-81.38706 270.48508,-258.35931 C 891.84518,543.64941 920.49589,383.45342 920.49589,383.45342 l 2.49135,-171.31026 C 787.25812,197.55608 503.14298,19.742707 503.14298,19.742706 Z m -3.68119,117.091424 c 0,1e-5 215.22248,134.69702 318.04003,145.74703 3.51859,147.19285 -50.70375,291.11256 -110.18793,387.45672 -97.42344,134.05991 -204.89781,195.71006 -204.89781,195.71006 0.005,0.0439 -0.002,0.26152 0.002,0.3005 -0.0911,0.006 -0.69872,-0.13491 -0.86294,-0.14822 -0.16433,0.0133 -0.7738,0.15446 -0.86497,0.14822 0.005,-0.0388 -0.002,-0.25652 0.002,-0.3005 C 485.79521,863.64089 352.871,777.14706 275.29307,654.44815 201.90736,535.10724 187.94142,398.51256 185.60244,262.74578 292.6176,260.94165 499.46179,136.83413 499.46179,136.83413 Z"
     sodipodi:nodetypes="cccccccccccccccccccccccc" />
  <path
     id="path3357"
     style="fill-rule:evenodd;stroke-width:27.7375;paint-order:fill markers stroke"
     d="M 640.35233,467.85489 A 142.97715,142.97715 0 0 1 497.37518,610.83204 142.97715,142.97715 0 0 1 354.39803,467.85489 142.97715,142.97715 0 0 1 497.37518,324.87774 142.97715,142.97715 0 0 1 640.35233,467.85489 Z" />
</svg>
