<?xml version="1.0" encoding="UTF-8" standalone="no"?>
<svg
   viewBox="0 0 1000 1000"
   preserveAspectRatio="xMidYMid meet"
   version="1.1"
   id="svg8"
   sodipodi:docname="sync.svg"
   inkscape:version="1.1.1 (3bf5ae0d25, 2021-09-20)"
   xmlns:inkscape="http://www.inkscape.org/namespaces/inkscape"
   xmlns:sodipodi="http://sodipodi.sourceforge.net/DTD/sodipodi-0.dtd"
   xmlns="http://www.w3.org/2000/svg"
   xmlns:svg="http://www.w3.org/2000/svg">
  <defs
     id="defs12" />
  <sodipodi:namedview
     id="namedview10"
     pagecolor="#ffffff"
     bordercolor="#666666"
     borderopacity="1.0"
     inkscape:pageshadow="2"
     inkscape:pageopacity="0.0"
     inkscape:pagecheckerboard="0"
     showgrid="false"
     inkscape:zoom="0.61730422"
     inkscape:cx="1031.9061"
     inkscape:cy="591.28058"
     inkscape:window-width="2360"
     inkscape:window-height="1768"
     inkscape:window-x="777"
     inkscape:window-y="282"
     inkscape:window-maximized="0"
     inkscape:current-layer="svg8" />
  <path
     id="path3525"
     style="stroke-width:0.901611"
     d="M 493.29688,24.519531 C 221.76227,21.247545 -0.62071438,269.27704 19.353516,525.74609 28.99458,649.53732 86.72871,771.18447 163.00195,838.7207 l -35.49414,67.63672 199.00391,-4.48828 27.95117,-0.63086 89.57422,-2.01758 -64.08984,-98.54687 -108.51954,-166.8711 -36.37304,68.88086 c -40.45261,-56.92929 -64.25977,-126.6006 -64.25977,-202.13867 0,-193.29308 155.34571,-348.63868 348.63867,-348.63867 5.40762,0 10.78145,0.14011 16.12696,0.38086 l -23.38867,-31.24023 -26.50391,-35.400396 20.90625,-24.152343 6.52344,-7.539063 22.53515,-26.035156 c 0.6113,-3.196023 -13.51501,-2.288945 -15.91211,-2.291016 -8.85499,-0.636698 -17.66464,-1.003827 -26.42382,-1.109375 z m 375.13085,72.267578 -199.0039,4.488281 -27.95117,0.63281 -89.57422,2.01563 64.08984,98.54687 108.51953,166.87305 36.37305,-68.88281 c 40.45261,56.92928 64.25976,126.6006 64.25976,202.13867 0,193.29309 -155.34571,348.63868 -348.63867,348.63867 -5.40762,0 -10.77949,-0.14011 -16.125,-0.38086 l 23.38672,31.24219 26.50391,35.39844 -20.90625,24.15429 -6.52344,7.53907 -22.53516,26.03515 c -0.6113,3.19602 13.51501,2.287 15.91211,2.28906 C 759.57457,997.88995 997.20061,742.14265 976.58203,477.40039 966.94097,353.60916 909.20683,231.96201 832.93359,164.42578 Z" />
</svg>
