<?xml version="1.0" encoding="UTF-8" standalone="no"?>
<svg
   viewBox="0 0 1000 1000"
   preserveAspectRatio="xMidYMid meet"
   version="1.1"
   id="svg8"
   sodipodi:docname="sync.svg"
   inkscape:version="1.1.1 (3bf5ae0d25, 2021-09-20)"
   xmlns:inkscape="http://www.inkscape.org/namespaces/inkscape"
   xmlns:sodipodi="http://sodipodi.sourceforge.net/DTD/sodipodi-0.dtd"
   xmlns="http://www.w3.org/2000/svg"
   xmlns:svg="http://www.w3.org/2000/svg">
  <defs
     id="defs12" />
  <sodipodi:namedview
     id="namedview10"
     pagecolor="#ffffff"
     bordercolor="#666666"
     borderopacity="1.0"
     inkscape:pageshadow="2"
     inkscape:pageopacity="0.0"
     inkscape:pagecheckerboard="0"
     showgrid="false"
     inkscape:zoom="0.873"
     inkscape:cx="715.92211"
     inkscape:cy="500.57274"
     inkscape:window-width="2360"
     inkscape:window-height="1768"
     inkscape:window-x="777"
     inkscape:window-y="282"
     inkscape:window-maximized="0"
     inkscape:current-layer="svg8" />
  <path
     id="path3930"
     style="stroke-width:0.901611"
     d="M 42.255648,385.73903 C 10.119105,505.67426 27.344393,627.53882 81.304856,729.70438 l -64.33369,69.38795 193.383774,47.17106 27.16226,6.62388 87.04393,21.23484 L 288.16202,762.3456 226.52827,573.07279 173.568,630.19328 C 149.22816,564.7339 144.26318,491.27464 163.81387,418.31046 213.8418,231.60369 404.10167,121.759 590.80833,171.7869 c 5.22336,1.3996 10.37659,2.92461 15.47765,4.54067 l -14.50561,-36.23001 -16.43865,-41.05308 26.44583,-17.91874 8.25166,-5.594008 28.50603,-19.315677 0.40204,-1.500406 C 633.7972,53.147063 628.6191,51.630261 623.38033,50.226534 370.97827,-17.404394 109.88657,133.33698 42.255648,385.73903 Z M 362.19905,962.37399 c 5.15009,1.56862 10.32819,3.08541 15.56696,4.4891 C 630.16806,1034.494 891.25976,883.7527 958.89068,631.35064 991.02721,511.41542 973.80192,389.55087 919.84148,287.3853 l 64.33366,-69.38795 -193.38373,-47.17106 -27.16227,-6.62388 -87.04392,-21.23485 36.39908,111.77651 61.63379,189.27282 52.96025,-57.12049 c 24.33986,65.45936 29.30481,138.91864 9.75412,211.88282 -50.02792,186.70677 -240.28779,296.55144 -426.99446,246.52355 -5.22336,-1.39959 -10.37658,-2.9246 -15.47765,-4.54067 l 14.5056,36.23 16.43868,41.0531 -26.44583,17.91874 -8.25168,5.59399 -28.50604,19.31565 z" />
</svg>
