<?xml version="1.0" encoding="UTF-8" standalone="no"?>
<svg
   viewBox="0 0 1000 1000"
   preserveAspectRatio="xMidYMid meet"
   version="1.1"
   id="svg4"
   sodipodi:docname="system-bodies.svg"
   inkscape:version="1.1.1 (3bf5ae0d25, 2021-09-20)"
   xmlns:inkscape="http://www.inkscape.org/namespaces/inkscape"
   xmlns:sodipodi="http://sodipodi.sourceforge.net/DTD/sodipodi-0.dtd"
   xmlns="http://www.w3.org/2000/svg"
   xmlns:svg="http://www.w3.org/2000/svg">
  <defs
     id="defs8" />
  <sodipodi:namedview
     id="namedview6"
     pagecolor="#ffffff"
     bordercolor="#666666"
     borderopacity="1.0"
     inkscape:pageshadow="2"
     inkscape:pageopacity="0.0"
     inkscape:pagecheckerboard="0"
     showgrid="false"
     inkscape:zoom="0.873"
     inkscape:cx="499.42726"
     inkscape:cy="500.57274"
     inkscape:window-width="3840"
     inkscape:window-height="2096"
     inkscape:window-x="-8"
     inkscape:window-y="-8"
     inkscape:window-maximized="1"
     inkscape:current-layer="svg4" />
  <path
     id="path1012"
     style="stroke-width:1.05728"
     d="M 262.1543 46.794922 A 252.05712 252.05535 86.982818 0 0 0.953125 289.36328 A 252.05712 252.05535 86.982818 0 0 240.10938 550.10156 L 240.10938 609.85547 A 183.68198 183.70264 1.8177606 0 0 72.615234 784.91797 A 183.68198 183.70264 1.8177606 0 0 249.38086 975.28711 A 183.68198 183.70264 1.8177606 0 0 439.72656 798.5 A 183.68198 183.70264 1.8177606 0 0 274.33203 609 L 274.33203 549.72266 A 252.05712 252.05535 86.982818 0 0 503.8125 320.72461 L 557.29492 320.72461 A 73.700077 73.692178 2.6641014 0 0 625.71289 376.32812 A 73.700077 73.692178 2.6641014 0 0 699.78906 320.72461 L 741.92188 320.72461 A 128.10896 128.12291 1.5843989 0 0 858.68359 431.43555 L 858.68359 476.03711 A 71.875553 71.27787 89.965878 0 0 805.82812 542.65039 A 71.875553 71.27787 89.965878 0 0 858.68359 614.01367 L 858.68359 675.24414 A 117.29155 115.48276 89.981652 0 0 762.1875 785.90039 A 117.29155 115.48276 89.981652 0 0 873.32422 907.44922 A 117.29155 115.48276 89.981652 0 0 992.99609 794.57422 A 117.29155 115.48276 89.981652 0 0 892.90625 674.92578 L 892.90625 615.31055 A 71.875553 71.27787 89.965878 0 0 948.28711 547.96484 A 71.875553 71.27787 89.965878 0 0 892.90625 476.09961 L 892.90625 429.40234 A 128.10896 128.12291 1.5843989 0 0 995.95898 308.90234 A 128.10896 128.12291 1.5843989 0 0 872.67383 176.13086 A 128.10896 128.12291 1.5843989 0 0 742.10742 286.50195 L 699.80469 286.50195 A 73.700077 73.692178 2.6641014 0 0 631.16016 229.04492 A 73.700077 73.692178 2.6641014 0 0 557.43359 286.50195 L 503.40039 286.50195 A 252.05712 252.05535 86.982818 0 0 262.1543 46.794922 z " />
</svg>
