<?xml version="1.0" encoding="UTF-8" standalone="no"?>
<svg
   viewBox="0 0 1000 1000"
   preserveAspectRatio="xMidYMid meet"
   version="1.1"
   id="svg4"
   sodipodi:docname="system-orbits.svg"
   inkscape:version="1.1.1 (3bf5ae0d25, 2021-09-20)"
   xmlns:inkscape="http://www.inkscape.org/namespaces/inkscape"
   xmlns:sodipodi="http://sodipodi.sourceforge.net/DTD/sodipodi-0.dtd"
   xmlns="http://www.w3.org/2000/svg"
   xmlns:svg="http://www.w3.org/2000/svg">
  <defs
     id="defs8" />
  <sodipodi:namedview
     id="namedview6"
     pagecolor="#ffffff"
     bordercolor="#666666"
     borderopacity="1.0"
     inkscape:pageshadow="2"
     inkscape:pageopacity="0.0"
     inkscape:pagecheckerboard="0"
     showgrid="false"
     inkscape:zoom="0.873"
     inkscape:cx="500"
     inkscape:cy="500"
     inkscape:window-width="2055"
     inkscape:window-height="1581"
     inkscape:window-x="701"
     inkscape:window-y="259"
     inkscape:window-maximized="0"
     inkscape:current-layer="svg4" />
  <path
     d="M 499.19141 8.28125 C 369.1606 8.2812511 244.43981 59.943007 152.49414 151.88867 C 60.548475 243.83434 8.8867195 368.55513 8.8867188 498.58594 C 8.8867214 628.61675 60.548475 753.33754 152.49414 845.2832 C 244.43981 937.22887 369.1606 988.89063 499.19141 988.89062 C 588.52291 988.89063 675.34609 964.50438 750.75977 919.42773 A 107.95286 104.07729 2.1196031 0 0 818.52148 945.92969 A 107.95286 104.07729 2.1196031 0 0 930.24805 845.91602 A 107.95286 104.07729 2.1196031 0 0 904.29297 774.625 C 959.35712 693.80983 989.49414 597.76823 989.49414 498.58594 C 989.49414 368.55513 937.83434 243.83434 845.88867 151.88867 C 753.943 59.943007 629.22222 8.28125 499.19141 8.28125 z M 499.19141 38.28125 C 621.27726 38.28125 738.34805 86.773834 824.67578 173.10156 C 911.00351 259.42929 959.49414 376.50009 959.49414 498.58594 C 959.49414 590.62307 931.90775 679.79363 881.35547 755.10742 A 107.95286 104.07729 2.1196031 0 0 826.2168 737.91797 A 107.95286 104.07729 2.1196031 0 0 714.49023 837.93359 A 107.95286 104.07729 2.1196031 0 0 730.65039 896.34766 C 660.94928 936.90478 581.22712 958.89063 499.19141 958.89062 C 377.10556 958.89062 260.03476 910.39804 173.70703 824.07031 C 87.379301 737.74258 38.886721 620.67178 38.886719 498.58594 C 38.88672 376.50009 87.379301 259.42929 173.70703 173.10156 C 260.03476 86.773833 377.10556 38.281251 499.19141 38.28125 z M 656.46484 132.02344 A 83.811636 80.802756 2.1196031 0 0 585.61914 165.33203 C 557.59097 158.48302 528.58616 154.97239 499.21094 155.08008 C 406.03892 155.42166 316.79854 191.97502 251.15234 256.6875 C 185.50614 321.39999 148.8083 408.99227 149.14258 500.16797 C 149.26169 532.65672 154.16438 564.63 163.30859 595.26953 A 65.519713 63.167524 2.1196031 0 0 134.69141 644.97461 A 65.519713 63.167524 2.1196031 0 0 197.83203 710.52148 A 65.519713 63.167524 2.1196031 0 0 221.10547 707.28906 C 230.83315 719.77742 241.41778 731.70591 252.93555 742.89453 C 319.05448 807.12395 408.55845 843.02127 501.73047 842.67969 C 594.90249 842.33811 684.14092 805.78475 749.78711 741.07227 C 815.43331 676.35977 852.13311 588.7675 851.79883 497.5918 C 851.46455 406.4161 814.1248 319.09466 748.00586 254.86523 C 742.89839 249.90372 737.60598 245.17249 732.22852 240.55273 A 83.811636 80.802756 2.1196031 0 0 737.23242 215.86914 A 83.811636 80.802756 2.1196031 0 0 656.46484 132.02344 z M 499.31836 184.75586 C 524.13082 184.6649 548.63415 187.46658 572.42773 192.82031 A 83.811636 80.802756 2.1196031 0 0 569.72266 209.67188 A 83.811636 80.802756 2.1196031 0 0 650.49023 293.51758 A 83.811636 80.802756 2.1196031 0 0 716.32422 266.39258 C 719.81882 269.49975 723.27337 272.65861 726.63867 275.92773 C 787.0585 334.62091 821.16914 414.3863 821.47461 497.70312 C 821.78007 581.01995 788.25541 661.03532 728.26758 720.16992 C 668.27974 779.30454 586.76412 812.69372 501.62305 813.00586 C 416.48197 813.31799 334.72062 780.52717 274.30078 721.83398 C 264.49632 712.30971 255.46299 702.17836 247.07617 691.61914 A 65.519713 63.167524 2.1196031 0 0 265.64258 649.81836 A 65.519713 63.167524 2.1196031 0 0 202.50195 584.27344 A 65.519713 63.167524 2.1196031 0 0 191.78906 584.80469 C 183.84482 557.46353 179.57287 528.98763 179.4668 500.05664 C 179.16133 416.73981 212.68599 336.7264 272.67383 277.5918 C 332.66167 218.45719 414.17728 185.06799 499.31836 184.75586 z M 498.37891 261.19141 A 15.001492 15.001508 45.000014 0 0 487.8418 271.08398 L 434.88086 434.13086 L 273.28711 487.5332 A 15.001492 15.001508 45.000014 0 0 273.28711 516.01758 L 434.88086 569.42188 L 487.8418 732.46875 A 15.001492 15.001508 45.000014 0 0 502.10742 742.83008 A 15.001492 15.001508 45.000014 0 0 516.375 732.46875 L 569.33398 569.42188 L 730.92969 516.01758 A 15.001492 15.001508 45.000014 0 0 730.92969 487.5332 L 569.33398 434.13086 L 516.375 271.08398 A 15.001492 15.001508 45.000014 0 0 498.37891 261.19141 z M 502.10938 324.27344 L 543.14844 450.62305 A 15.001492 15.001508 45.000014 0 0 552.70898 460.23047 L 678.41992 501.77539 L 552.70898 543.32031 A 15.001492 15.001508 45.000014 0 0 543.14844 552.92969 L 502.10938 679.27734 L 461.06836 552.92969 A 15.001492 15.001508 45.000014 0 0 451.50781 543.32031 L 325.79492 501.77539 L 451.50781 460.23047 A 15.001492 15.001508 45.000014 0 0 461.06836 450.62305 L 502.10938 324.27344 z "
     id="path2" />
  <circle
     style="fill:#000000;stroke-width:1.09036;paint-order:fill markers stroke"
     id="path847"
     cx="222.79495"
     cy="661.51208"
     r="103.66553" />
</svg>
