<?xml version="1.0" encoding="UTF-8" standalone="no"?>
<svg
   viewBox="0 0 1000 1000"
   preserveAspectRatio="xMidYMid meet"
   version="1.1"
   id="svg4"
   sodipodi:docname="system-bodies.svg"
   inkscape:version="1.1.1 (3bf5ae0d25, 2021-09-20)"
   xmlns:inkscape="http://www.inkscape.org/namespaces/inkscape"
   xmlns:sodipodi="http://sodipodi.sourceforge.net/DTD/sodipodi-0.dtd"
   xmlns="http://www.w3.org/2000/svg"
   xmlns:svg="http://www.w3.org/2000/svg">
  <defs
     id="defs8" />
  <sodipodi:namedview
     id="namedview6"
     pagecolor="#ffffff"
     bordercolor="#666666"
     borderopacity="1.0"
     inkscape:pageshadow="2"
     inkscape:pageopacity="0.0"
     inkscape:pagecheckerboard="0"
     showgrid="false"
     inkscape:zoom="0.873"
     inkscape:cx="499.42726"
     inkscape:cy="501.14548"
     inkscape:window-width="1510"
     inkscape:window-height="1095"
     inkscape:window-x="1143"
     inkscape:window-y="383"
     inkscape:window-maximized="0"
     inkscape:current-layer="svg4" />
  <path
     id="path2035"
     style="stroke-width:1.05728"
     d="M 262.1543,46.794922 C 123.04241,41.648542 6.0983486,150.25038 0.953125,289.36328 -3.9670304,427.02482 102.53692,543.13994 240.10938,550.10156 v 59.75391 C 148.25876,617.89655 76.601205,692.79202 72.615234,784.91797 68.863756,886.30548 148.00471,971.53697 249.38086,975.28711 350.7558,979.0364 435.97625,899.88631 439.72656,798.5 443.26329,701.56945 370.84075,618.59167 274.33203,609 V 549.72266 C 396.27963,539.23305 493.06551,442.65064 503.8125,320.72461 h 53.48242 c 7.98171,31.63455 35.81665,54.2561 68.41797,55.60351 34.7111,1.23445 65.57279,-21.93114 74.07617,-55.60351 h 42.13282 c 7.94738,59.36135 55.94713,105.1849 115.4746,110.55078 v 45.22266 c -3.966,1.14934 -7.74734,2.65042 -11.37304,4.42187 a 80.183273,76.17411 0 0 0 -52.20899,71.18164 80.183273,76.17411 0 0 0 63.58203,74.32617 v 50.98243 a 56.128292,53.264603 0 0 0 -40.38086,51.12109 56.128292,53.264603 0 0 0 56.12696,53.26563 56.128292,53.264603 0 0 0 56.1289,-53.26563 56.128292,53.264603 0 0 0 -36.36523,-49.70898 v -52.8711 a 80.183273,76.17411 0 0 0 61.27539,-73.84961 80.183273,76.17411 0 0 0 -27.87695,-57.70312 c -9.0712,-8.78826 -20.42872,-15.31086 -33.39844,-18.29883 v -46.69727 c 58.06212,-11.53122 100.66416,-61.34597 103.05273,-120.5 2.61584,-70.71203 -52.58082,-130.15587 -123.28515,-132.77148 -65.29206,-1.87907 -121.54289,45.67118 -130.56641,110.37109 h -42.30273 c -7.29494,-32.44523 -35.41858,-55.98535 -68.64453,-57.45703 -35.13304,-0.87386 -65.99521,23.17783 -73.72657,57.45703 h -54.0332 C 497.12276,156.21329 392.4796,52.237712 262.1543,46.794922 Z" />
</svg>
