<?xml version="1.0" encoding="UTF-8"?>
<svg viewBox="0 0 1000 1000" preserveAspectRatio="xMidYMid meet">
  <path d="m 730.34801,305.79443 v 13.14109 h -286.9097 v -13.14109 z m 114.98615,118.42604 h 13.14109 v 286.90969 h -13.14109 z m -588.74768,117.626 h 13.7457 v 106.52922 h -13.7457 z M 499.17957,316.6673 A 238.40055,238.39887 86.982818 0 1 252.13098,546.09201 238.40055,238.39887 86.982818 0 1 22.707698,299.0415 238.40055,238.39887 86.982818 0 1 269.75629,69.616788 238.40055,238.39887 86.982818 0 1 499.17957,316.6673 Z m 464.62482,0.85462 A 121.16795,121.18115 1.5843989 0 1 838.23968,434.1409 121.16795,121.18115 1.5843989 0 1 721.63413,308.56324 121.16795,121.18115 1.5843989 0 1 847.19884,191.94424 121.16795,121.18115 1.5843989 0 1 963.80439,317.52192 Z m -277.95101,-3.30141 a 69.706971,69.6995 2.6641014 0 1 -72.23577,67.07501 69.706971,69.6995 2.6641014 0 1 -67.08288,-72.22873 69.706971,69.6995 2.6641014 0 1 72.23577,-67.07501 69.706971,69.6995 2.6641014 0 1 67.08288,72.22873 z m 232.86128,229.41207 a 67.981301,67.416 89.965878 0 1 -69.8617,65.42148 67.981301,67.416 89.965878 0 1 -64.87817,-70.44815 67.981301,67.416 89.965878 0 1 69.8617,-65.42149 67.981301,67.416 89.965878 0 1 64.87817,70.44816 z m 42.28677,233.24779 A 110.93663,109.22585 89.981652 0 1 847.81311,883.63973 110.93663,109.22585 89.981652 0 1 742.69899,768.6775 110.93663,109.22585 89.981652 0 1 855.88732,661.91815 110.93663,109.22585 89.981652 0 1 961.00143,776.88037 Z m -523.29221,3.71265 A 173.73,173.74954 1.8177606 0 1 257.67516,947.80153 173.73,173.74954 1.8177606 0 1 90.486723,767.74846 173.73,173.74954 1.8177606 0 1 270.52076,600.53995 173.73,173.74954 1.8177606 0 1 437.70922,780.59302 Z" />
</svg>
