<?xml version="1.0" encoding="UTF-8" standalone="no"?>
<svg
   viewBox="0 0 1000 1000"
   preserveAspectRatio="xMidYMid meet"
   version="1.1"
   id="svg4"
   sodipodi:docname="system-authority.svg"
   inkscape:version="1.1.1 (3bf5ae0d25, 2021-09-20)"
   xmlns:inkscape="http://www.inkscape.org/namespaces/inkscape"
   xmlns:sodipodi="http://sodipodi.sourceforge.net/DTD/sodipodi-0.dtd"
   xmlns="http://www.w3.org/2000/svg"
   xmlns:svg="http://www.w3.org/2000/svg">
  <defs
     id="defs8" />
  <sodipodi:namedview
     id="namedview6"
     pagecolor="#ffffff"
     bordercolor="#666666"
     borderopacity="1.0"
     inkscape:pageshadow="2"
     inkscape:pageopacity="0.0"
     inkscape:pagecheckerboard="0"
     showgrid="false"
     inkscape:zoom="0.4365"
     inkscape:cx="1273.7686"
     inkscape:cy="1002.291"
     inkscape:window-width="1969"
     inkscape:window-height="1310"
     inkscape:window-x="1676"
     inkscape:window-y="668"
     inkscape:window-maximized="0"
     inkscape:current-layer="svg4"
     showguides="false" />
  <path
     id="path4446"
     style="color:#000000;fill:#000000;fill-rule:evenodd;stroke-width:1.10891;-inkscape-stroke:none;paint-order:fill markers stroke"
     d="M 503.24805,48.818359 C 384.8681,48.66613 267.37427,56.917164 178.89258,74.027344 V 395.76758 h -74.19336 l 2.39844,110.8418 c 8.08347,373.69776 371.73411,454.21918 397.71289,457.13671 -0.006,0.0444 0.002,0.26366 -0.004,0.30274 0.11575,0.006 0.889,-0.13701 1.09766,-0.15039 0.20854,0.0134 0.98194,0.15665 1.09765,0.15039 -0.006,-0.0392 0.002,-0.25846 -0.004,-0.30274 25.98392,-2.91875 389.62752,-83.44191 397.71093,-457.13671 l 2.39649,-110.8418 H 832.91602 V 74.027344 C 740.89361,57.52608 621.628,48.970588 503.24805,48.818359 Z M 508.50977,81 c 106.99844,-0.445391 213.12824,8.535021 293.00976,28.27734 l 0.70313,321.74024 h 73.48828 L 873.3125,503.6582 C 851.71334,656.39644 830.64216,829.44798 506.20508,932.61328 157.57903,812.61536 161.3899,639.91657 138.49414,503.6582 l -2.39648,-72.64062 74.1914,-2.14453 V 109.27734 C 293.64454,91.316583 401.51132,81.445391 508.50977,81 Z m -2.46485,45.69141 c -86.74895,-0.13327 -172.75296,6.21712 -253.8789,19.22265 v 31.94922 8.91797 31.94922 c 169.57306,-35.16501 349.24527,-38.69365 511.93554,-0.36524 v -31.94921 -8.42774 -31.94922 c -83.894,-12.65904 -171.32035,-19.21441 -258.05664,-19.34765 z m 0,113.11914 c -86.74895,-0.13327 -172.75296,6.21908 -253.8789,19.22461 v 31.94922 8.91601 31.95117 c 169.57306,-35.16501 349.24527,-38.69364 511.93554,-0.36523 v -31.95117 -8.42578 -31.94922 c -83.894,-12.65904 -171.32035,-19.21637 -258.05664,-19.34961 z m 1.58594,159.47851 A 204.22923,199.14529 0 0 0 303.40039,598.43359 204.22923,199.14529 0 0 0 507.63086,797.57812 204.22923,199.14529 0 0 0 711.85938,598.43359 204.22923,199.14529 0 0 0 507.63086,399.28906 Z" />
</svg>
