<?xml version="1.0" encoding="UTF-8" standalone="no"?>
<svg
   viewBox="0 0 1000 1000"
   preserveAspectRatio="xMidYMid meet"
   version="1.1"
   id="svg4"
   sodipodi:docname="system-orbits.svg"
   inkscape:version="1.1.1 (3bf5ae0d25, 2021-09-20)"
   xmlns:inkscape="http://www.inkscape.org/namespaces/inkscape"
   xmlns:sodipodi="http://sodipodi.sourceforge.net/DTD/sodipodi-0.dtd"
   xmlns="http://www.w3.org/2000/svg"
   xmlns:svg="http://www.w3.org/2000/svg">
  <defs
     id="defs8" />
  <sodipodi:namedview
     id="namedview6"
     pagecolor="#ffffff"
     bordercolor="#666666"
     borderopacity="1.0"
     inkscape:pageshadow="2"
     inkscape:pageopacity="0.0"
     inkscape:pagecheckerboard="0"
     showgrid="false"
     inkscape:zoom="0.873"
     inkscape:cx="482.24513"
     inkscape:cy="500"
     inkscape:window-width="2055"
     inkscape:window-height="1581"
     inkscape:window-x="1421"
     inkscape:window-y="351"
     inkscape:window-maximized="0"
     inkscape:current-layer="svg4" />
  <path
     id="path2"
     style="stroke-width:0.560283"
     d="m 499.42578,7.328125 c -130.73874,3e-7 -256.13932,51.85573 -348.5918,144.156255 C 58.381509,243.7849 6.431642,368.99172 6.4316406,499.5332 c 0,130.54149 51.9498684,255.74831 144.4023394,348.04883 92.45248,92.30053 217.85306,144.15625 348.5918,144.15625 95.92811,0 188.92418,-28.01591 268.19727,-79.34375 a 84.765175,84.765175 0 0 0 57.11914,22.3125 84.765175,84.765175 0 0 0 84.76562,-84.76367 84.765175,84.765175 0 0 0 -18.01758,-52.20703 C 956.52701,712.49998 992.41797,607.88758 992.41797,499.5332 992.41797,368.99172 940.4681,243.7849 848.01562,151.48438 755.56315,59.183855 630.16452,7.3281277 499.42578,7.328125 Z m 0,27 c 123.60003,3e-6 242.12149,49.015119 329.51367,136.263675 87.39219,87.24855 136.47852,205.56215 136.47852,328.9414 0,101.54091 -33.31337,199.60732 -93.79883,279.79297 a 84.765175,84.765175 0 0 0 -46.87695,-14.14844 84.765175,84.765175 0 0 0 -84.76563,84.76563 84.765175,84.765175 0 0 0 10.88282,41.11328 c -74.47706,47.66519 -161.5802,73.68164 -251.4336,73.68164 -123.60003,0 -242.12344,-49.01512 -329.51562,-136.26367 C 82.517965,741.22606 33.431641,622.91245 33.431641,499.5332 33.431642,376.15395 82.517965,257.84035 169.91016,170.5918 257.30234,83.343244 375.82575,34.328125 499.42578,34.328125 Z m -6.88281,108.005855 c -72.10005,1e-5 -139.25973,21.16674 -195.74414,57.48633 a 84.765175,84.765175 0 0 0 -47.65821,-14.82617 84.765175,84.765175 0 0 0 -84.76562,84.76563 84.765175,84.765175 0 0 0 16.52148,49.91992 c -32.18136,54.03596 -50.72851,117.0915 -50.72851,184.45703 0,199.66463 162.41894,361.80273 362.375,361.80273 199.95606,0 362.37499,-162.1381 362.375,-361.80273 0,-199.66464 -162.41894,-361.80274 -362.375,-361.80274 z m 0,27.91016 c 184.89724,0 334.46484,149.33639 334.46484,333.89258 0,184.55619 -149.56761,333.89258 -334.46484,333.89258 -184.89723,-1e-5 -334.46483,-149.3364 -334.46485,-333.89258 10e-6,-59.84075 15.80083,-115.92939 43.35547,-164.47461 a 84.765175,84.765175 0 0 0 47.70703,14.86328 84.765175,84.765175 0 0 0 84.76563,-84.76562 84.765175,84.765175 0 0 0 -16.64063,-50.08204 c 50.95547,-31.33078 110.96682,-49.43359 175.27735,-49.43359 z m 5.74023,70.99219 -9.88867,29.33594 -59.24609,175.77734 -211.20508,67.26562 211.20508,67.26368 69.13476,205.11328 69.13086,-205.11328 211.20703,-67.26368 -211.20703,-67.26562 z m 0,65.02929 52.6543,156.22657 160.51953,51.12304 L 550.9375,564.73633 498.2832,720.96289 445.625,564.73633 285.10742,513.61523 445.625,462.49219 Z" />
</svg>
