<?xml version="1.0" encoding="UTF-8" standalone="no"?>
<svg
   viewBox="0 0 1000 1000"
   preserveAspectRatio="xMidYMid meet"
   version="1.1"
   id="svg4"
   sodipodi:docname="system-orbits.svg"
   inkscape:version="1.1.1 (3bf5ae0d25, 2021-09-20)"
   xmlns:inkscape="http://www.inkscape.org/namespaces/inkscape"
   xmlns:sodipodi="http://sodipodi.sourceforge.net/DTD/sodipodi-0.dtd"
   xmlns="http://www.w3.org/2000/svg"
   xmlns:svg="http://www.w3.org/2000/svg">
  <defs
     id="defs8" />
  <sodipodi:namedview
     id="namedview6"
     pagecolor="#ffffff"
     bordercolor="#666666"
     borderopacity="1.0"
     inkscape:pageshadow="2"
     inkscape:pageopacity="0.0"
     inkscape:pagecheckerboard="0"
     showgrid="false"
     inkscape:zoom="0.873"
     inkscape:cx="481.09966"
     inkscape:cy="500"
     inkscape:window-width="2055"
     inkscape:window-height="1581"
     inkscape:window-x="1046"
     inkscape:window-y="375"
     inkscape:window-maximized="0"
     inkscape:current-layer="svg4"
     showguides="false" />
  <path
     id="path1629"
     style="color:#000000;fill:#000000;-inkscape-stroke:none;paint-order:fill markers stroke"
     d="m 502.86328,19.673828 c -126.01503,0 -246.89001,50.067744 -335.99609,139.173832 C 77.761105,247.95374 27.691405,368.83068 27.691406,494.8457 c 0,47.96265 7.297022,95.16473 21.195313,140.16992 a 76.140038,76.100662 0 0 0 -36.535157,64.86915 76.140038,76.100662 0 0 0 76.140626,76.10156 76.140038,76.100662 0 0 0 27.576172,-5.36524 c 15.17742,21.28884 32.06977,41.49165 50.79883,60.22071 89.10608,89.10608 209.98106,139.17578 335.99609,139.17578 126.01503,0 246.89197,-50.0697 335.99805,-139.17578 89.10608,-89.10608 139.17383,-209.98107 139.17383,-335.9961 0,-41.13078 -5.42855,-81.68498 -15.71289,-120.79492 a 76.140038,76.100662 0 0 0 26.76171,-57.90039 76.140038,76.100662 0 0 0 -76.14062,-76.09961 76.140038,76.100662 0 0 0 -8.76563,0.625 C 885.58853,211.32122 863.81692,183.80325 838.86133,158.84766 749.75525,69.741572 628.87831,19.673828 502.86328,19.673828 Z m 0,42.957031 c 114.63835,0 224.55955,45.532201 305.6211,126.593751 21.04386,21.04386 39.63491,44.06672 55.71484,68.57812 a 76.140038,76.100662 0 0 0 -27.39453,58.34766 76.140038,76.100662 0 0 0 76.13867,76.10156 76.140038,76.100662 0 0 0 9.58008,-0.6289 c 8.24249,33.50844 12.55469,68.13856 12.55468,103.22265 0,114.63835 -45.53219,224.55955 -126.59374,305.6211 -81.06156,81.06155 -190.98275,126.59179 -305.6211,126.59179 -114.63834,0 -224.55954,-45.53024 -305.62109,-126.59179 -17.43549,-17.43549 -33.11763,-36.27509 -47.16602,-56.14063 a 76.140038,76.100662 0 0 0 14.55664,-44.4414 76.140038,76.100662 0 0 0 -74.214841,-76.05274 C 77.475342,582.44917 70.650391,539.00902 70.650391,494.8457 70.65039,380.20736 116.18064,270.28616 197.24219,189.22461 278.30374,108.16306 388.22493,62.630859 502.86328,62.630859 Z m -7.44531,92.083981 c -74.0926,0 -142.69774,23.772 -198.75195,63.98243 a 76.140038,76.100662 0 0 0 -33.44532,-7.86719 76.140038,76.100662 0 0 0 -76.14062,76.10156 76.140038,76.100662 0 0 0 11.59765,40.24414 c -28.63999,49.97482 -45.10742,107.77763 -45.10742,169.38867 0,188.49303 153.35463,341.84766 341.84766,341.84766 112.94564,10e-6 213.22975,-55.09598 275.50976,-139.78516 a 76.140038,76.100662 0 0 0 8.5586,0.61328 76.140038,76.100662 0 0 0 76.14062,-76.10156 76.140038,76.100662 0 0 0 -25.54687,-56.78125 c 4.69504,-22.54075 7.18554,-45.87974 7.18554,-69.79297 10e-6,-188.49304 -153.35461,-341.84961 -341.84765,-341.84961 z m 0,51.37891 c 160.72671,-1e-5 290.47071,129.74399 290.4707,290.4707 0,17.27949 -1.58643,34.17076 -4.46289,50.61133 a 76.140038,76.100662 0 0 0 -1.93945,-0.13867 76.140038,76.100662 0 0 0 -76.13867,76.10156 76.140038,76.100662 0 0 0 21.04687,52.28711 c -53.11021,67.95852 -135.80596,111.60938 -228.97656,111.60938 -160.72671,0 -290.4707,-129.744 -290.4707,-290.47071 -1e-5,-49.79172 12.47444,-96.5953 34.4414,-137.5039 a 76.140038,76.100662 0 0 0 23.83203,3.9707 76.140038,76.100662 0 0 0 76.14063,-76.09961 76.140038,76.100662 0 0 0 -6.70899,-31.15039 c 46.39551,-31.37739 102.39333,-49.6875 162.76563,-49.6875 z m 1.4375,114.34766 A 179.26691,179.17419 0 0 0 317.58789,499.61719 179.26691,179.17419 0 0 0 496.85547,678.79102 179.26691,179.17419 0 0 0 676.12109,499.61719 179.26691,179.17419 0 0 0 496.85547,320.44141 Z" />
</svg>
