<?xml version="1.0" encoding="UTF-8" standalone="no"?>
<svg
   viewBox="0 0 1000 1000"
   preserveAspectRatio="xMidYMid meet"
   version="1.1"
   id="svg4"
   sodipodi:docname="table-index.svg"
   inkscape:version="1.1.1 (3bf5ae0d25, 2021-09-20)"
   xmlns:inkscape="http://www.inkscape.org/namespaces/inkscape"
   xmlns:sodipodi="http://sodipodi.sourceforge.net/DTD/sodipodi-0.dtd"
   xmlns="http://www.w3.org/2000/svg"
   xmlns:svg="http://www.w3.org/2000/svg">
  <defs
     id="defs8" />
  <sodipodi:namedview
     id="namedview6"
     pagecolor="#ffffff"
     bordercolor="#666666"
     borderopacity="1.0"
     inkscape:pageshadow="2"
     inkscape:pageopacity="0.0"
     inkscape:pagecheckerboard="0"
     showgrid="false"
     inkscape:zoom="0.873"
     inkscape:cx="500"
     inkscape:cy="500.57274"
     inkscape:window-width="1941"
     inkscape:window-height="1390"
     inkscape:window-x="969"
     inkscape:window-y="379"
     inkscape:window-maximized="0"
     inkscape:current-layer="svg4" />
  <path
     id="path989"
     style="stroke-width:1.05121;paint-order:fill markers stroke"
     d="m 0,0 v 100 100 100 100 100 100 100 100 100 100 h 100 100 100 600 100 V 900 100 0 H 100 Z M 100,200 H 200 V 300 H 100 Z m 200,0 H 900 V 300 H 300 Z M 100,400 H 200 V 500 H 100 Z m 200,0 H 900 V 500 H 300 Z M 100,600 H 200 V 700 H 100 Z m 200,0 H 900 V 700 H 300 Z M 100,800 H 200 V 900 H 100 Z m 200,0 H 900 V 900 H 300 Z" />
</svg>
