<?xml version="1.0" encoding="UTF-8"?>
<svg viewBox="0 0 1000 1000" preserveAspectRatio="xMidYMid meet">
  <path d="M 18.328125,16.048828 V 60.496094 210.88477 982.07812 h 77.697266 864.124999 23.8125 V 210.88477 60.496094 16.048828 Z M 96.025391,210.88477 h 73.960939 v 72.57226 H 96.025391 Z m 151.658199,0 h 658.58203 v 72.57226 H 247.68359 Z M 96.025391,361.15625 h 73.960939 v 77.69922 H 96.025391 Z m 151.658199,0 h 658.58203 v 77.69922 H 247.68359 Z M 96.025391,516.55273 h 73.960939 v 77.69922 H 96.025391 Z m 151.658199,0 h 658.58203 v 77.69922 H 247.68359 Z M 96.025391,671.95117 h 73.960939 v 77.69727 H 96.025391 Z m 151.658199,0 h 658.58203 v 77.69727 H 247.68359 Z M 96.025391,827.34766 h 73.960939 v 77.03125 H 96.025391 Z m 151.658199,0 h 658.58203 v 77.03125 H 247.68359 Z" />
</svg>
