<?xml version="1.0" encoding="UTF-8" standalone="no"?>
<svg
   viewBox="0 0 1000 1000"
   preserveAspectRatio="xMidYMid meet"
   version="1.1"
   id="svg18"
   sodipodi:docname="wrench.svg"
   inkscape:version="1.1.1 (3bf5ae0d25, 2021-09-20)"
   xmlns:inkscape="http://www.inkscape.org/namespaces/inkscape"
   xmlns:sodipodi="http://sodipodi.sourceforge.net/DTD/sodipodi-0.dtd"
   xmlns="http://www.w3.org/2000/svg"
   xmlns:svg="http://www.w3.org/2000/svg">
  <defs
     id="defs22" />
  <sodipodi:namedview
     id="namedview20"
     pagecolor="#ffffff"
     bordercolor="#666666"
     borderopacity="1.0"
     inkscape:pageshadow="2"
     inkscape:pageopacity="0.0"
     inkscape:pagecheckerboard="0"
     showgrid="false"
     inkscape:zoom="0.4365"
     inkscape:cx="553.2646"
     inkscape:cy="674.68499"
     inkscape:window-width="1922"
     inkscape:window-height="1425"
     inkscape:window-x="1458"
     inkscape:window-y="559"
     inkscape:window-maximized="0"
     inkscape:current-layer="rect5183-3" />
  <g
     transform="matrix(1.443645,0,0,1.4665896,-13.613043,68.82957)"
     id="g6" />
  <g
     transform="matrix(1.443645,0,0,1.4665896,-13.613043,68.82957)"
     id="g10" />
  <g
     transform="matrix(1.443645,0,0,1.4665896,-13.613043,68.82957)"
     id="g16">
    <g
       id="rect5183-3">
      <path
         id="path8675"
         style="color:#000000;fill:#000000;fill-rule:evenodd;stroke-width:58.6825;-inkscape-stroke:none;paint-order:fill markers stroke"
         d="m 656.37727,19.874573 a 134.32581,132.22431 9.731433e-5 0 0 -131.96876,-36.621447 134.32581,132.22431 9.731433e-5 0 0 -94.98332,161.943314 134.32581,132.22431 9.731433e-5 0 0 3.57645,10.54518 L 216.7395,368.62037 A 134.32581,132.22431 9.7319837e-5 0 0 115.45457,355.49895 134.32581,132.22431 9.7319837e-5 0 0 21.184496,446.52627 L 150.40941,412.44225 c 18.75068,17.75119 37.50312,35.50166 56.25372,53.25418 -7.22173,24.60364 -14.44333,49.20838 -21.66537,73.81006 L 53.018626,574.31707 a 134.32581,132.22431 9.7319837e-5 0 0 131.968764,36.61943 134.32581,132.22431 9.7319837e-5 0 0 94.9833,-161.94128 134.32581,132.22431 9.7319837e-5 0 0 -0.51493,-1.51652 l 221.0896,-217.63067 a 134.32581,132.22431 9.731433e-5 0 0 93.39491,8.84368 134.32581,132.22431 9.731433e-5 0 0 94.27009,-91.02733 L 558.98544,181.7484 c -18.75067,-17.75118 -37.50208,-35.50269 -56.25267,-53.2552 7.22172,-24.60364 14.44331,-49.206341 21.66535,-73.808013 z" />
    </g>
    <g
       id="path866-7-2"
       transform="translate(0.79306581,22.649556)" />
  </g>
</svg>
